M48
; DRILL file {KiCad 9.0.1} date 2025-04-20T22:18:05+0200
; FORMAT={-:-/ absolute / inch / decimal}
; #@! TF.CreationDate,2025-04-20T22:18:05+02:00
; #@! TF.GenerationSoftware,Kicad,Pcbnew,9.0.1
; #@! TF.FileFunction,Plated,1,2,PTH
FMAT,2
INCH
; #@! TA.AperFunction,Plated,PTH,ViaDrill
T1C0.0157
; #@! TA.AperFunction,Plated,PTH,ViaDrill
T2C0.0197
; #@! TA.AperFunction,Plated,PTH,ComponentDrill
T3C0.0315
; #@! TA.AperFunction,Plated,PTH,ComponentDrill
T4C0.0394
; #@! TA.AperFunction,Plated,PTH,ComponentDrill
T5C0.0709
%
G90
G05
T1
X5.42Y-4.715
X5.4809Y-4.3274
X5.4809Y-4.4774
X5.705Y-5.06
X5.7809Y-4.6774
X5.855Y-4.9
X5.9459Y-3.9
X5.98Y-2.9
X5.9809Y-4.5774
X6.02Y-3.09
X6.08Y-3.75
X6.245Y-3.5
X6.26Y-2.9
X6.415Y-4.825
X6.43Y-4.193
X6.46Y-3.48
X6.535Y-3.085
X6.535Y-3.425
X6.615Y-3.48
X6.615Y-3.61
X6.6429Y-3.6932
X6.6429Y-3.8932
X6.653Y-3.2088
X6.685Y-4.05
X6.6988Y-3.0088
X6.7929Y-3.7932
X6.803Y-3.1588
X6.8488Y-3.5088
X6.885Y-2.935
X6.8899Y-4.2344
X6.8899Y-4.6344
X6.895Y-2.83
X6.8988Y-3.1088
X6.8988Y-3.2588
X6.9202Y-3.0102
X6.925Y-4.715
X6.98Y-3.69
X6.985Y-2.825
X7.02Y-2.695
X7.025Y-3.685
X7.0514Y-3.1063
X7.11Y-4.685
X7.117Y-3.379
X7.125Y-4.9
X7.1399Y-4.5344
X7.1399Y-4.6344
X7.175Y-2.78
X7.18Y-2.73
X7.1899Y-4.5344
X7.1988Y-2.9571
X7.1988Y-3.3088
X7.277Y-3.128
X7.2899Y-4.0344
X7.307Y-2.972
X7.3429Y-3.6932
X7.4399Y-4.7844
X7.4488Y-3.4088
X7.5399Y-4.3844
X7.67Y-4.63
X7.675Y-4.68
T2
X6.8899Y-4.3844
X7.275Y-3.7516
X7.2899Y-4.3701
X7.3558Y-4.6344
X7.575Y-3.725
T3
X5.285Y-4.8524
X5.32Y-3.4654
X5.32Y-3.6623
X5.3309Y-4.3298
X5.3309Y-4.6251
X5.35Y-2.55
X5.35Y-2.85
X5.385Y-4.8524
X5.485Y-4.8524
X5.65Y-2.55
X5.65Y-2.85
X5.76Y-3.4654
X5.76Y-3.6623
X6.1803Y-3.3088
X6.2697Y-4.0354
X6.4524Y-2.76
X6.4756Y-3.3088
X6.565Y-4.0354
X6.7476Y-2.76
X6.7512Y-3.3088
X6.753Y-3.4338
X7.044Y-4.2344
X7.0465Y-3.3088
X7.0482Y-3.4338
X7.144Y-4.2344
X7.244Y-4.2344
X7.294Y-4.9844
X7.294Y-5.1094
X7.594Y-4.9844
X7.594Y-5.1094
T4
X5.2Y-2.5504
X5.2Y-2.6504
X5.2Y-2.7504
X5.2Y-2.8504
X6.026Y-4.0522
X6.026Y-4.1522
X6.3929Y-3.7432
X6.3929Y-3.8432
X6.46Y-2.52
X6.56Y-2.52
X6.66Y-2.52
X6.76Y-2.52
X6.7802Y-3.63
X6.794Y-4.1092
X6.794Y-4.2092
X6.8802Y-3.63
X7.03Y-5.045
X7.13Y-5.045
X7.3802Y-4.01
X7.4018Y-3.062
X7.4018Y-3.1604
X7.4018Y-3.2588
X7.4802Y-4.01
X7.8Y-4.5094
X7.8Y-4.6094
X7.8Y-4.7094
X7.8Y-4.8094
T5
G00X7.6715Y-2.9872
M15
G01X7.6833Y-2.9872
M16
G05
G00X7.6715Y-3.3336
M15
G01X7.6833Y-3.3336
M16
G05
M30
