%TF.GenerationSoftware,KiCad,Pcbnew,9.0.1*%
%TF.CreationDate,2025-04-20T22:18:08+02:00*%
%TF.ProjectId,OP-D-Amp,4f502d44-2d41-46d7-902e-6b696361645f,2.0*%
%TF.SameCoordinates,Original*%
%TF.FileFunction,Soldermask,Top*%
%TF.FilePolarity,Negative*%
%FSLAX46Y46*%
G04 Gerber Fmt 4.6, Leading zero omitted, Abs format (unit mm)*
G04 Created by KiCad (PCBNEW 9.0.1) date 2025-04-20 22:18:08*
%MOMM*%
%LPD*%
G01*
G04 APERTURE LIST*
G04 Aperture macros list*
%AMRoundRect*
0 Rectangle with rounded corners*
0 $1 Rounding radius*
0 $2 $3 $4 $5 $6 $7 $8 $9 X,Y pos of 4 corners*
0 Add a 4 corners polygon primitive as box body*
4,1,4,$2,$3,$4,$5,$6,$7,$8,$9,$2,$3,0*
0 Add four circle primitives for the rounded corners*
1,1,$1+$1,$2,$3*
1,1,$1+$1,$4,$5*
1,1,$1+$1,$6,$7*
1,1,$1+$1,$8,$9*
0 Add four rect primitives between the rounded corners*
20,1,$1+$1,$2,$3,$4,$5,0*
20,1,$1+$1,$4,$5,$6,$7,0*
20,1,$1+$1,$6,$7,$8,$9,0*
20,1,$1+$1,$8,$9,$2,$3,0*%
G04 Aperture macros list end*
%ADD10RoundRect,0.162500X-0.825000X-0.162500X0.825000X-0.162500X0.825000X0.162500X-0.825000X0.162500X0*%
%ADD11R,1.600000X1.600000*%
%ADD12O,1.600000X1.600000*%
%ADD13RoundRect,0.150000X0.150000X-0.825000X0.150000X0.825000X-0.150000X0.825000X-0.150000X-0.825000X0*%
%ADD14R,1.700000X1.700000*%
%ADD15O,1.700000X1.700000*%
%ADD16RoundRect,0.250000X0.337500X0.475000X-0.337500X0.475000X-0.337500X-0.475000X0.337500X-0.475000X0*%
%ADD17RoundRect,0.250000X0.475000X-0.337500X0.475000X0.337500X-0.475000X0.337500X-0.475000X-0.337500X0*%
%ADD18C,1.600000*%
%ADD19RoundRect,0.250000X-0.450000X0.350000X-0.450000X-0.350000X0.450000X-0.350000X0.450000X0.350000X0*%
%ADD20RoundRect,0.250000X0.450000X-0.350000X0.450000X0.350000X-0.450000X0.350000X-0.450000X-0.350000X0*%
%ADD21RoundRect,0.250000X-0.350000X-0.450000X0.350000X-0.450000X0.350000X0.450000X-0.350000X0.450000X0*%
%ADD22R,1.800000X1.800000*%
%ADD23C,1.800000*%
%ADD24RoundRect,0.750000X-1.250000X-0.750000X1.250000X-0.750000X1.250000X0.750000X-1.250000X0.750000X0*%
%ADD25RoundRect,0.150000X-0.150000X0.825000X-0.150000X-0.825000X0.150000X-0.825000X0.150000X0.825000X0*%
%ADD26C,1.440000*%
%ADD27RoundRect,0.250000X-0.475000X0.337500X-0.475000X-0.337500X0.475000X-0.337500X0.475000X0.337500X0*%
%ADD28R,1.500000X1.500000*%
G04 APERTURE END LIST*
D10*
%TO.C,U3*%
X176456000Y-95712000D03*
X176456000Y-96982000D03*
X176456000Y-98252000D03*
X176456000Y-99522000D03*
X181531000Y-99522000D03*
X181531000Y-98252000D03*
X181531000Y-96982000D03*
X181531000Y-95712000D03*
%TD*%
D11*
%TO.C,D2*%
X192888500Y-129778000D03*
D12*
X185268500Y-129778000D03*
%TD*%
D13*
%TO.C,U1*%
X143024000Y-116202000D03*
X144294000Y-116202000D03*
X145564000Y-116202000D03*
X146834000Y-116202000D03*
X148104000Y-116202000D03*
X149374000Y-116202000D03*
X150644000Y-116202000D03*
X150644000Y-111252000D03*
X149374000Y-111252000D03*
X148104000Y-111252000D03*
X146834000Y-111252000D03*
X145564000Y-111252000D03*
X144294000Y-111252000D03*
X143024000Y-111252000D03*
%TD*%
D14*
%TO.C,J3*%
X132080000Y-64780000D03*
D15*
X132080000Y-67320000D03*
X132080000Y-69860000D03*
X132080000Y-72400000D03*
%TD*%
D14*
%TO.C,TP6*%
X174757000Y-92202000D03*
D15*
X172217000Y-92202000D03*
%TD*%
D16*
%TO.C,C10*%
X141521500Y-108647000D03*
X139446500Y-108647000D03*
%TD*%
D17*
%TO.C,C2*%
X139214000Y-117304500D03*
X139214000Y-115229500D03*
%TD*%
D16*
%TO.C,C11*%
X150622000Y-129540000D03*
X148547000Y-129540000D03*
%TD*%
D11*
%TO.C,C19*%
X135128000Y-88021349D03*
D18*
X135128000Y-93021349D03*
%TD*%
D19*
%TO.C,R7*%
X184733000Y-70598000D03*
X184733000Y-72598000D03*
%TD*%
D20*
%TO.C,R15*%
X183896000Y-114268000D03*
X183896000Y-112268000D03*
%TD*%
%TO.C,R14*%
X178816000Y-114268000D03*
X178816000Y-112268000D03*
%TD*%
D17*
%TO.C,C9*%
X181580000Y-80001500D03*
X181580000Y-77926500D03*
%TD*%
D20*
%TO.C,R10*%
X186508500Y-98887000D03*
X186508500Y-96887000D03*
%TD*%
%TO.C,R16*%
X193548000Y-121904000D03*
X193548000Y-119904000D03*
%TD*%
%TO.C,R11*%
X166188500Y-97347000D03*
X166188500Y-95347000D03*
%TD*%
D17*
%TO.C,C4*%
X154432000Y-76729500D03*
X154432000Y-74654500D03*
%TD*%
D19*
%TO.C,R9*%
X189738000Y-96774000D03*
X189738000Y-98774000D03*
%TD*%
D18*
%TO.C,C6*%
X171480000Y-84044000D03*
D12*
X178980000Y-84044000D03*
%TD*%
D16*
%TO.C,C14*%
X185216000Y-92537000D03*
X183141000Y-92537000D03*
%TD*%
D18*
%TO.C,C7*%
X179025000Y-87219000D03*
D12*
X171525000Y-87219000D03*
%TD*%
D14*
%TO.C,J1*%
X164084000Y-64008000D03*
D15*
X166624000Y-64008000D03*
X169164000Y-64008000D03*
X171704000Y-64008000D03*
%TD*%
D17*
%TO.C,C18*%
X175003500Y-116210500D03*
X175003500Y-114135500D03*
%TD*%
D11*
%TO.C,C20*%
X146304000Y-88021349D03*
D18*
X146304000Y-93021349D03*
%TD*%
%TO.C,C1*%
X135404000Y-117477000D03*
D12*
X135404000Y-109977000D03*
%TD*%
D18*
%TO.C,C8*%
X163890000Y-70104000D03*
D12*
X171390000Y-70104000D03*
%TD*%
D16*
%TO.C,C15*%
X172516000Y-100157000D03*
X170441000Y-100157000D03*
%TD*%
D20*
%TO.C,R17*%
X193548000Y-116316000D03*
X193548000Y-114316000D03*
%TD*%
D19*
%TO.C,R3*%
X156972000Y-66072000D03*
X156972000Y-68072000D03*
%TD*%
D14*
%TO.C,TP4*%
X189997000Y-101854000D03*
D15*
X187457000Y-101854000D03*
%TD*%
D17*
%TO.C,C17*%
X175006000Y-123195500D03*
X175006000Y-121120500D03*
%TD*%
D14*
%TO.C,TP7*%
X178562000Y-128143000D03*
D15*
X181102000Y-128143000D03*
%TD*%
D14*
%TO.C,TP3*%
X172568500Y-104373000D03*
D15*
X172568500Y-106913000D03*
%TD*%
D19*
%TO.C,R12*%
X170208500Y-95617000D03*
X170208500Y-97617000D03*
%TD*%
D11*
%TO.C,D4*%
X143510000Y-64770000D03*
D12*
X135890000Y-64770000D03*
%TD*%
D14*
%TO.C,TP1*%
X153060400Y-105465800D03*
D15*
X153060400Y-102925800D03*
%TD*%
D19*
%TO.C,R4*%
X156972000Y-74692000D03*
X156972000Y-76692000D03*
%TD*%
D21*
%TO.C,R6*%
X175500000Y-70074000D03*
X177500000Y-70074000D03*
%TD*%
D18*
%TO.C,C21*%
X159250000Y-102500000D03*
D12*
X166750000Y-102500000D03*
%TD*%
D16*
%TO.C,C13*%
X171187500Y-80234000D03*
X169112500Y-80234000D03*
%TD*%
D11*
%TO.C,D3*%
X135890000Y-72390000D03*
D12*
X143510000Y-72390000D03*
%TD*%
D18*
%TO.C,C5*%
X156980000Y-84044000D03*
D12*
X164480000Y-84044000D03*
%TD*%
D19*
%TO.C,R2*%
X153416000Y-70120000D03*
X153416000Y-72120000D03*
%TD*%
D22*
%TO.C,RV1*%
X188006000Y-77774000D03*
D23*
X188006000Y-80274000D03*
X188006000Y-82774000D03*
D24*
X195006000Y-75874000D03*
X195006000Y-84674000D03*
%TD*%
D20*
%TO.C,R13*%
X166188500Y-93267000D03*
X166188500Y-91267000D03*
%TD*%
D21*
%TO.C,R8*%
X180701000Y-67026000D03*
X182701000Y-67026000D03*
%TD*%
D17*
%TO.C,C16*%
X187706000Y-120655500D03*
X187706000Y-118580500D03*
%TD*%
D25*
%TO.C,U2*%
X153924000Y-121412000D03*
X152654000Y-121412000D03*
X151384000Y-121412000D03*
X150114000Y-121412000D03*
X148844000Y-121412000D03*
X147574000Y-121412000D03*
X146304000Y-121412000D03*
X145034000Y-121412000D03*
X145034000Y-126362000D03*
X146304000Y-126362000D03*
X147574000Y-126362000D03*
X148844000Y-126362000D03*
X150114000Y-126362000D03*
X151384000Y-126362000D03*
X152654000Y-126362000D03*
X153924000Y-126362000D03*
%TD*%
D10*
%TO.C,U5*%
X178818500Y-118983000D03*
X178818500Y-120253000D03*
X178818500Y-121523000D03*
X178818500Y-122793000D03*
X183893500Y-122793000D03*
X183893500Y-121523000D03*
X183893500Y-120253000D03*
X183893500Y-118983000D03*
%TD*%
D26*
%TO.C,Freq.1*%
X139319000Y-123252000D03*
X136779000Y-123252000D03*
X134239000Y-123252000D03*
%TD*%
D11*
%TO.C,D1*%
X192888500Y-126603000D03*
D12*
X185268500Y-126603000D03*
%TD*%
D14*
%TO.C,J2*%
X198120000Y-114538000D03*
D15*
X198120000Y-117078000D03*
X198120000Y-119618000D03*
X198120000Y-122158000D03*
%TD*%
D20*
%TO.C,R1*%
X153416000Y-68056000D03*
X153416000Y-66056000D03*
%TD*%
D27*
%TO.C,C3*%
X156972000Y-70082500D03*
X156972000Y-72157500D03*
%TD*%
D14*
%TO.C,TP5*%
X162378500Y-95077000D03*
D15*
X162378500Y-97617000D03*
%TD*%
D17*
%TO.C,C12*%
X181580000Y-74921500D03*
X181580000Y-72846500D03*
%TD*%
D19*
%TO.C,R5*%
X167715000Y-84044000D03*
X167715000Y-86044000D03*
%TD*%
%TO.C,R18*%
X182250000Y-86000000D03*
X182250000Y-88000000D03*
%TD*%
D10*
%TO.C,U4*%
X172797500Y-73249000D03*
X172797500Y-74519000D03*
X172797500Y-75789000D03*
X172797500Y-77059000D03*
X177872500Y-77059000D03*
X177872500Y-75789000D03*
X177872500Y-74519000D03*
X177872500Y-73249000D03*
%TD*%
D28*
%TO.C,SW1*%
X181458500Y-107553000D03*
D18*
X183998500Y-107553000D03*
X178918500Y-107553000D03*
%TD*%
M02*
