%TF.GenerationSoftware,KiCad,Pcbnew,9.0.1*%
%TF.CreationDate,2025-04-20T22:18:08+02:00*%
%TF.ProjectId,OP-D-Amp,4f502d44-2d41-46d7-902e-6b696361645f,2.0*%
%TF.SameCoordinates,Original*%
%TF.FileFunction,Copper,L2,Bot*%
%TF.FilePolarity,Positive*%
%FSLAX46Y46*%
G04 Gerber Fmt 4.6, Leading zero omitted, Abs format (unit mm)*
G04 Created by KiCad (PCBNEW 9.0.1) date 2025-04-20 22:18:08*
%MOMM*%
%LPD*%
G01*
G04 APERTURE LIST*
G04 Aperture macros list*
%AMRoundRect*
0 Rectangle with rounded corners*
0 $1 Rounding radius*
0 $2 $3 $4 $5 $6 $7 $8 $9 X,Y pos of 4 corners*
0 Add a 4 corners polygon primitive as box body*
4,1,4,$2,$3,$4,$5,$6,$7,$8,$9,$2,$3,0*
0 Add four circle primitives for the rounded corners*
1,1,$1+$1,$2,$3*
1,1,$1+$1,$4,$5*
1,1,$1+$1,$6,$7*
1,1,$1+$1,$8,$9*
0 Add four rect primitives between the rounded corners*
20,1,$1+$1,$2,$3,$4,$5,0*
20,1,$1+$1,$4,$5,$6,$7,0*
20,1,$1+$1,$6,$7,$8,$9,0*
20,1,$1+$1,$8,$9,$2,$3,0*%
G04 Aperture macros list end*
%TA.AperFunction,ComponentPad*%
%ADD10R,1.600000X1.600000*%
%TD*%
%TA.AperFunction,ComponentPad*%
%ADD11O,1.600000X1.600000*%
%TD*%
%TA.AperFunction,ComponentPad*%
%ADD12R,1.700000X1.700000*%
%TD*%
%TA.AperFunction,ComponentPad*%
%ADD13O,1.700000X1.700000*%
%TD*%
%TA.AperFunction,ComponentPad*%
%ADD14C,1.600000*%
%TD*%
%TA.AperFunction,ComponentPad*%
%ADD15R,1.800000X1.800000*%
%TD*%
%TA.AperFunction,ComponentPad*%
%ADD16C,1.800000*%
%TD*%
%TA.AperFunction,ComponentPad*%
%ADD17RoundRect,0.750000X-1.250000X-0.750000X1.250000X-0.750000X1.250000X0.750000X-1.250000X0.750000X0*%
%TD*%
%TA.AperFunction,ComponentPad*%
%ADD18C,1.440000*%
%TD*%
%TA.AperFunction,ComponentPad*%
%ADD19R,1.500000X1.500000*%
%TD*%
%TA.AperFunction,ViaPad*%
%ADD20C,0.800000*%
%TD*%
%TA.AperFunction,ViaPad*%
%ADD21C,1.000000*%
%TD*%
%TA.AperFunction,Conductor*%
%ADD22C,0.250000*%
%TD*%
%TA.AperFunction,Conductor*%
%ADD23C,0.800000*%
%TD*%
G04 APERTURE END LIST*
D10*
%TO.P,D2,1,K*%
%TO.N,Net-(D2-K)*%
X192888500Y-129778000D03*
D11*
%TO.P,D2,2,A*%
%TO.N,Net-(D2-A)*%
X185268500Y-129778000D03*
%TD*%
D12*
%TO.P,J3,1,Pin_1*%
%TO.N,Net-(D4-A)*%
X132080000Y-64780000D03*
D13*
%TO.P,J3,2,Pin_2*%
%TO.N,GND*%
X132080000Y-67320000D03*
%TO.P,J3,3,Pin_3*%
X132080000Y-69860000D03*
%TO.P,J3,4,Pin_4*%
%TO.N,Net-(D3-K)*%
X132080000Y-72400000D03*
%TD*%
D12*
%TO.P,TP6,1,1*%
%TO.N,Net-(R10-Pad2)*%
X174757000Y-92202000D03*
D13*
%TO.P,TP6,2,2*%
%TO.N,Net-(R12-Pad1)*%
X172217000Y-92202000D03*
%TD*%
D10*
%TO.P,C19,1*%
%TO.N,+12V*%
X135128000Y-88021349D03*
D14*
%TO.P,C19,2*%
%TO.N,GND*%
X135128000Y-93021349D03*
%TD*%
%TO.P,C6,1*%
%TO.N,Net-(SW1-C)*%
X171480000Y-84044000D03*
D11*
%TO.P,C6,2*%
%TO.N,Net-(C6-Pad2)*%
X178980000Y-84044000D03*
%TD*%
D14*
%TO.P,C7,1*%
%TO.N,Net-(C6-Pad2)*%
X179025000Y-87219000D03*
D11*
%TO.P,C7,2*%
%TO.N,TRI*%
X171525000Y-87219000D03*
%TD*%
D12*
%TO.P,J1,1,Pin_1*%
%TO.N,Sign_ein*%
X164084000Y-64008000D03*
D13*
%TO.P,J1,2,Pin_2*%
%TO.N,Sign_Power*%
X166624000Y-64008000D03*
%TO.P,J1,3,Pin_3*%
%TO.N,GND*%
X169164000Y-64008000D03*
%TO.P,J1,4,Pin_4*%
%TO.N,OSC_inv*%
X171704000Y-64008000D03*
%TD*%
D10*
%TO.P,C20,1*%
%TO.N,GND*%
X146304000Y-88021349D03*
D14*
%TO.P,C20,2*%
%TO.N,-12V*%
X146304000Y-93021349D03*
%TD*%
%TO.P,C1,1*%
%TO.N,Net-(C1-Pad1)*%
X135404000Y-117477000D03*
D11*
%TO.P,C1,2*%
%TO.N,GND*%
X135404000Y-109977000D03*
%TD*%
D14*
%TO.P,C8,1*%
%TO.N,Sign_ein*%
X163890000Y-70104000D03*
D11*
%TO.P,C8,2*%
%TO.N,Net-(C8-Pad2)*%
X171390000Y-70104000D03*
%TD*%
D12*
%TO.P,TP4,1,1*%
%TO.N,GND*%
X189997000Y-101854000D03*
D13*
%TO.P,TP4,2,2*%
%TO.N,Net-(U3B-+)*%
X187457000Y-101854000D03*
%TD*%
D12*
%TO.P,TP7,1,1*%
%TO.N,Net-(U5A--)*%
X178562000Y-128143000D03*
D13*
%TO.P,TP7,2,2*%
X181102000Y-128143000D03*
%TD*%
D12*
%TO.P,TP3,1,1*%
%TO.N,GND*%
X172568500Y-104373000D03*
D13*
%TO.P,TP3,2,2*%
%TO.N,Net-(SW1-A)*%
X172568500Y-106913000D03*
%TD*%
D10*
%TO.P,D4,1,K*%
%TO.N,+12V*%
X143510000Y-64770000D03*
D11*
%TO.P,D4,2,A*%
%TO.N,Net-(D4-A)*%
X135890000Y-64770000D03*
%TD*%
D12*
%TO.P,TP1,1,1*%
%TO.N,Net-(TP1-Pad1)*%
X153060400Y-105465800D03*
D13*
%TO.P,TP1,2,2*%
%TO.N,Net-(C5-Pad1)*%
X153060400Y-102925800D03*
%TD*%
D14*
%TO.P,C21,1*%
%TO.N,Net-(C21-Pad1)*%
X159250000Y-102500000D03*
D11*
%TO.P,C21,2*%
%TO.N,Net-(C21-Pad2)*%
X166750000Y-102500000D03*
%TD*%
D10*
%TO.P,D3,1,K*%
%TO.N,Net-(D3-K)*%
X135890000Y-72390000D03*
D11*
%TO.P,D3,2,A*%
%TO.N,-12V*%
X143510000Y-72390000D03*
%TD*%
D14*
%TO.P,C5,1*%
%TO.N,Net-(C5-Pad1)*%
X156980000Y-84044000D03*
D11*
%TO.P,C5,2*%
%TO.N,Net-(C5-Pad2)*%
X164480000Y-84044000D03*
%TD*%
D15*
%TO.P,RV1,1,1*%
%TO.N,Net-(C9-Pad2)*%
X188006000Y-77774000D03*
D16*
%TO.P,RV1,2,2*%
%TO.N,Net-(U4B--)*%
X188006000Y-80274000D03*
%TO.P,RV1,3,3*%
%TO.N,GND*%
X188006000Y-82774000D03*
D17*
%TO.P,RV1,MP*%
%TO.N,N/C*%
X195006000Y-75874000D03*
X195006000Y-84674000D03*
%TD*%
D18*
%TO.P,Freq.1,1,1*%
%TO.N,Net-(Freq.1-Pad1)*%
X139319000Y-123252000D03*
%TO.P,Freq.1,2,2*%
%TO.N,Net-(C1-Pad1)*%
X136779000Y-123252000D03*
%TO.P,Freq.1,3,3*%
X134239000Y-123252000D03*
%TD*%
D10*
%TO.P,D1,1,K*%
%TO.N,Net-(D1-K)*%
X192888500Y-126603000D03*
D11*
%TO.P,D1,2,A*%
%TO.N,Net-(D1-A)*%
X185268500Y-126603000D03*
%TD*%
D12*
%TO.P,J2,1,Pin_1*%
%TO.N,Net-(D2-K)*%
X198120000Y-114538000D03*
D13*
%TO.P,J2,2,Pin_2*%
%TO.N,GND*%
X198120000Y-117078000D03*
%TO.P,J2,3,Pin_3*%
X198120000Y-119618000D03*
%TO.P,J2,4,Pin_4*%
%TO.N,Net-(D1-K)*%
X198120000Y-122158000D03*
%TD*%
D12*
%TO.P,TP5,1,1*%
%TO.N,Net-(R8-Pad2)*%
X162378500Y-95077000D03*
D13*
%TO.P,TP5,2,2*%
%TO.N,Net-(C21-Pad1)*%
X162378500Y-97617000D03*
%TD*%
D19*
%TO.P,SW1,1,B*%
%TO.N,Net-(SW1-B)*%
X181458500Y-107553000D03*
D14*
%TO.P,SW1,2,C*%
%TO.N,Net-(SW1-C)*%
X183998500Y-107553000D03*
%TO.P,SW1,3,A*%
%TO.N,Net-(SW1-A)*%
X178918500Y-107553000D03*
%TD*%
D20*
%TO.N,GND*%
X163322000Y-106502200D03*
X184835800Y-79451200D03*
X185597800Y-75488800D03*
%TO.N,Net-(SW1-C)*%
X180771800Y-85826600D03*
%TO.N,GND*%
X175230000Y-82774000D03*
X175230000Y-78964000D03*
X159004000Y-73660000D03*
X144907000Y-128524000D03*
X164084000Y-88392000D03*
X182850000Y-84044000D03*
X168728500Y-93807000D03*
X162941000Y-122555000D03*
X175895000Y-119761000D03*
X194945000Y-118872000D03*
X151892000Y-73660000D03*
X151914000Y-116267000D03*
X146834000Y-118807000D03*
X181353500Y-115173000D03*
X139214000Y-113727000D03*
X170150000Y-76424000D03*
X139214000Y-109917000D03*
X168021000Y-88392000D03*
X168985000Y-81504000D03*
X194818000Y-117602000D03*
X178308000Y-68453000D03*
X175003500Y-107553000D03*
X152908000Y-78486000D03*
X151025000Y-99060000D03*
X179104799Y-78899201D03*
X172795000Y-80234000D03*
X172538500Y-96347000D03*
X173960000Y-89124000D03*
X175003500Y-117713000D03*
X186508500Y-93807000D03*
X191513500Y-111363000D03*
X182850000Y-75109500D03*
X168728500Y-98887000D03*
X148717000Y-124460000D03*
X188973500Y-121523000D03*
X185163500Y-102473000D03*
X137668000Y-119761000D03*
X189200000Y-86584000D03*
D21*
%TO.N,+12V*%
X175003500Y-111363000D03*
X184785000Y-95289500D03*
X185163500Y-111000500D03*
X186838500Y-117713000D03*
X192405000Y-94615000D03*
D20*
%TO.N,Net-(D1-A)*%
X180594000Y-118999000D03*
X180975000Y-124460000D03*
%TO.N,Net-(U4A--)*%
X174879000Y-74549000D03*
X175772653Y-76458653D03*
%TO.N,Net-(D2-A)*%
X181353500Y-117713000D03*
X182623500Y-115173000D03*
%TO.N,Net-(SW1-C)*%
X178435000Y-93599000D03*
%TO.N,Net-(SW1-B)*%
X158623000Y-88900000D03*
%TO.N,Net-(C5-Pad1)*%
X154432000Y-95250000D03*
%TO.N,Net-(C6-Pad2)*%
X177292000Y-93726000D03*
%TO.N,Net-(C8-Pad2)*%
X177419000Y-71755000D03*
X182245000Y-70612000D03*
%TO.N,Net-(R8-Pad2)*%
X175133000Y-71882000D03*
X182372000Y-69342000D03*
%TO.N,Net-(U5A--)*%
X165989000Y-86995000D03*
X165989000Y-78359000D03*
X169799000Y-102870000D03*
X168021000Y-91694000D03*
%TD*%
D22*
%TO.N,Net-(SW1-C)*%
X177546000Y-85852000D02*
X180746400Y-85852000D01*
X180746400Y-85852000D02*
X180771800Y-85826600D01*
X176657000Y-84963000D02*
X177393600Y-85699600D01*
X177419000Y-85725000D02*
X177393600Y-85699600D01*
%TO.N,GND*%
X178308000Y-68453000D02*
X178435000Y-68580000D01*
D23*
%TO.N,+12V*%
X185163500Y-111363000D02*
X185163500Y-111000500D01*
X156972000Y-97790000D02*
X144896651Y-97790000D01*
X186838500Y-113038000D02*
X185163500Y-111363000D01*
X170545000Y-111363000D02*
X175003500Y-111363000D01*
X186838500Y-117713000D02*
X186838500Y-113038000D01*
X144896651Y-97790000D02*
X135128000Y-88021349D01*
X156972000Y-97790000D02*
X170545000Y-111363000D01*
X192405000Y-94615000D02*
X188087000Y-94615000D01*
X187412500Y-95289500D02*
X184785000Y-95289500D01*
X188087000Y-94615000D02*
X187412500Y-95289500D01*
%TO.N,-12V*%
X143510000Y-90227349D02*
X146304000Y-93021349D01*
X143510000Y-72390000D02*
X143510000Y-90227349D01*
D22*
%TO.N,Net-(D1-A)*%
X180975000Y-119761000D02*
X180975000Y-124460000D01*
X180340000Y-119126000D02*
X180975000Y-119761000D01*
X180594000Y-118999000D02*
X180467000Y-118999000D01*
X180467000Y-118999000D02*
X180340000Y-119126000D01*
%TO.N,Sign_ein*%
X164084000Y-64008000D02*
X164084000Y-69910000D01*
X164084000Y-69910000D02*
X163890000Y-70104000D01*
%TO.N,Net-(U4A--)*%
X175772653Y-75442653D02*
X174879000Y-74549000D01*
X175772653Y-76458653D02*
X175772653Y-75442653D01*
%TO.N,Net-(D2-A)*%
X181353500Y-117713000D02*
X181353500Y-116443000D01*
X181353500Y-116443000D02*
X182623500Y-115173000D01*
%TO.N,Net-(SW1-C)*%
X176657000Y-84709000D02*
X176657000Y-84963000D01*
X177546000Y-85852000D02*
X177546000Y-92710000D01*
X177546000Y-92710000D02*
X178435000Y-93599000D01*
X171480000Y-84044000D02*
X175992000Y-84044000D01*
X177393600Y-85699600D02*
X177546000Y-85852000D01*
X175992000Y-84044000D02*
X176657000Y-84709000D01*
%TO.N,Net-(SW1-B)*%
X172085000Y-110109000D02*
X179578000Y-110109000D01*
X179578000Y-110109000D02*
X179578000Y-109433500D01*
X158623000Y-88900000D02*
X158623000Y-96647000D01*
X179578000Y-109433500D02*
X181458500Y-107553000D01*
X158623000Y-96647000D02*
X172085000Y-110109000D01*
%TO.N,Net-(C5-Pad1)*%
X156980000Y-92702000D02*
X154432000Y-95250000D01*
X156980000Y-84044000D02*
X156980000Y-92702000D01*
%TO.N,Net-(C6-Pad2)*%
X177890000Y-94324000D02*
X178853000Y-94324000D01*
X179160000Y-87354000D02*
X179025000Y-87219000D01*
X178853000Y-94324000D02*
X179160000Y-94017000D01*
X179160000Y-94017000D02*
X179160000Y-87354000D01*
X177292000Y-93726000D02*
X177890000Y-94324000D01*
%TO.N,Net-(C8-Pad2)*%
X178562000Y-70612000D02*
X177419000Y-71755000D01*
X182245000Y-70612000D02*
X178562000Y-70612000D01*
%TO.N,Net-(R8-Pad2)*%
X175904305Y-71882000D02*
X178444305Y-69342000D01*
X175133000Y-71882000D02*
X175904305Y-71882000D01*
X178444305Y-69342000D02*
X182372000Y-69342000D01*
%TO.N,Net-(U5A--)*%
X168003500Y-101074500D02*
X168003500Y-92057500D01*
X165989000Y-78359000D02*
X165989000Y-86995000D01*
X168003500Y-92057500D02*
X167894000Y-91948000D01*
X169799000Y-102870000D02*
X168003500Y-101074500D01*
X167894000Y-91948000D02*
X168021000Y-91821000D01*
X168021000Y-91821000D02*
X168021000Y-91694000D01*
%TD*%
%TA.AperFunction,Conductor*%
%TO.N,GND*%
G36*
X198370000Y-119184988D02*
G01*
X198312993Y-119152075D01*
X198185826Y-119118000D01*
X198054174Y-119118000D01*
X197927007Y-119152075D01*
X197870000Y-119184988D01*
X197870000Y-117511012D01*
X197927007Y-117543925D01*
X198054174Y-117578000D01*
X198185826Y-117578000D01*
X198312993Y-117543925D01*
X198370000Y-117511012D01*
X198370000Y-119184988D01*
G37*
%TD.AperFunction*%
%TA.AperFunction,Conductor*%
G36*
X132330000Y-69426988D02*
G01*
X132272993Y-69394075D01*
X132145826Y-69360000D01*
X132014174Y-69360000D01*
X131887007Y-69394075D01*
X131830000Y-69426988D01*
X131830000Y-67753012D01*
X131887007Y-67785925D01*
X132014174Y-67820000D01*
X132145826Y-67820000D01*
X132272993Y-67785925D01*
X132330000Y-67753012D01*
X132330000Y-69426988D01*
G37*
%TD.AperFunction*%
%TA.AperFunction,Conductor*%
G36*
X201767539Y-60980185D02*
G01*
X201813294Y-61032989D01*
X201824500Y-61084500D01*
X201824500Y-133225500D01*
X201804815Y-133292539D01*
X201752011Y-133338294D01*
X201700500Y-133349500D01*
X128289500Y-133349500D01*
X128222461Y-133329815D01*
X128176706Y-133277011D01*
X128165500Y-133225500D01*
X128165500Y-129675648D01*
X183968000Y-129675648D01*
X183968000Y-129880351D01*
X184000022Y-130082534D01*
X184063281Y-130277223D01*
X184156215Y-130459613D01*
X184276528Y-130625213D01*
X184421286Y-130769971D01*
X184576249Y-130882556D01*
X184586890Y-130890287D01*
X184675712Y-130935544D01*
X184769276Y-130983218D01*
X184769278Y-130983218D01*
X184769281Y-130983220D01*
X184873637Y-131017127D01*
X184963965Y-131046477D01*
X185065057Y-131062488D01*
X185166148Y-131078500D01*
X185166149Y-131078500D01*
X185370851Y-131078500D01*
X185370852Y-131078500D01*
X185573034Y-131046477D01*
X185767719Y-130983220D01*
X185950110Y-130890287D01*
X186046401Y-130820328D01*
X186115713Y-130769971D01*
X186115715Y-130769968D01*
X186115719Y-130769966D01*
X186260466Y-130625219D01*
X186260468Y-130625215D01*
X186260471Y-130625213D01*
X186313232Y-130552590D01*
X186380787Y-130459610D01*
X186473720Y-130277219D01*
X186536977Y-130082534D01*
X186569000Y-129880352D01*
X186569000Y-129675648D01*
X186536977Y-129473466D01*
X186473720Y-129278781D01*
X186473718Y-129278778D01*
X186473718Y-129278776D01*
X186380787Y-129096390D01*
X186310532Y-128999691D01*
X186310531Y-128999688D01*
X186260471Y-128930787D01*
X186260467Y-128930782D01*
X186259820Y-128930135D01*
X191588000Y-128930135D01*
X191588000Y-130625870D01*
X191588001Y-130625876D01*
X191594408Y-130685483D01*
X191644702Y-130820328D01*
X191644706Y-130820335D01*
X191730952Y-130935544D01*
X191730955Y-130935547D01*
X191846164Y-131021793D01*
X191846171Y-131021797D01*
X191981017Y-131072091D01*
X191981016Y-131072091D01*
X191987944Y-131072835D01*
X192040627Y-131078500D01*
X193736372Y-131078499D01*
X193795983Y-131072091D01*
X193930831Y-131021796D01*
X194046046Y-130935546D01*
X194132296Y-130820331D01*
X194182591Y-130685483D01*
X194189000Y-130625873D01*
X194188999Y-128930128D01*
X194182591Y-128870517D01*
X194132296Y-128735669D01*
X194132295Y-128735668D01*
X194132293Y-128735664D01*
X194046047Y-128620455D01*
X194046044Y-128620452D01*
X193930835Y-128534206D01*
X193930828Y-128534202D01*
X193795982Y-128483908D01*
X193795983Y-128483908D01*
X193736383Y-128477501D01*
X193736381Y-128477500D01*
X193736373Y-128477500D01*
X193736364Y-128477500D01*
X192040629Y-128477500D01*
X192040623Y-128477501D01*
X191981016Y-128483908D01*
X191846171Y-128534202D01*
X191846164Y-128534206D01*
X191730955Y-128620452D01*
X191730952Y-128620455D01*
X191644706Y-128735664D01*
X191644702Y-128735671D01*
X191594408Y-128870517D01*
X191588001Y-128930116D01*
X191588001Y-128930123D01*
X191588000Y-128930135D01*
X186259820Y-128930135D01*
X186115713Y-128786028D01*
X185950113Y-128665715D01*
X185950112Y-128665714D01*
X185950110Y-128665713D01*
X185893153Y-128636691D01*
X185767723Y-128572781D01*
X185573034Y-128509522D01*
X185398495Y-128481878D01*
X185370852Y-128477500D01*
X185166148Y-128477500D01*
X185141829Y-128481351D01*
X184963965Y-128509522D01*
X184769276Y-128572781D01*
X184586886Y-128665715D01*
X184421286Y-128786028D01*
X184276528Y-128930786D01*
X184156215Y-129096386D01*
X184063281Y-129278776D01*
X184000022Y-129473465D01*
X183968000Y-129675648D01*
X128165500Y-129675648D01*
X128165500Y-127245135D01*
X177211500Y-127245135D01*
X177211500Y-129040870D01*
X177211501Y-129040876D01*
X177217908Y-129100483D01*
X177268202Y-129235328D01*
X177268206Y-129235335D01*
X177354452Y-129350544D01*
X177354455Y-129350547D01*
X177469664Y-129436793D01*
X177469671Y-129436797D01*
X177604517Y-129487091D01*
X177604516Y-129487091D01*
X177611444Y-129487835D01*
X177664127Y-129493500D01*
X179459872Y-129493499D01*
X179519483Y-129487091D01*
X179654331Y-129436796D01*
X179769546Y-129350546D01*
X179855796Y-129235331D01*
X179904810Y-129103916D01*
X179946681Y-129047984D01*
X180012145Y-129023566D01*
X180080418Y-129038417D01*
X180108673Y-129059569D01*
X180222213Y-129173109D01*
X180394179Y-129298048D01*
X180394181Y-129298049D01*
X180394184Y-129298051D01*
X180583588Y-129394557D01*
X180785757Y-129460246D01*
X180995713Y-129493500D01*
X180995714Y-129493500D01*
X181208286Y-129493500D01*
X181208287Y-129493500D01*
X181418243Y-129460246D01*
X181620412Y-129394557D01*
X181809816Y-129298051D01*
X181896138Y-129235335D01*
X181981786Y-129173109D01*
X181981788Y-129173106D01*
X181981792Y-129173104D01*
X182132104Y-129022792D01*
X182132106Y-129022788D01*
X182132109Y-129022786D01*
X182257048Y-128850820D01*
X182257047Y-128850820D01*
X182257051Y-128850816D01*
X182353557Y-128661412D01*
X182419246Y-128459243D01*
X182452500Y-128249287D01*
X182452500Y-128036713D01*
X182419246Y-127826757D01*
X182353557Y-127624588D01*
X182257051Y-127435184D01*
X182257049Y-127435181D01*
X182257048Y-127435179D01*
X182132109Y-127263213D01*
X181981786Y-127112890D01*
X181809820Y-126987951D01*
X181620414Y-126891444D01*
X181620413Y-126891443D01*
X181620412Y-126891443D01*
X181418243Y-126825754D01*
X181418241Y-126825753D01*
X181418240Y-126825753D01*
X181256957Y-126800208D01*
X181208287Y-126792500D01*
X180995713Y-126792500D01*
X180947042Y-126800208D01*
X180785760Y-126825753D01*
X180583585Y-126891444D01*
X180394179Y-126987951D01*
X180222215Y-127112889D01*
X180108673Y-127226431D01*
X180047350Y-127259915D01*
X179977658Y-127254931D01*
X179921725Y-127213059D01*
X179904810Y-127182082D01*
X179855797Y-127050671D01*
X179855793Y-127050664D01*
X179769547Y-126935455D01*
X179769544Y-126935452D01*
X179654335Y-126849206D01*
X179654328Y-126849202D01*
X179519482Y-126798908D01*
X179519483Y-126798908D01*
X179459883Y-126792501D01*
X179459881Y-126792500D01*
X179459873Y-126792500D01*
X179459864Y-126792500D01*
X177664129Y-126792500D01*
X177664123Y-126792501D01*
X177604516Y-126798908D01*
X177469671Y-126849202D01*
X177469664Y-126849206D01*
X177354455Y-126935452D01*
X177354452Y-126935455D01*
X177268206Y-127050664D01*
X177268202Y-127050671D01*
X177217908Y-127185517D01*
X177211501Y-127245116D01*
X177211500Y-127245135D01*
X128165500Y-127245135D01*
X128165500Y-126500648D01*
X183968000Y-126500648D01*
X183968000Y-126705351D01*
X184000022Y-126907534D01*
X184063281Y-127102223D01*
X184119756Y-127213059D01*
X184143630Y-127259915D01*
X184156215Y-127284613D01*
X184276528Y-127450213D01*
X184421286Y-127594971D01*
X184576249Y-127707556D01*
X184586890Y-127715287D01*
X184675712Y-127760544D01*
X184769276Y-127808218D01*
X184769278Y-127808218D01*
X184769281Y-127808220D01*
X184873637Y-127842127D01*
X184963965Y-127871477D01*
X185065057Y-127887488D01*
X185166148Y-127903500D01*
X185166149Y-127903500D01*
X185370851Y-127903500D01*
X185370852Y-127903500D01*
X185573034Y-127871477D01*
X185767719Y-127808220D01*
X185950110Y-127715287D01*
X186046401Y-127645328D01*
X186115713Y-127594971D01*
X186115715Y-127594968D01*
X186115719Y-127594966D01*
X186260466Y-127450219D01*
X186260468Y-127450215D01*
X186260471Y-127450213D01*
X186313232Y-127377590D01*
X186380787Y-127284610D01*
X186473720Y-127102219D01*
X186536977Y-126907534D01*
X186569000Y-126705352D01*
X186569000Y-126500648D01*
X186536977Y-126298466D01*
X186473720Y-126103781D01*
X186473718Y-126103778D01*
X186473718Y-126103776D01*
X186380787Y-125921390D01*
X186310532Y-125824691D01*
X186310531Y-125824688D01*
X186260471Y-125755787D01*
X186260467Y-125755782D01*
X186259820Y-125755135D01*
X191588000Y-125755135D01*
X191588000Y-127450870D01*
X191588001Y-127450876D01*
X191594408Y-127510483D01*
X191644702Y-127645328D01*
X191644706Y-127645335D01*
X191730952Y-127760544D01*
X191730955Y-127760547D01*
X191846164Y-127846793D01*
X191846171Y-127846797D01*
X191981017Y-127897091D01*
X191981016Y-127897091D01*
X191987944Y-127897835D01*
X192040627Y-127903500D01*
X193736372Y-127903499D01*
X193795983Y-127897091D01*
X193930831Y-127846796D01*
X194046046Y-127760546D01*
X194132296Y-127645331D01*
X194182591Y-127510483D01*
X194189000Y-127450873D01*
X194188999Y-125755128D01*
X194182591Y-125695517D01*
X194132296Y-125560669D01*
X194132295Y-125560668D01*
X194132293Y-125560664D01*
X194046047Y-125445455D01*
X194046044Y-125445452D01*
X193930835Y-125359206D01*
X193930828Y-125359202D01*
X193795982Y-125308908D01*
X193795983Y-125308908D01*
X193736383Y-125302501D01*
X193736381Y-125302500D01*
X193736373Y-125302500D01*
X193736364Y-125302500D01*
X192040629Y-125302500D01*
X192040623Y-125302501D01*
X191981016Y-125308908D01*
X191846171Y-125359202D01*
X191846164Y-125359206D01*
X191730955Y-125445452D01*
X191730952Y-125445455D01*
X191644706Y-125560664D01*
X191644702Y-125560671D01*
X191594408Y-125695517D01*
X191588001Y-125755116D01*
X191588001Y-125755123D01*
X191588000Y-125755135D01*
X186259820Y-125755135D01*
X186115713Y-125611028D01*
X185950113Y-125490715D01*
X185950112Y-125490714D01*
X185950110Y-125490713D01*
X185893153Y-125461691D01*
X185767723Y-125397781D01*
X185573034Y-125334522D01*
X185398495Y-125306878D01*
X185370852Y-125302500D01*
X185166148Y-125302500D01*
X185141829Y-125306351D01*
X184963965Y-125334522D01*
X184769276Y-125397781D01*
X184586886Y-125490715D01*
X184421286Y-125611028D01*
X184276528Y-125755786D01*
X184156215Y-125921386D01*
X184063281Y-126103776D01*
X184000022Y-126298465D01*
X183968000Y-126500648D01*
X128165500Y-126500648D01*
X128165500Y-123155945D01*
X133018500Y-123155945D01*
X133018500Y-123348054D01*
X133048553Y-123537802D01*
X133107916Y-123720506D01*
X133107918Y-123720509D01*
X133195135Y-123891681D01*
X133308055Y-124047102D01*
X133443898Y-124182945D01*
X133599319Y-124295865D01*
X133747385Y-124371309D01*
X133770493Y-124383083D01*
X133861845Y-124412764D01*
X133953199Y-124442447D01*
X134142945Y-124472500D01*
X134142946Y-124472500D01*
X134335054Y-124472500D01*
X134335055Y-124472500D01*
X134524801Y-124442447D01*
X134707509Y-124383082D01*
X134878681Y-124295865D01*
X135034102Y-124182945D01*
X135169945Y-124047102D01*
X135282865Y-123891681D01*
X135370082Y-123720509D01*
X135370084Y-123720504D01*
X135391069Y-123655919D01*
X135430506Y-123598243D01*
X135494864Y-123571044D01*
X135563711Y-123582958D01*
X135615187Y-123630202D01*
X135626931Y-123655919D01*
X135647915Y-123720504D01*
X135647918Y-123720509D01*
X135735135Y-123891681D01*
X135848055Y-124047102D01*
X135983898Y-124182945D01*
X136139319Y-124295865D01*
X136287385Y-124371309D01*
X136310493Y-124383083D01*
X136401845Y-124412764D01*
X136493199Y-124442447D01*
X136682945Y-124472500D01*
X136682946Y-124472500D01*
X136875054Y-124472500D01*
X136875055Y-124472500D01*
X137064801Y-124442447D01*
X137247509Y-124383082D01*
X137418681Y-124295865D01*
X137574102Y-124182945D01*
X137709945Y-124047102D01*
X137822865Y-123891681D01*
X137910082Y-123720509D01*
X137910084Y-123720504D01*
X137931069Y-123655919D01*
X137970506Y-123598243D01*
X138034864Y-123571044D01*
X138103711Y-123582958D01*
X138155187Y-123630202D01*
X138166931Y-123655919D01*
X138187915Y-123720504D01*
X138187918Y-123720509D01*
X138275135Y-123891681D01*
X138388055Y-124047102D01*
X138523898Y-124182945D01*
X138679319Y-124295865D01*
X138827385Y-124371309D01*
X138850493Y-124383083D01*
X138941845Y-124412764D01*
X139033199Y-124442447D01*
X139222945Y-124472500D01*
X139222946Y-124472500D01*
X139415054Y-124472500D01*
X139415055Y-124472500D01*
X139604801Y-124442447D01*
X139787509Y-124383082D01*
X139958681Y-124295865D01*
X140114102Y-124182945D01*
X140249945Y-124047102D01*
X140362865Y-123891681D01*
X140450082Y-123720509D01*
X140509447Y-123537801D01*
X140539500Y-123348055D01*
X140539500Y-123155945D01*
X140509447Y-122966199D01*
X140476831Y-122865816D01*
X140450083Y-122783493D01*
X140362864Y-122612318D01*
X140249945Y-122456898D01*
X140114102Y-122321055D01*
X139958681Y-122208135D01*
X139787506Y-122120916D01*
X139604802Y-122061553D01*
X139509928Y-122046526D01*
X139415055Y-122031500D01*
X139222945Y-122031500D01*
X139159696Y-122041517D01*
X139033197Y-122061553D01*
X138850493Y-122120916D01*
X138679318Y-122208135D01*
X138602034Y-122264286D01*
X138523898Y-122321055D01*
X138523896Y-122321057D01*
X138523895Y-122321057D01*
X138388057Y-122456895D01*
X138388057Y-122456896D01*
X138388055Y-122456898D01*
X138339560Y-122523645D01*
X138275135Y-122612318D01*
X138187916Y-122783493D01*
X138166931Y-122848081D01*
X138127494Y-122905756D01*
X138063135Y-122932955D01*
X137994289Y-122921041D01*
X137942813Y-122873797D01*
X137931069Y-122848081D01*
X137910083Y-122783493D01*
X137822864Y-122612318D01*
X137709945Y-122456898D01*
X137574102Y-122321055D01*
X137418681Y-122208135D01*
X137247506Y-122120916D01*
X137064802Y-122061553D01*
X136969928Y-122046526D01*
X136875055Y-122031500D01*
X136682945Y-122031500D01*
X136619696Y-122041517D01*
X136493197Y-122061553D01*
X136310493Y-122120916D01*
X136139318Y-122208135D01*
X136062034Y-122264286D01*
X135983898Y-122321055D01*
X135983896Y-122321057D01*
X135983895Y-122321057D01*
X135848057Y-122456895D01*
X135848057Y-122456896D01*
X135848055Y-122456898D01*
X135799560Y-122523645D01*
X135735135Y-122612318D01*
X135647916Y-122783493D01*
X135626931Y-122848081D01*
X135587494Y-122905756D01*
X135523135Y-122932955D01*
X135454289Y-122921041D01*
X135402813Y-122873797D01*
X135391069Y-122848081D01*
X135370083Y-122783493D01*
X135282864Y-122612318D01*
X135169945Y-122456898D01*
X135034102Y-122321055D01*
X134878681Y-122208135D01*
X134707506Y-122120916D01*
X134524802Y-122061553D01*
X134429928Y-122046526D01*
X134335055Y-122031500D01*
X134142945Y-122031500D01*
X134079696Y-122041517D01*
X133953197Y-122061553D01*
X133770493Y-122120916D01*
X133599318Y-122208135D01*
X133522034Y-122264286D01*
X133443898Y-122321055D01*
X133443896Y-122321057D01*
X133443895Y-122321057D01*
X133308057Y-122456895D01*
X133308057Y-122456896D01*
X133308055Y-122456898D01*
X133259560Y-122523645D01*
X133195135Y-122612318D01*
X133107916Y-122783493D01*
X133048553Y-122966197D01*
X133018500Y-123155945D01*
X128165500Y-123155945D01*
X128165500Y-119087693D01*
X179693499Y-119087693D01*
X179728106Y-119261669D01*
X179729609Y-119266624D01*
X179732562Y-119278416D01*
X179738535Y-119308444D01*
X179738536Y-119308447D01*
X179738537Y-119308451D01*
X179767339Y-119377987D01*
X179785688Y-119422286D01*
X179785690Y-119422290D01*
X179854139Y-119524727D01*
X179854145Y-119524735D01*
X179869971Y-119540561D01*
X179885389Y-119559346D01*
X179894536Y-119573035D01*
X179894538Y-119573037D01*
X179894542Y-119573042D01*
X180019962Y-119698462D01*
X180033646Y-119707605D01*
X180052436Y-119723026D01*
X180313181Y-119983771D01*
X180346666Y-120045094D01*
X180349500Y-120071452D01*
X180349500Y-123760638D01*
X180329815Y-123827677D01*
X180313181Y-123848319D01*
X180275538Y-123885961D01*
X180275535Y-123885965D01*
X180176990Y-124033446D01*
X180176983Y-124033459D01*
X180109106Y-124197332D01*
X180109103Y-124197341D01*
X180074500Y-124371304D01*
X180074500Y-124548695D01*
X180109103Y-124722658D01*
X180109106Y-124722667D01*
X180176983Y-124886540D01*
X180176990Y-124886553D01*
X180275535Y-125034034D01*
X180275538Y-125034038D01*
X180400961Y-125159461D01*
X180400965Y-125159464D01*
X180548446Y-125258009D01*
X180548459Y-125258016D01*
X180655855Y-125302500D01*
X180712334Y-125325894D01*
X180712336Y-125325894D01*
X180712341Y-125325896D01*
X180886304Y-125360499D01*
X180886307Y-125360500D01*
X180886309Y-125360500D01*
X181063693Y-125360500D01*
X181063694Y-125360499D01*
X181121682Y-125348964D01*
X181237658Y-125325896D01*
X181237661Y-125325894D01*
X181237666Y-125325894D01*
X181401547Y-125258013D01*
X181549035Y-125159464D01*
X181674464Y-125034035D01*
X181773013Y-124886547D01*
X181840894Y-124722666D01*
X181875500Y-124548691D01*
X181875500Y-124371309D01*
X181875500Y-124371306D01*
X181875499Y-124371304D01*
X181840896Y-124197341D01*
X181840893Y-124197332D01*
X181773016Y-124033459D01*
X181773009Y-124033446D01*
X181674464Y-123885965D01*
X181674461Y-123885961D01*
X181636819Y-123848319D01*
X181603334Y-123786996D01*
X181600500Y-123760638D01*
X181600500Y-119828741D01*
X181600501Y-119828720D01*
X181600501Y-119699391D01*
X181576464Y-119578555D01*
X181576463Y-119578549D01*
X181529312Y-119464715D01*
X181471362Y-119377987D01*
X181450484Y-119311310D01*
X181458757Y-119267684D01*
X181458126Y-119267493D01*
X181459888Y-119261678D01*
X181459894Y-119261666D01*
X181494500Y-119087691D01*
X181494500Y-118910309D01*
X181494500Y-118910306D01*
X181459908Y-118736405D01*
X181466135Y-118666813D01*
X181508998Y-118611636D01*
X181557329Y-118590597D01*
X181616166Y-118578894D01*
X181780047Y-118511013D01*
X181927535Y-118412464D01*
X182052964Y-118287035D01*
X182151513Y-118139547D01*
X182219394Y-117975666D01*
X182219409Y-117975595D01*
X182253999Y-117801695D01*
X182254000Y-117801693D01*
X182254000Y-117624306D01*
X182253999Y-117624304D01*
X182219396Y-117450341D01*
X182219393Y-117450332D01*
X182151516Y-117286459D01*
X182151509Y-117286446D01*
X182052964Y-117138965D01*
X182052961Y-117138961D01*
X182015319Y-117101319D01*
X181981834Y-117039996D01*
X181979000Y-117013638D01*
X181979000Y-116753452D01*
X181998685Y-116686413D01*
X182015319Y-116665771D01*
X182571271Y-116109819D01*
X182632594Y-116076334D01*
X182658952Y-116073500D01*
X182712193Y-116073500D01*
X182712194Y-116073499D01*
X182770182Y-116061964D01*
X182886158Y-116038896D01*
X182886161Y-116038894D01*
X182886166Y-116038894D01*
X183050047Y-115971013D01*
X183197535Y-115872464D01*
X183322964Y-115747035D01*
X183421513Y-115599547D01*
X183489394Y-115435666D01*
X183524000Y-115261691D01*
X183524000Y-115084309D01*
X183524000Y-115084306D01*
X183523999Y-115084304D01*
X183489396Y-114910341D01*
X183489393Y-114910332D01*
X183421516Y-114746459D01*
X183421509Y-114746446D01*
X183322964Y-114598965D01*
X183322961Y-114598961D01*
X183197538Y-114473538D01*
X183197534Y-114473535D01*
X183050053Y-114374990D01*
X183050040Y-114374983D01*
X182886167Y-114307106D01*
X182886158Y-114307103D01*
X182712194Y-114272500D01*
X182712191Y-114272500D01*
X182534809Y-114272500D01*
X182534806Y-114272500D01*
X182360841Y-114307103D01*
X182360832Y-114307106D01*
X182196959Y-114374983D01*
X182196946Y-114374990D01*
X182049465Y-114473535D01*
X182049461Y-114473538D01*
X181924038Y-114598961D01*
X181924035Y-114598965D01*
X181825490Y-114746446D01*
X181825483Y-114746459D01*
X181757606Y-114910332D01*
X181757603Y-114910341D01*
X181723000Y-115084304D01*
X181723000Y-115137547D01*
X181703315Y-115204586D01*
X181686681Y-115225228D01*
X180867644Y-116044264D01*
X180867638Y-116044272D01*
X180799192Y-116146705D01*
X180799184Y-116146719D01*
X180773586Y-116208523D01*
X180765847Y-116227207D01*
X180760323Y-116240543D01*
X180752037Y-116260545D01*
X180752035Y-116260553D01*
X180728000Y-116381389D01*
X180728000Y-117013638D01*
X180708315Y-117080677D01*
X180691681Y-117101319D01*
X180654038Y-117138961D01*
X180654035Y-117138965D01*
X180555490Y-117286446D01*
X180555483Y-117286459D01*
X180487606Y-117450332D01*
X180487603Y-117450341D01*
X180453000Y-117624304D01*
X180453000Y-117801695D01*
X180487591Y-117975595D01*
X180481364Y-118045186D01*
X180438501Y-118100364D01*
X180390166Y-118121403D01*
X180331340Y-118133104D01*
X180331332Y-118133106D01*
X180167459Y-118200983D01*
X180167446Y-118200990D01*
X180019965Y-118299535D01*
X180019961Y-118299538D01*
X179894538Y-118424961D01*
X179894535Y-118424965D01*
X179795990Y-118572446D01*
X179795983Y-118572459D01*
X179728106Y-118736332D01*
X179728103Y-118736341D01*
X179693500Y-118910304D01*
X179693500Y-118910309D01*
X179693500Y-119087691D01*
X179693500Y-119087693D01*
X179693499Y-119087693D01*
X128165500Y-119087693D01*
X128165500Y-117374648D01*
X134103500Y-117374648D01*
X134103500Y-117579351D01*
X134135522Y-117781534D01*
X134198781Y-117976223D01*
X134233920Y-118045186D01*
X134281996Y-118139540D01*
X134291715Y-118158613D01*
X134412028Y-118324213D01*
X134556786Y-118468971D01*
X134699210Y-118572446D01*
X134722390Y-118589287D01*
X134838607Y-118648503D01*
X134904776Y-118682218D01*
X134904778Y-118682218D01*
X134904781Y-118682220D01*
X135001051Y-118713500D01*
X135099465Y-118745477D01*
X135200557Y-118761488D01*
X135301648Y-118777500D01*
X135301649Y-118777500D01*
X135506351Y-118777500D01*
X135506352Y-118777500D01*
X135708534Y-118745477D01*
X135903219Y-118682220D01*
X136085610Y-118589287D01*
X136222081Y-118490136D01*
X136251213Y-118468971D01*
X136251215Y-118468968D01*
X136251219Y-118468966D01*
X136395966Y-118324219D01*
X136395968Y-118324215D01*
X136395971Y-118324213D01*
X136458960Y-118237514D01*
X136516287Y-118158610D01*
X136609220Y-117976219D01*
X136672477Y-117781534D01*
X136704500Y-117579352D01*
X136704500Y-117374648D01*
X136672477Y-117172466D01*
X136663171Y-117143826D01*
X136629435Y-117039996D01*
X136609220Y-116977781D01*
X136609218Y-116977778D01*
X136609218Y-116977776D01*
X136561949Y-116885007D01*
X136516287Y-116795390D01*
X136491936Y-116761873D01*
X136395971Y-116629786D01*
X136251213Y-116485028D01*
X136085613Y-116364715D01*
X136085612Y-116364714D01*
X136085610Y-116364713D01*
X136028653Y-116335691D01*
X135903223Y-116271781D01*
X135708534Y-116208522D01*
X135533995Y-116180878D01*
X135506352Y-116176500D01*
X135301648Y-116176500D01*
X135277329Y-116180351D01*
X135099465Y-116208522D01*
X134904776Y-116271781D01*
X134722386Y-116364715D01*
X134556786Y-116485028D01*
X134412028Y-116629786D01*
X134291715Y-116795386D01*
X134198781Y-116977776D01*
X134135522Y-117172465D01*
X134103500Y-117374648D01*
X128165500Y-117374648D01*
X128165500Y-109727000D01*
X134127391Y-109727000D01*
X135088314Y-109727000D01*
X135083920Y-109731394D01*
X135031259Y-109822606D01*
X135004000Y-109924339D01*
X135004000Y-110029661D01*
X135031259Y-110131394D01*
X135083920Y-110222606D01*
X135088314Y-110227000D01*
X134127391Y-110227000D01*
X134136009Y-110281413D01*
X134199244Y-110476029D01*
X134292140Y-110658349D01*
X134412417Y-110823894D01*
X134412417Y-110823895D01*
X134557104Y-110968582D01*
X134722650Y-111088859D01*
X134904968Y-111181754D01*
X135099578Y-111244988D01*
X135154000Y-111253607D01*
X135154000Y-110292686D01*
X135158394Y-110297080D01*
X135249606Y-110349741D01*
X135351339Y-110377000D01*
X135456661Y-110377000D01*
X135558394Y-110349741D01*
X135649606Y-110297080D01*
X135654000Y-110292686D01*
X135654000Y-111253606D01*
X135708421Y-111244988D01*
X135903031Y-111181754D01*
X136085349Y-111088859D01*
X136250894Y-110968582D01*
X136250895Y-110968582D01*
X136395582Y-110823895D01*
X136395582Y-110823894D01*
X136515859Y-110658349D01*
X136608755Y-110476029D01*
X136671990Y-110281413D01*
X136680609Y-110227000D01*
X135719686Y-110227000D01*
X135724080Y-110222606D01*
X135776741Y-110131394D01*
X135804000Y-110029661D01*
X135804000Y-109924339D01*
X135776741Y-109822606D01*
X135724080Y-109731394D01*
X135719686Y-109727000D01*
X136680609Y-109727000D01*
X136671990Y-109672586D01*
X136608755Y-109477970D01*
X136515859Y-109295650D01*
X136395582Y-109130105D01*
X136395582Y-109130104D01*
X136250895Y-108985417D01*
X136085349Y-108865140D01*
X135903029Y-108772244D01*
X135708413Y-108709009D01*
X135654000Y-108700390D01*
X135654000Y-109661314D01*
X135649606Y-109656920D01*
X135558394Y-109604259D01*
X135456661Y-109577000D01*
X135351339Y-109577000D01*
X135249606Y-109604259D01*
X135158394Y-109656920D01*
X135154000Y-109661314D01*
X135154000Y-108700390D01*
X135099586Y-108709009D01*
X134904970Y-108772244D01*
X134722650Y-108865140D01*
X134557105Y-108985417D01*
X134557104Y-108985417D01*
X134412417Y-109130104D01*
X134412417Y-109130105D01*
X134292140Y-109295650D01*
X134199244Y-109477970D01*
X134136009Y-109672586D01*
X134127391Y-109727000D01*
X128165500Y-109727000D01*
X128165500Y-102819513D01*
X151709900Y-102819513D01*
X151709900Y-103032087D01*
X151717433Y-103079645D01*
X151737207Y-103204500D01*
X151743154Y-103242043D01*
X151808786Y-103444038D01*
X151808844Y-103444214D01*
X151905351Y-103633620D01*
X152030290Y-103805586D01*
X152143830Y-103919126D01*
X152177315Y-103980449D01*
X152172331Y-104050141D01*
X152130459Y-104106074D01*
X152099483Y-104122989D01*
X151968069Y-104172003D01*
X151968064Y-104172006D01*
X151852855Y-104258252D01*
X151852852Y-104258255D01*
X151766606Y-104373464D01*
X151766602Y-104373471D01*
X151716308Y-104508317D01*
X151710108Y-104565993D01*
X151709901Y-104567923D01*
X151709900Y-104567935D01*
X151709900Y-106363670D01*
X151709901Y-106363676D01*
X151716308Y-106423283D01*
X151766602Y-106558128D01*
X151766606Y-106558135D01*
X151852852Y-106673344D01*
X151852855Y-106673347D01*
X151968064Y-106759593D01*
X151968071Y-106759597D01*
X152102917Y-106809891D01*
X152102916Y-106809891D01*
X152109844Y-106810635D01*
X152162527Y-106816300D01*
X153958272Y-106816299D01*
X154017883Y-106809891D01*
X154152731Y-106759596D01*
X154267946Y-106673346D01*
X154354196Y-106558131D01*
X154404491Y-106423283D01*
X154410900Y-106363673D01*
X154410899Y-104567928D01*
X154404491Y-104508317D01*
X154354196Y-104373469D01*
X154354195Y-104373468D01*
X154354193Y-104373464D01*
X154267947Y-104258255D01*
X154267944Y-104258252D01*
X154152735Y-104172006D01*
X154152728Y-104172002D01*
X154021317Y-104122989D01*
X153965383Y-104081118D01*
X153940966Y-104015653D01*
X153955818Y-103947380D01*
X153976963Y-103919132D01*
X154090504Y-103805592D01*
X154116001Y-103770499D01*
X154215448Y-103633620D01*
X154215447Y-103633620D01*
X154215451Y-103633616D01*
X154311957Y-103444212D01*
X154377646Y-103242043D01*
X154410900Y-103032087D01*
X154410900Y-102819513D01*
X154377646Y-102609557D01*
X154311957Y-102407388D01*
X154215451Y-102217984D01*
X154215449Y-102217981D01*
X154215448Y-102217979D01*
X154090509Y-102046013D01*
X153940186Y-101895690D01*
X153768220Y-101770751D01*
X153578814Y-101674244D01*
X153578813Y-101674243D01*
X153578812Y-101674243D01*
X153376643Y-101608554D01*
X153376641Y-101608553D01*
X153376640Y-101608553D01*
X153215357Y-101583008D01*
X153166687Y-101575300D01*
X152954113Y-101575300D01*
X152905442Y-101583008D01*
X152744160Y-101608553D01*
X152541985Y-101674244D01*
X152352579Y-101770751D01*
X152180613Y-101895690D01*
X152030290Y-102046013D01*
X151905351Y-102217979D01*
X151808844Y-102407385D01*
X151743153Y-102609560D01*
X151715952Y-102781304D01*
X151709900Y-102819513D01*
X128165500Y-102819513D01*
X128165500Y-92919031D01*
X133828000Y-92919031D01*
X133828000Y-93123666D01*
X133860009Y-93325766D01*
X133923244Y-93520380D01*
X134016141Y-93702699D01*
X134016147Y-93702708D01*
X134048523Y-93747270D01*
X134048524Y-93747271D01*
X134728000Y-93067795D01*
X134728000Y-93074010D01*
X134755259Y-93175743D01*
X134807920Y-93266955D01*
X134882394Y-93341429D01*
X134973606Y-93394090D01*
X135075339Y-93421349D01*
X135081553Y-93421349D01*
X134402076Y-94100823D01*
X134446650Y-94133208D01*
X134628968Y-94226104D01*
X134823582Y-94289339D01*
X135025683Y-94321349D01*
X135230317Y-94321349D01*
X135432417Y-94289339D01*
X135627031Y-94226104D01*
X135809349Y-94133208D01*
X135853921Y-94100823D01*
X135174447Y-93421349D01*
X135180661Y-93421349D01*
X135282394Y-93394090D01*
X135373606Y-93341429D01*
X135448080Y-93266955D01*
X135500741Y-93175743D01*
X135528000Y-93074010D01*
X135528000Y-93067796D01*
X136207474Y-93747270D01*
X136239859Y-93702698D01*
X136332755Y-93520380D01*
X136395990Y-93325766D01*
X136428000Y-93123666D01*
X136428000Y-92919031D01*
X136395990Y-92716931D01*
X136332755Y-92522317D01*
X136239859Y-92339999D01*
X136207474Y-92295426D01*
X136207474Y-92295425D01*
X135528000Y-92974900D01*
X135528000Y-92968688D01*
X135500741Y-92866955D01*
X135448080Y-92775743D01*
X135373606Y-92701269D01*
X135282394Y-92648608D01*
X135180661Y-92621349D01*
X135174446Y-92621349D01*
X135853922Y-91941873D01*
X135853921Y-91941872D01*
X135809359Y-91909496D01*
X135809350Y-91909490D01*
X135627031Y-91816593D01*
X135432417Y-91753358D01*
X135230317Y-91721349D01*
X135025683Y-91721349D01*
X134823582Y-91753358D01*
X134628968Y-91816593D01*
X134446644Y-91909492D01*
X134402077Y-91941872D01*
X134402077Y-91941873D01*
X135081554Y-92621349D01*
X135075339Y-92621349D01*
X134973606Y-92648608D01*
X134882394Y-92701269D01*
X134807920Y-92775743D01*
X134755259Y-92866955D01*
X134728000Y-92968688D01*
X134728000Y-92974902D01*
X134048524Y-92295426D01*
X134048523Y-92295426D01*
X134016143Y-92339993D01*
X133923244Y-92522317D01*
X133860009Y-92716931D01*
X133828000Y-92919031D01*
X128165500Y-92919031D01*
X128165500Y-87173484D01*
X133827500Y-87173484D01*
X133827500Y-88869219D01*
X133827501Y-88869225D01*
X133833908Y-88928832D01*
X133884202Y-89063677D01*
X133884206Y-89063684D01*
X133970452Y-89178893D01*
X133970455Y-89178896D01*
X134085664Y-89265142D01*
X134085671Y-89265146D01*
X134220517Y-89315440D01*
X134220516Y-89315440D01*
X134227444Y-89316184D01*
X134280127Y-89321849D01*
X135103637Y-89321848D01*
X135170676Y-89341532D01*
X135191318Y-89358167D01*
X144197187Y-98364035D01*
X144322616Y-98489464D01*
X144470104Y-98588013D01*
X144518103Y-98607895D01*
X144633985Y-98655895D01*
X144807954Y-98690499D01*
X144807958Y-98690500D01*
X144807959Y-98690500D01*
X144807960Y-98690500D01*
X156547638Y-98690500D01*
X156614677Y-98710185D01*
X156635319Y-98726819D01*
X158949228Y-101040728D01*
X158982713Y-101102051D01*
X158977729Y-101171743D01*
X158935857Y-101227676D01*
X158899866Y-101246339D01*
X158867207Y-101256951D01*
X158750778Y-101294781D01*
X158568386Y-101387715D01*
X158402786Y-101508028D01*
X158258028Y-101652786D01*
X158137715Y-101818386D01*
X158044781Y-102000776D01*
X157981522Y-102195465D01*
X157949500Y-102397648D01*
X157949500Y-102602351D01*
X157981522Y-102804534D01*
X158044781Y-102999223D01*
X158085759Y-103079645D01*
X158132432Y-103171246D01*
X158137715Y-103181613D01*
X158258028Y-103347213D01*
X158402786Y-103491971D01*
X158557749Y-103604556D01*
X158568390Y-103612287D01*
X158677758Y-103668013D01*
X158750776Y-103705218D01*
X158750778Y-103705218D01*
X158750781Y-103705220D01*
X158845183Y-103735893D01*
X158945465Y-103768477D01*
X159046557Y-103784488D01*
X159147648Y-103800500D01*
X159147649Y-103800500D01*
X159352351Y-103800500D01*
X159352352Y-103800500D01*
X159554534Y-103768477D01*
X159749219Y-103705220D01*
X159931610Y-103612287D01*
X160024590Y-103544732D01*
X160097213Y-103491971D01*
X160097215Y-103491968D01*
X160097219Y-103491966D01*
X160241966Y-103347219D01*
X160241968Y-103347215D01*
X160241971Y-103347213D01*
X160318383Y-103242039D01*
X160362287Y-103181610D01*
X160455220Y-102999219D01*
X160503660Y-102850134D01*
X160543097Y-102792459D01*
X160607456Y-102765261D01*
X160676302Y-102777176D01*
X160709272Y-102800772D01*
X169845536Y-111937035D01*
X169970965Y-112062464D01*
X170118453Y-112161013D01*
X170166452Y-112180895D01*
X170282334Y-112228895D01*
X170456304Y-112263499D01*
X170456308Y-112263500D01*
X170456309Y-112263500D01*
X170633692Y-112263500D01*
X174538402Y-112263500D01*
X174585854Y-112272939D01*
X174711660Y-112325049D01*
X174711665Y-112325051D01*
X174711669Y-112325051D01*
X174711670Y-112325052D01*
X174904956Y-112363500D01*
X174904959Y-112363500D01*
X175102043Y-112363500D01*
X175232082Y-112337632D01*
X175295335Y-112325051D01*
X175477414Y-112249632D01*
X175641282Y-112140139D01*
X175780639Y-112000782D01*
X175890132Y-111836914D01*
X175965551Y-111654835D01*
X176004000Y-111461541D01*
X176004000Y-111264459D01*
X176004000Y-111264456D01*
X175971096Y-111099043D01*
X184162999Y-111099043D01*
X184201447Y-111292329D01*
X184201450Y-111292339D01*
X184254570Y-111420583D01*
X184260914Y-111445895D01*
X184261811Y-111445717D01*
X184297603Y-111625658D01*
X184297606Y-111625670D01*
X184314140Y-111665585D01*
X184365485Y-111789544D01*
X184397133Y-111836909D01*
X184397134Y-111836910D01*
X184397137Y-111836914D01*
X184447367Y-111912089D01*
X184464035Y-111937035D01*
X184464038Y-111937039D01*
X185901681Y-113374680D01*
X185935166Y-113436003D01*
X185938000Y-113462361D01*
X185938000Y-117247902D01*
X185928561Y-117295354D01*
X185876449Y-117421163D01*
X185876447Y-117421171D01*
X185838000Y-117614456D01*
X185838000Y-117614459D01*
X185838000Y-117811541D01*
X185838000Y-117811543D01*
X185837999Y-117811543D01*
X185876447Y-118004829D01*
X185876450Y-118004839D01*
X185951864Y-118186907D01*
X185951871Y-118186920D01*
X186061360Y-118350781D01*
X186061363Y-118350785D01*
X186200714Y-118490136D01*
X186200718Y-118490139D01*
X186364579Y-118599628D01*
X186364592Y-118599635D01*
X186546660Y-118675049D01*
X186546665Y-118675051D01*
X186546669Y-118675051D01*
X186546670Y-118675052D01*
X186739956Y-118713500D01*
X186739959Y-118713500D01*
X186937043Y-118713500D01*
X187094304Y-118682218D01*
X187130335Y-118675051D01*
X187312414Y-118599632D01*
X187476282Y-118490139D01*
X187615639Y-118350782D01*
X187725132Y-118186914D01*
X187800551Y-118004835D01*
X187839000Y-117811541D01*
X187839000Y-117614459D01*
X187839000Y-117614456D01*
X187809965Y-117468496D01*
X187800551Y-117421165D01*
X187748439Y-117295354D01*
X187739000Y-117247902D01*
X187739000Y-113640135D01*
X196769500Y-113640135D01*
X196769500Y-115435870D01*
X196769501Y-115435876D01*
X196775908Y-115495483D01*
X196826202Y-115630328D01*
X196826206Y-115630335D01*
X196912452Y-115745544D01*
X196912455Y-115745547D01*
X197027664Y-115831793D01*
X197027671Y-115831797D01*
X197027674Y-115831798D01*
X197159598Y-115881002D01*
X197215531Y-115922873D01*
X197239949Y-115988337D01*
X197225098Y-116056610D01*
X197203947Y-116084865D01*
X197090271Y-116198541D01*
X196965379Y-116370442D01*
X196868904Y-116559782D01*
X196803242Y-116761870D01*
X196803242Y-116761873D01*
X196792769Y-116828000D01*
X197686988Y-116828000D01*
X197654075Y-116885007D01*
X197620000Y-117012174D01*
X197620000Y-117143826D01*
X197654075Y-117270993D01*
X197686988Y-117328000D01*
X196792769Y-117328000D01*
X196803242Y-117394126D01*
X196803242Y-117394129D01*
X196868904Y-117596217D01*
X196965379Y-117785557D01*
X197090272Y-117957459D01*
X197090276Y-117957464D01*
X197240535Y-118107723D01*
X197240540Y-118107727D01*
X197412444Y-118232622D01*
X197422048Y-118237516D01*
X197472844Y-118285491D01*
X197489638Y-118353312D01*
X197467100Y-118419447D01*
X197422048Y-118458484D01*
X197412444Y-118463377D01*
X197240540Y-118588272D01*
X197240535Y-118588276D01*
X197090276Y-118738535D01*
X197090272Y-118738540D01*
X196965379Y-118910442D01*
X196868904Y-119099782D01*
X196803242Y-119301870D01*
X196803242Y-119301873D01*
X196792769Y-119368000D01*
X197686988Y-119368000D01*
X197654075Y-119425007D01*
X197620000Y-119552174D01*
X197620000Y-119683826D01*
X197654075Y-119810993D01*
X197686988Y-119868000D01*
X196792769Y-119868000D01*
X196803242Y-119934126D01*
X196803242Y-119934129D01*
X196868904Y-120136217D01*
X196965379Y-120325557D01*
X197090272Y-120497459D01*
X197090276Y-120497464D01*
X197240535Y-120647723D01*
X197240540Y-120647727D01*
X197412444Y-120772622D01*
X197421495Y-120777234D01*
X197472292Y-120825208D01*
X197489087Y-120893029D01*
X197466550Y-120959164D01*
X197421499Y-120998202D01*
X197412182Y-121002949D01*
X197240213Y-121127890D01*
X197089890Y-121278213D01*
X196964951Y-121450179D01*
X196868444Y-121639585D01*
X196802753Y-121841760D01*
X196769500Y-122051713D01*
X196769500Y-122264286D01*
X196800006Y-122456898D01*
X196802754Y-122474243D01*
X196847617Y-122612318D01*
X196868444Y-122676414D01*
X196964951Y-122865820D01*
X197089890Y-123037786D01*
X197240213Y-123188109D01*
X197412179Y-123313048D01*
X197412181Y-123313049D01*
X197412184Y-123313051D01*
X197601588Y-123409557D01*
X197803757Y-123475246D01*
X198013713Y-123508500D01*
X198013714Y-123508500D01*
X198226286Y-123508500D01*
X198226287Y-123508500D01*
X198436243Y-123475246D01*
X198638412Y-123409557D01*
X198827816Y-123313051D01*
X198849789Y-123297086D01*
X198999786Y-123188109D01*
X198999788Y-123188106D01*
X198999792Y-123188104D01*
X199150104Y-123037792D01*
X199150106Y-123037788D01*
X199150109Y-123037786D01*
X199259086Y-122887789D01*
X199275051Y-122865816D01*
X199371557Y-122676412D01*
X199437246Y-122474243D01*
X199470500Y-122264287D01*
X199470500Y-122051713D01*
X199437246Y-121841757D01*
X199371557Y-121639588D01*
X199275051Y-121450184D01*
X199275049Y-121450181D01*
X199275048Y-121450179D01*
X199150109Y-121278213D01*
X198999786Y-121127890D01*
X198827817Y-121002949D01*
X198818504Y-120998204D01*
X198767707Y-120950230D01*
X198750912Y-120882409D01*
X198773449Y-120816274D01*
X198818507Y-120777232D01*
X198827558Y-120772620D01*
X198999459Y-120647727D01*
X198999464Y-120647723D01*
X199149723Y-120497464D01*
X199149727Y-120497459D01*
X199274620Y-120325557D01*
X199371095Y-120136217D01*
X199436757Y-119934129D01*
X199436757Y-119934126D01*
X199447231Y-119868000D01*
X198553012Y-119868000D01*
X198585925Y-119810993D01*
X198620000Y-119683826D01*
X198620000Y-119552174D01*
X198585925Y-119425007D01*
X198553012Y-119368000D01*
X199447231Y-119368000D01*
X199436757Y-119301873D01*
X199436757Y-119301870D01*
X199371095Y-119099782D01*
X199274620Y-118910442D01*
X199149727Y-118738540D01*
X199149723Y-118738535D01*
X198999464Y-118588276D01*
X198999459Y-118588272D01*
X198827558Y-118463379D01*
X198817954Y-118458486D01*
X198767157Y-118410512D01*
X198750361Y-118342692D01*
X198772897Y-118276556D01*
X198817954Y-118237514D01*
X198827558Y-118232620D01*
X198999459Y-118107727D01*
X198999464Y-118107723D01*
X199149723Y-117957464D01*
X199149727Y-117957459D01*
X199274620Y-117785557D01*
X199371095Y-117596217D01*
X199436757Y-117394129D01*
X199436757Y-117394126D01*
X199447231Y-117328000D01*
X198553012Y-117328000D01*
X198585925Y-117270993D01*
X198620000Y-117143826D01*
X198620000Y-117012174D01*
X198585925Y-116885007D01*
X198553012Y-116828000D01*
X199447231Y-116828000D01*
X199436757Y-116761873D01*
X199436757Y-116761870D01*
X199371095Y-116559782D01*
X199274620Y-116370442D01*
X199149727Y-116198540D01*
X199149723Y-116198535D01*
X199036053Y-116084865D01*
X199002568Y-116023542D01*
X199007552Y-115953850D01*
X199049424Y-115897917D01*
X199080400Y-115881002D01*
X199212331Y-115831796D01*
X199327546Y-115745546D01*
X199413796Y-115630331D01*
X199464091Y-115495483D01*
X199470500Y-115435873D01*
X199470499Y-113640128D01*
X199464091Y-113580517D01*
X199413796Y-113445669D01*
X199413795Y-113445668D01*
X199413793Y-113445664D01*
X199327547Y-113330455D01*
X199327544Y-113330452D01*
X199212335Y-113244206D01*
X199212328Y-113244202D01*
X199077482Y-113193908D01*
X199077483Y-113193908D01*
X199017883Y-113187501D01*
X199017881Y-113187500D01*
X199017873Y-113187500D01*
X199017864Y-113187500D01*
X197222129Y-113187500D01*
X197222123Y-113187501D01*
X197162516Y-113193908D01*
X197027671Y-113244202D01*
X197027664Y-113244206D01*
X196912455Y-113330452D01*
X196912452Y-113330455D01*
X196826206Y-113445664D01*
X196826202Y-113445671D01*
X196775908Y-113580517D01*
X196769501Y-113640116D01*
X196769501Y-113640123D01*
X196769500Y-113640135D01*
X187739000Y-113640135D01*
X187739000Y-112949308D01*
X187738999Y-112949304D01*
X187704396Y-112775341D01*
X187704395Y-112775334D01*
X187638839Y-112617071D01*
X187637195Y-112612474D01*
X187537965Y-112463966D01*
X187537964Y-112463965D01*
X187412535Y-112338536D01*
X186200319Y-111126319D01*
X186166834Y-111064996D01*
X186164000Y-111038638D01*
X186164000Y-110901956D01*
X186125552Y-110708670D01*
X186125551Y-110708669D01*
X186125551Y-110708665D01*
X186125549Y-110708660D01*
X186050135Y-110526592D01*
X186050128Y-110526579D01*
X185940639Y-110362718D01*
X185940636Y-110362714D01*
X185801285Y-110223363D01*
X185801281Y-110223360D01*
X185637420Y-110113871D01*
X185637407Y-110113864D01*
X185455339Y-110038450D01*
X185455329Y-110038447D01*
X185262043Y-110000000D01*
X185262041Y-110000000D01*
X185064959Y-110000000D01*
X185064957Y-110000000D01*
X184871670Y-110038447D01*
X184871660Y-110038450D01*
X184689592Y-110113864D01*
X184689579Y-110113871D01*
X184525718Y-110223360D01*
X184525714Y-110223363D01*
X184386363Y-110362714D01*
X184386360Y-110362718D01*
X184276871Y-110526579D01*
X184276864Y-110526592D01*
X184201450Y-110708660D01*
X184201447Y-110708670D01*
X184163000Y-110901956D01*
X184163000Y-110901959D01*
X184163000Y-111099041D01*
X184163000Y-111099043D01*
X184162999Y-111099043D01*
X175971096Y-111099043D01*
X175965552Y-111071170D01*
X175965551Y-111071169D01*
X175965551Y-111071165D01*
X175952078Y-111038638D01*
X175912597Y-110943320D01*
X175897119Y-110905953D01*
X175889650Y-110836484D01*
X175920925Y-110774004D01*
X175981014Y-110738352D01*
X176011680Y-110734500D01*
X179639607Y-110734500D01*
X179639608Y-110734499D01*
X179760452Y-110710463D01*
X179874286Y-110663311D01*
X179976733Y-110594858D01*
X180063858Y-110507733D01*
X180132311Y-110405286D01*
X180179463Y-110291452D01*
X180203500Y-110170606D01*
X180203500Y-109743951D01*
X180223185Y-109676912D01*
X180239815Y-109656274D01*
X181056271Y-108839817D01*
X181117594Y-108806333D01*
X181143952Y-108803499D01*
X182256371Y-108803499D01*
X182256372Y-108803499D01*
X182315983Y-108797091D01*
X182450831Y-108746796D01*
X182566046Y-108660546D01*
X182652296Y-108545331D01*
X182702591Y-108410483D01*
X182708323Y-108357162D01*
X182735060Y-108292615D01*
X182792452Y-108252767D01*
X182862277Y-108250273D01*
X182922366Y-108285925D01*
X182931930Y-108297536D01*
X183006528Y-108400212D01*
X183006532Y-108400217D01*
X183151286Y-108544971D01*
X183306249Y-108657556D01*
X183316890Y-108665287D01*
X183433107Y-108724503D01*
X183499276Y-108758218D01*
X183499278Y-108758218D01*
X183499281Y-108758220D01*
X183571905Y-108781817D01*
X183693965Y-108821477D01*
X183795057Y-108837488D01*
X183896148Y-108853500D01*
X183896149Y-108853500D01*
X184100851Y-108853500D01*
X184100852Y-108853500D01*
X184303034Y-108821477D01*
X184497719Y-108758220D01*
X184680110Y-108665287D01*
X184773090Y-108597732D01*
X184845713Y-108544971D01*
X184845715Y-108544968D01*
X184845719Y-108544966D01*
X184990466Y-108400219D01*
X184990468Y-108400215D01*
X184990471Y-108400213D01*
X185068644Y-108292615D01*
X185110787Y-108234610D01*
X185203720Y-108052219D01*
X185266977Y-107857534D01*
X185299000Y-107655352D01*
X185299000Y-107450648D01*
X185295953Y-107431412D01*
X185266977Y-107248465D01*
X185203718Y-107053776D01*
X185170003Y-106987607D01*
X185110787Y-106871390D01*
X185076721Y-106824502D01*
X184990471Y-106705786D01*
X184845713Y-106561028D01*
X184680113Y-106440715D01*
X184680112Y-106440714D01*
X184680110Y-106440713D01*
X184589579Y-106394585D01*
X184497723Y-106347781D01*
X184303034Y-106284522D01*
X184128495Y-106256878D01*
X184100852Y-106252500D01*
X183896148Y-106252500D01*
X183871829Y-106256351D01*
X183693965Y-106284522D01*
X183499276Y-106347781D01*
X183316886Y-106440715D01*
X183151286Y-106561028D01*
X183006532Y-106705782D01*
X183006528Y-106705787D01*
X182931930Y-106808463D01*
X182876600Y-106851129D01*
X182806987Y-106857108D01*
X182745192Y-106824502D01*
X182710834Y-106763664D01*
X182708322Y-106748831D01*
X182702591Y-106695516D01*
X182652297Y-106560671D01*
X182652293Y-106560664D01*
X182566047Y-106445455D01*
X182566044Y-106445452D01*
X182450835Y-106359206D01*
X182450828Y-106359202D01*
X182315982Y-106308908D01*
X182315983Y-106308908D01*
X182256383Y-106302501D01*
X182256381Y-106302500D01*
X182256373Y-106302500D01*
X182256364Y-106302500D01*
X180660629Y-106302500D01*
X180660623Y-106302501D01*
X180601016Y-106308908D01*
X180466171Y-106359202D01*
X180466164Y-106359206D01*
X180350955Y-106445452D01*
X180350952Y-106445455D01*
X180264706Y-106560664D01*
X180264702Y-106560671D01*
X180214408Y-106695516D01*
X180208676Y-106748834D01*
X180181938Y-106813385D01*
X180124545Y-106853233D01*
X180054720Y-106855726D01*
X179994631Y-106820073D01*
X179985069Y-106808463D01*
X179910471Y-106705786D01*
X179765713Y-106561028D01*
X179600113Y-106440715D01*
X179600112Y-106440714D01*
X179600110Y-106440713D01*
X179509579Y-106394585D01*
X179417723Y-106347781D01*
X179223034Y-106284522D01*
X179048495Y-106256878D01*
X179020852Y-106252500D01*
X178816148Y-106252500D01*
X178791829Y-106256351D01*
X178613965Y-106284522D01*
X178419276Y-106347781D01*
X178236886Y-106440715D01*
X178071286Y-106561028D01*
X177926528Y-106705786D01*
X177806215Y-106871386D01*
X177713281Y-107053776D01*
X177650022Y-107248465D01*
X177618000Y-107450648D01*
X177618000Y-107655351D01*
X177650022Y-107857534D01*
X177713281Y-108052223D01*
X177770518Y-108164555D01*
X177803989Y-108230246D01*
X177806215Y-108234613D01*
X177926528Y-108400213D01*
X178071286Y-108544971D01*
X178226249Y-108657556D01*
X178236890Y-108665287D01*
X178353107Y-108724503D01*
X178419276Y-108758218D01*
X178419278Y-108758218D01*
X178419281Y-108758220D01*
X178491905Y-108781817D01*
X178613965Y-108821477D01*
X178715057Y-108837488D01*
X178816148Y-108853500D01*
X178816149Y-108853500D01*
X178981273Y-108853500D01*
X178985712Y-108854803D01*
X178990235Y-108853824D01*
X179018928Y-108864556D01*
X179048312Y-108873185D01*
X179051341Y-108876681D01*
X179055677Y-108878303D01*
X179074014Y-108902847D01*
X179094067Y-108925989D01*
X179094725Y-108930567D01*
X179097495Y-108934275D01*
X179099651Y-108964825D01*
X179104011Y-108995147D01*
X179102179Y-109000642D01*
X179102414Y-109003972D01*
X179096190Y-109018605D01*
X179090049Y-109037029D01*
X179087417Y-109041837D01*
X179057915Y-109085990D01*
X179023688Y-109137214D01*
X178990347Y-109217707D01*
X178987785Y-109223892D01*
X178987783Y-109223896D01*
X178976537Y-109251045D01*
X178976535Y-109251053D01*
X178951311Y-109377869D01*
X178950108Y-109377629D01*
X178926369Y-109436434D01*
X178869337Y-109476797D01*
X178829121Y-109483500D01*
X172395452Y-109483500D01*
X172328413Y-109463815D01*
X172307771Y-109447181D01*
X169667303Y-106806713D01*
X171218000Y-106806713D01*
X171218000Y-107019287D01*
X171251254Y-107229243D01*
X171300628Y-107381201D01*
X171316944Y-107431414D01*
X171413451Y-107620820D01*
X171538390Y-107792786D01*
X171688713Y-107943109D01*
X171860679Y-108068048D01*
X171860681Y-108068049D01*
X171860684Y-108068051D01*
X172050088Y-108164557D01*
X172252257Y-108230246D01*
X172462213Y-108263500D01*
X172462214Y-108263500D01*
X172674786Y-108263500D01*
X172674787Y-108263500D01*
X172884743Y-108230246D01*
X173086912Y-108164557D01*
X173276316Y-108068051D01*
X173398072Y-107979591D01*
X173448286Y-107943109D01*
X173448288Y-107943106D01*
X173448292Y-107943104D01*
X173598604Y-107792792D01*
X173598606Y-107792788D01*
X173598609Y-107792786D01*
X173723548Y-107620820D01*
X173723547Y-107620820D01*
X173723551Y-107620816D01*
X173820057Y-107431412D01*
X173885746Y-107229243D01*
X173919000Y-107019287D01*
X173919000Y-106806713D01*
X173885746Y-106596757D01*
X173820057Y-106394588D01*
X173723551Y-106205184D01*
X173723549Y-106205181D01*
X173723548Y-106205179D01*
X173598609Y-106033213D01*
X173484681Y-105919285D01*
X173451196Y-105857962D01*
X173456180Y-105788270D01*
X173498052Y-105732337D01*
X173529029Y-105715422D01*
X173660586Y-105666354D01*
X173660593Y-105666350D01*
X173775687Y-105580190D01*
X173775690Y-105580187D01*
X173861850Y-105465093D01*
X173861854Y-105465086D01*
X173912096Y-105330379D01*
X173912098Y-105330372D01*
X173918499Y-105270844D01*
X173918500Y-105270827D01*
X173918500Y-104623000D01*
X173001512Y-104623000D01*
X173034425Y-104565993D01*
X173068500Y-104438826D01*
X173068500Y-104307174D01*
X173034425Y-104180007D01*
X173001512Y-104123000D01*
X173918500Y-104123000D01*
X173918500Y-103475172D01*
X173918499Y-103475155D01*
X173912098Y-103415627D01*
X173912096Y-103415620D01*
X173861854Y-103280913D01*
X173861850Y-103280906D01*
X173775690Y-103165812D01*
X173775687Y-103165809D01*
X173660593Y-103079649D01*
X173660586Y-103079645D01*
X173525879Y-103029403D01*
X173525872Y-103029401D01*
X173466344Y-103023000D01*
X172818500Y-103023000D01*
X172818500Y-103939988D01*
X172761493Y-103907075D01*
X172634326Y-103873000D01*
X172502674Y-103873000D01*
X172375507Y-103907075D01*
X172318500Y-103939988D01*
X172318500Y-103023000D01*
X171670655Y-103023000D01*
X171611127Y-103029401D01*
X171611120Y-103029403D01*
X171476413Y-103079645D01*
X171476406Y-103079649D01*
X171361312Y-103165809D01*
X171361309Y-103165812D01*
X171275149Y-103280906D01*
X171275145Y-103280913D01*
X171224903Y-103415620D01*
X171224901Y-103415627D01*
X171218500Y-103475155D01*
X171218500Y-104123000D01*
X172135488Y-104123000D01*
X172102575Y-104180007D01*
X172068500Y-104307174D01*
X172068500Y-104438826D01*
X172102575Y-104565993D01*
X172135488Y-104623000D01*
X171218500Y-104623000D01*
X171218500Y-105270844D01*
X171224901Y-105330372D01*
X171224903Y-105330379D01*
X171275145Y-105465086D01*
X171275149Y-105465093D01*
X171361309Y-105580187D01*
X171361312Y-105580190D01*
X171476406Y-105666350D01*
X171476413Y-105666354D01*
X171607970Y-105715422D01*
X171663904Y-105757293D01*
X171688321Y-105822758D01*
X171673469Y-105891031D01*
X171652319Y-105919285D01*
X171538389Y-106033215D01*
X171413451Y-106205179D01*
X171316944Y-106394585D01*
X171251253Y-106596760D01*
X171239123Y-106673346D01*
X171218000Y-106806713D01*
X169667303Y-106806713D01*
X166859324Y-103998734D01*
X166825839Y-103937411D01*
X166830823Y-103867719D01*
X166872695Y-103811786D01*
X166927604Y-103788580D01*
X167054534Y-103768477D01*
X167249219Y-103705220D01*
X167431610Y-103612287D01*
X167524590Y-103544732D01*
X167597213Y-103491971D01*
X167597215Y-103491968D01*
X167597219Y-103491966D01*
X167741966Y-103347219D01*
X167741968Y-103347215D01*
X167741971Y-103347213D01*
X167818383Y-103242039D01*
X167862287Y-103181610D01*
X167955220Y-102999219D01*
X168018477Y-102804534D01*
X168050500Y-102602352D01*
X168050500Y-102397648D01*
X168036512Y-102309333D01*
X168045466Y-102240042D01*
X168090462Y-102186590D01*
X168157214Y-102165950D01*
X168224528Y-102184675D01*
X168246666Y-102202256D01*
X168862181Y-102817771D01*
X168895666Y-102879094D01*
X168898500Y-102905452D01*
X168898500Y-102958695D01*
X168933103Y-103132658D01*
X168933106Y-103132667D01*
X169000983Y-103296540D01*
X169000990Y-103296553D01*
X169099535Y-103444034D01*
X169099538Y-103444038D01*
X169224961Y-103569461D01*
X169224965Y-103569464D01*
X169372446Y-103668009D01*
X169372459Y-103668016D01*
X169495363Y-103718923D01*
X169536334Y-103735894D01*
X169536336Y-103735894D01*
X169536341Y-103735896D01*
X169710304Y-103770499D01*
X169710307Y-103770500D01*
X169710309Y-103770500D01*
X169887693Y-103770500D01*
X169887694Y-103770499D01*
X169945682Y-103758964D01*
X170061658Y-103735896D01*
X170061661Y-103735894D01*
X170061666Y-103735894D01*
X170225547Y-103668013D01*
X170373035Y-103569464D01*
X170498464Y-103444035D01*
X170597013Y-103296547D01*
X170664894Y-103132666D01*
X170670287Y-103105557D01*
X170699499Y-102958695D01*
X170699500Y-102958693D01*
X170699500Y-102781306D01*
X170699499Y-102781304D01*
X170664896Y-102607341D01*
X170664893Y-102607332D01*
X170597016Y-102443459D01*
X170597009Y-102443446D01*
X170498464Y-102295965D01*
X170498461Y-102295961D01*
X170373038Y-102170538D01*
X170373034Y-102170535D01*
X170225553Y-102071990D01*
X170225540Y-102071983D01*
X170061667Y-102004106D01*
X170061658Y-102004103D01*
X169887694Y-101969500D01*
X169887691Y-101969500D01*
X169834453Y-101969500D01*
X169805012Y-101960855D01*
X169775026Y-101954332D01*
X169770010Y-101950577D01*
X169767414Y-101949815D01*
X169746772Y-101933181D01*
X169561304Y-101747713D01*
X186106500Y-101747713D01*
X186106500Y-101960287D01*
X186139754Y-102170243D01*
X186180602Y-102295961D01*
X186205444Y-102372414D01*
X186301951Y-102561820D01*
X186426890Y-102733786D01*
X186577213Y-102884109D01*
X186749179Y-103009048D01*
X186749181Y-103009049D01*
X186749184Y-103009051D01*
X186938588Y-103105557D01*
X187140757Y-103171246D01*
X187350713Y-103204500D01*
X187350714Y-103204500D01*
X187563286Y-103204500D01*
X187563287Y-103204500D01*
X187773243Y-103171246D01*
X187975412Y-103105557D01*
X188164816Y-103009051D01*
X188251478Y-102946088D01*
X188336784Y-102884110D01*
X188336784Y-102884109D01*
X188336792Y-102884104D01*
X188450717Y-102770178D01*
X188512036Y-102736696D01*
X188581728Y-102741680D01*
X188637662Y-102783551D01*
X188654577Y-102814528D01*
X188703646Y-102946088D01*
X188703649Y-102946093D01*
X188789809Y-103061187D01*
X188789812Y-103061190D01*
X188904906Y-103147350D01*
X188904913Y-103147354D01*
X189039620Y-103197596D01*
X189039627Y-103197598D01*
X189099155Y-103203999D01*
X189099172Y-103204000D01*
X189747000Y-103204000D01*
X189747000Y-102287012D01*
X189804007Y-102319925D01*
X189931174Y-102354000D01*
X190062826Y-102354000D01*
X190189993Y-102319925D01*
X190247000Y-102287012D01*
X190247000Y-103204000D01*
X190894828Y-103204000D01*
X190894844Y-103203999D01*
X190954372Y-103197598D01*
X190954379Y-103197596D01*
X191089086Y-103147354D01*
X191089093Y-103147350D01*
X191204187Y-103061190D01*
X191204190Y-103061187D01*
X191290350Y-102946093D01*
X191290354Y-102946086D01*
X191340596Y-102811379D01*
X191340598Y-102811372D01*
X191346999Y-102751844D01*
X191347000Y-102751827D01*
X191347000Y-102104000D01*
X190430012Y-102104000D01*
X190462925Y-102046993D01*
X190497000Y-101919826D01*
X190497000Y-101788174D01*
X190462925Y-101661007D01*
X190430012Y-101604000D01*
X191347000Y-101604000D01*
X191347000Y-100956172D01*
X191346999Y-100956155D01*
X191340598Y-100896627D01*
X191340596Y-100896620D01*
X191290354Y-100761913D01*
X191290350Y-100761906D01*
X191204190Y-100646812D01*
X191204187Y-100646809D01*
X191089093Y-100560649D01*
X191089086Y-100560645D01*
X190954379Y-100510403D01*
X190954372Y-100510401D01*
X190894844Y-100504000D01*
X190247000Y-100504000D01*
X190247000Y-101420988D01*
X190189993Y-101388075D01*
X190062826Y-101354000D01*
X189931174Y-101354000D01*
X189804007Y-101388075D01*
X189747000Y-101420988D01*
X189747000Y-100504000D01*
X189099155Y-100504000D01*
X189039627Y-100510401D01*
X189039620Y-100510403D01*
X188904913Y-100560645D01*
X188904906Y-100560649D01*
X188789812Y-100646809D01*
X188789809Y-100646812D01*
X188703649Y-100761906D01*
X188703646Y-100761912D01*
X188654577Y-100893471D01*
X188612705Y-100949404D01*
X188547241Y-100973821D01*
X188478968Y-100958969D01*
X188450714Y-100937818D01*
X188336786Y-100823890D01*
X188164820Y-100698951D01*
X187975414Y-100602444D01*
X187975413Y-100602443D01*
X187975412Y-100602443D01*
X187773243Y-100536754D01*
X187773241Y-100536753D01*
X187773240Y-100536753D01*
X187611957Y-100511208D01*
X187563287Y-100503500D01*
X187350713Y-100503500D01*
X187302042Y-100511208D01*
X187140760Y-100536753D01*
X186938585Y-100602444D01*
X186749179Y-100698951D01*
X186577213Y-100823890D01*
X186426890Y-100974213D01*
X186301951Y-101146179D01*
X186205444Y-101335585D01*
X186139753Y-101537760D01*
X186118136Y-101674244D01*
X186106500Y-101747713D01*
X169561304Y-101747713D01*
X168665319Y-100851728D01*
X168631834Y-100790405D01*
X168629000Y-100764047D01*
X168629000Y-95388043D01*
X183784499Y-95388043D01*
X183822947Y-95581329D01*
X183822950Y-95581339D01*
X183898364Y-95763407D01*
X183898371Y-95763420D01*
X184007860Y-95927281D01*
X184007863Y-95927285D01*
X184147214Y-96066636D01*
X184147218Y-96066639D01*
X184311079Y-96176128D01*
X184311092Y-96176135D01*
X184493160Y-96251549D01*
X184493165Y-96251551D01*
X184493169Y-96251551D01*
X184493170Y-96251552D01*
X184686456Y-96290000D01*
X184686459Y-96290000D01*
X184883543Y-96290000D01*
X185013582Y-96264132D01*
X185076835Y-96251551D01*
X185138007Y-96226212D01*
X185202646Y-96199439D01*
X185250098Y-96190000D01*
X187501193Y-96190000D01*
X187501194Y-96189999D01*
X187675166Y-96155395D01*
X187770528Y-96115894D01*
X187839047Y-96087513D01*
X187953320Y-96011158D01*
X187986536Y-95988964D01*
X188423681Y-95551819D01*
X188485004Y-95518334D01*
X188511362Y-95515500D01*
X191939902Y-95515500D01*
X191987354Y-95524939D01*
X192052249Y-95551819D01*
X192113165Y-95577051D01*
X192113169Y-95577051D01*
X192113170Y-95577052D01*
X192306456Y-95615500D01*
X192306459Y-95615500D01*
X192503543Y-95615500D01*
X192633582Y-95589632D01*
X192696835Y-95577051D01*
X192878914Y-95501632D01*
X193042782Y-95392139D01*
X193182139Y-95252782D01*
X193291632Y-95088914D01*
X193333708Y-94987334D01*
X193367051Y-94906835D01*
X193367052Y-94906829D01*
X193367231Y-94905932D01*
X193403672Y-94722733D01*
X193405500Y-94713543D01*
X193405500Y-94516456D01*
X193367052Y-94323170D01*
X193367051Y-94323169D01*
X193367051Y-94323165D01*
X193327039Y-94226567D01*
X193291635Y-94141092D01*
X193291628Y-94141079D01*
X193182139Y-93977218D01*
X193182136Y-93977214D01*
X193042785Y-93837863D01*
X193042781Y-93837860D01*
X192878920Y-93728371D01*
X192878907Y-93728364D01*
X192696839Y-93652950D01*
X192696829Y-93652947D01*
X192503543Y-93614500D01*
X192503541Y-93614500D01*
X192306459Y-93614500D01*
X192306457Y-93614500D01*
X192113170Y-93652947D01*
X192113160Y-93652950D01*
X191987354Y-93705061D01*
X191939902Y-93714500D01*
X187998303Y-93714500D01*
X187824341Y-93749103D01*
X187824333Y-93749105D01*
X187751873Y-93779119D01*
X187751866Y-93779122D01*
X187746245Y-93781451D01*
X187660453Y-93816987D01*
X187583257Y-93868568D01*
X187578194Y-93871950D01*
X187578192Y-93871952D01*
X187512961Y-93915537D01*
X187512960Y-93915538D01*
X187075819Y-94352681D01*
X187014496Y-94386166D01*
X186988138Y-94389000D01*
X185250098Y-94389000D01*
X185202646Y-94379561D01*
X185076839Y-94327450D01*
X185076829Y-94327447D01*
X184883543Y-94289000D01*
X184883541Y-94289000D01*
X184686459Y-94289000D01*
X184686457Y-94289000D01*
X184493170Y-94327447D01*
X184493160Y-94327450D01*
X184311092Y-94402864D01*
X184311079Y-94402871D01*
X184147218Y-94512360D01*
X184147214Y-94512363D01*
X184007863Y-94651714D01*
X184007860Y-94651718D01*
X183898371Y-94815579D01*
X183898364Y-94815592D01*
X183822950Y-94997660D01*
X183822947Y-94997670D01*
X183784500Y-95190956D01*
X183784500Y-95190959D01*
X183784500Y-95388041D01*
X183784500Y-95388043D01*
X183784499Y-95388043D01*
X168629000Y-95388043D01*
X168629000Y-92410861D01*
X168648685Y-92343822D01*
X168665314Y-92323184D01*
X168720464Y-92268035D01*
X168819013Y-92120547D01*
X168819016Y-92120540D01*
X168829300Y-92095713D01*
X170866500Y-92095713D01*
X170866500Y-92308286D01*
X170899168Y-92514548D01*
X170899754Y-92518243D01*
X170964274Y-92716815D01*
X170965444Y-92720414D01*
X171061951Y-92909820D01*
X171186890Y-93081786D01*
X171337213Y-93232109D01*
X171509179Y-93357048D01*
X171509181Y-93357049D01*
X171509184Y-93357051D01*
X171698588Y-93453557D01*
X171900757Y-93519246D01*
X172110713Y-93552500D01*
X172110714Y-93552500D01*
X172323286Y-93552500D01*
X172323287Y-93552500D01*
X172533243Y-93519246D01*
X172735412Y-93453557D01*
X172924816Y-93357051D01*
X173011147Y-93294328D01*
X173096784Y-93232110D01*
X173096784Y-93232109D01*
X173096792Y-93232104D01*
X173210329Y-93118566D01*
X173271648Y-93085084D01*
X173341340Y-93090068D01*
X173397274Y-93131939D01*
X173414189Y-93162917D01*
X173463202Y-93294328D01*
X173463206Y-93294335D01*
X173549452Y-93409544D01*
X173549455Y-93409547D01*
X173664664Y-93495793D01*
X173664671Y-93495797D01*
X173799517Y-93546091D01*
X173799516Y-93546091D01*
X173806444Y-93546835D01*
X173859127Y-93552500D01*
X175654872Y-93552499D01*
X175714483Y-93546091D01*
X175849331Y-93495796D01*
X175964546Y-93409546D01*
X176050796Y-93294331D01*
X176101091Y-93159483D01*
X176107500Y-93099873D01*
X176107499Y-91304128D01*
X176101091Y-91244517D01*
X176099810Y-91241083D01*
X176050797Y-91109671D01*
X176050793Y-91109664D01*
X175964547Y-90994455D01*
X175964544Y-90994452D01*
X175849335Y-90908206D01*
X175849328Y-90908202D01*
X175714482Y-90857908D01*
X175714483Y-90857908D01*
X175654883Y-90851501D01*
X175654881Y-90851500D01*
X175654873Y-90851500D01*
X175654864Y-90851500D01*
X173859129Y-90851500D01*
X173859123Y-90851501D01*
X173799516Y-90857908D01*
X173664671Y-90908202D01*
X173664664Y-90908206D01*
X173549455Y-90994452D01*
X173549452Y-90994455D01*
X173463206Y-91109664D01*
X173463203Y-91109669D01*
X173414189Y-91241083D01*
X173372317Y-91297016D01*
X173306853Y-91321433D01*
X173238580Y-91306581D01*
X173210326Y-91285430D01*
X173096786Y-91171890D01*
X172924820Y-91046951D01*
X172735414Y-90950444D01*
X172735413Y-90950443D01*
X172735412Y-90950443D01*
X172533243Y-90884754D01*
X172533241Y-90884753D01*
X172533240Y-90884753D01*
X172371957Y-90859208D01*
X172323287Y-90851500D01*
X172110713Y-90851500D01*
X172062042Y-90859208D01*
X171900760Y-90884753D01*
X171698585Y-90950444D01*
X171509179Y-91046951D01*
X171337213Y-91171890D01*
X171186890Y-91322213D01*
X171061951Y-91494179D01*
X170965444Y-91683585D01*
X170899753Y-91885760D01*
X170866500Y-92095713D01*
X168829300Y-92095713D01*
X168850970Y-92043396D01*
X168850970Y-92043393D01*
X168886894Y-91956666D01*
X168921500Y-91782691D01*
X168921500Y-91605309D01*
X168921500Y-91605306D01*
X168921499Y-91605304D01*
X168886896Y-91431341D01*
X168886893Y-91431332D01*
X168819016Y-91267459D01*
X168819009Y-91267446D01*
X168720464Y-91119965D01*
X168720461Y-91119961D01*
X168595038Y-90994538D01*
X168595034Y-90994535D01*
X168447553Y-90895990D01*
X168447540Y-90895983D01*
X168283667Y-90828106D01*
X168283658Y-90828103D01*
X168109694Y-90793500D01*
X168109691Y-90793500D01*
X167932309Y-90793500D01*
X167932306Y-90793500D01*
X167758341Y-90828103D01*
X167758332Y-90828106D01*
X167594459Y-90895983D01*
X167594446Y-90895990D01*
X167446965Y-90994535D01*
X167446961Y-90994538D01*
X167321538Y-91119961D01*
X167321535Y-91119965D01*
X167222990Y-91267446D01*
X167222983Y-91267459D01*
X167155106Y-91431332D01*
X167155103Y-91431341D01*
X167120500Y-91605304D01*
X167120500Y-91782695D01*
X167155103Y-91956658D01*
X167155106Y-91956667D01*
X167222983Y-92120540D01*
X167222990Y-92120553D01*
X167321535Y-92268034D01*
X167321537Y-92268037D01*
X167341679Y-92288178D01*
X167375166Y-92349500D01*
X167378000Y-92375861D01*
X167378000Y-101136110D01*
X167379367Y-101142983D01*
X167373137Y-101212574D01*
X167330273Y-101267750D01*
X167264382Y-101290992D01*
X167219431Y-101285101D01*
X167054536Y-101231523D01*
X166886578Y-101204921D01*
X166852352Y-101199500D01*
X166647648Y-101199500D01*
X166623329Y-101203351D01*
X166445465Y-101231522D01*
X166250776Y-101294781D01*
X166068386Y-101387715D01*
X165902786Y-101508028D01*
X165758028Y-101652786D01*
X165637715Y-101818386D01*
X165544781Y-102000776D01*
X165481523Y-102195464D01*
X165461419Y-102322393D01*
X165431489Y-102385527D01*
X165372178Y-102422458D01*
X165302315Y-102421460D01*
X165251265Y-102390675D01*
X162014364Y-99153774D01*
X161980879Y-99092451D01*
X161985863Y-99022759D01*
X162027735Y-98966826D01*
X162093199Y-98942409D01*
X162121441Y-98943619D01*
X162272213Y-98967500D01*
X162272214Y-98967500D01*
X162484786Y-98967500D01*
X162484787Y-98967500D01*
X162694743Y-98934246D01*
X162896912Y-98868557D01*
X163086316Y-98772051D01*
X163171468Y-98710185D01*
X163258286Y-98647109D01*
X163258288Y-98647106D01*
X163258292Y-98647104D01*
X163408604Y-98496792D01*
X163408606Y-98496788D01*
X163408609Y-98496786D01*
X163533548Y-98324820D01*
X163533547Y-98324820D01*
X163533551Y-98324816D01*
X163630057Y-98135412D01*
X163695746Y-97933243D01*
X163729000Y-97723287D01*
X163729000Y-97510713D01*
X163695746Y-97300757D01*
X163630057Y-97098588D01*
X163533551Y-96909184D01*
X163533549Y-96909181D01*
X163533548Y-96909179D01*
X163408609Y-96737213D01*
X163295069Y-96623673D01*
X163261584Y-96562350D01*
X163266568Y-96492658D01*
X163308440Y-96436725D01*
X163339415Y-96419810D01*
X163470831Y-96370796D01*
X163586046Y-96284546D01*
X163672296Y-96169331D01*
X163722591Y-96034483D01*
X163729000Y-95974873D01*
X163728999Y-94179128D01*
X163722591Y-94119517D01*
X163707332Y-94078606D01*
X163672297Y-93984671D01*
X163672293Y-93984664D01*
X163586047Y-93869455D01*
X163586044Y-93869452D01*
X163470835Y-93783206D01*
X163470828Y-93783202D01*
X163335982Y-93732908D01*
X163335983Y-93732908D01*
X163276383Y-93726501D01*
X163276381Y-93726500D01*
X163276373Y-93726500D01*
X163276364Y-93726500D01*
X161480629Y-93726500D01*
X161480623Y-93726501D01*
X161421016Y-93732908D01*
X161286171Y-93783202D01*
X161286164Y-93783206D01*
X161170955Y-93869452D01*
X161170952Y-93869455D01*
X161084706Y-93984664D01*
X161084702Y-93984671D01*
X161034408Y-94119517D01*
X161030857Y-94152553D01*
X161028001Y-94179123D01*
X161028000Y-94179135D01*
X161028000Y-95974870D01*
X161028001Y-95974876D01*
X161034408Y-96034483D01*
X161084702Y-96169328D01*
X161084706Y-96169335D01*
X161170952Y-96284544D01*
X161170955Y-96284547D01*
X161286164Y-96370793D01*
X161286171Y-96370797D01*
X161417582Y-96419810D01*
X161473516Y-96461681D01*
X161497933Y-96527145D01*
X161483082Y-96595418D01*
X161461931Y-96623673D01*
X161348389Y-96737215D01*
X161223451Y-96909179D01*
X161126944Y-97098585D01*
X161061253Y-97300760D01*
X161028000Y-97510713D01*
X161028000Y-97723287D01*
X161027999Y-97723287D01*
X161051879Y-97874057D01*
X161042924Y-97943350D01*
X160997928Y-97996802D01*
X160931176Y-98017441D01*
X160863863Y-97998716D01*
X160841725Y-97981135D01*
X159284819Y-96424229D01*
X159251334Y-96362906D01*
X159248500Y-96336548D01*
X159248500Y-89599361D01*
X159268185Y-89532322D01*
X159284820Y-89511679D01*
X159322461Y-89474038D01*
X159322464Y-89474035D01*
X159421013Y-89326547D01*
X159423167Y-89321348D01*
X159446446Y-89265145D01*
X159488894Y-89162666D01*
X159523500Y-88988691D01*
X159523500Y-88811309D01*
X159523500Y-88811306D01*
X159523499Y-88811304D01*
X159488896Y-88637341D01*
X159488893Y-88637332D01*
X159421016Y-88473459D01*
X159421009Y-88473446D01*
X159322464Y-88325965D01*
X159322461Y-88325961D01*
X159197038Y-88200538D01*
X159197034Y-88200535D01*
X159049553Y-88101990D01*
X159049540Y-88101983D01*
X158885667Y-88034106D01*
X158885658Y-88034103D01*
X158711694Y-87999500D01*
X158711691Y-87999500D01*
X158534309Y-87999500D01*
X158534306Y-87999500D01*
X158360341Y-88034103D01*
X158360332Y-88034106D01*
X158196459Y-88101983D01*
X158196446Y-88101990D01*
X158048965Y-88200535D01*
X158048961Y-88200538D01*
X157923538Y-88325961D01*
X157923535Y-88325965D01*
X157832602Y-88462055D01*
X157778989Y-88506860D01*
X157709664Y-88515567D01*
X157646637Y-88485412D01*
X157609918Y-88425969D01*
X157605500Y-88393164D01*
X157605500Y-85260114D01*
X157625185Y-85193075D01*
X157658575Y-85160398D01*
X157657668Y-85159150D01*
X157661605Y-85156289D01*
X157661610Y-85156287D01*
X157827219Y-85035966D01*
X157971966Y-84891219D01*
X157971968Y-84891215D01*
X157971971Y-84891213D01*
X158081666Y-84740228D01*
X158092287Y-84725610D01*
X158185220Y-84543219D01*
X158248477Y-84348534D01*
X158280500Y-84146352D01*
X158280500Y-83941648D01*
X163179500Y-83941648D01*
X163179500Y-84146351D01*
X163211522Y-84348534D01*
X163274781Y-84543223D01*
X163327857Y-84647389D01*
X163345406Y-84681831D01*
X163367715Y-84725613D01*
X163488028Y-84891213D01*
X163632786Y-85035971D01*
X163765509Y-85132398D01*
X163798390Y-85156287D01*
X163897557Y-85206815D01*
X163980776Y-85249218D01*
X163980778Y-85249218D01*
X163980781Y-85249220D01*
X164085137Y-85283127D01*
X164175465Y-85312477D01*
X164276557Y-85328488D01*
X164377648Y-85344500D01*
X164377649Y-85344500D01*
X164582351Y-85344500D01*
X164582352Y-85344500D01*
X164784534Y-85312477D01*
X164979219Y-85249220D01*
X165161610Y-85156287D01*
X165166612Y-85152653D01*
X165232418Y-85129171D01*
X165300472Y-85144995D01*
X165349168Y-85195099D01*
X165363500Y-85252969D01*
X165363500Y-86295638D01*
X165343815Y-86362677D01*
X165327181Y-86383319D01*
X165289538Y-86420961D01*
X165289535Y-86420965D01*
X165190990Y-86568446D01*
X165190983Y-86568459D01*
X165123106Y-86732332D01*
X165123103Y-86732341D01*
X165088500Y-86906304D01*
X165088500Y-87083695D01*
X165123103Y-87257658D01*
X165123106Y-87257667D01*
X165190983Y-87421540D01*
X165190990Y-87421553D01*
X165289535Y-87569034D01*
X165289538Y-87569038D01*
X165414961Y-87694461D01*
X165414965Y-87694464D01*
X165562446Y-87793009D01*
X165562459Y-87793016D01*
X165685363Y-87843923D01*
X165726334Y-87860894D01*
X165726336Y-87860894D01*
X165726341Y-87860896D01*
X165900304Y-87895499D01*
X165900307Y-87895500D01*
X165900309Y-87895500D01*
X166077693Y-87895500D01*
X166077694Y-87895499D01*
X166135682Y-87883964D01*
X166251658Y-87860896D01*
X166251661Y-87860894D01*
X166251666Y-87860894D01*
X166415547Y-87793013D01*
X166563035Y-87694464D01*
X166688464Y-87569035D01*
X166787013Y-87421547D01*
X166854894Y-87257666D01*
X166871639Y-87173484D01*
X166882945Y-87116648D01*
X170224500Y-87116648D01*
X170224500Y-87321351D01*
X170256522Y-87523534D01*
X170319781Y-87718223D01*
X170357891Y-87793016D01*
X170410109Y-87895500D01*
X170412715Y-87900613D01*
X170533028Y-88066213D01*
X170677786Y-88210971D01*
X170832419Y-88323316D01*
X170843390Y-88331287D01*
X170959607Y-88390503D01*
X171025776Y-88424218D01*
X171025778Y-88424218D01*
X171025781Y-88424220D01*
X171130137Y-88458127D01*
X171220465Y-88487477D01*
X171321557Y-88503488D01*
X171422648Y-88519500D01*
X171422649Y-88519500D01*
X171627351Y-88519500D01*
X171627352Y-88519500D01*
X171829534Y-88487477D01*
X172024219Y-88424220D01*
X172206610Y-88331287D01*
X172299590Y-88263732D01*
X172372213Y-88210971D01*
X172372215Y-88210968D01*
X172372219Y-88210966D01*
X172516966Y-88066219D01*
X172516968Y-88066215D01*
X172516971Y-88066213D01*
X172587826Y-87968688D01*
X172637287Y-87900610D01*
X172730220Y-87718219D01*
X172793477Y-87523534D01*
X172825500Y-87321352D01*
X172825500Y-87116648D01*
X172820897Y-87087585D01*
X172793477Y-86914465D01*
X172749136Y-86777998D01*
X172730220Y-86719781D01*
X172730218Y-86719778D01*
X172730218Y-86719776D01*
X172681727Y-86624609D01*
X172637287Y-86537390D01*
X172621752Y-86516008D01*
X172516971Y-86371786D01*
X172372213Y-86227028D01*
X172206613Y-86106715D01*
X172206612Y-86106714D01*
X172206610Y-86106713D01*
X172143920Y-86074771D01*
X172024223Y-86013781D01*
X171829534Y-85950522D01*
X171654995Y-85922878D01*
X171627352Y-85918500D01*
X171422648Y-85918500D01*
X171398329Y-85922351D01*
X171220465Y-85950522D01*
X171025776Y-86013781D01*
X170843386Y-86106715D01*
X170677786Y-86227028D01*
X170533028Y-86371786D01*
X170412715Y-86537386D01*
X170319781Y-86719776D01*
X170256522Y-86914465D01*
X170224500Y-87116648D01*
X166882945Y-87116648D01*
X166888726Y-87087585D01*
X166888726Y-87087583D01*
X166889500Y-87083692D01*
X166889500Y-86906306D01*
X166889499Y-86906304D01*
X166854896Y-86732341D01*
X166854893Y-86732332D01*
X166852725Y-86727099D01*
X166820817Y-86650063D01*
X166787016Y-86568459D01*
X166787009Y-86568446D01*
X166688464Y-86420965D01*
X166688461Y-86420961D01*
X166650819Y-86383319D01*
X166617334Y-86321996D01*
X166614500Y-86295638D01*
X166614500Y-83941648D01*
X170179500Y-83941648D01*
X170179500Y-84146351D01*
X170211522Y-84348534D01*
X170274781Y-84543223D01*
X170327857Y-84647389D01*
X170345406Y-84681831D01*
X170367715Y-84725613D01*
X170488028Y-84891213D01*
X170632786Y-85035971D01*
X170765509Y-85132398D01*
X170798390Y-85156287D01*
X170897557Y-85206815D01*
X170980776Y-85249218D01*
X170980778Y-85249218D01*
X170980781Y-85249220D01*
X171085137Y-85283127D01*
X171175465Y-85312477D01*
X171276557Y-85328488D01*
X171377648Y-85344500D01*
X171377649Y-85344500D01*
X171582351Y-85344500D01*
X171582352Y-85344500D01*
X171784534Y-85312477D01*
X171979219Y-85249220D01*
X172161610Y-85156287D01*
X172288193Y-85064320D01*
X172327213Y-85035971D01*
X172327215Y-85035968D01*
X172327219Y-85035966D01*
X172471966Y-84891219D01*
X172471968Y-84891215D01*
X172471971Y-84891213D01*
X172595151Y-84721669D01*
X172596823Y-84722884D01*
X172642208Y-84681831D01*
X172696115Y-84669500D01*
X175681548Y-84669500D01*
X175748587Y-84689185D01*
X175769229Y-84705819D01*
X175995181Y-84931771D01*
X176028666Y-84993094D01*
X176030035Y-85000448D01*
X176031500Y-85009894D01*
X176031500Y-85024607D01*
X176041345Y-85074100D01*
X176052298Y-85129171D01*
X176055515Y-85145342D01*
X176055538Y-85145455D01*
X176102685Y-85259280D01*
X176102686Y-85259282D01*
X176102688Y-85259286D01*
X176136884Y-85310463D01*
X176171142Y-85361733D01*
X176258267Y-85448858D01*
X176258269Y-85448859D01*
X176268237Y-85458827D01*
X176884181Y-86074771D01*
X176917666Y-86136094D01*
X176920500Y-86162452D01*
X176920500Y-92771606D01*
X176925385Y-92796167D01*
X176919156Y-92865759D01*
X176876292Y-92920935D01*
X176870487Y-92924557D01*
X176870518Y-92924603D01*
X176717965Y-93026535D01*
X176717961Y-93026538D01*
X176592538Y-93151961D01*
X176592535Y-93151965D01*
X176493990Y-93299446D01*
X176493983Y-93299459D01*
X176426106Y-93463332D01*
X176426103Y-93463341D01*
X176391500Y-93637304D01*
X176391500Y-93814695D01*
X176426103Y-93988658D01*
X176426106Y-93988667D01*
X176493983Y-94152540D01*
X176493990Y-94152553D01*
X176592535Y-94300034D01*
X176592538Y-94300038D01*
X176717961Y-94425461D01*
X176717965Y-94425464D01*
X176865446Y-94524009D01*
X176865459Y-94524016D01*
X176988363Y-94574923D01*
X177029334Y-94591894D01*
X177029336Y-94591894D01*
X177029341Y-94591896D01*
X177203304Y-94626499D01*
X177203307Y-94626500D01*
X177203309Y-94626500D01*
X177256547Y-94626500D01*
X177323586Y-94646185D01*
X177344223Y-94662814D01*
X177491266Y-94809857D01*
X177491268Y-94809859D01*
X177593710Y-94878309D01*
X177593711Y-94878309D01*
X177593715Y-94878312D01*
X177660396Y-94905931D01*
X177660398Y-94905933D01*
X177690129Y-94918247D01*
X177707548Y-94925463D01*
X177828394Y-94949500D01*
X177828396Y-94949500D01*
X178914608Y-94949500D01*
X178914608Y-94949499D01*
X178992507Y-94934005D01*
X179035452Y-94925463D01*
X179080424Y-94906835D01*
X179149286Y-94878312D01*
X179215732Y-94833913D01*
X179251733Y-94809858D01*
X179338858Y-94722733D01*
X179338858Y-94722731D01*
X179349066Y-94712524D01*
X179349066Y-94712522D01*
X179645858Y-94415733D01*
X179714312Y-94313285D01*
X179741932Y-94246603D01*
X179761463Y-94199452D01*
X179772669Y-94143114D01*
X179785501Y-94078606D01*
X179785501Y-93955393D01*
X179785501Y-93950283D01*
X179785500Y-93950257D01*
X179785500Y-88337151D01*
X179805185Y-88270112D01*
X179836613Y-88236834D01*
X179872219Y-88210966D01*
X180016966Y-88066219D01*
X180016968Y-88066215D01*
X180016971Y-88066213D01*
X180087826Y-87968688D01*
X180137287Y-87900610D01*
X180230220Y-87718219D01*
X180293477Y-87523534D01*
X180325500Y-87321352D01*
X180325500Y-87116648D01*
X180320897Y-87087585D01*
X180293477Y-86914465D01*
X180277016Y-86863804D01*
X180259716Y-86810563D01*
X180257721Y-86740725D01*
X180293801Y-86680892D01*
X180356502Y-86650063D01*
X180425098Y-86657685D01*
X180509134Y-86692494D01*
X180509137Y-86692494D01*
X180509141Y-86692496D01*
X180683104Y-86727099D01*
X180683107Y-86727100D01*
X180683109Y-86727100D01*
X180860493Y-86727100D01*
X180860494Y-86727099D01*
X180918482Y-86715564D01*
X181034458Y-86692496D01*
X181034461Y-86692494D01*
X181034466Y-86692494D01*
X181198347Y-86624613D01*
X181345835Y-86526064D01*
X181471264Y-86400635D01*
X181569813Y-86253147D01*
X181637694Y-86089266D01*
X181640578Y-86074771D01*
X181665292Y-85950522D01*
X181672300Y-85915291D01*
X181672300Y-85737909D01*
X181672300Y-85737906D01*
X181672299Y-85737904D01*
X181637696Y-85563941D01*
X181637693Y-85563932D01*
X181569816Y-85400059D01*
X181569809Y-85400046D01*
X181471264Y-85252565D01*
X181471261Y-85252561D01*
X181345838Y-85127138D01*
X181345834Y-85127135D01*
X181198353Y-85028590D01*
X181198340Y-85028583D01*
X181034467Y-84960706D01*
X181034458Y-84960703D01*
X180860494Y-84926100D01*
X180860491Y-84926100D01*
X180683109Y-84926100D01*
X180683106Y-84926100D01*
X180509141Y-84960703D01*
X180509132Y-84960706D01*
X180345259Y-85028583D01*
X180345246Y-85028590D01*
X180197766Y-85127134D01*
X180179906Y-85144995D01*
X180134718Y-85190182D01*
X180107787Y-85204888D01*
X180081974Y-85221477D01*
X180075774Y-85222368D01*
X180073398Y-85223666D01*
X180047039Y-85226500D01*
X179936047Y-85226500D01*
X179869008Y-85206815D01*
X179823253Y-85154011D01*
X179813309Y-85084853D01*
X179842334Y-85021297D01*
X179848366Y-85014819D01*
X179902482Y-84960703D01*
X179971966Y-84891219D01*
X179971968Y-84891215D01*
X179971971Y-84891213D01*
X180081666Y-84740228D01*
X180092287Y-84725610D01*
X180185220Y-84543219D01*
X180248477Y-84348534D01*
X180280500Y-84146352D01*
X180280500Y-83941648D01*
X180277874Y-83925066D01*
X180273461Y-83897204D01*
X180248477Y-83739465D01*
X180193906Y-83571514D01*
X180185220Y-83544781D01*
X180185218Y-83544778D01*
X180185218Y-83544776D01*
X180141598Y-83459168D01*
X180092287Y-83362390D01*
X180084556Y-83351749D01*
X179971971Y-83196786D01*
X179827213Y-83052028D01*
X179661613Y-82931715D01*
X179661612Y-82931714D01*
X179661610Y-82931713D01*
X179603430Y-82902069D01*
X179479223Y-82838781D01*
X179288702Y-82776877D01*
X179284534Y-82775522D01*
X179109995Y-82747878D01*
X179082352Y-82743500D01*
X178877648Y-82743500D01*
X178853329Y-82747351D01*
X178675465Y-82775522D01*
X178480776Y-82838781D01*
X178298386Y-82931715D01*
X178132786Y-83052028D01*
X177988028Y-83196786D01*
X177867715Y-83362386D01*
X177774781Y-83544776D01*
X177711522Y-83739465D01*
X177679500Y-83941648D01*
X177679500Y-84146351D01*
X177711522Y-84348534D01*
X177774781Y-84543223D01*
X177827857Y-84647389D01*
X177845406Y-84681831D01*
X177867715Y-84725613D01*
X177988028Y-84891213D01*
X178111634Y-85014819D01*
X178122246Y-85034255D01*
X178136747Y-85050989D01*
X178138663Y-85064320D01*
X178145119Y-85076142D01*
X178143539Y-85098228D01*
X178146691Y-85120147D01*
X178141095Y-85132398D01*
X178140135Y-85145834D01*
X178126864Y-85163560D01*
X178117666Y-85183703D01*
X178106334Y-85190985D01*
X178098263Y-85201767D01*
X178077517Y-85209504D01*
X178058888Y-85221477D01*
X178036969Y-85224628D01*
X178032799Y-85226184D01*
X178023953Y-85226500D01*
X177856453Y-85226500D01*
X177789414Y-85206815D01*
X177768772Y-85190181D01*
X177318819Y-84740228D01*
X177285334Y-84678905D01*
X177282500Y-84652547D01*
X177282500Y-84647393D01*
X177282499Y-84647389D01*
X177258463Y-84526548D01*
X177237999Y-84477143D01*
X177211312Y-84412714D01*
X177162916Y-84340286D01*
X177159859Y-84335711D01*
X177159857Y-84335707D01*
X177142859Y-84310268D01*
X177142855Y-84310263D01*
X177052637Y-84220045D01*
X177052606Y-84220016D01*
X176485150Y-83652560D01*
X176477860Y-83645270D01*
X176477858Y-83645267D01*
X176390733Y-83558142D01*
X176339509Y-83523915D01*
X176288286Y-83489688D01*
X176288283Y-83489686D01*
X176288280Y-83489685D01*
X176214603Y-83459168D01*
X176214601Y-83459167D01*
X176207792Y-83456347D01*
X176174452Y-83442537D01*
X176114029Y-83430518D01*
X176109306Y-83429578D01*
X176109304Y-83429578D01*
X176053610Y-83418500D01*
X176053607Y-83418500D01*
X176053606Y-83418500D01*
X172696115Y-83418500D01*
X172629076Y-83398815D01*
X172596393Y-83365428D01*
X172595151Y-83366331D01*
X172471971Y-83196786D01*
X172327213Y-83052028D01*
X172161613Y-82931715D01*
X172161612Y-82931714D01*
X172161610Y-82931713D01*
X172103430Y-82902069D01*
X171979223Y-82838781D01*
X171784534Y-82775522D01*
X171609995Y-82747878D01*
X171582352Y-82743500D01*
X171377648Y-82743500D01*
X171353329Y-82747351D01*
X171175465Y-82775522D01*
X170980776Y-82838781D01*
X170798386Y-82931715D01*
X170632786Y-83052028D01*
X170488028Y-83196786D01*
X170367715Y-83362386D01*
X170274781Y-83544776D01*
X170211522Y-83739465D01*
X170179500Y-83941648D01*
X166614500Y-83941648D01*
X166614500Y-79058361D01*
X166634185Y-78991322D01*
X166650820Y-78970679D01*
X166688461Y-78933038D01*
X166688464Y-78933035D01*
X166787013Y-78785547D01*
X166854894Y-78621666D01*
X166889500Y-78447691D01*
X166889500Y-78270309D01*
X166889500Y-78270306D01*
X166889499Y-78270304D01*
X166854896Y-78096341D01*
X166854893Y-78096332D01*
X166787016Y-77932459D01*
X166787009Y-77932446D01*
X166688464Y-77784965D01*
X166688461Y-77784961D01*
X166563038Y-77659538D01*
X166563034Y-77659535D01*
X166415553Y-77560990D01*
X166415540Y-77560983D01*
X166251667Y-77493106D01*
X166251658Y-77493103D01*
X166077694Y-77458500D01*
X166077691Y-77458500D01*
X165900309Y-77458500D01*
X165900306Y-77458500D01*
X165726341Y-77493103D01*
X165726332Y-77493106D01*
X165562459Y-77560983D01*
X165562446Y-77560990D01*
X165414965Y-77659535D01*
X165414961Y-77659538D01*
X165289538Y-77784961D01*
X165289535Y-77784965D01*
X165190990Y-77932446D01*
X165190983Y-77932459D01*
X165123106Y-78096332D01*
X165123103Y-78096341D01*
X165088500Y-78270304D01*
X165088500Y-78447695D01*
X165123103Y-78621658D01*
X165123106Y-78621667D01*
X165190983Y-78785540D01*
X165190990Y-78785553D01*
X165289535Y-78933034D01*
X165289538Y-78933038D01*
X165327180Y-78970679D01*
X165360666Y-79032001D01*
X165363500Y-79058361D01*
X165363500Y-82835030D01*
X165343815Y-82902069D01*
X165291011Y-82947824D01*
X165221853Y-82957768D01*
X165166619Y-82935352D01*
X165161610Y-82931713D01*
X164979223Y-82838781D01*
X164784534Y-82775522D01*
X164609995Y-82747878D01*
X164582352Y-82743500D01*
X164377648Y-82743500D01*
X164353329Y-82747351D01*
X164175465Y-82775522D01*
X163980776Y-82838781D01*
X163798386Y-82931715D01*
X163632786Y-83052028D01*
X163488028Y-83196786D01*
X163367715Y-83362386D01*
X163274781Y-83544776D01*
X163211522Y-83739465D01*
X163179500Y-83941648D01*
X158280500Y-83941648D01*
X158248477Y-83739466D01*
X158185220Y-83544781D01*
X158185218Y-83544778D01*
X158185218Y-83544776D01*
X158141598Y-83459168D01*
X158092287Y-83362390D01*
X158084556Y-83351749D01*
X157971971Y-83196786D01*
X157827213Y-83052028D01*
X157661613Y-82931715D01*
X157661612Y-82931714D01*
X157661610Y-82931713D01*
X157603430Y-82902069D01*
X157479223Y-82838781D01*
X157284534Y-82775522D01*
X157109995Y-82747878D01*
X157082352Y-82743500D01*
X156877648Y-82743500D01*
X156853329Y-82747351D01*
X156675465Y-82775522D01*
X156480776Y-82838781D01*
X156298386Y-82931715D01*
X156132786Y-83052028D01*
X155988028Y-83196786D01*
X155867715Y-83362386D01*
X155774781Y-83544776D01*
X155711522Y-83739465D01*
X155679500Y-83941648D01*
X155679500Y-84146351D01*
X155711522Y-84348534D01*
X155774781Y-84543223D01*
X155827857Y-84647389D01*
X155845406Y-84681831D01*
X155867715Y-84725613D01*
X155988028Y-84891213D01*
X155988034Y-84891219D01*
X156132781Y-85035966D01*
X156298390Y-85156287D01*
X156298394Y-85156289D01*
X156302332Y-85159150D01*
X156301111Y-85160829D01*
X156342155Y-85206177D01*
X156354500Y-85260114D01*
X156354500Y-92391548D01*
X156334815Y-92458587D01*
X156318181Y-92479229D01*
X154484229Y-94313181D01*
X154422906Y-94346666D01*
X154396548Y-94349500D01*
X154343306Y-94349500D01*
X154169341Y-94384103D01*
X154169332Y-94384106D01*
X154005459Y-94451983D01*
X154005446Y-94451990D01*
X153857965Y-94550535D01*
X153857961Y-94550538D01*
X153732538Y-94675961D01*
X153732535Y-94675965D01*
X153633990Y-94823446D01*
X153633983Y-94823459D01*
X153566106Y-94987332D01*
X153566103Y-94987341D01*
X153531500Y-95161304D01*
X153531500Y-95338695D01*
X153566103Y-95512658D01*
X153566106Y-95512667D01*
X153633983Y-95676540D01*
X153633990Y-95676553D01*
X153732535Y-95824034D01*
X153732538Y-95824038D01*
X153857961Y-95949461D01*
X153857965Y-95949464D01*
X154005446Y-96048009D01*
X154005459Y-96048016D01*
X154100808Y-96087510D01*
X154169334Y-96115894D01*
X154169336Y-96115894D01*
X154169341Y-96115896D01*
X154343304Y-96150499D01*
X154343307Y-96150500D01*
X154343309Y-96150500D01*
X154520693Y-96150500D01*
X154520694Y-96150499D01*
X154578682Y-96138964D01*
X154694658Y-96115896D01*
X154694661Y-96115894D01*
X154694666Y-96115894D01*
X154858547Y-96048013D01*
X155006035Y-95949464D01*
X155131464Y-95824035D01*
X155230013Y-95676547D01*
X155297894Y-95512666D01*
X155300089Y-95501635D01*
X155332499Y-95338695D01*
X155332500Y-95338693D01*
X155332500Y-95285451D01*
X155352185Y-95218412D01*
X155368814Y-95197775D01*
X157378729Y-93187860D01*
X157378733Y-93187858D01*
X157465858Y-93100733D01*
X157515435Y-93026536D01*
X157534312Y-92998286D01*
X157578149Y-92892452D01*
X157581463Y-92884452D01*
X157605500Y-92763606D01*
X157605500Y-89406835D01*
X157614150Y-89377375D01*
X157620692Y-89347364D01*
X157623905Y-89344152D01*
X157625185Y-89339796D01*
X157648387Y-89319690D01*
X157670118Y-89297978D01*
X157674557Y-89297014D01*
X157677989Y-89294041D01*
X157708384Y-89289670D01*
X157738397Y-89283155D01*
X157742650Y-89284743D01*
X157747147Y-89284097D01*
X157775083Y-89296855D01*
X157803851Y-89307598D01*
X157807850Y-89311819D01*
X157810703Y-89313122D01*
X157828798Y-89332565D01*
X157830768Y-89335199D01*
X157923536Y-89474035D01*
X157967474Y-89517973D01*
X157972798Y-89525091D01*
X157982014Y-89549832D01*
X157994666Y-89573001D01*
X157996297Y-89588175D01*
X157997188Y-89590566D01*
X157996763Y-89592512D01*
X157997500Y-89599361D01*
X157997500Y-96708611D01*
X158021535Y-96829444D01*
X158021540Y-96829461D01*
X158068685Y-96943281D01*
X158068690Y-96943290D01*
X158088593Y-96973075D01*
X158092698Y-96979218D01*
X158137142Y-97045733D01*
X158224267Y-97132858D01*
X158224270Y-97132860D01*
X158232006Y-97140596D01*
X171342229Y-110250819D01*
X171375714Y-110312142D01*
X171370730Y-110381834D01*
X171328858Y-110437767D01*
X171263394Y-110462184D01*
X171254548Y-110462500D01*
X170969361Y-110462500D01*
X170902322Y-110442815D01*
X170881680Y-110426181D01*
X157546039Y-97090538D01*
X157546031Y-97090532D01*
X157483861Y-97048991D01*
X157483850Y-97048985D01*
X157478983Y-97045733D01*
X157398547Y-96991987D01*
X157316606Y-96958046D01*
X157310763Y-96955625D01*
X157310758Y-96955623D01*
X157234666Y-96924105D01*
X157234658Y-96924103D01*
X157060696Y-96889500D01*
X157060692Y-96889500D01*
X157060691Y-96889500D01*
X145321012Y-96889500D01*
X145253973Y-96869815D01*
X145233331Y-96853181D01*
X136464818Y-88084667D01*
X136431333Y-88023344D01*
X136428499Y-87996986D01*
X136428499Y-87173478D01*
X136428498Y-87173472D01*
X136428497Y-87173465D01*
X136422091Y-87113866D01*
X136410836Y-87083691D01*
X136371797Y-86979020D01*
X136371793Y-86979013D01*
X136285547Y-86863804D01*
X136285544Y-86863801D01*
X136170335Y-86777555D01*
X136170328Y-86777551D01*
X136035482Y-86727257D01*
X136035483Y-86727257D01*
X135975883Y-86720850D01*
X135975881Y-86720849D01*
X135975873Y-86720849D01*
X135975864Y-86720849D01*
X134280129Y-86720849D01*
X134280123Y-86720850D01*
X134220516Y-86727257D01*
X134085671Y-86777551D01*
X134085664Y-86777555D01*
X133970455Y-86863801D01*
X133970452Y-86863804D01*
X133884206Y-86979013D01*
X133884202Y-86979020D01*
X133833908Y-87113866D01*
X133827501Y-87173465D01*
X133827501Y-87173472D01*
X133827500Y-87173484D01*
X128165500Y-87173484D01*
X128165500Y-63882135D01*
X130729500Y-63882135D01*
X130729500Y-65677870D01*
X130729501Y-65677876D01*
X130735908Y-65737483D01*
X130786202Y-65872328D01*
X130786206Y-65872335D01*
X130872452Y-65987544D01*
X130872455Y-65987547D01*
X130987664Y-66073793D01*
X130987671Y-66073797D01*
X130987674Y-66073798D01*
X131119598Y-66123002D01*
X131175531Y-66164873D01*
X131199949Y-66230337D01*
X131185098Y-66298610D01*
X131163947Y-66326865D01*
X131050271Y-66440541D01*
X130925379Y-66612442D01*
X130828904Y-66801782D01*
X130763242Y-67003870D01*
X130763242Y-67003873D01*
X130752769Y-67070000D01*
X131646988Y-67070000D01*
X131614075Y-67127007D01*
X131580000Y-67254174D01*
X131580000Y-67385826D01*
X131614075Y-67512993D01*
X131646988Y-67570000D01*
X130752769Y-67570000D01*
X130763242Y-67636126D01*
X130763242Y-67636129D01*
X130828904Y-67838217D01*
X130925379Y-68027557D01*
X131050272Y-68199459D01*
X131050276Y-68199464D01*
X131200535Y-68349723D01*
X131200540Y-68349727D01*
X131372444Y-68474622D01*
X131382048Y-68479516D01*
X131432844Y-68527491D01*
X131449638Y-68595312D01*
X131427100Y-68661447D01*
X131382048Y-68700484D01*
X131372444Y-68705377D01*
X131200540Y-68830272D01*
X131200535Y-68830276D01*
X131050276Y-68980535D01*
X131050272Y-68980540D01*
X130925379Y-69152442D01*
X130828904Y-69341782D01*
X130763242Y-69543870D01*
X130763242Y-69543873D01*
X130752769Y-69610000D01*
X131646988Y-69610000D01*
X131614075Y-69667007D01*
X131580000Y-69794174D01*
X131580000Y-69925826D01*
X131614075Y-70052993D01*
X131646988Y-70110000D01*
X130752769Y-70110000D01*
X130763242Y-70176126D01*
X130763242Y-70176129D01*
X130828904Y-70378217D01*
X130925379Y-70567557D01*
X131050272Y-70739459D01*
X131050276Y-70739464D01*
X131200535Y-70889723D01*
X131200540Y-70889727D01*
X131372444Y-71014622D01*
X131381495Y-71019234D01*
X131432292Y-71067208D01*
X131449087Y-71135029D01*
X131426550Y-71201164D01*
X131381499Y-71240202D01*
X131372182Y-71244949D01*
X131200213Y-71369890D01*
X131049890Y-71520213D01*
X130924951Y-71692179D01*
X130828444Y-71881585D01*
X130762753Y-72083760D01*
X130729500Y-72293713D01*
X130729500Y-72506286D01*
X130759315Y-72694534D01*
X130762754Y-72716243D01*
X130784282Y-72782500D01*
X130828444Y-72918414D01*
X130924951Y-73107820D01*
X131049890Y-73279786D01*
X131200213Y-73430109D01*
X131372179Y-73555048D01*
X131372181Y-73555049D01*
X131372184Y-73555051D01*
X131561588Y-73651557D01*
X131763757Y-73717246D01*
X131973713Y-73750500D01*
X131973714Y-73750500D01*
X132186286Y-73750500D01*
X132186287Y-73750500D01*
X132396243Y-73717246D01*
X132598412Y-73651557D01*
X132787816Y-73555051D01*
X132809789Y-73539086D01*
X132959786Y-73430109D01*
X132959788Y-73430106D01*
X132959792Y-73430104D01*
X133110104Y-73279792D01*
X133110106Y-73279788D01*
X133110109Y-73279786D01*
X133235048Y-73107820D01*
X133235047Y-73107820D01*
X133235051Y-73107816D01*
X133331557Y-72918412D01*
X133397246Y-72716243D01*
X133430500Y-72506287D01*
X133430500Y-72293713D01*
X133397246Y-72083757D01*
X133331557Y-71881588D01*
X133235051Y-71692184D01*
X133176570Y-71611691D01*
X133176569Y-71611688D01*
X133126036Y-71542135D01*
X134589500Y-71542135D01*
X134589500Y-73237870D01*
X134589501Y-73237876D01*
X134595908Y-73297483D01*
X134646202Y-73432328D01*
X134646206Y-73432335D01*
X134732452Y-73547544D01*
X134732455Y-73547547D01*
X134847664Y-73633793D01*
X134847671Y-73633797D01*
X134982517Y-73684091D01*
X134982516Y-73684091D01*
X134989444Y-73684835D01*
X135042127Y-73690500D01*
X136737872Y-73690499D01*
X136797483Y-73684091D01*
X136932331Y-73633796D01*
X137047546Y-73547546D01*
X137133796Y-73432331D01*
X137184091Y-73297483D01*
X137190500Y-73237873D01*
X137190499Y-72287648D01*
X142209500Y-72287648D01*
X142209500Y-72492351D01*
X142241522Y-72694534D01*
X142304781Y-72889223D01*
X142397715Y-73071613D01*
X142518028Y-73237213D01*
X142573181Y-73292366D01*
X142606666Y-73353689D01*
X142609500Y-73380047D01*
X142609500Y-90316045D01*
X142644103Y-90490007D01*
X142644105Y-90490015D01*
X142675526Y-90565873D01*
X142675529Y-90565878D01*
X142678046Y-90571955D01*
X142711987Y-90653896D01*
X142771063Y-90742308D01*
X142774169Y-90746956D01*
X142774172Y-90746962D01*
X142810534Y-90801383D01*
X142810535Y-90801384D01*
X142810536Y-90801385D01*
X143894911Y-91885760D01*
X144967181Y-92958029D01*
X145000666Y-93019352D01*
X145003500Y-93045710D01*
X145003500Y-93123700D01*
X145035522Y-93325883D01*
X145098781Y-93520572D01*
X145146641Y-93614500D01*
X145191585Y-93702708D01*
X145191715Y-93702962D01*
X145312028Y-93868562D01*
X145456786Y-94013320D01*
X145577226Y-94100823D01*
X145622390Y-94133636D01*
X145711671Y-94179127D01*
X145804776Y-94226567D01*
X145804778Y-94226567D01*
X145804781Y-94226569D01*
X145884595Y-94252502D01*
X145999465Y-94289826D01*
X146063922Y-94300035D01*
X146201648Y-94321849D01*
X146201649Y-94321849D01*
X146406351Y-94321849D01*
X146406352Y-94321849D01*
X146608534Y-94289826D01*
X146803219Y-94226569D01*
X146985610Y-94133636D01*
X147078590Y-94066081D01*
X147151213Y-94013320D01*
X147151215Y-94013317D01*
X147151219Y-94013315D01*
X147295966Y-93868568D01*
X147295968Y-93868564D01*
X147295971Y-93868562D01*
X147357986Y-93783204D01*
X147416287Y-93702959D01*
X147509220Y-93520568D01*
X147572477Y-93325883D01*
X147604500Y-93123701D01*
X147604500Y-92918997D01*
X147585045Y-92796167D01*
X147572477Y-92716814D01*
X147524340Y-92568665D01*
X147509220Y-92522130D01*
X147509218Y-92522127D01*
X147509218Y-92522125D01*
X147475503Y-92455956D01*
X147416287Y-92339739D01*
X147384092Y-92295426D01*
X147295971Y-92174135D01*
X147151213Y-92029377D01*
X146985613Y-91909064D01*
X146985612Y-91909063D01*
X146985610Y-91909062D01*
X146928653Y-91880040D01*
X146803223Y-91816130D01*
X146608534Y-91752871D01*
X146433995Y-91725227D01*
X146406352Y-91720849D01*
X146406351Y-91720849D01*
X146328361Y-91720849D01*
X146261322Y-91701164D01*
X146240680Y-91684530D01*
X144446819Y-89890668D01*
X144413334Y-89829345D01*
X144410500Y-89802987D01*
X144410500Y-87173504D01*
X145004000Y-87173504D01*
X145004000Y-87771349D01*
X145988314Y-87771349D01*
X145983920Y-87775743D01*
X145931259Y-87866955D01*
X145904000Y-87968688D01*
X145904000Y-88074010D01*
X145931259Y-88175743D01*
X145983920Y-88266955D01*
X145988314Y-88271349D01*
X145004000Y-88271349D01*
X145004000Y-88869193D01*
X145010401Y-88928721D01*
X145010403Y-88928728D01*
X145060645Y-89063435D01*
X145060649Y-89063442D01*
X145146809Y-89178536D01*
X145146812Y-89178539D01*
X145261906Y-89264699D01*
X145261913Y-89264703D01*
X145396620Y-89314945D01*
X145396627Y-89314947D01*
X145456155Y-89321348D01*
X145456172Y-89321349D01*
X146054000Y-89321349D01*
X146054000Y-88337035D01*
X146058394Y-88341429D01*
X146149606Y-88394090D01*
X146251339Y-88421349D01*
X146356661Y-88421349D01*
X146458394Y-88394090D01*
X146549606Y-88341429D01*
X146554000Y-88337035D01*
X146554000Y-89321349D01*
X147151828Y-89321349D01*
X147151844Y-89321348D01*
X147211372Y-89314947D01*
X147211379Y-89314945D01*
X147346086Y-89264703D01*
X147346093Y-89264699D01*
X147461187Y-89178539D01*
X147461190Y-89178536D01*
X147547350Y-89063442D01*
X147547354Y-89063435D01*
X147597596Y-88928728D01*
X147597598Y-88928721D01*
X147603999Y-88869193D01*
X147604000Y-88869176D01*
X147604000Y-88271349D01*
X146619686Y-88271349D01*
X146624080Y-88266955D01*
X146676741Y-88175743D01*
X146704000Y-88074010D01*
X146704000Y-87968688D01*
X146676741Y-87866955D01*
X146624080Y-87775743D01*
X146619686Y-87771349D01*
X147604000Y-87771349D01*
X147604000Y-87173521D01*
X147603999Y-87173504D01*
X147597598Y-87113976D01*
X147597596Y-87113969D01*
X147547354Y-86979262D01*
X147547350Y-86979255D01*
X147461190Y-86864161D01*
X147461187Y-86864158D01*
X147346093Y-86777998D01*
X147346086Y-86777994D01*
X147211379Y-86727752D01*
X147211372Y-86727750D01*
X147151844Y-86721349D01*
X146554000Y-86721349D01*
X146554000Y-87705663D01*
X146549606Y-87701269D01*
X146458394Y-87648608D01*
X146356661Y-87621349D01*
X146251339Y-87621349D01*
X146149606Y-87648608D01*
X146058394Y-87701269D01*
X146054000Y-87705663D01*
X146054000Y-86721349D01*
X145456155Y-86721349D01*
X145396627Y-86727750D01*
X145396620Y-86727752D01*
X145261913Y-86777994D01*
X145261906Y-86777998D01*
X145146812Y-86864158D01*
X145146809Y-86864161D01*
X145060649Y-86979255D01*
X145060645Y-86979262D01*
X145010403Y-87113969D01*
X145010401Y-87113976D01*
X145004000Y-87173504D01*
X144410500Y-87173504D01*
X144410500Y-74460304D01*
X173978500Y-74460304D01*
X173978500Y-74637695D01*
X174013103Y-74811658D01*
X174013106Y-74811667D01*
X174080983Y-74975540D01*
X174080990Y-74975553D01*
X174179535Y-75123034D01*
X174179538Y-75123038D01*
X174304961Y-75248461D01*
X174304965Y-75248464D01*
X174452446Y-75347009D01*
X174452459Y-75347016D01*
X174534619Y-75381047D01*
X174616334Y-75414894D01*
X174616336Y-75414894D01*
X174616341Y-75414896D01*
X174790304Y-75449499D01*
X174790307Y-75449500D01*
X174790309Y-75449500D01*
X174843548Y-75449500D01*
X174910587Y-75469185D01*
X174931229Y-75485819D01*
X175110834Y-75665424D01*
X175125537Y-75692351D01*
X175142130Y-75718170D01*
X175143021Y-75724370D01*
X175144319Y-75726747D01*
X175147153Y-75753105D01*
X175147153Y-75759291D01*
X175127468Y-75826330D01*
X175110834Y-75846972D01*
X175073191Y-75884614D01*
X175073188Y-75884618D01*
X174974643Y-76032099D01*
X174974636Y-76032112D01*
X174906759Y-76195985D01*
X174906756Y-76195994D01*
X174872153Y-76369957D01*
X174872153Y-76547348D01*
X174906756Y-76721311D01*
X174906759Y-76721320D01*
X174974636Y-76885193D01*
X174974643Y-76885206D01*
X175073188Y-77032687D01*
X175073191Y-77032691D01*
X175198614Y-77158114D01*
X175198618Y-77158117D01*
X175346099Y-77256662D01*
X175346112Y-77256669D01*
X175469016Y-77307576D01*
X175509987Y-77324547D01*
X175509989Y-77324547D01*
X175509994Y-77324549D01*
X175683957Y-77359152D01*
X175683960Y-77359153D01*
X175683962Y-77359153D01*
X175861346Y-77359153D01*
X175861347Y-77359152D01*
X175919335Y-77347617D01*
X176035311Y-77324549D01*
X176035314Y-77324547D01*
X176035319Y-77324547D01*
X176199200Y-77256666D01*
X176346688Y-77158117D01*
X176472117Y-77032688D01*
X176570666Y-76885200D01*
X176595131Y-76826135D01*
X186605500Y-76826135D01*
X186605500Y-78721870D01*
X186605501Y-78721876D01*
X186611908Y-78781483D01*
X186662202Y-78916328D01*
X186662206Y-78916335D01*
X186748452Y-79031544D01*
X186748455Y-79031547D01*
X186863664Y-79117793D01*
X186863671Y-79117797D01*
X186914446Y-79136735D01*
X186970380Y-79178606D01*
X186994797Y-79244070D01*
X186979945Y-79312343D01*
X186958796Y-79340596D01*
X186937757Y-79361635D01*
X186937752Y-79361641D01*
X186808187Y-79539974D01*
X186708104Y-79736393D01*
X186708103Y-79736396D01*
X186639985Y-79946047D01*
X186605500Y-80163778D01*
X186605500Y-80384221D01*
X186639985Y-80601952D01*
X186708103Y-80811603D01*
X186708104Y-80811606D01*
X186808187Y-81008025D01*
X186937752Y-81186358D01*
X186937756Y-81186363D01*
X187093636Y-81342243D01*
X187093641Y-81342247D01*
X187206151Y-81423990D01*
X187248817Y-81479319D01*
X187254796Y-81548933D01*
X187222191Y-81610728D01*
X187208513Y-81622579D01*
X187208485Y-81622932D01*
X187876590Y-82291037D01*
X187813007Y-82308075D01*
X187698993Y-82373901D01*
X187605901Y-82466993D01*
X187540075Y-82581007D01*
X187523037Y-82644590D01*
X186854932Y-81976485D01*
X186854931Y-81976485D01*
X186808616Y-82040233D01*
X186708567Y-82236589D01*
X186640473Y-82446164D01*
X186606000Y-82663818D01*
X186606000Y-82884181D01*
X186640473Y-83101835D01*
X186708567Y-83311410D01*
X186808611Y-83507756D01*
X186854932Y-83571513D01*
X187523037Y-82903408D01*
X187540075Y-82966993D01*
X187605901Y-83081007D01*
X187698993Y-83174099D01*
X187813007Y-83239925D01*
X187876590Y-83256962D01*
X187208485Y-83925065D01*
X187208485Y-83925066D01*
X187272243Y-83971388D01*
X187468589Y-84071432D01*
X187678164Y-84139526D01*
X187895819Y-84174000D01*
X188116181Y-84174000D01*
X188333835Y-84139526D01*
X188543410Y-84071432D01*
X188739760Y-83971386D01*
X188803513Y-83925066D01*
X188803514Y-83925066D01*
X188738225Y-83859777D01*
X192505500Y-83859777D01*
X192505500Y-85488208D01*
X192505501Y-85488223D01*
X192515904Y-85620413D01*
X192515905Y-85620420D01*
X192570902Y-85838678D01*
X192570903Y-85838681D01*
X192663991Y-86043622D01*
X192663997Y-86043632D01*
X192792174Y-86228645D01*
X192792178Y-86228650D01*
X192792181Y-86228654D01*
X192951346Y-86387819D01*
X192951350Y-86387822D01*
X192951354Y-86387825D01*
X192999189Y-86420965D01*
X193136374Y-86516007D01*
X193341317Y-86609096D01*
X193341321Y-86609097D01*
X193559579Y-86664094D01*
X193559581Y-86664094D01*
X193559588Y-86664096D01*
X193691783Y-86674500D01*
X196320216Y-86674499D01*
X196452412Y-86664096D01*
X196670683Y-86609096D01*
X196875626Y-86516007D01*
X197060654Y-86387819D01*
X197219819Y-86228654D01*
X197348007Y-86043626D01*
X197441096Y-85838683D01*
X197496096Y-85620412D01*
X197506500Y-85488217D01*
X197506499Y-83859784D01*
X197496096Y-83727588D01*
X197477190Y-83652560D01*
X197441097Y-83509321D01*
X197441096Y-83509318D01*
X197440388Y-83507760D01*
X197348007Y-83304374D01*
X197219819Y-83119346D01*
X197060654Y-82960181D01*
X197060650Y-82960178D01*
X197060645Y-82960174D01*
X196875632Y-82831997D01*
X196875630Y-82831995D01*
X196875626Y-82831993D01*
X196747947Y-82773999D01*
X196670681Y-82738903D01*
X196670678Y-82738902D01*
X196452420Y-82683905D01*
X196452413Y-82683904D01*
X196408347Y-82680436D01*
X196320217Y-82673500D01*
X196320215Y-82673500D01*
X193691791Y-82673500D01*
X193691776Y-82673501D01*
X193559586Y-82683904D01*
X193559579Y-82683905D01*
X193341321Y-82738902D01*
X193341318Y-82738903D01*
X193136377Y-82831991D01*
X193136367Y-82831997D01*
X192951354Y-82960174D01*
X192951342Y-82960184D01*
X192792184Y-83119342D01*
X192792174Y-83119354D01*
X192663997Y-83304367D01*
X192663991Y-83304377D01*
X192570903Y-83509318D01*
X192570902Y-83509321D01*
X192515905Y-83727579D01*
X192515904Y-83727586D01*
X192505500Y-83859777D01*
X188738225Y-83859777D01*
X188135409Y-83256962D01*
X188198993Y-83239925D01*
X188313007Y-83174099D01*
X188406099Y-83081007D01*
X188471925Y-82966993D01*
X188488962Y-82903410D01*
X189157066Y-83571514D01*
X189157066Y-83571513D01*
X189203386Y-83507760D01*
X189303432Y-83311410D01*
X189371526Y-83101835D01*
X189406000Y-82884181D01*
X189406000Y-82663818D01*
X189371526Y-82446164D01*
X189303432Y-82236589D01*
X189203388Y-82040243D01*
X189157066Y-81976485D01*
X189157065Y-81976485D01*
X188488962Y-82644589D01*
X188471925Y-82581007D01*
X188406099Y-82466993D01*
X188313007Y-82373901D01*
X188198993Y-82308075D01*
X188135407Y-82291037D01*
X188803513Y-81622932D01*
X188803396Y-81621450D01*
X188763181Y-81569299D01*
X188757200Y-81499686D01*
X188789805Y-81437890D01*
X188805842Y-81423993D01*
X188918365Y-81342242D01*
X189074242Y-81186365D01*
X189203815Y-81008022D01*
X189303895Y-80811606D01*
X189372015Y-80601951D01*
X189406500Y-80384222D01*
X189406500Y-80163778D01*
X189372015Y-79946049D01*
X189303895Y-79736394D01*
X189303895Y-79736393D01*
X189269237Y-79668375D01*
X189203815Y-79539978D01*
X189187260Y-79517192D01*
X189074247Y-79361641D01*
X189074243Y-79361636D01*
X189053205Y-79340598D01*
X189019720Y-79279275D01*
X189024704Y-79209583D01*
X189066576Y-79153650D01*
X189097554Y-79136735D01*
X189148326Y-79117798D01*
X189148326Y-79117797D01*
X189148331Y-79117796D01*
X189263546Y-79031546D01*
X189349796Y-78916331D01*
X189400091Y-78781483D01*
X189406500Y-78721873D01*
X189406499Y-76826128D01*
X189400091Y-76766517D01*
X189383233Y-76721319D01*
X189349797Y-76631671D01*
X189349793Y-76631664D01*
X189263547Y-76516455D01*
X189263544Y-76516452D01*
X189148335Y-76430206D01*
X189148328Y-76430202D01*
X189013482Y-76379908D01*
X189013483Y-76379908D01*
X188953883Y-76373501D01*
X188953881Y-76373500D01*
X188953873Y-76373500D01*
X188953864Y-76373500D01*
X187058129Y-76373500D01*
X187058123Y-76373501D01*
X186998516Y-76379908D01*
X186863671Y-76430202D01*
X186863664Y-76430206D01*
X186748455Y-76516452D01*
X186748452Y-76516455D01*
X186662206Y-76631664D01*
X186662202Y-76631671D01*
X186611908Y-76766517D01*
X186605501Y-76826116D01*
X186605501Y-76826123D01*
X186605500Y-76826135D01*
X176595131Y-76826135D01*
X176638547Y-76721319D01*
X176645131Y-76688223D01*
X176673152Y-76547348D01*
X176673153Y-76547346D01*
X176673153Y-76369959D01*
X176673152Y-76369957D01*
X176638549Y-76195994D01*
X176638546Y-76195985D01*
X176570669Y-76032112D01*
X176570662Y-76032099D01*
X176472117Y-75884618D01*
X176472114Y-75884614D01*
X176434472Y-75846972D01*
X176400987Y-75785649D01*
X176398153Y-75759291D01*
X176398153Y-75381047D01*
X176391383Y-75347013D01*
X176374116Y-75260202D01*
X176358532Y-75222580D01*
X176326964Y-75146367D01*
X176311374Y-75123035D01*
X176269107Y-75059777D01*
X192505500Y-75059777D01*
X192505500Y-76688208D01*
X192505501Y-76688223D01*
X192515904Y-76820413D01*
X192515905Y-76820420D01*
X192570902Y-77038678D01*
X192570903Y-77038681D01*
X192663991Y-77243622D01*
X192663997Y-77243632D01*
X192792174Y-77428645D01*
X192792178Y-77428650D01*
X192792181Y-77428654D01*
X192951346Y-77587819D01*
X192951350Y-77587822D01*
X192951354Y-77587825D01*
X193054862Y-77659535D01*
X193136374Y-77716007D01*
X193341317Y-77809096D01*
X193341321Y-77809097D01*
X193559579Y-77864094D01*
X193559581Y-77864094D01*
X193559588Y-77864096D01*
X193691783Y-77874500D01*
X196320216Y-77874499D01*
X196452412Y-77864096D01*
X196670683Y-77809096D01*
X196875626Y-77716007D01*
X197060654Y-77587819D01*
X197219819Y-77428654D01*
X197348007Y-77243626D01*
X197441096Y-77038683D01*
X197496096Y-76820412D01*
X197506500Y-76688217D01*
X197506499Y-75059784D01*
X197496096Y-74927588D01*
X197441096Y-74709317D01*
X197348007Y-74504374D01*
X197219819Y-74319346D01*
X197060654Y-74160181D01*
X197060650Y-74160178D01*
X197060645Y-74160174D01*
X196875632Y-74031997D01*
X196875630Y-74031995D01*
X196875626Y-74031993D01*
X196750074Y-73974965D01*
X196670681Y-73938903D01*
X196670678Y-73938902D01*
X196452420Y-73883905D01*
X196452413Y-73883904D01*
X196408347Y-73880436D01*
X196320217Y-73873500D01*
X196320215Y-73873500D01*
X193691791Y-73873500D01*
X193691776Y-73873501D01*
X193559586Y-73883904D01*
X193559579Y-73883905D01*
X193341321Y-73938902D01*
X193341318Y-73938903D01*
X193136377Y-74031991D01*
X193136367Y-74031997D01*
X192951354Y-74160174D01*
X192951342Y-74160184D01*
X192792184Y-74319342D01*
X192792174Y-74319354D01*
X192663997Y-74504367D01*
X192663991Y-74504377D01*
X192570903Y-74709318D01*
X192570902Y-74709321D01*
X192515905Y-74927579D01*
X192515904Y-74927586D01*
X192505500Y-75059777D01*
X176269107Y-75059777D01*
X176258511Y-75043919D01*
X176168290Y-74953698D01*
X176168259Y-74953669D01*
X175815819Y-74601229D01*
X175782334Y-74539906D01*
X175779500Y-74513548D01*
X175779500Y-74460306D01*
X175779499Y-74460304D01*
X175744896Y-74286341D01*
X175744893Y-74286332D01*
X175677016Y-74122459D01*
X175677009Y-74122446D01*
X175578464Y-73974965D01*
X175578461Y-73974961D01*
X175453038Y-73849538D01*
X175453034Y-73849535D01*
X175305553Y-73750990D01*
X175305540Y-73750983D01*
X175141667Y-73683106D01*
X175141658Y-73683103D01*
X174967694Y-73648500D01*
X174967691Y-73648500D01*
X174790309Y-73648500D01*
X174790306Y-73648500D01*
X174616341Y-73683103D01*
X174616332Y-73683106D01*
X174452459Y-73750983D01*
X174452446Y-73750990D01*
X174304965Y-73849535D01*
X174304961Y-73849538D01*
X174179538Y-73974961D01*
X174179535Y-73974965D01*
X174080990Y-74122446D01*
X174080983Y-74122459D01*
X174013106Y-74286332D01*
X174013103Y-74286341D01*
X173978500Y-74460304D01*
X144410500Y-74460304D01*
X144410500Y-73380047D01*
X144430185Y-73313008D01*
X144446819Y-73292366D01*
X144459399Y-73279786D01*
X144501966Y-73237219D01*
X144501968Y-73237215D01*
X144501971Y-73237213D01*
X144595982Y-73107816D01*
X144622287Y-73071610D01*
X144715220Y-72889219D01*
X144778477Y-72694534D01*
X144810500Y-72492352D01*
X144810500Y-72287648D01*
X144778477Y-72085466D01*
X144715220Y-71890781D01*
X144715217Y-71890776D01*
X144715216Y-71890771D01*
X144691137Y-71843514D01*
X144691135Y-71843512D01*
X144665553Y-71793304D01*
X174232500Y-71793304D01*
X174232500Y-71970695D01*
X174267103Y-72144658D01*
X174267106Y-72144667D01*
X174334983Y-72308540D01*
X174334990Y-72308553D01*
X174433535Y-72456034D01*
X174433538Y-72456038D01*
X174558961Y-72581461D01*
X174558965Y-72581464D01*
X174706446Y-72680009D01*
X174706459Y-72680016D01*
X174793911Y-72716239D01*
X174870334Y-72747894D01*
X174870336Y-72747894D01*
X174870341Y-72747896D01*
X175044304Y-72782499D01*
X175044307Y-72782500D01*
X175044309Y-72782500D01*
X175221693Y-72782500D01*
X175221694Y-72782499D01*
X175279682Y-72770964D01*
X175395658Y-72747896D01*
X175395661Y-72747894D01*
X175395666Y-72747894D01*
X175559547Y-72680013D01*
X175707035Y-72581464D01*
X175744679Y-72543820D01*
X175768162Y-72530996D01*
X175789665Y-72515083D01*
X175800986Y-72513072D01*
X175806001Y-72510334D01*
X175824193Y-72507769D01*
X175828268Y-72507500D01*
X175842698Y-72507500D01*
X175965912Y-72507500D01*
X176026334Y-72495481D01*
X176086757Y-72483463D01*
X176086760Y-72483461D01*
X176086763Y-72483461D01*
X176120092Y-72469654D01*
X176120091Y-72469654D01*
X176120097Y-72469652D01*
X176200591Y-72436312D01*
X176251814Y-72402084D01*
X176303038Y-72367858D01*
X176390163Y-72280733D01*
X176390163Y-72280731D01*
X176400371Y-72270524D01*
X176400373Y-72270521D01*
X176461421Y-72209472D01*
X176522742Y-72175989D01*
X176592434Y-72180973D01*
X176648367Y-72222845D01*
X176652202Y-72228264D01*
X176719535Y-72329034D01*
X176719538Y-72329038D01*
X176844961Y-72454461D01*
X176844965Y-72454464D01*
X176992446Y-72553009D01*
X176992459Y-72553016D01*
X177115363Y-72603923D01*
X177156334Y-72620894D01*
X177156336Y-72620894D01*
X177156341Y-72620896D01*
X177330304Y-72655499D01*
X177330307Y-72655500D01*
X177330309Y-72655500D01*
X177507693Y-72655500D01*
X177507694Y-72655499D01*
X177565682Y-72643964D01*
X177681658Y-72620896D01*
X177681661Y-72620894D01*
X177681666Y-72620894D01*
X177845547Y-72553013D01*
X177993035Y-72454464D01*
X178118464Y-72329035D01*
X178217013Y-72181547D01*
X178284894Y-72017666D01*
X178319500Y-71843691D01*
X178319500Y-71790452D01*
X178339185Y-71723413D01*
X178355819Y-71702771D01*
X178784771Y-71273819D01*
X178846094Y-71240334D01*
X178872452Y-71237500D01*
X181545639Y-71237500D01*
X181612678Y-71257185D01*
X181633321Y-71273820D01*
X181670961Y-71311461D01*
X181670965Y-71311464D01*
X181818446Y-71410009D01*
X181818459Y-71410016D01*
X181941363Y-71460923D01*
X181982334Y-71477894D01*
X181982336Y-71477894D01*
X181982341Y-71477896D01*
X182156304Y-71512499D01*
X182156307Y-71512500D01*
X182156309Y-71512500D01*
X182333693Y-71512500D01*
X182333694Y-71512499D01*
X182391682Y-71500964D01*
X182507658Y-71477896D01*
X182507661Y-71477894D01*
X182507666Y-71477894D01*
X182671547Y-71410013D01*
X182819035Y-71311464D01*
X182944464Y-71186035D01*
X183043013Y-71038547D01*
X183110894Y-70874666D01*
X183128609Y-70785610D01*
X183133964Y-70758682D01*
X183145500Y-70700691D01*
X183145500Y-70523309D01*
X183145500Y-70523306D01*
X183145499Y-70523304D01*
X183110896Y-70349341D01*
X183110893Y-70349332D01*
X183043015Y-70185457D01*
X183043013Y-70185454D01*
X183043013Y-70185453D01*
X183003031Y-70125617D01*
X182982153Y-70058942D01*
X183000637Y-69991562D01*
X183018450Y-69969047D01*
X183071464Y-69916035D01*
X183170013Y-69768547D01*
X183237894Y-69604666D01*
X183248173Y-69552993D01*
X183272499Y-69430695D01*
X183272500Y-69430693D01*
X183272500Y-69253306D01*
X183272499Y-69253304D01*
X183237896Y-69079341D01*
X183237893Y-69079332D01*
X183170016Y-68915459D01*
X183170009Y-68915446D01*
X183071464Y-68767965D01*
X183071461Y-68767961D01*
X182946038Y-68642538D01*
X182946034Y-68642535D01*
X182798553Y-68543990D01*
X182798540Y-68543983D01*
X182634667Y-68476106D01*
X182634658Y-68476103D01*
X182460694Y-68441500D01*
X182460691Y-68441500D01*
X182283309Y-68441500D01*
X182283306Y-68441500D01*
X182109341Y-68476103D01*
X182109332Y-68476106D01*
X181945459Y-68543983D01*
X181945446Y-68543990D01*
X181797965Y-68642535D01*
X181797961Y-68642538D01*
X181760321Y-68680180D01*
X181698999Y-68713666D01*
X181672639Y-68716500D01*
X178382693Y-68716500D01*
X178261860Y-68740535D01*
X178261852Y-68740537D01*
X178148021Y-68787687D01*
X178076431Y-68835523D01*
X178076430Y-68835524D01*
X178045568Y-68856144D01*
X175786272Y-71115440D01*
X175724949Y-71148925D01*
X175655257Y-71143941D01*
X175629700Y-71130861D01*
X175559553Y-71083990D01*
X175559540Y-71083983D01*
X175395667Y-71016106D01*
X175395658Y-71016103D01*
X175221694Y-70981500D01*
X175221691Y-70981500D01*
X175044309Y-70981500D01*
X175044306Y-70981500D01*
X174870341Y-71016103D01*
X174870332Y-71016106D01*
X174706459Y-71083983D01*
X174706446Y-71083990D01*
X174558965Y-71182535D01*
X174558961Y-71182538D01*
X174433538Y-71307961D01*
X174433535Y-71307965D01*
X174334990Y-71455446D01*
X174334983Y-71455459D01*
X174267106Y-71619332D01*
X174267103Y-71619341D01*
X174232500Y-71793304D01*
X144665553Y-71793304D01*
X144622287Y-71708390D01*
X144622285Y-71708387D01*
X144622284Y-71708385D01*
X144501971Y-71542786D01*
X144357213Y-71398028D01*
X144191613Y-71277715D01*
X144191612Y-71277714D01*
X144191610Y-71277713D01*
X144112688Y-71237500D01*
X144009223Y-71184781D01*
X143814534Y-71121522D01*
X143639995Y-71093878D01*
X143612352Y-71089500D01*
X143407648Y-71089500D01*
X143383329Y-71093351D01*
X143205465Y-71121522D01*
X143010776Y-71184781D01*
X142828386Y-71277715D01*
X142662786Y-71398028D01*
X142518028Y-71542786D01*
X142397715Y-71708386D01*
X142304781Y-71890776D01*
X142241522Y-72085465D01*
X142209500Y-72287648D01*
X137190499Y-72287648D01*
X137190499Y-71542128D01*
X137184091Y-71482517D01*
X137182367Y-71477896D01*
X137133797Y-71347671D01*
X137133793Y-71347664D01*
X137047547Y-71232455D01*
X137047544Y-71232452D01*
X136932335Y-71146206D01*
X136932328Y-71146202D01*
X136797482Y-71095908D01*
X136797483Y-71095908D01*
X136737883Y-71089501D01*
X136737881Y-71089500D01*
X136737873Y-71089500D01*
X136737864Y-71089500D01*
X135042129Y-71089500D01*
X135042123Y-71089501D01*
X134982516Y-71095908D01*
X134847671Y-71146202D01*
X134847664Y-71146206D01*
X134732455Y-71232452D01*
X134732452Y-71232455D01*
X134646206Y-71347664D01*
X134646202Y-71347671D01*
X134595908Y-71482517D01*
X134591856Y-71520213D01*
X134589501Y-71542123D01*
X134589500Y-71542135D01*
X133126036Y-71542135D01*
X133110109Y-71520214D01*
X133110105Y-71520209D01*
X132959786Y-71369890D01*
X132787817Y-71244949D01*
X132778504Y-71240204D01*
X132727707Y-71192230D01*
X132710912Y-71124409D01*
X132733449Y-71058274D01*
X132778507Y-71019232D01*
X132787558Y-71014620D01*
X132959459Y-70889727D01*
X132959464Y-70889723D01*
X133109723Y-70739464D01*
X133109727Y-70739459D01*
X133234620Y-70567557D01*
X133331095Y-70378217D01*
X133396757Y-70176129D01*
X133396757Y-70176126D01*
X133407231Y-70110000D01*
X132513012Y-70110000D01*
X132545925Y-70052993D01*
X132559683Y-70001648D01*
X162589500Y-70001648D01*
X162589500Y-70206351D01*
X162621522Y-70408534D01*
X162684781Y-70603223D01*
X162777715Y-70785613D01*
X162898028Y-70951213D01*
X163042786Y-71095971D01*
X163161934Y-71182535D01*
X163208390Y-71216287D01*
X163288657Y-71257185D01*
X163390776Y-71309218D01*
X163390778Y-71309218D01*
X163390781Y-71309220D01*
X163495137Y-71343127D01*
X163585465Y-71372477D01*
X163686557Y-71388488D01*
X163787648Y-71404500D01*
X163787649Y-71404500D01*
X163992351Y-71404500D01*
X163992352Y-71404500D01*
X164194534Y-71372477D01*
X164389219Y-71309220D01*
X164571610Y-71216287D01*
X164689190Y-71130861D01*
X164737213Y-71095971D01*
X164737215Y-71095968D01*
X164737219Y-71095966D01*
X164881966Y-70951219D01*
X164881968Y-70951215D01*
X164881971Y-70951213D01*
X164937590Y-70874658D01*
X165002287Y-70785610D01*
X165095220Y-70603219D01*
X165158477Y-70408534D01*
X165190500Y-70206352D01*
X165190500Y-70001648D01*
X170089500Y-70001648D01*
X170089500Y-70206351D01*
X170121522Y-70408534D01*
X170184781Y-70603223D01*
X170277715Y-70785613D01*
X170398028Y-70951213D01*
X170542786Y-71095971D01*
X170661934Y-71182535D01*
X170708390Y-71216287D01*
X170788657Y-71257185D01*
X170890776Y-71309218D01*
X170890778Y-71309218D01*
X170890781Y-71309220D01*
X170995137Y-71343127D01*
X171085465Y-71372477D01*
X171186557Y-71388488D01*
X171287648Y-71404500D01*
X171287649Y-71404500D01*
X171492351Y-71404500D01*
X171492352Y-71404500D01*
X171694534Y-71372477D01*
X171889219Y-71309220D01*
X172071610Y-71216287D01*
X172189190Y-71130861D01*
X172237213Y-71095971D01*
X172237215Y-71095968D01*
X172237219Y-71095966D01*
X172381966Y-70951219D01*
X172381968Y-70951215D01*
X172381971Y-70951213D01*
X172437590Y-70874658D01*
X172502287Y-70785610D01*
X172595220Y-70603219D01*
X172658477Y-70408534D01*
X172690500Y-70206352D01*
X172690500Y-70001648D01*
X172658477Y-69799466D01*
X172595220Y-69604781D01*
X172595218Y-69604778D01*
X172595218Y-69604776D01*
X172561503Y-69538607D01*
X172502287Y-69422390D01*
X172481715Y-69394075D01*
X172381971Y-69256786D01*
X172237213Y-69112028D01*
X172071613Y-68991715D01*
X172071612Y-68991714D01*
X172071610Y-68991713D01*
X172014653Y-68962691D01*
X171889223Y-68898781D01*
X171694534Y-68835522D01*
X171519995Y-68807878D01*
X171492352Y-68803500D01*
X171287648Y-68803500D01*
X171263329Y-68807351D01*
X171085465Y-68835522D01*
X170890776Y-68898781D01*
X170708386Y-68991715D01*
X170542786Y-69112028D01*
X170398028Y-69256786D01*
X170277715Y-69422386D01*
X170184781Y-69604776D01*
X170121522Y-69799465D01*
X170089500Y-70001648D01*
X165190500Y-70001648D01*
X165158477Y-69799466D01*
X165095220Y-69604781D01*
X165095218Y-69604778D01*
X165095218Y-69604776D01*
X165061503Y-69538607D01*
X165002287Y-69422390D01*
X164981715Y-69394075D01*
X164881971Y-69256786D01*
X164745819Y-69120634D01*
X164712334Y-69059311D01*
X164709500Y-69032953D01*
X164709500Y-65482499D01*
X164729185Y-65415460D01*
X164781989Y-65369705D01*
X164833500Y-65358499D01*
X164981871Y-65358499D01*
X164981872Y-65358499D01*
X165041483Y-65352091D01*
X165176331Y-65301796D01*
X165291546Y-65215546D01*
X165377796Y-65100331D01*
X165426810Y-64968916D01*
X165468681Y-64912984D01*
X165534145Y-64888566D01*
X165602418Y-64903417D01*
X165630673Y-64924569D01*
X165744213Y-65038109D01*
X165916179Y-65163048D01*
X165916181Y-65163049D01*
X165916184Y-65163051D01*
X166105588Y-65259557D01*
X166307757Y-65325246D01*
X166517713Y-65358500D01*
X166517714Y-65358500D01*
X166730286Y-65358500D01*
X166730287Y-65358500D01*
X166940243Y-65325246D01*
X167142412Y-65259557D01*
X167331816Y-65163051D01*
X167418138Y-65100335D01*
X167503786Y-65038109D01*
X167503788Y-65038106D01*
X167503792Y-65038104D01*
X167654104Y-64887792D01*
X167654106Y-64887788D01*
X167654109Y-64887786D01*
X167779048Y-64715820D01*
X167779051Y-64715816D01*
X167783793Y-64706508D01*
X167831763Y-64655711D01*
X167899583Y-64638911D01*
X167965719Y-64661445D01*
X168004763Y-64706500D01*
X168009377Y-64715555D01*
X168134272Y-64887459D01*
X168134276Y-64887464D01*
X168284535Y-65037723D01*
X168284540Y-65037727D01*
X168456442Y-65162620D01*
X168645782Y-65259095D01*
X168847871Y-65324757D01*
X168914000Y-65335231D01*
X168914000Y-64441012D01*
X168971007Y-64473925D01*
X169098174Y-64508000D01*
X169229826Y-64508000D01*
X169356993Y-64473925D01*
X169414000Y-64441012D01*
X169414000Y-65335230D01*
X169480126Y-65324757D01*
X169480129Y-65324757D01*
X169682217Y-65259095D01*
X169871557Y-65162620D01*
X170043459Y-65037727D01*
X170043464Y-65037723D01*
X170193723Y-64887464D01*
X170193727Y-64887459D01*
X170318620Y-64715558D01*
X170323232Y-64706507D01*
X170371205Y-64655709D01*
X170439025Y-64638912D01*
X170505161Y-64661447D01*
X170544204Y-64706504D01*
X170548949Y-64715817D01*
X170673890Y-64887786D01*
X170824213Y-65038109D01*
X170996179Y-65163048D01*
X170996181Y-65163049D01*
X170996184Y-65163051D01*
X171185588Y-65259557D01*
X171387757Y-65325246D01*
X171597713Y-65358500D01*
X171597714Y-65358500D01*
X171810286Y-65358500D01*
X171810287Y-65358500D01*
X172020243Y-65325246D01*
X172222412Y-65259557D01*
X172411816Y-65163051D01*
X172498138Y-65100335D01*
X172583786Y-65038109D01*
X172583788Y-65038106D01*
X172583792Y-65038104D01*
X172734104Y-64887792D01*
X172734106Y-64887788D01*
X172734109Y-64887786D01*
X172859048Y-64715820D01*
X172859047Y-64715820D01*
X172859051Y-64715816D01*
X172955557Y-64526412D01*
X173021246Y-64324243D01*
X173054500Y-64114287D01*
X173054500Y-63901713D01*
X173021246Y-63691757D01*
X172955557Y-63489588D01*
X172859051Y-63300184D01*
X172859049Y-63300181D01*
X172859048Y-63300179D01*
X172734109Y-63128213D01*
X172583786Y-62977890D01*
X172411820Y-62852951D01*
X172222414Y-62756444D01*
X172222413Y-62756443D01*
X172222412Y-62756443D01*
X172020243Y-62690754D01*
X172020241Y-62690753D01*
X172020240Y-62690753D01*
X171858957Y-62665208D01*
X171810287Y-62657500D01*
X171597713Y-62657500D01*
X171549042Y-62665208D01*
X171387760Y-62690753D01*
X171185585Y-62756444D01*
X170996179Y-62852951D01*
X170824213Y-62977890D01*
X170673890Y-63128213D01*
X170548949Y-63300182D01*
X170544202Y-63309499D01*
X170496227Y-63360293D01*
X170428405Y-63377087D01*
X170362271Y-63354548D01*
X170323234Y-63309495D01*
X170318622Y-63300444D01*
X170193727Y-63128540D01*
X170193723Y-63128535D01*
X170043464Y-62978276D01*
X170043459Y-62978272D01*
X169871557Y-62853379D01*
X169682215Y-62756903D01*
X169480124Y-62691241D01*
X169414000Y-62680768D01*
X169414000Y-63574988D01*
X169356993Y-63542075D01*
X169229826Y-63508000D01*
X169098174Y-63508000D01*
X168971007Y-63542075D01*
X168914000Y-63574988D01*
X168914000Y-62680768D01*
X168913999Y-62680768D01*
X168847875Y-62691241D01*
X168645784Y-62756903D01*
X168456442Y-62853379D01*
X168284540Y-62978272D01*
X168284535Y-62978276D01*
X168134276Y-63128535D01*
X168134272Y-63128540D01*
X168009378Y-63300443D01*
X168004762Y-63309502D01*
X167956784Y-63360295D01*
X167888963Y-63377087D01*
X167822829Y-63354546D01*
X167783794Y-63309493D01*
X167779051Y-63300184D01*
X167779049Y-63300181D01*
X167779048Y-63300179D01*
X167654109Y-63128213D01*
X167503786Y-62977890D01*
X167331820Y-62852951D01*
X167142414Y-62756444D01*
X167142413Y-62756443D01*
X167142412Y-62756443D01*
X166940243Y-62690754D01*
X166940241Y-62690753D01*
X166940240Y-62690753D01*
X166778957Y-62665208D01*
X166730287Y-62657500D01*
X166517713Y-62657500D01*
X166469042Y-62665208D01*
X166307760Y-62690753D01*
X166105585Y-62756444D01*
X165916179Y-62852951D01*
X165744215Y-62977889D01*
X165630673Y-63091431D01*
X165569350Y-63124915D01*
X165499658Y-63119931D01*
X165443725Y-63078059D01*
X165426810Y-63047082D01*
X165377797Y-62915671D01*
X165377793Y-62915664D01*
X165291547Y-62800455D01*
X165291544Y-62800452D01*
X165176335Y-62714206D01*
X165176328Y-62714202D01*
X165041482Y-62663908D01*
X165041483Y-62663908D01*
X164981883Y-62657501D01*
X164981881Y-62657500D01*
X164981873Y-62657500D01*
X164981864Y-62657500D01*
X163186129Y-62657500D01*
X163186123Y-62657501D01*
X163126516Y-62663908D01*
X162991671Y-62714202D01*
X162991664Y-62714206D01*
X162876455Y-62800452D01*
X162876452Y-62800455D01*
X162790206Y-62915664D01*
X162790202Y-62915671D01*
X162739908Y-63050517D01*
X162733501Y-63110116D01*
X162733500Y-63110135D01*
X162733500Y-64905870D01*
X162733501Y-64905876D01*
X162739908Y-64965483D01*
X162790202Y-65100328D01*
X162790206Y-65100335D01*
X162876452Y-65215544D01*
X162876455Y-65215547D01*
X162991664Y-65301793D01*
X162991671Y-65301797D01*
X163036618Y-65318561D01*
X163126517Y-65352091D01*
X163186127Y-65358500D01*
X163334500Y-65358499D01*
X163401539Y-65378183D01*
X163447294Y-65430987D01*
X163458500Y-65482499D01*
X163458500Y-68788288D01*
X163438815Y-68855327D01*
X163390795Y-68898773D01*
X163208385Y-68991715D01*
X163042786Y-69112028D01*
X162898028Y-69256786D01*
X162777715Y-69422386D01*
X162684781Y-69604776D01*
X162621522Y-69799465D01*
X162589500Y-70001648D01*
X132559683Y-70001648D01*
X132580000Y-69925826D01*
X132580000Y-69794174D01*
X132545925Y-69667007D01*
X132513012Y-69610000D01*
X133407231Y-69610000D01*
X133396757Y-69543873D01*
X133396757Y-69543870D01*
X133331095Y-69341782D01*
X133234620Y-69152442D01*
X133109727Y-68980540D01*
X133109723Y-68980535D01*
X132959464Y-68830276D01*
X132959459Y-68830272D01*
X132787558Y-68705379D01*
X132777954Y-68700486D01*
X132727157Y-68652512D01*
X132710361Y-68584692D01*
X132732897Y-68518556D01*
X132777954Y-68479514D01*
X132787558Y-68474620D01*
X132959459Y-68349727D01*
X132959464Y-68349723D01*
X133109723Y-68199464D01*
X133109727Y-68199459D01*
X133234620Y-68027557D01*
X133331095Y-67838217D01*
X133396757Y-67636129D01*
X133396757Y-67636126D01*
X133407231Y-67570000D01*
X132513012Y-67570000D01*
X132545925Y-67512993D01*
X132580000Y-67385826D01*
X132580000Y-67254174D01*
X132545925Y-67127007D01*
X132513012Y-67070000D01*
X133407231Y-67070000D01*
X133396757Y-67003873D01*
X133396757Y-67003870D01*
X133331095Y-66801782D01*
X133234620Y-66612442D01*
X133109727Y-66440540D01*
X133109723Y-66440535D01*
X132996053Y-66326865D01*
X132962568Y-66265542D01*
X132967552Y-66195850D01*
X133009424Y-66139917D01*
X133040400Y-66123002D01*
X133172331Y-66073796D01*
X133287546Y-65987546D01*
X133373796Y-65872331D01*
X133424091Y-65737483D01*
X133430500Y-65677873D01*
X133430499Y-64667648D01*
X134589500Y-64667648D01*
X134589500Y-64872352D01*
X134592068Y-64888566D01*
X134621522Y-65074534D01*
X134684781Y-65269223D01*
X134777715Y-65451613D01*
X134898028Y-65617213D01*
X135042786Y-65761971D01*
X135194687Y-65872331D01*
X135208390Y-65882287D01*
X135297212Y-65927544D01*
X135390776Y-65975218D01*
X135390778Y-65975218D01*
X135390781Y-65975220D01*
X135428717Y-65987546D01*
X135585465Y-66038477D01*
X135686557Y-66054488D01*
X135787648Y-66070500D01*
X135787649Y-66070500D01*
X135992351Y-66070500D01*
X135992352Y-66070500D01*
X136194534Y-66038477D01*
X136389219Y-65975220D01*
X136571610Y-65882287D01*
X136667901Y-65812328D01*
X136737213Y-65761971D01*
X136737215Y-65761968D01*
X136737219Y-65761966D01*
X136881966Y-65617219D01*
X136881968Y-65617215D01*
X136881971Y-65617213D01*
X136934732Y-65544590D01*
X137002287Y-65451610D01*
X137095220Y-65269219D01*
X137158477Y-65074534D01*
X137190500Y-64872352D01*
X137190500Y-64667648D01*
X137158477Y-64465466D01*
X137095220Y-64270781D01*
X137095218Y-64270778D01*
X137095218Y-64270776D01*
X137002287Y-64088390D01*
X136932032Y-63991691D01*
X136932031Y-63991688D01*
X136881971Y-63922787D01*
X136881967Y-63922782D01*
X136881320Y-63922135D01*
X142209500Y-63922135D01*
X142209500Y-65617870D01*
X142209501Y-65617876D01*
X142215908Y-65677483D01*
X142266202Y-65812328D01*
X142266206Y-65812335D01*
X142352452Y-65927544D01*
X142352455Y-65927547D01*
X142467664Y-66013793D01*
X142467671Y-66013797D01*
X142602517Y-66064091D01*
X142602516Y-66064091D01*
X142609444Y-66064835D01*
X142662127Y-66070500D01*
X144357872Y-66070499D01*
X144417483Y-66064091D01*
X144552331Y-66013796D01*
X144667546Y-65927546D01*
X144753796Y-65812331D01*
X144804091Y-65677483D01*
X144810500Y-65617873D01*
X144810499Y-63922128D01*
X144804091Y-63862517D01*
X144753796Y-63727669D01*
X144753795Y-63727668D01*
X144753793Y-63727664D01*
X144667547Y-63612455D01*
X144667544Y-63612452D01*
X144552335Y-63526206D01*
X144552328Y-63526202D01*
X144417482Y-63475908D01*
X144417483Y-63475908D01*
X144357883Y-63469501D01*
X144357881Y-63469500D01*
X144357873Y-63469500D01*
X144357864Y-63469500D01*
X142662129Y-63469500D01*
X142662123Y-63469501D01*
X142602516Y-63475908D01*
X142467671Y-63526202D01*
X142467664Y-63526206D01*
X142352455Y-63612452D01*
X142352452Y-63612455D01*
X142266206Y-63727664D01*
X142266202Y-63727671D01*
X142215908Y-63862517D01*
X142209501Y-63922116D01*
X142209501Y-63922123D01*
X142209500Y-63922135D01*
X136881320Y-63922135D01*
X136737213Y-63778028D01*
X136571613Y-63657715D01*
X136571612Y-63657714D01*
X136571610Y-63657713D01*
X136514653Y-63628691D01*
X136389223Y-63564781D01*
X136194534Y-63501522D01*
X136019995Y-63473878D01*
X135992352Y-63469500D01*
X135787648Y-63469500D01*
X135763329Y-63473351D01*
X135585465Y-63501522D01*
X135390776Y-63564781D01*
X135208386Y-63657715D01*
X135042786Y-63778028D01*
X134898028Y-63922786D01*
X134777715Y-64088386D01*
X134684781Y-64270776D01*
X134621522Y-64465465D01*
X134591391Y-64655709D01*
X134589500Y-64667648D01*
X133430499Y-64667648D01*
X133430499Y-63882128D01*
X133424091Y-63822517D01*
X133373796Y-63687669D01*
X133373795Y-63687668D01*
X133373793Y-63687664D01*
X133287547Y-63572455D01*
X133287544Y-63572452D01*
X133172335Y-63486206D01*
X133172328Y-63486202D01*
X133037482Y-63435908D01*
X133037483Y-63435908D01*
X132977883Y-63429501D01*
X132977881Y-63429500D01*
X132977873Y-63429500D01*
X132977864Y-63429500D01*
X131182129Y-63429500D01*
X131182123Y-63429501D01*
X131122516Y-63435908D01*
X130987671Y-63486202D01*
X130987664Y-63486206D01*
X130872455Y-63572452D01*
X130872452Y-63572455D01*
X130786206Y-63687664D01*
X130786202Y-63687671D01*
X130735908Y-63822517D01*
X130731608Y-63862516D01*
X130729501Y-63882123D01*
X130729500Y-63882135D01*
X128165500Y-63882135D01*
X128165500Y-61084500D01*
X128185185Y-61017461D01*
X128237989Y-60971706D01*
X128289500Y-60960500D01*
X201700500Y-60960500D01*
X201767539Y-60980185D01*
G37*
%TD.AperFunction*%
%TD*%
M02*
