%TF.GenerationSoftware,KiCad,Pcbnew,9.0.1*%
%TF.CreationDate,2025-04-20T22:18:08+02:00*%
%TF.ProjectId,OP-D-Amp,4f502d44-2d41-46d7-902e-6b696361645f,2.0*%
%TF.SameCoordinates,Original*%
%TF.FileFunction,Legend,Top*%
%TF.FilePolarity,Positive*%
%FSLAX46Y46*%
G04 Gerber Fmt 4.6, Leading zero omitted, Abs format (unit mm)*
G04 Created by KiCad (PCBNEW 9.0.1) date 2025-04-20 22:18:08*
%MOMM*%
%LPD*%
G01*
G04 APERTURE LIST*
%ADD10C,0.150000*%
%ADD11C,0.300000*%
%ADD12C,0.120000*%
G04 APERTURE END LIST*
D10*
X165735000Y-132588000D02*
X129032000Y-132588000D01*
X129032000Y-100711000D01*
X165735000Y-100711000D01*
X165735000Y-132588000D01*
X163912779Y-66671819D02*
X163912779Y-65671819D01*
X164388969Y-66005152D02*
X164388969Y-66671819D01*
X164388969Y-66100390D02*
X164436588Y-66052771D01*
X164436588Y-66052771D02*
X164531826Y-66005152D01*
X164531826Y-66005152D02*
X164674683Y-66005152D01*
X164674683Y-66005152D02*
X164769921Y-66052771D01*
X164769921Y-66052771D02*
X164817540Y-66148009D01*
X164817540Y-66148009D02*
X164817540Y-66671819D01*
D11*
X136444510Y-75429400D02*
X137587368Y-75429400D01*
X139087368Y-76000828D02*
X138230225Y-76000828D01*
X138658796Y-76000828D02*
X138658796Y-74500828D01*
X138658796Y-74500828D02*
X138515939Y-74715114D01*
X138515939Y-74715114D02*
X138373082Y-74857971D01*
X138373082Y-74857971D02*
X138230225Y-74929400D01*
X139658796Y-74643685D02*
X139730224Y-74572257D01*
X139730224Y-74572257D02*
X139873082Y-74500828D01*
X139873082Y-74500828D02*
X140230224Y-74500828D01*
X140230224Y-74500828D02*
X140373082Y-74572257D01*
X140373082Y-74572257D02*
X140444510Y-74643685D01*
X140444510Y-74643685D02*
X140515939Y-74786542D01*
X140515939Y-74786542D02*
X140515939Y-74929400D01*
X140515939Y-74929400D02*
X140444510Y-75143685D01*
X140444510Y-75143685D02*
X139587367Y-76000828D01*
X139587367Y-76000828D02*
X140515939Y-76000828D01*
X140944510Y-74500828D02*
X141444510Y-76000828D01*
X141444510Y-76000828D02*
X141944510Y-74500828D01*
D10*
X135480588Y-67497438D02*
X135385350Y-67449819D01*
X135385350Y-67449819D02*
X135242493Y-67449819D01*
X135242493Y-67449819D02*
X135099636Y-67497438D01*
X135099636Y-67497438D02*
X135004398Y-67592676D01*
X135004398Y-67592676D02*
X134956779Y-67687914D01*
X134956779Y-67687914D02*
X134909160Y-67878390D01*
X134909160Y-67878390D02*
X134909160Y-68021247D01*
X134909160Y-68021247D02*
X134956779Y-68211723D01*
X134956779Y-68211723D02*
X135004398Y-68306961D01*
X135004398Y-68306961D02*
X135099636Y-68402200D01*
X135099636Y-68402200D02*
X135242493Y-68449819D01*
X135242493Y-68449819D02*
X135337731Y-68449819D01*
X135337731Y-68449819D02*
X135480588Y-68402200D01*
X135480588Y-68402200D02*
X135528207Y-68354580D01*
X135528207Y-68354580D02*
X135528207Y-68021247D01*
X135528207Y-68021247D02*
X135337731Y-68021247D01*
X135956779Y-68449819D02*
X135956779Y-67449819D01*
X135956779Y-67449819D02*
X136528207Y-68449819D01*
X136528207Y-68449819D02*
X136528207Y-67449819D01*
X137004398Y-68449819D02*
X137004398Y-67449819D01*
X137004398Y-67449819D02*
X137242493Y-67449819D01*
X137242493Y-67449819D02*
X137385350Y-67497438D01*
X137385350Y-67497438D02*
X137480588Y-67592676D01*
X137480588Y-67592676D02*
X137528207Y-67687914D01*
X137528207Y-67687914D02*
X137575826Y-67878390D01*
X137575826Y-67878390D02*
X137575826Y-68021247D01*
X137575826Y-68021247D02*
X137528207Y-68211723D01*
X137528207Y-68211723D02*
X137480588Y-68306961D01*
X137480588Y-68306961D02*
X137385350Y-68402200D01*
X137385350Y-68402200D02*
X137242493Y-68449819D01*
X137242493Y-68449819D02*
X137004398Y-68449819D01*
X149117255Y-62369819D02*
X149307731Y-62369819D01*
X149307731Y-62369819D02*
X149402969Y-62417438D01*
X149402969Y-62417438D02*
X149498207Y-62512676D01*
X149498207Y-62512676D02*
X149545826Y-62703152D01*
X149545826Y-62703152D02*
X149545826Y-63036485D01*
X149545826Y-63036485D02*
X149498207Y-63226961D01*
X149498207Y-63226961D02*
X149402969Y-63322200D01*
X149402969Y-63322200D02*
X149307731Y-63369819D01*
X149307731Y-63369819D02*
X149117255Y-63369819D01*
X149117255Y-63369819D02*
X149022017Y-63322200D01*
X149022017Y-63322200D02*
X148926779Y-63226961D01*
X148926779Y-63226961D02*
X148879160Y-63036485D01*
X148879160Y-63036485D02*
X148879160Y-62703152D01*
X148879160Y-62703152D02*
X148926779Y-62512676D01*
X148926779Y-62512676D02*
X149022017Y-62417438D01*
X149022017Y-62417438D02*
X149117255Y-62369819D01*
X149974398Y-63369819D02*
X149974398Y-62369819D01*
X149974398Y-62369819D02*
X150355350Y-62369819D01*
X150355350Y-62369819D02*
X150450588Y-62417438D01*
X150450588Y-62417438D02*
X150498207Y-62465057D01*
X150498207Y-62465057D02*
X150545826Y-62560295D01*
X150545826Y-62560295D02*
X150545826Y-62703152D01*
X150545826Y-62703152D02*
X150498207Y-62798390D01*
X150498207Y-62798390D02*
X150450588Y-62846009D01*
X150450588Y-62846009D02*
X150355350Y-62893628D01*
X150355350Y-62893628D02*
X149974398Y-62893628D01*
X150974398Y-62988866D02*
X151736303Y-62988866D01*
X152212493Y-63369819D02*
X152212493Y-62369819D01*
X152212493Y-62369819D02*
X152450588Y-62369819D01*
X152450588Y-62369819D02*
X152593445Y-62417438D01*
X152593445Y-62417438D02*
X152688683Y-62512676D01*
X152688683Y-62512676D02*
X152736302Y-62607914D01*
X152736302Y-62607914D02*
X152783921Y-62798390D01*
X152783921Y-62798390D02*
X152783921Y-62941247D01*
X152783921Y-62941247D02*
X152736302Y-63131723D01*
X152736302Y-63131723D02*
X152688683Y-63226961D01*
X152688683Y-63226961D02*
X152593445Y-63322200D01*
X152593445Y-63322200D02*
X152450588Y-63369819D01*
X152450588Y-63369819D02*
X152212493Y-63369819D01*
X153641064Y-63369819D02*
X153641064Y-62846009D01*
X153641064Y-62846009D02*
X153593445Y-62750771D01*
X153593445Y-62750771D02*
X153498207Y-62703152D01*
X153498207Y-62703152D02*
X153307731Y-62703152D01*
X153307731Y-62703152D02*
X153212493Y-62750771D01*
X153641064Y-63322200D02*
X153545826Y-63369819D01*
X153545826Y-63369819D02*
X153307731Y-63369819D01*
X153307731Y-63369819D02*
X153212493Y-63322200D01*
X153212493Y-63322200D02*
X153164874Y-63226961D01*
X153164874Y-63226961D02*
X153164874Y-63131723D01*
X153164874Y-63131723D02*
X153212493Y-63036485D01*
X153212493Y-63036485D02*
X153307731Y-62988866D01*
X153307731Y-62988866D02*
X153545826Y-62988866D01*
X153545826Y-62988866D02*
X153641064Y-62941247D01*
X154117255Y-63369819D02*
X154117255Y-62703152D01*
X154117255Y-62798390D02*
X154164874Y-62750771D01*
X154164874Y-62750771D02*
X154260112Y-62703152D01*
X154260112Y-62703152D02*
X154402969Y-62703152D01*
X154402969Y-62703152D02*
X154498207Y-62750771D01*
X154498207Y-62750771D02*
X154545826Y-62846009D01*
X154545826Y-62846009D02*
X154545826Y-63369819D01*
X154545826Y-62846009D02*
X154593445Y-62750771D01*
X154593445Y-62750771D02*
X154688683Y-62703152D01*
X154688683Y-62703152D02*
X154831540Y-62703152D01*
X154831540Y-62703152D02*
X154926779Y-62750771D01*
X154926779Y-62750771D02*
X154974398Y-62846009D01*
X154974398Y-62846009D02*
X154974398Y-63369819D01*
X155450588Y-62703152D02*
X155450588Y-63703152D01*
X155450588Y-62750771D02*
X155545826Y-62703152D01*
X155545826Y-62703152D02*
X155736302Y-62703152D01*
X155736302Y-62703152D02*
X155831540Y-62750771D01*
X155831540Y-62750771D02*
X155879159Y-62798390D01*
X155879159Y-62798390D02*
X155926778Y-62893628D01*
X155926778Y-62893628D02*
X155926778Y-63179342D01*
X155926778Y-63179342D02*
X155879159Y-63274580D01*
X155879159Y-63274580D02*
X155831540Y-63322200D01*
X155831540Y-63322200D02*
X155736302Y-63369819D01*
X155736302Y-63369819D02*
X155545826Y-63369819D01*
X155545826Y-63369819D02*
X155450588Y-63322200D01*
X157069636Y-62465057D02*
X157117255Y-62417438D01*
X157117255Y-62417438D02*
X157212493Y-62369819D01*
X157212493Y-62369819D02*
X157450588Y-62369819D01*
X157450588Y-62369819D02*
X157545826Y-62417438D01*
X157545826Y-62417438D02*
X157593445Y-62465057D01*
X157593445Y-62465057D02*
X157641064Y-62560295D01*
X157641064Y-62560295D02*
X157641064Y-62655533D01*
X157641064Y-62655533D02*
X157593445Y-62798390D01*
X157593445Y-62798390D02*
X157022017Y-63369819D01*
X157022017Y-63369819D02*
X157641064Y-63369819D01*
X158069636Y-63274580D02*
X158117255Y-63322200D01*
X158117255Y-63322200D02*
X158069636Y-63369819D01*
X158069636Y-63369819D02*
X158022017Y-63322200D01*
X158022017Y-63322200D02*
X158069636Y-63274580D01*
X158069636Y-63274580D02*
X158069636Y-63369819D01*
X158736302Y-62369819D02*
X158831540Y-62369819D01*
X158831540Y-62369819D02*
X158926778Y-62417438D01*
X158926778Y-62417438D02*
X158974397Y-62465057D01*
X158974397Y-62465057D02*
X159022016Y-62560295D01*
X159022016Y-62560295D02*
X159069635Y-62750771D01*
X159069635Y-62750771D02*
X159069635Y-62988866D01*
X159069635Y-62988866D02*
X159022016Y-63179342D01*
X159022016Y-63179342D02*
X158974397Y-63274580D01*
X158974397Y-63274580D02*
X158926778Y-63322200D01*
X158926778Y-63322200D02*
X158831540Y-63369819D01*
X158831540Y-63369819D02*
X158736302Y-63369819D01*
X158736302Y-63369819D02*
X158641064Y-63322200D01*
X158641064Y-63322200D02*
X158593445Y-63274580D01*
X158593445Y-63274580D02*
X158545826Y-63179342D01*
X158545826Y-63179342D02*
X158498207Y-62988866D01*
X158498207Y-62988866D02*
X158498207Y-62750771D01*
X158498207Y-62750771D02*
X158545826Y-62560295D01*
X158545826Y-62560295D02*
X158593445Y-62465057D01*
X158593445Y-62465057D02*
X158641064Y-62417438D01*
X158641064Y-62417438D02*
X158736302Y-62369819D01*
X156632255Y-127139819D02*
X156822731Y-127139819D01*
X156822731Y-127139819D02*
X156917969Y-127187438D01*
X156917969Y-127187438D02*
X157013207Y-127282676D01*
X157013207Y-127282676D02*
X157060826Y-127473152D01*
X157060826Y-127473152D02*
X157060826Y-127806485D01*
X157060826Y-127806485D02*
X157013207Y-127996961D01*
X157013207Y-127996961D02*
X156917969Y-128092200D01*
X156917969Y-128092200D02*
X156822731Y-128139819D01*
X156822731Y-128139819D02*
X156632255Y-128139819D01*
X156632255Y-128139819D02*
X156537017Y-128092200D01*
X156537017Y-128092200D02*
X156441779Y-127996961D01*
X156441779Y-127996961D02*
X156394160Y-127806485D01*
X156394160Y-127806485D02*
X156394160Y-127473152D01*
X156394160Y-127473152D02*
X156441779Y-127282676D01*
X156441779Y-127282676D02*
X156537017Y-127187438D01*
X156537017Y-127187438D02*
X156632255Y-127139819D01*
X157441779Y-128092200D02*
X157537017Y-128139819D01*
X157537017Y-128139819D02*
X157727493Y-128139819D01*
X157727493Y-128139819D02*
X157822731Y-128092200D01*
X157822731Y-128092200D02*
X157870350Y-127996961D01*
X157870350Y-127996961D02*
X157870350Y-127949342D01*
X157870350Y-127949342D02*
X157822731Y-127854104D01*
X157822731Y-127854104D02*
X157727493Y-127806485D01*
X157727493Y-127806485D02*
X157584636Y-127806485D01*
X157584636Y-127806485D02*
X157489398Y-127758866D01*
X157489398Y-127758866D02*
X157441779Y-127663628D01*
X157441779Y-127663628D02*
X157441779Y-127616009D01*
X157441779Y-127616009D02*
X157489398Y-127520771D01*
X157489398Y-127520771D02*
X157584636Y-127473152D01*
X157584636Y-127473152D02*
X157727493Y-127473152D01*
X157727493Y-127473152D02*
X157822731Y-127520771D01*
X158203684Y-127473152D02*
X158727493Y-127473152D01*
X158727493Y-127473152D02*
X158203684Y-128139819D01*
X158203684Y-128139819D02*
X158727493Y-128139819D01*
X159108446Y-128139819D02*
X159108446Y-127473152D01*
X159108446Y-127139819D02*
X159060827Y-127187438D01*
X159060827Y-127187438D02*
X159108446Y-127235057D01*
X159108446Y-127235057D02*
X159156065Y-127187438D01*
X159156065Y-127187438D02*
X159108446Y-127139819D01*
X159108446Y-127139819D02*
X159108446Y-127235057D01*
X159727493Y-128139819D02*
X159632255Y-128092200D01*
X159632255Y-128092200D02*
X159584636Y-127996961D01*
X159584636Y-127996961D02*
X159584636Y-127139819D01*
X160251303Y-128139819D02*
X160156065Y-128092200D01*
X160156065Y-128092200D02*
X160108446Y-127996961D01*
X160108446Y-127996961D02*
X160108446Y-127139819D01*
X161060827Y-128139819D02*
X161060827Y-127616009D01*
X161060827Y-127616009D02*
X161013208Y-127520771D01*
X161013208Y-127520771D02*
X160917970Y-127473152D01*
X160917970Y-127473152D02*
X160727494Y-127473152D01*
X160727494Y-127473152D02*
X160632256Y-127520771D01*
X161060827Y-128092200D02*
X160965589Y-128139819D01*
X160965589Y-128139819D02*
X160727494Y-128139819D01*
X160727494Y-128139819D02*
X160632256Y-128092200D01*
X160632256Y-128092200D02*
X160584637Y-127996961D01*
X160584637Y-127996961D02*
X160584637Y-127901723D01*
X160584637Y-127901723D02*
X160632256Y-127806485D01*
X160632256Y-127806485D02*
X160727494Y-127758866D01*
X160727494Y-127758866D02*
X160965589Y-127758866D01*
X160965589Y-127758866D02*
X161060827Y-127711247D01*
X161394161Y-127473152D02*
X161775113Y-127473152D01*
X161537018Y-127139819D02*
X161537018Y-127996961D01*
X161537018Y-127996961D02*
X161584637Y-128092200D01*
X161584637Y-128092200D02*
X161679875Y-128139819D01*
X161679875Y-128139819D02*
X161775113Y-128139819D01*
X162251304Y-128139819D02*
X162156066Y-128092200D01*
X162156066Y-128092200D02*
X162108447Y-128044580D01*
X162108447Y-128044580D02*
X162060828Y-127949342D01*
X162060828Y-127949342D02*
X162060828Y-127663628D01*
X162060828Y-127663628D02*
X162108447Y-127568390D01*
X162108447Y-127568390D02*
X162156066Y-127520771D01*
X162156066Y-127520771D02*
X162251304Y-127473152D01*
X162251304Y-127473152D02*
X162394161Y-127473152D01*
X162394161Y-127473152D02*
X162489399Y-127520771D01*
X162489399Y-127520771D02*
X162537018Y-127568390D01*
X162537018Y-127568390D02*
X162584637Y-127663628D01*
X162584637Y-127663628D02*
X162584637Y-127949342D01*
X162584637Y-127949342D02*
X162537018Y-128044580D01*
X162537018Y-128044580D02*
X162489399Y-128092200D01*
X162489399Y-128092200D02*
X162394161Y-128139819D01*
X162394161Y-128139819D02*
X162251304Y-128139819D01*
X163013209Y-128139819D02*
X163013209Y-127473152D01*
X163013209Y-127663628D02*
X163060828Y-127568390D01*
X163060828Y-127568390D02*
X163108447Y-127520771D01*
X163108447Y-127520771D02*
X163203685Y-127473152D01*
X163203685Y-127473152D02*
X163298923Y-127473152D01*
X166198779Y-67052819D02*
X166198779Y-66052819D01*
X166198779Y-66052819D02*
X166579731Y-66052819D01*
X166579731Y-66052819D02*
X166674969Y-66100438D01*
X166674969Y-66100438D02*
X166722588Y-66148057D01*
X166722588Y-66148057D02*
X166770207Y-66243295D01*
X166770207Y-66243295D02*
X166770207Y-66386152D01*
X166770207Y-66386152D02*
X166722588Y-66481390D01*
X166722588Y-66481390D02*
X166674969Y-66529009D01*
X166674969Y-66529009D02*
X166579731Y-66576628D01*
X166579731Y-66576628D02*
X166198779Y-66576628D01*
X167198779Y-67052819D02*
X167198779Y-66052819D01*
D11*
X136444510Y-62729400D02*
X137587368Y-62729400D01*
X137015939Y-63300828D02*
X137015939Y-62157971D01*
X139087368Y-63300828D02*
X138230225Y-63300828D01*
X138658796Y-63300828D02*
X138658796Y-61800828D01*
X138658796Y-61800828D02*
X138515939Y-62015114D01*
X138515939Y-62015114D02*
X138373082Y-62157971D01*
X138373082Y-62157971D02*
X138230225Y-62229400D01*
X139658796Y-61943685D02*
X139730224Y-61872257D01*
X139730224Y-61872257D02*
X139873082Y-61800828D01*
X139873082Y-61800828D02*
X140230224Y-61800828D01*
X140230224Y-61800828D02*
X140373082Y-61872257D01*
X140373082Y-61872257D02*
X140444510Y-61943685D01*
X140444510Y-61943685D02*
X140515939Y-62086542D01*
X140515939Y-62086542D02*
X140515939Y-62229400D01*
X140515939Y-62229400D02*
X140444510Y-62443685D01*
X140444510Y-62443685D02*
X139587367Y-63300828D01*
X139587367Y-63300828D02*
X140515939Y-63300828D01*
X140944510Y-61800828D02*
X141444510Y-63300828D01*
X141444510Y-63300828D02*
X141944510Y-61800828D01*
D10*
X168754588Y-66227438D02*
X168659350Y-66179819D01*
X168659350Y-66179819D02*
X168516493Y-66179819D01*
X168516493Y-66179819D02*
X168373636Y-66227438D01*
X168373636Y-66227438D02*
X168278398Y-66322676D01*
X168278398Y-66322676D02*
X168230779Y-66417914D01*
X168230779Y-66417914D02*
X168183160Y-66608390D01*
X168183160Y-66608390D02*
X168183160Y-66751247D01*
X168183160Y-66751247D02*
X168230779Y-66941723D01*
X168230779Y-66941723D02*
X168278398Y-67036961D01*
X168278398Y-67036961D02*
X168373636Y-67132200D01*
X168373636Y-67132200D02*
X168516493Y-67179819D01*
X168516493Y-67179819D02*
X168611731Y-67179819D01*
X168611731Y-67179819D02*
X168754588Y-67132200D01*
X168754588Y-67132200D02*
X168802207Y-67084580D01*
X168802207Y-67084580D02*
X168802207Y-66751247D01*
X168802207Y-66751247D02*
X168611731Y-66751247D01*
X169230779Y-67179819D02*
X169230779Y-66179819D01*
X169230779Y-66179819D02*
X169802207Y-67179819D01*
X169802207Y-67179819D02*
X169802207Y-66179819D01*
X170278398Y-67179819D02*
X170278398Y-66179819D01*
X170278398Y-66179819D02*
X170516493Y-66179819D01*
X170516493Y-66179819D02*
X170659350Y-66227438D01*
X170659350Y-66227438D02*
X170754588Y-66322676D01*
X170754588Y-66322676D02*
X170802207Y-66417914D01*
X170802207Y-66417914D02*
X170849826Y-66608390D01*
X170849826Y-66608390D02*
X170849826Y-66751247D01*
X170849826Y-66751247D02*
X170802207Y-66941723D01*
X170802207Y-66941723D02*
X170754588Y-67036961D01*
X170754588Y-67036961D02*
X170659350Y-67132200D01*
X170659350Y-67132200D02*
X170516493Y-67179819D01*
X170516493Y-67179819D02*
X170278398Y-67179819D01*
X172485255Y-66179819D02*
X172675731Y-66179819D01*
X172675731Y-66179819D02*
X172770969Y-66227438D01*
X172770969Y-66227438D02*
X172866207Y-66322676D01*
X172866207Y-66322676D02*
X172913826Y-66513152D01*
X172913826Y-66513152D02*
X172913826Y-66846485D01*
X172913826Y-66846485D02*
X172866207Y-67036961D01*
X172866207Y-67036961D02*
X172770969Y-67132200D01*
X172770969Y-67132200D02*
X172675731Y-67179819D01*
X172675731Y-67179819D02*
X172485255Y-67179819D01*
X172485255Y-67179819D02*
X172390017Y-67132200D01*
X172390017Y-67132200D02*
X172294779Y-67036961D01*
X172294779Y-67036961D02*
X172247160Y-66846485D01*
X172247160Y-66846485D02*
X172247160Y-66513152D01*
X172247160Y-66513152D02*
X172294779Y-66322676D01*
X172294779Y-66322676D02*
X172390017Y-66227438D01*
X172390017Y-66227438D02*
X172485255Y-66179819D01*
X173294779Y-67132200D02*
X173390017Y-67179819D01*
X173390017Y-67179819D02*
X173580493Y-67179819D01*
X173580493Y-67179819D02*
X173675731Y-67132200D01*
X173675731Y-67132200D02*
X173723350Y-67036961D01*
X173723350Y-67036961D02*
X173723350Y-66989342D01*
X173723350Y-66989342D02*
X173675731Y-66894104D01*
X173675731Y-66894104D02*
X173580493Y-66846485D01*
X173580493Y-66846485D02*
X173437636Y-66846485D01*
X173437636Y-66846485D02*
X173342398Y-66798866D01*
X173342398Y-66798866D02*
X173294779Y-66703628D01*
X173294779Y-66703628D02*
X173294779Y-66656009D01*
X173294779Y-66656009D02*
X173342398Y-66560771D01*
X173342398Y-66560771D02*
X173437636Y-66513152D01*
X173437636Y-66513152D02*
X173580493Y-66513152D01*
X173580493Y-66513152D02*
X173675731Y-66560771D01*
X174580493Y-67132200D02*
X174485255Y-67179819D01*
X174485255Y-67179819D02*
X174294779Y-67179819D01*
X174294779Y-67179819D02*
X174199541Y-67132200D01*
X174199541Y-67132200D02*
X174151922Y-67084580D01*
X174151922Y-67084580D02*
X174104303Y-66989342D01*
X174104303Y-66989342D02*
X174104303Y-66703628D01*
X174104303Y-66703628D02*
X174151922Y-66608390D01*
X174151922Y-66608390D02*
X174199541Y-66560771D01*
X174199541Y-66560771D02*
X174294779Y-66513152D01*
X174294779Y-66513152D02*
X174485255Y-66513152D01*
X174485255Y-66513152D02*
X174580493Y-66560771D01*
D11*
X173711082Y-131809400D02*
X173925368Y-131880828D01*
X173925368Y-131880828D02*
X174282510Y-131880828D01*
X174282510Y-131880828D02*
X174425368Y-131809400D01*
X174425368Y-131809400D02*
X174496796Y-131737971D01*
X174496796Y-131737971D02*
X174568225Y-131595114D01*
X174568225Y-131595114D02*
X174568225Y-131452257D01*
X174568225Y-131452257D02*
X174496796Y-131309400D01*
X174496796Y-131309400D02*
X174425368Y-131237971D01*
X174425368Y-131237971D02*
X174282510Y-131166542D01*
X174282510Y-131166542D02*
X173996796Y-131095114D01*
X173996796Y-131095114D02*
X173853939Y-131023685D01*
X173853939Y-131023685D02*
X173782510Y-130952257D01*
X173782510Y-130952257D02*
X173711082Y-130809400D01*
X173711082Y-130809400D02*
X173711082Y-130666542D01*
X173711082Y-130666542D02*
X173782510Y-130523685D01*
X173782510Y-130523685D02*
X173853939Y-130452257D01*
X173853939Y-130452257D02*
X173996796Y-130380828D01*
X173996796Y-130380828D02*
X174353939Y-130380828D01*
X174353939Y-130380828D02*
X174568225Y-130452257D01*
X175853939Y-130880828D02*
X175853939Y-131880828D01*
X175211081Y-130880828D02*
X175211081Y-131666542D01*
X175211081Y-131666542D02*
X175282510Y-131809400D01*
X175282510Y-131809400D02*
X175425367Y-131880828D01*
X175425367Y-131880828D02*
X175639653Y-131880828D01*
X175639653Y-131880828D02*
X175782510Y-131809400D01*
X175782510Y-131809400D02*
X175853939Y-131737971D01*
X176568224Y-131880828D02*
X176568224Y-130880828D01*
X176568224Y-131023685D02*
X176639653Y-130952257D01*
X176639653Y-130952257D02*
X176782510Y-130880828D01*
X176782510Y-130880828D02*
X176996796Y-130880828D01*
X176996796Y-130880828D02*
X177139653Y-130952257D01*
X177139653Y-130952257D02*
X177211082Y-131095114D01*
X177211082Y-131095114D02*
X177211082Y-131880828D01*
X177211082Y-131095114D02*
X177282510Y-130952257D01*
X177282510Y-130952257D02*
X177425367Y-130880828D01*
X177425367Y-130880828D02*
X177639653Y-130880828D01*
X177639653Y-130880828D02*
X177782510Y-130952257D01*
X177782510Y-130952257D02*
X177853939Y-131095114D01*
X177853939Y-131095114D02*
X177853939Y-131880828D01*
X178568224Y-131880828D02*
X178568224Y-130880828D01*
X178568224Y-131023685D02*
X178639653Y-130952257D01*
X178639653Y-130952257D02*
X178782510Y-130880828D01*
X178782510Y-130880828D02*
X178996796Y-130880828D01*
X178996796Y-130880828D02*
X179139653Y-130952257D01*
X179139653Y-130952257D02*
X179211082Y-131095114D01*
X179211082Y-131095114D02*
X179211082Y-131880828D01*
X179211082Y-131095114D02*
X179282510Y-130952257D01*
X179282510Y-130952257D02*
X179425367Y-130880828D01*
X179425367Y-130880828D02*
X179639653Y-130880828D01*
X179639653Y-130880828D02*
X179782510Y-130952257D01*
X179782510Y-130952257D02*
X179853939Y-131095114D01*
X179853939Y-131095114D02*
X179853939Y-131880828D01*
D10*
X178231595Y-93641819D02*
X178231595Y-94451342D01*
X178231595Y-94451342D02*
X178279214Y-94546580D01*
X178279214Y-94546580D02*
X178326833Y-94594200D01*
X178326833Y-94594200D02*
X178422071Y-94641819D01*
X178422071Y-94641819D02*
X178612547Y-94641819D01*
X178612547Y-94641819D02*
X178707785Y-94594200D01*
X178707785Y-94594200D02*
X178755404Y-94546580D01*
X178755404Y-94546580D02*
X178803023Y-94451342D01*
X178803023Y-94451342D02*
X178803023Y-93641819D01*
X179183976Y-93641819D02*
X179803023Y-93641819D01*
X179803023Y-93641819D02*
X179469690Y-94022771D01*
X179469690Y-94022771D02*
X179612547Y-94022771D01*
X179612547Y-94022771D02*
X179707785Y-94070390D01*
X179707785Y-94070390D02*
X179755404Y-94118009D01*
X179755404Y-94118009D02*
X179803023Y-94213247D01*
X179803023Y-94213247D02*
X179803023Y-94451342D01*
X179803023Y-94451342D02*
X179755404Y-94546580D01*
X179755404Y-94546580D02*
X179707785Y-94594200D01*
X179707785Y-94594200D02*
X179612547Y-94641819D01*
X179612547Y-94641819D02*
X179326833Y-94641819D01*
X179326833Y-94641819D02*
X179231595Y-94594200D01*
X179231595Y-94594200D02*
X179183976Y-94546580D01*
X188340405Y-132352819D02*
X188340405Y-131352819D01*
X188340405Y-131352819D02*
X188578500Y-131352819D01*
X188578500Y-131352819D02*
X188721357Y-131400438D01*
X188721357Y-131400438D02*
X188816595Y-131495676D01*
X188816595Y-131495676D02*
X188864214Y-131590914D01*
X188864214Y-131590914D02*
X188911833Y-131781390D01*
X188911833Y-131781390D02*
X188911833Y-131924247D01*
X188911833Y-131924247D02*
X188864214Y-132114723D01*
X188864214Y-132114723D02*
X188816595Y-132209961D01*
X188816595Y-132209961D02*
X188721357Y-132305200D01*
X188721357Y-132305200D02*
X188578500Y-132352819D01*
X188578500Y-132352819D02*
X188340405Y-132352819D01*
X189292786Y-131448057D02*
X189340405Y-131400438D01*
X189340405Y-131400438D02*
X189435643Y-131352819D01*
X189435643Y-131352819D02*
X189673738Y-131352819D01*
X189673738Y-131352819D02*
X189768976Y-131400438D01*
X189768976Y-131400438D02*
X189816595Y-131448057D01*
X189816595Y-131448057D02*
X189864214Y-131543295D01*
X189864214Y-131543295D02*
X189864214Y-131638533D01*
X189864214Y-131638533D02*
X189816595Y-131781390D01*
X189816595Y-131781390D02*
X189245167Y-132352819D01*
X189245167Y-132352819D02*
X189864214Y-132352819D01*
X192626595Y-132032819D02*
X192626595Y-131032819D01*
X193198023Y-132032819D02*
X192769452Y-131461390D01*
X193198023Y-131032819D02*
X192626595Y-131604247D01*
X141008819Y-114488904D02*
X141818342Y-114488904D01*
X141818342Y-114488904D02*
X141913580Y-114441285D01*
X141913580Y-114441285D02*
X141961200Y-114393666D01*
X141961200Y-114393666D02*
X142008819Y-114298428D01*
X142008819Y-114298428D02*
X142008819Y-114107952D01*
X142008819Y-114107952D02*
X141961200Y-114012714D01*
X141961200Y-114012714D02*
X141913580Y-113965095D01*
X141913580Y-113965095D02*
X141818342Y-113917476D01*
X141818342Y-113917476D02*
X141008819Y-113917476D01*
X142008819Y-112917476D02*
X142008819Y-113488904D01*
X142008819Y-113203190D02*
X141008819Y-113203190D01*
X141008819Y-113203190D02*
X141151676Y-113298428D01*
X141151676Y-113298428D02*
X141246914Y-113393666D01*
X141246914Y-113393666D02*
X141294533Y-113488904D01*
X131746666Y-61904819D02*
X131746666Y-62619104D01*
X131746666Y-62619104D02*
X131699047Y-62761961D01*
X131699047Y-62761961D02*
X131603809Y-62857200D01*
X131603809Y-62857200D02*
X131460952Y-62904819D01*
X131460952Y-62904819D02*
X131365714Y-62904819D01*
X132127619Y-61904819D02*
X132746666Y-61904819D01*
X132746666Y-61904819D02*
X132413333Y-62285771D01*
X132413333Y-62285771D02*
X132556190Y-62285771D01*
X132556190Y-62285771D02*
X132651428Y-62333390D01*
X132651428Y-62333390D02*
X132699047Y-62381009D01*
X132699047Y-62381009D02*
X132746666Y-62476247D01*
X132746666Y-62476247D02*
X132746666Y-62714342D01*
X132746666Y-62714342D02*
X132699047Y-62809580D01*
X132699047Y-62809580D02*
X132651428Y-62857200D01*
X132651428Y-62857200D02*
X132556190Y-62904819D01*
X132556190Y-62904819D02*
X132270476Y-62904819D01*
X132270476Y-62904819D02*
X132175238Y-62857200D01*
X132175238Y-62857200D02*
X132127619Y-62809580D01*
X176541819Y-93463904D02*
X176541819Y-92892476D01*
X177541819Y-93178190D02*
X176541819Y-93178190D01*
X177541819Y-92559142D02*
X176541819Y-92559142D01*
X176541819Y-92559142D02*
X176541819Y-92178190D01*
X176541819Y-92178190D02*
X176589438Y-92082952D01*
X176589438Y-92082952D02*
X176637057Y-92035333D01*
X176637057Y-92035333D02*
X176732295Y-91987714D01*
X176732295Y-91987714D02*
X176875152Y-91987714D01*
X176875152Y-91987714D02*
X176970390Y-92035333D01*
X176970390Y-92035333D02*
X177018009Y-92082952D01*
X177018009Y-92082952D02*
X177065628Y-92178190D01*
X177065628Y-92178190D02*
X177065628Y-92559142D01*
X176541819Y-91130571D02*
X176541819Y-91321047D01*
X176541819Y-91321047D02*
X176589438Y-91416285D01*
X176589438Y-91416285D02*
X176637057Y-91463904D01*
X176637057Y-91463904D02*
X176779914Y-91559142D01*
X176779914Y-91559142D02*
X176970390Y-91606761D01*
X176970390Y-91606761D02*
X177351342Y-91606761D01*
X177351342Y-91606761D02*
X177446580Y-91559142D01*
X177446580Y-91559142D02*
X177494200Y-91511523D01*
X177494200Y-91511523D02*
X177541819Y-91416285D01*
X177541819Y-91416285D02*
X177541819Y-91225809D01*
X177541819Y-91225809D02*
X177494200Y-91130571D01*
X177494200Y-91130571D02*
X177446580Y-91082952D01*
X177446580Y-91082952D02*
X177351342Y-91035333D01*
X177351342Y-91035333D02*
X177113247Y-91035333D01*
X177113247Y-91035333D02*
X177018009Y-91082952D01*
X177018009Y-91082952D02*
X176970390Y-91130571D01*
X176970390Y-91130571D02*
X176922771Y-91225809D01*
X176922771Y-91225809D02*
X176922771Y-91416285D01*
X176922771Y-91416285D02*
X176970390Y-91511523D01*
X176970390Y-91511523D02*
X177018009Y-91559142D01*
X177018009Y-91559142D02*
X177113247Y-91606761D01*
X139841142Y-110686580D02*
X139793523Y-110734200D01*
X139793523Y-110734200D02*
X139650666Y-110781819D01*
X139650666Y-110781819D02*
X139555428Y-110781819D01*
X139555428Y-110781819D02*
X139412571Y-110734200D01*
X139412571Y-110734200D02*
X139317333Y-110638961D01*
X139317333Y-110638961D02*
X139269714Y-110543723D01*
X139269714Y-110543723D02*
X139222095Y-110353247D01*
X139222095Y-110353247D02*
X139222095Y-110210390D01*
X139222095Y-110210390D02*
X139269714Y-110019914D01*
X139269714Y-110019914D02*
X139317333Y-109924676D01*
X139317333Y-109924676D02*
X139412571Y-109829438D01*
X139412571Y-109829438D02*
X139555428Y-109781819D01*
X139555428Y-109781819D02*
X139650666Y-109781819D01*
X139650666Y-109781819D02*
X139793523Y-109829438D01*
X139793523Y-109829438D02*
X139841142Y-109877057D01*
X140793523Y-110781819D02*
X140222095Y-110781819D01*
X140507809Y-110781819D02*
X140507809Y-109781819D01*
X140507809Y-109781819D02*
X140412571Y-109924676D01*
X140412571Y-109924676D02*
X140317333Y-110019914D01*
X140317333Y-110019914D02*
X140222095Y-110067533D01*
X141412571Y-109781819D02*
X141507809Y-109781819D01*
X141507809Y-109781819D02*
X141603047Y-109829438D01*
X141603047Y-109829438D02*
X141650666Y-109877057D01*
X141650666Y-109877057D02*
X141698285Y-109972295D01*
X141698285Y-109972295D02*
X141745904Y-110162771D01*
X141745904Y-110162771D02*
X141745904Y-110400866D01*
X141745904Y-110400866D02*
X141698285Y-110591342D01*
X141698285Y-110591342D02*
X141650666Y-110686580D01*
X141650666Y-110686580D02*
X141603047Y-110734200D01*
X141603047Y-110734200D02*
X141507809Y-110781819D01*
X141507809Y-110781819D02*
X141412571Y-110781819D01*
X141412571Y-110781819D02*
X141317333Y-110734200D01*
X141317333Y-110734200D02*
X141269714Y-110686580D01*
X141269714Y-110686580D02*
X141222095Y-110591342D01*
X141222095Y-110591342D02*
X141174476Y-110400866D01*
X141174476Y-110400866D02*
X141174476Y-110162771D01*
X141174476Y-110162771D02*
X141222095Y-109972295D01*
X141222095Y-109972295D02*
X141269714Y-109877057D01*
X141269714Y-109877057D02*
X141317333Y-109829438D01*
X141317333Y-109829438D02*
X141412571Y-109781819D01*
X137893580Y-116433666D02*
X137941200Y-116481285D01*
X137941200Y-116481285D02*
X137988819Y-116624142D01*
X137988819Y-116624142D02*
X137988819Y-116719380D01*
X137988819Y-116719380D02*
X137941200Y-116862237D01*
X137941200Y-116862237D02*
X137845961Y-116957475D01*
X137845961Y-116957475D02*
X137750723Y-117005094D01*
X137750723Y-117005094D02*
X137560247Y-117052713D01*
X137560247Y-117052713D02*
X137417390Y-117052713D01*
X137417390Y-117052713D02*
X137226914Y-117005094D01*
X137226914Y-117005094D02*
X137131676Y-116957475D01*
X137131676Y-116957475D02*
X137036438Y-116862237D01*
X137036438Y-116862237D02*
X136988819Y-116719380D01*
X136988819Y-116719380D02*
X136988819Y-116624142D01*
X136988819Y-116624142D02*
X137036438Y-116481285D01*
X137036438Y-116481285D02*
X137084057Y-116433666D01*
X137084057Y-116052713D02*
X137036438Y-116005094D01*
X137036438Y-116005094D02*
X136988819Y-115909856D01*
X136988819Y-115909856D02*
X136988819Y-115671761D01*
X136988819Y-115671761D02*
X137036438Y-115576523D01*
X137036438Y-115576523D02*
X137084057Y-115528904D01*
X137084057Y-115528904D02*
X137179295Y-115481285D01*
X137179295Y-115481285D02*
X137274533Y-115481285D01*
X137274533Y-115481285D02*
X137417390Y-115528904D01*
X137417390Y-115528904D02*
X137988819Y-116100332D01*
X137988819Y-116100332D02*
X137988819Y-115481285D01*
X148836142Y-132058580D02*
X148788523Y-132106200D01*
X148788523Y-132106200D02*
X148645666Y-132153819D01*
X148645666Y-132153819D02*
X148550428Y-132153819D01*
X148550428Y-132153819D02*
X148407571Y-132106200D01*
X148407571Y-132106200D02*
X148312333Y-132010961D01*
X148312333Y-132010961D02*
X148264714Y-131915723D01*
X148264714Y-131915723D02*
X148217095Y-131725247D01*
X148217095Y-131725247D02*
X148217095Y-131582390D01*
X148217095Y-131582390D02*
X148264714Y-131391914D01*
X148264714Y-131391914D02*
X148312333Y-131296676D01*
X148312333Y-131296676D02*
X148407571Y-131201438D01*
X148407571Y-131201438D02*
X148550428Y-131153819D01*
X148550428Y-131153819D02*
X148645666Y-131153819D01*
X148645666Y-131153819D02*
X148788523Y-131201438D01*
X148788523Y-131201438D02*
X148836142Y-131249057D01*
X149788523Y-132153819D02*
X149217095Y-132153819D01*
X149502809Y-132153819D02*
X149502809Y-131153819D01*
X149502809Y-131153819D02*
X149407571Y-131296676D01*
X149407571Y-131296676D02*
X149312333Y-131391914D01*
X149312333Y-131391914D02*
X149217095Y-131439533D01*
X150740904Y-132153819D02*
X150169476Y-132153819D01*
X150455190Y-132153819D02*
X150455190Y-131153819D01*
X150455190Y-131153819D02*
X150359952Y-131296676D01*
X150359952Y-131296676D02*
X150264714Y-131391914D01*
X150264714Y-131391914D02*
X150169476Y-131439533D01*
X140737580Y-91164206D02*
X140785200Y-91211825D01*
X140785200Y-91211825D02*
X140832819Y-91354682D01*
X140832819Y-91354682D02*
X140832819Y-91449920D01*
X140832819Y-91449920D02*
X140785200Y-91592777D01*
X140785200Y-91592777D02*
X140689961Y-91688015D01*
X140689961Y-91688015D02*
X140594723Y-91735634D01*
X140594723Y-91735634D02*
X140404247Y-91783253D01*
X140404247Y-91783253D02*
X140261390Y-91783253D01*
X140261390Y-91783253D02*
X140070914Y-91735634D01*
X140070914Y-91735634D02*
X139975676Y-91688015D01*
X139975676Y-91688015D02*
X139880438Y-91592777D01*
X139880438Y-91592777D02*
X139832819Y-91449920D01*
X139832819Y-91449920D02*
X139832819Y-91354682D01*
X139832819Y-91354682D02*
X139880438Y-91211825D01*
X139880438Y-91211825D02*
X139928057Y-91164206D01*
X140832819Y-90211825D02*
X140832819Y-90783253D01*
X140832819Y-90497539D02*
X139832819Y-90497539D01*
X139832819Y-90497539D02*
X139975676Y-90592777D01*
X139975676Y-90592777D02*
X140070914Y-90688015D01*
X140070914Y-90688015D02*
X140118533Y-90783253D01*
X140832819Y-89735634D02*
X140832819Y-89545158D01*
X140832819Y-89545158D02*
X140785200Y-89449920D01*
X140785200Y-89449920D02*
X140737580Y-89402301D01*
X140737580Y-89402301D02*
X140594723Y-89307063D01*
X140594723Y-89307063D02*
X140404247Y-89259444D01*
X140404247Y-89259444D02*
X140023295Y-89259444D01*
X140023295Y-89259444D02*
X139928057Y-89307063D01*
X139928057Y-89307063D02*
X139880438Y-89354682D01*
X139880438Y-89354682D02*
X139832819Y-89449920D01*
X139832819Y-89449920D02*
X139832819Y-89640396D01*
X139832819Y-89640396D02*
X139880438Y-89735634D01*
X139880438Y-89735634D02*
X139928057Y-89783253D01*
X139928057Y-89783253D02*
X140023295Y-89830872D01*
X140023295Y-89830872D02*
X140261390Y-89830872D01*
X140261390Y-89830872D02*
X140356628Y-89783253D01*
X140356628Y-89783253D02*
X140404247Y-89735634D01*
X140404247Y-89735634D02*
X140451866Y-89640396D01*
X140451866Y-89640396D02*
X140451866Y-89449920D01*
X140451866Y-89449920D02*
X140404247Y-89354682D01*
X140404247Y-89354682D02*
X140356628Y-89307063D01*
X140356628Y-89307063D02*
X140261390Y-89259444D01*
X186837819Y-71764666D02*
X186361628Y-72097999D01*
X186837819Y-72336094D02*
X185837819Y-72336094D01*
X185837819Y-72336094D02*
X185837819Y-71955142D01*
X185837819Y-71955142D02*
X185885438Y-71859904D01*
X185885438Y-71859904D02*
X185933057Y-71812285D01*
X185933057Y-71812285D02*
X186028295Y-71764666D01*
X186028295Y-71764666D02*
X186171152Y-71764666D01*
X186171152Y-71764666D02*
X186266390Y-71812285D01*
X186266390Y-71812285D02*
X186314009Y-71859904D01*
X186314009Y-71859904D02*
X186361628Y-71955142D01*
X186361628Y-71955142D02*
X186361628Y-72336094D01*
X185837819Y-71431332D02*
X185837819Y-70764666D01*
X185837819Y-70764666D02*
X186837819Y-71193237D01*
X182700819Y-113910857D02*
X182224628Y-114244190D01*
X182700819Y-114482285D02*
X181700819Y-114482285D01*
X181700819Y-114482285D02*
X181700819Y-114101333D01*
X181700819Y-114101333D02*
X181748438Y-114006095D01*
X181748438Y-114006095D02*
X181796057Y-113958476D01*
X181796057Y-113958476D02*
X181891295Y-113910857D01*
X181891295Y-113910857D02*
X182034152Y-113910857D01*
X182034152Y-113910857D02*
X182129390Y-113958476D01*
X182129390Y-113958476D02*
X182177009Y-114006095D01*
X182177009Y-114006095D02*
X182224628Y-114101333D01*
X182224628Y-114101333D02*
X182224628Y-114482285D01*
X182700819Y-112958476D02*
X182700819Y-113529904D01*
X182700819Y-113244190D02*
X181700819Y-113244190D01*
X181700819Y-113244190D02*
X181843676Y-113339428D01*
X181843676Y-113339428D02*
X181938914Y-113434666D01*
X181938914Y-113434666D02*
X181986533Y-113529904D01*
X181700819Y-112053714D02*
X181700819Y-112529904D01*
X181700819Y-112529904D02*
X182177009Y-112577523D01*
X182177009Y-112577523D02*
X182129390Y-112529904D01*
X182129390Y-112529904D02*
X182081771Y-112434666D01*
X182081771Y-112434666D02*
X182081771Y-112196571D01*
X182081771Y-112196571D02*
X182129390Y-112101333D01*
X182129390Y-112101333D02*
X182177009Y-112053714D01*
X182177009Y-112053714D02*
X182272247Y-112006095D01*
X182272247Y-112006095D02*
X182510342Y-112006095D01*
X182510342Y-112006095D02*
X182605580Y-112053714D01*
X182605580Y-112053714D02*
X182653200Y-112101333D01*
X182653200Y-112101333D02*
X182700819Y-112196571D01*
X182700819Y-112196571D02*
X182700819Y-112434666D01*
X182700819Y-112434666D02*
X182653200Y-112529904D01*
X182653200Y-112529904D02*
X182605580Y-112577523D01*
X177620819Y-113910857D02*
X177144628Y-114244190D01*
X177620819Y-114482285D02*
X176620819Y-114482285D01*
X176620819Y-114482285D02*
X176620819Y-114101333D01*
X176620819Y-114101333D02*
X176668438Y-114006095D01*
X176668438Y-114006095D02*
X176716057Y-113958476D01*
X176716057Y-113958476D02*
X176811295Y-113910857D01*
X176811295Y-113910857D02*
X176954152Y-113910857D01*
X176954152Y-113910857D02*
X177049390Y-113958476D01*
X177049390Y-113958476D02*
X177097009Y-114006095D01*
X177097009Y-114006095D02*
X177144628Y-114101333D01*
X177144628Y-114101333D02*
X177144628Y-114482285D01*
X177620819Y-112958476D02*
X177620819Y-113529904D01*
X177620819Y-113244190D02*
X176620819Y-113244190D01*
X176620819Y-113244190D02*
X176763676Y-113339428D01*
X176763676Y-113339428D02*
X176858914Y-113434666D01*
X176858914Y-113434666D02*
X176906533Y-113529904D01*
X176954152Y-112101333D02*
X177620819Y-112101333D01*
X176573200Y-112339428D02*
X177287485Y-112577523D01*
X177287485Y-112577523D02*
X177287485Y-111958476D01*
X180259580Y-79130666D02*
X180307200Y-79178285D01*
X180307200Y-79178285D02*
X180354819Y-79321142D01*
X180354819Y-79321142D02*
X180354819Y-79416380D01*
X180354819Y-79416380D02*
X180307200Y-79559237D01*
X180307200Y-79559237D02*
X180211961Y-79654475D01*
X180211961Y-79654475D02*
X180116723Y-79702094D01*
X180116723Y-79702094D02*
X179926247Y-79749713D01*
X179926247Y-79749713D02*
X179783390Y-79749713D01*
X179783390Y-79749713D02*
X179592914Y-79702094D01*
X179592914Y-79702094D02*
X179497676Y-79654475D01*
X179497676Y-79654475D02*
X179402438Y-79559237D01*
X179402438Y-79559237D02*
X179354819Y-79416380D01*
X179354819Y-79416380D02*
X179354819Y-79321142D01*
X179354819Y-79321142D02*
X179402438Y-79178285D01*
X179402438Y-79178285D02*
X179450057Y-79130666D01*
X180354819Y-78654475D02*
X180354819Y-78463999D01*
X180354819Y-78463999D02*
X180307200Y-78368761D01*
X180307200Y-78368761D02*
X180259580Y-78321142D01*
X180259580Y-78321142D02*
X180116723Y-78225904D01*
X180116723Y-78225904D02*
X179926247Y-78178285D01*
X179926247Y-78178285D02*
X179545295Y-78178285D01*
X179545295Y-78178285D02*
X179450057Y-78225904D01*
X179450057Y-78225904D02*
X179402438Y-78273523D01*
X179402438Y-78273523D02*
X179354819Y-78368761D01*
X179354819Y-78368761D02*
X179354819Y-78559237D01*
X179354819Y-78559237D02*
X179402438Y-78654475D01*
X179402438Y-78654475D02*
X179450057Y-78702094D01*
X179450057Y-78702094D02*
X179545295Y-78749713D01*
X179545295Y-78749713D02*
X179783390Y-78749713D01*
X179783390Y-78749713D02*
X179878628Y-78702094D01*
X179878628Y-78702094D02*
X179926247Y-78654475D01*
X179926247Y-78654475D02*
X179973866Y-78559237D01*
X179973866Y-78559237D02*
X179973866Y-78368761D01*
X179973866Y-78368761D02*
X179926247Y-78273523D01*
X179926247Y-78273523D02*
X179878628Y-78225904D01*
X179878628Y-78225904D02*
X179783390Y-78178285D01*
X185313319Y-98529857D02*
X184837128Y-98863190D01*
X185313319Y-99101285D02*
X184313319Y-99101285D01*
X184313319Y-99101285D02*
X184313319Y-98720333D01*
X184313319Y-98720333D02*
X184360938Y-98625095D01*
X184360938Y-98625095D02*
X184408557Y-98577476D01*
X184408557Y-98577476D02*
X184503795Y-98529857D01*
X184503795Y-98529857D02*
X184646652Y-98529857D01*
X184646652Y-98529857D02*
X184741890Y-98577476D01*
X184741890Y-98577476D02*
X184789509Y-98625095D01*
X184789509Y-98625095D02*
X184837128Y-98720333D01*
X184837128Y-98720333D02*
X184837128Y-99101285D01*
X185313319Y-97577476D02*
X185313319Y-98148904D01*
X185313319Y-97863190D02*
X184313319Y-97863190D01*
X184313319Y-97863190D02*
X184456176Y-97958428D01*
X184456176Y-97958428D02*
X184551414Y-98053666D01*
X184551414Y-98053666D02*
X184599033Y-98148904D01*
X184313319Y-96958428D02*
X184313319Y-96863190D01*
X184313319Y-96863190D02*
X184360938Y-96767952D01*
X184360938Y-96767952D02*
X184408557Y-96720333D01*
X184408557Y-96720333D02*
X184503795Y-96672714D01*
X184503795Y-96672714D02*
X184694271Y-96625095D01*
X184694271Y-96625095D02*
X184932366Y-96625095D01*
X184932366Y-96625095D02*
X185122842Y-96672714D01*
X185122842Y-96672714D02*
X185218080Y-96720333D01*
X185218080Y-96720333D02*
X185265700Y-96767952D01*
X185265700Y-96767952D02*
X185313319Y-96863190D01*
X185313319Y-96863190D02*
X185313319Y-96958428D01*
X185313319Y-96958428D02*
X185265700Y-97053666D01*
X185265700Y-97053666D02*
X185218080Y-97101285D01*
X185218080Y-97101285D02*
X185122842Y-97148904D01*
X185122842Y-97148904D02*
X184932366Y-97196523D01*
X184932366Y-97196523D02*
X184694271Y-97196523D01*
X184694271Y-97196523D02*
X184503795Y-97148904D01*
X184503795Y-97148904D02*
X184408557Y-97101285D01*
X184408557Y-97101285D02*
X184360938Y-97053666D01*
X184360938Y-97053666D02*
X184313319Y-96958428D01*
X192352819Y-121546857D02*
X191876628Y-121880190D01*
X192352819Y-122118285D02*
X191352819Y-122118285D01*
X191352819Y-122118285D02*
X191352819Y-121737333D01*
X191352819Y-121737333D02*
X191400438Y-121642095D01*
X191400438Y-121642095D02*
X191448057Y-121594476D01*
X191448057Y-121594476D02*
X191543295Y-121546857D01*
X191543295Y-121546857D02*
X191686152Y-121546857D01*
X191686152Y-121546857D02*
X191781390Y-121594476D01*
X191781390Y-121594476D02*
X191829009Y-121642095D01*
X191829009Y-121642095D02*
X191876628Y-121737333D01*
X191876628Y-121737333D02*
X191876628Y-122118285D01*
X192352819Y-120594476D02*
X192352819Y-121165904D01*
X192352819Y-120880190D02*
X191352819Y-120880190D01*
X191352819Y-120880190D02*
X191495676Y-120975428D01*
X191495676Y-120975428D02*
X191590914Y-121070666D01*
X191590914Y-121070666D02*
X191638533Y-121165904D01*
X191352819Y-119737333D02*
X191352819Y-119927809D01*
X191352819Y-119927809D02*
X191400438Y-120023047D01*
X191400438Y-120023047D02*
X191448057Y-120070666D01*
X191448057Y-120070666D02*
X191590914Y-120165904D01*
X191590914Y-120165904D02*
X191781390Y-120213523D01*
X191781390Y-120213523D02*
X192162342Y-120213523D01*
X192162342Y-120213523D02*
X192257580Y-120165904D01*
X192257580Y-120165904D02*
X192305200Y-120118285D01*
X192305200Y-120118285D02*
X192352819Y-120023047D01*
X192352819Y-120023047D02*
X192352819Y-119832571D01*
X192352819Y-119832571D02*
X192305200Y-119737333D01*
X192305200Y-119737333D02*
X192257580Y-119689714D01*
X192257580Y-119689714D02*
X192162342Y-119642095D01*
X192162342Y-119642095D02*
X191924247Y-119642095D01*
X191924247Y-119642095D02*
X191829009Y-119689714D01*
X191829009Y-119689714D02*
X191781390Y-119737333D01*
X191781390Y-119737333D02*
X191733771Y-119832571D01*
X191733771Y-119832571D02*
X191733771Y-120023047D01*
X191733771Y-120023047D02*
X191781390Y-120118285D01*
X191781390Y-120118285D02*
X191829009Y-120165904D01*
X191829009Y-120165904D02*
X191924247Y-120213523D01*
X164993319Y-96989857D02*
X164517128Y-97323190D01*
X164993319Y-97561285D02*
X163993319Y-97561285D01*
X163993319Y-97561285D02*
X163993319Y-97180333D01*
X163993319Y-97180333D02*
X164040938Y-97085095D01*
X164040938Y-97085095D02*
X164088557Y-97037476D01*
X164088557Y-97037476D02*
X164183795Y-96989857D01*
X164183795Y-96989857D02*
X164326652Y-96989857D01*
X164326652Y-96989857D02*
X164421890Y-97037476D01*
X164421890Y-97037476D02*
X164469509Y-97085095D01*
X164469509Y-97085095D02*
X164517128Y-97180333D01*
X164517128Y-97180333D02*
X164517128Y-97561285D01*
X164993319Y-96037476D02*
X164993319Y-96608904D01*
X164993319Y-96323190D02*
X163993319Y-96323190D01*
X163993319Y-96323190D02*
X164136176Y-96418428D01*
X164136176Y-96418428D02*
X164231414Y-96513666D01*
X164231414Y-96513666D02*
X164279033Y-96608904D01*
X164993319Y-95085095D02*
X164993319Y-95656523D01*
X164993319Y-95370809D02*
X163993319Y-95370809D01*
X163993319Y-95370809D02*
X164136176Y-95466047D01*
X164136176Y-95466047D02*
X164231414Y-95561285D01*
X164231414Y-95561285D02*
X164279033Y-95656523D01*
X153111580Y-75858666D02*
X153159200Y-75906285D01*
X153159200Y-75906285D02*
X153206819Y-76049142D01*
X153206819Y-76049142D02*
X153206819Y-76144380D01*
X153206819Y-76144380D02*
X153159200Y-76287237D01*
X153159200Y-76287237D02*
X153063961Y-76382475D01*
X153063961Y-76382475D02*
X152968723Y-76430094D01*
X152968723Y-76430094D02*
X152778247Y-76477713D01*
X152778247Y-76477713D02*
X152635390Y-76477713D01*
X152635390Y-76477713D02*
X152444914Y-76430094D01*
X152444914Y-76430094D02*
X152349676Y-76382475D01*
X152349676Y-76382475D02*
X152254438Y-76287237D01*
X152254438Y-76287237D02*
X152206819Y-76144380D01*
X152206819Y-76144380D02*
X152206819Y-76049142D01*
X152206819Y-76049142D02*
X152254438Y-75906285D01*
X152254438Y-75906285D02*
X152302057Y-75858666D01*
X152540152Y-75001523D02*
X153206819Y-75001523D01*
X152159200Y-75239618D02*
X152873485Y-75477713D01*
X152873485Y-75477713D02*
X152873485Y-74858666D01*
X191842819Y-97940666D02*
X191366628Y-98273999D01*
X191842819Y-98512094D02*
X190842819Y-98512094D01*
X190842819Y-98512094D02*
X190842819Y-98131142D01*
X190842819Y-98131142D02*
X190890438Y-98035904D01*
X190890438Y-98035904D02*
X190938057Y-97988285D01*
X190938057Y-97988285D02*
X191033295Y-97940666D01*
X191033295Y-97940666D02*
X191176152Y-97940666D01*
X191176152Y-97940666D02*
X191271390Y-97988285D01*
X191271390Y-97988285D02*
X191319009Y-98035904D01*
X191319009Y-98035904D02*
X191366628Y-98131142D01*
X191366628Y-98131142D02*
X191366628Y-98512094D01*
X191842819Y-97464475D02*
X191842819Y-97273999D01*
X191842819Y-97273999D02*
X191795200Y-97178761D01*
X191795200Y-97178761D02*
X191747580Y-97131142D01*
X191747580Y-97131142D02*
X191604723Y-97035904D01*
X191604723Y-97035904D02*
X191414247Y-96988285D01*
X191414247Y-96988285D02*
X191033295Y-96988285D01*
X191033295Y-96988285D02*
X190938057Y-97035904D01*
X190938057Y-97035904D02*
X190890438Y-97083523D01*
X190890438Y-97083523D02*
X190842819Y-97178761D01*
X190842819Y-97178761D02*
X190842819Y-97369237D01*
X190842819Y-97369237D02*
X190890438Y-97464475D01*
X190890438Y-97464475D02*
X190938057Y-97512094D01*
X190938057Y-97512094D02*
X191033295Y-97559713D01*
X191033295Y-97559713D02*
X191271390Y-97559713D01*
X191271390Y-97559713D02*
X191366628Y-97512094D01*
X191366628Y-97512094D02*
X191414247Y-97464475D01*
X191414247Y-97464475D02*
X191461866Y-97369237D01*
X191461866Y-97369237D02*
X191461866Y-97178761D01*
X191461866Y-97178761D02*
X191414247Y-97083523D01*
X191414247Y-97083523D02*
X191366628Y-97035904D01*
X191366628Y-97035904D02*
X191271390Y-96988285D01*
X175063333Y-81983580D02*
X175015714Y-82031200D01*
X175015714Y-82031200D02*
X174872857Y-82078819D01*
X174872857Y-82078819D02*
X174777619Y-82078819D01*
X174777619Y-82078819D02*
X174634762Y-82031200D01*
X174634762Y-82031200D02*
X174539524Y-81935961D01*
X174539524Y-81935961D02*
X174491905Y-81840723D01*
X174491905Y-81840723D02*
X174444286Y-81650247D01*
X174444286Y-81650247D02*
X174444286Y-81507390D01*
X174444286Y-81507390D02*
X174491905Y-81316914D01*
X174491905Y-81316914D02*
X174539524Y-81221676D01*
X174539524Y-81221676D02*
X174634762Y-81126438D01*
X174634762Y-81126438D02*
X174777619Y-81078819D01*
X174777619Y-81078819D02*
X174872857Y-81078819D01*
X174872857Y-81078819D02*
X175015714Y-81126438D01*
X175015714Y-81126438D02*
X175063333Y-81174057D01*
X175920476Y-81078819D02*
X175730000Y-81078819D01*
X175730000Y-81078819D02*
X175634762Y-81126438D01*
X175634762Y-81126438D02*
X175587143Y-81174057D01*
X175587143Y-81174057D02*
X175491905Y-81316914D01*
X175491905Y-81316914D02*
X175444286Y-81507390D01*
X175444286Y-81507390D02*
X175444286Y-81888342D01*
X175444286Y-81888342D02*
X175491905Y-81983580D01*
X175491905Y-81983580D02*
X175539524Y-82031200D01*
X175539524Y-82031200D02*
X175634762Y-82078819D01*
X175634762Y-82078819D02*
X175825238Y-82078819D01*
X175825238Y-82078819D02*
X175920476Y-82031200D01*
X175920476Y-82031200D02*
X175968095Y-81983580D01*
X175968095Y-81983580D02*
X176015714Y-81888342D01*
X176015714Y-81888342D02*
X176015714Y-81650247D01*
X176015714Y-81650247D02*
X175968095Y-81555009D01*
X175968095Y-81555009D02*
X175920476Y-81507390D01*
X175920476Y-81507390D02*
X175825238Y-81459771D01*
X175825238Y-81459771D02*
X175634762Y-81459771D01*
X175634762Y-81459771D02*
X175539524Y-81507390D01*
X175539524Y-81507390D02*
X175491905Y-81555009D01*
X175491905Y-81555009D02*
X175444286Y-81650247D01*
X183535642Y-94576580D02*
X183488023Y-94624200D01*
X183488023Y-94624200D02*
X183345166Y-94671819D01*
X183345166Y-94671819D02*
X183249928Y-94671819D01*
X183249928Y-94671819D02*
X183107071Y-94624200D01*
X183107071Y-94624200D02*
X183011833Y-94528961D01*
X183011833Y-94528961D02*
X182964214Y-94433723D01*
X182964214Y-94433723D02*
X182916595Y-94243247D01*
X182916595Y-94243247D02*
X182916595Y-94100390D01*
X182916595Y-94100390D02*
X182964214Y-93909914D01*
X182964214Y-93909914D02*
X183011833Y-93814676D01*
X183011833Y-93814676D02*
X183107071Y-93719438D01*
X183107071Y-93719438D02*
X183249928Y-93671819D01*
X183249928Y-93671819D02*
X183345166Y-93671819D01*
X183345166Y-93671819D02*
X183488023Y-93719438D01*
X183488023Y-93719438D02*
X183535642Y-93767057D01*
X184488023Y-94671819D02*
X183916595Y-94671819D01*
X184202309Y-94671819D02*
X184202309Y-93671819D01*
X184202309Y-93671819D02*
X184107071Y-93814676D01*
X184107071Y-93814676D02*
X184011833Y-93909914D01*
X184011833Y-93909914D02*
X183916595Y-93957533D01*
X185345166Y-94005152D02*
X185345166Y-94671819D01*
X185107071Y-93624200D02*
X184868976Y-94338485D01*
X184868976Y-94338485D02*
X185488023Y-94338485D01*
X175108333Y-89998580D02*
X175060714Y-90046200D01*
X175060714Y-90046200D02*
X174917857Y-90093819D01*
X174917857Y-90093819D02*
X174822619Y-90093819D01*
X174822619Y-90093819D02*
X174679762Y-90046200D01*
X174679762Y-90046200D02*
X174584524Y-89950961D01*
X174584524Y-89950961D02*
X174536905Y-89855723D01*
X174536905Y-89855723D02*
X174489286Y-89665247D01*
X174489286Y-89665247D02*
X174489286Y-89522390D01*
X174489286Y-89522390D02*
X174536905Y-89331914D01*
X174536905Y-89331914D02*
X174584524Y-89236676D01*
X174584524Y-89236676D02*
X174679762Y-89141438D01*
X174679762Y-89141438D02*
X174822619Y-89093819D01*
X174822619Y-89093819D02*
X174917857Y-89093819D01*
X174917857Y-89093819D02*
X175060714Y-89141438D01*
X175060714Y-89141438D02*
X175108333Y-89189057D01*
X175441667Y-89093819D02*
X176108333Y-89093819D01*
X176108333Y-89093819D02*
X175679762Y-90093819D01*
X161208819Y-64341333D02*
X161923104Y-64341333D01*
X161923104Y-64341333D02*
X162065961Y-64388952D01*
X162065961Y-64388952D02*
X162161200Y-64484190D01*
X162161200Y-64484190D02*
X162208819Y-64627047D01*
X162208819Y-64627047D02*
X162208819Y-64722285D01*
X162208819Y-63341333D02*
X162208819Y-63912761D01*
X162208819Y-63627047D02*
X161208819Y-63627047D01*
X161208819Y-63627047D02*
X161351676Y-63722285D01*
X161351676Y-63722285D02*
X161446914Y-63817523D01*
X161446914Y-63817523D02*
X161494533Y-63912761D01*
X173683080Y-115815857D02*
X173730700Y-115863476D01*
X173730700Y-115863476D02*
X173778319Y-116006333D01*
X173778319Y-116006333D02*
X173778319Y-116101571D01*
X173778319Y-116101571D02*
X173730700Y-116244428D01*
X173730700Y-116244428D02*
X173635461Y-116339666D01*
X173635461Y-116339666D02*
X173540223Y-116387285D01*
X173540223Y-116387285D02*
X173349747Y-116434904D01*
X173349747Y-116434904D02*
X173206890Y-116434904D01*
X173206890Y-116434904D02*
X173016414Y-116387285D01*
X173016414Y-116387285D02*
X172921176Y-116339666D01*
X172921176Y-116339666D02*
X172825938Y-116244428D01*
X172825938Y-116244428D02*
X172778319Y-116101571D01*
X172778319Y-116101571D02*
X172778319Y-116006333D01*
X172778319Y-116006333D02*
X172825938Y-115863476D01*
X172825938Y-115863476D02*
X172873557Y-115815857D01*
X173778319Y-114863476D02*
X173778319Y-115434904D01*
X173778319Y-115149190D02*
X172778319Y-115149190D01*
X172778319Y-115149190D02*
X172921176Y-115244428D01*
X172921176Y-115244428D02*
X173016414Y-115339666D01*
X173016414Y-115339666D02*
X173064033Y-115434904D01*
X173206890Y-114292047D02*
X173159271Y-114387285D01*
X173159271Y-114387285D02*
X173111652Y-114434904D01*
X173111652Y-114434904D02*
X173016414Y-114482523D01*
X173016414Y-114482523D02*
X172968795Y-114482523D01*
X172968795Y-114482523D02*
X172873557Y-114434904D01*
X172873557Y-114434904D02*
X172825938Y-114387285D01*
X172825938Y-114387285D02*
X172778319Y-114292047D01*
X172778319Y-114292047D02*
X172778319Y-114101571D01*
X172778319Y-114101571D02*
X172825938Y-114006333D01*
X172825938Y-114006333D02*
X172873557Y-113958714D01*
X172873557Y-113958714D02*
X172968795Y-113911095D01*
X172968795Y-113911095D02*
X173016414Y-113911095D01*
X173016414Y-113911095D02*
X173111652Y-113958714D01*
X173111652Y-113958714D02*
X173159271Y-114006333D01*
X173159271Y-114006333D02*
X173206890Y-114101571D01*
X173206890Y-114101571D02*
X173206890Y-114292047D01*
X173206890Y-114292047D02*
X173254509Y-114387285D01*
X173254509Y-114387285D02*
X173302128Y-114434904D01*
X173302128Y-114434904D02*
X173397366Y-114482523D01*
X173397366Y-114482523D02*
X173587842Y-114482523D01*
X173587842Y-114482523D02*
X173683080Y-114434904D01*
X173683080Y-114434904D02*
X173730700Y-114387285D01*
X173730700Y-114387285D02*
X173778319Y-114292047D01*
X173778319Y-114292047D02*
X173778319Y-114101571D01*
X173778319Y-114101571D02*
X173730700Y-114006333D01*
X173730700Y-114006333D02*
X173683080Y-113958714D01*
X173683080Y-113958714D02*
X173587842Y-113911095D01*
X173587842Y-113911095D02*
X173397366Y-113911095D01*
X173397366Y-113911095D02*
X173302128Y-113958714D01*
X173302128Y-113958714D02*
X173254509Y-114006333D01*
X173254509Y-114006333D02*
X173206890Y-114101571D01*
X151913580Y-91164206D02*
X151961200Y-91211825D01*
X151961200Y-91211825D02*
X152008819Y-91354682D01*
X152008819Y-91354682D02*
X152008819Y-91449920D01*
X152008819Y-91449920D02*
X151961200Y-91592777D01*
X151961200Y-91592777D02*
X151865961Y-91688015D01*
X151865961Y-91688015D02*
X151770723Y-91735634D01*
X151770723Y-91735634D02*
X151580247Y-91783253D01*
X151580247Y-91783253D02*
X151437390Y-91783253D01*
X151437390Y-91783253D02*
X151246914Y-91735634D01*
X151246914Y-91735634D02*
X151151676Y-91688015D01*
X151151676Y-91688015D02*
X151056438Y-91592777D01*
X151056438Y-91592777D02*
X151008819Y-91449920D01*
X151008819Y-91449920D02*
X151008819Y-91354682D01*
X151008819Y-91354682D02*
X151056438Y-91211825D01*
X151056438Y-91211825D02*
X151104057Y-91164206D01*
X151104057Y-90783253D02*
X151056438Y-90735634D01*
X151056438Y-90735634D02*
X151008819Y-90640396D01*
X151008819Y-90640396D02*
X151008819Y-90402301D01*
X151008819Y-90402301D02*
X151056438Y-90307063D01*
X151056438Y-90307063D02*
X151104057Y-90259444D01*
X151104057Y-90259444D02*
X151199295Y-90211825D01*
X151199295Y-90211825D02*
X151294533Y-90211825D01*
X151294533Y-90211825D02*
X151437390Y-90259444D01*
X151437390Y-90259444D02*
X152008819Y-90830872D01*
X152008819Y-90830872D02*
X152008819Y-90211825D01*
X151008819Y-89592777D02*
X151008819Y-89497539D01*
X151008819Y-89497539D02*
X151056438Y-89402301D01*
X151056438Y-89402301D02*
X151104057Y-89354682D01*
X151104057Y-89354682D02*
X151199295Y-89307063D01*
X151199295Y-89307063D02*
X151389771Y-89259444D01*
X151389771Y-89259444D02*
X151627866Y-89259444D01*
X151627866Y-89259444D02*
X151818342Y-89307063D01*
X151818342Y-89307063D02*
X151913580Y-89354682D01*
X151913580Y-89354682D02*
X151961200Y-89402301D01*
X151961200Y-89402301D02*
X152008819Y-89497539D01*
X152008819Y-89497539D02*
X152008819Y-89592777D01*
X152008819Y-89592777D02*
X151961200Y-89688015D01*
X151961200Y-89688015D02*
X151913580Y-89735634D01*
X151913580Y-89735634D02*
X151818342Y-89783253D01*
X151818342Y-89783253D02*
X151627866Y-89830872D01*
X151627866Y-89830872D02*
X151389771Y-89830872D01*
X151389771Y-89830872D02*
X151199295Y-89783253D01*
X151199295Y-89783253D02*
X151104057Y-89735634D01*
X151104057Y-89735634D02*
X151056438Y-89688015D01*
X151056438Y-89688015D02*
X151008819Y-89592777D01*
X133343580Y-113893666D02*
X133391200Y-113941285D01*
X133391200Y-113941285D02*
X133438819Y-114084142D01*
X133438819Y-114084142D02*
X133438819Y-114179380D01*
X133438819Y-114179380D02*
X133391200Y-114322237D01*
X133391200Y-114322237D02*
X133295961Y-114417475D01*
X133295961Y-114417475D02*
X133200723Y-114465094D01*
X133200723Y-114465094D02*
X133010247Y-114512713D01*
X133010247Y-114512713D02*
X132867390Y-114512713D01*
X132867390Y-114512713D02*
X132676914Y-114465094D01*
X132676914Y-114465094D02*
X132581676Y-114417475D01*
X132581676Y-114417475D02*
X132486438Y-114322237D01*
X132486438Y-114322237D02*
X132438819Y-114179380D01*
X132438819Y-114179380D02*
X132438819Y-114084142D01*
X132438819Y-114084142D02*
X132486438Y-113941285D01*
X132486438Y-113941285D02*
X132534057Y-113893666D01*
X133438819Y-112941285D02*
X133438819Y-113512713D01*
X133438819Y-113226999D02*
X132438819Y-113226999D01*
X132438819Y-113226999D02*
X132581676Y-113322237D01*
X132581676Y-113322237D02*
X132676914Y-113417475D01*
X132676914Y-113417475D02*
X132724533Y-113512713D01*
X167473333Y-73003580D02*
X167425714Y-73051200D01*
X167425714Y-73051200D02*
X167282857Y-73098819D01*
X167282857Y-73098819D02*
X167187619Y-73098819D01*
X167187619Y-73098819D02*
X167044762Y-73051200D01*
X167044762Y-73051200D02*
X166949524Y-72955961D01*
X166949524Y-72955961D02*
X166901905Y-72860723D01*
X166901905Y-72860723D02*
X166854286Y-72670247D01*
X166854286Y-72670247D02*
X166854286Y-72527390D01*
X166854286Y-72527390D02*
X166901905Y-72336914D01*
X166901905Y-72336914D02*
X166949524Y-72241676D01*
X166949524Y-72241676D02*
X167044762Y-72146438D01*
X167044762Y-72146438D02*
X167187619Y-72098819D01*
X167187619Y-72098819D02*
X167282857Y-72098819D01*
X167282857Y-72098819D02*
X167425714Y-72146438D01*
X167425714Y-72146438D02*
X167473333Y-72194057D01*
X168044762Y-72527390D02*
X167949524Y-72479771D01*
X167949524Y-72479771D02*
X167901905Y-72432152D01*
X167901905Y-72432152D02*
X167854286Y-72336914D01*
X167854286Y-72336914D02*
X167854286Y-72289295D01*
X167854286Y-72289295D02*
X167901905Y-72194057D01*
X167901905Y-72194057D02*
X167949524Y-72146438D01*
X167949524Y-72146438D02*
X168044762Y-72098819D01*
X168044762Y-72098819D02*
X168235238Y-72098819D01*
X168235238Y-72098819D02*
X168330476Y-72146438D01*
X168330476Y-72146438D02*
X168378095Y-72194057D01*
X168378095Y-72194057D02*
X168425714Y-72289295D01*
X168425714Y-72289295D02*
X168425714Y-72336914D01*
X168425714Y-72336914D02*
X168378095Y-72432152D01*
X168378095Y-72432152D02*
X168330476Y-72479771D01*
X168330476Y-72479771D02*
X168235238Y-72527390D01*
X168235238Y-72527390D02*
X168044762Y-72527390D01*
X168044762Y-72527390D02*
X167949524Y-72575009D01*
X167949524Y-72575009D02*
X167901905Y-72622628D01*
X167901905Y-72622628D02*
X167854286Y-72717866D01*
X167854286Y-72717866D02*
X167854286Y-72908342D01*
X167854286Y-72908342D02*
X167901905Y-73003580D01*
X167901905Y-73003580D02*
X167949524Y-73051200D01*
X167949524Y-73051200D02*
X168044762Y-73098819D01*
X168044762Y-73098819D02*
X168235238Y-73098819D01*
X168235238Y-73098819D02*
X168330476Y-73051200D01*
X168330476Y-73051200D02*
X168378095Y-73003580D01*
X168378095Y-73003580D02*
X168425714Y-72908342D01*
X168425714Y-72908342D02*
X168425714Y-72717866D01*
X168425714Y-72717866D02*
X168378095Y-72622628D01*
X168378095Y-72622628D02*
X168330476Y-72575009D01*
X168330476Y-72575009D02*
X168235238Y-72527390D01*
X169918142Y-102196580D02*
X169870523Y-102244200D01*
X169870523Y-102244200D02*
X169727666Y-102291819D01*
X169727666Y-102291819D02*
X169632428Y-102291819D01*
X169632428Y-102291819D02*
X169489571Y-102244200D01*
X169489571Y-102244200D02*
X169394333Y-102148961D01*
X169394333Y-102148961D02*
X169346714Y-102053723D01*
X169346714Y-102053723D02*
X169299095Y-101863247D01*
X169299095Y-101863247D02*
X169299095Y-101720390D01*
X169299095Y-101720390D02*
X169346714Y-101529914D01*
X169346714Y-101529914D02*
X169394333Y-101434676D01*
X169394333Y-101434676D02*
X169489571Y-101339438D01*
X169489571Y-101339438D02*
X169632428Y-101291819D01*
X169632428Y-101291819D02*
X169727666Y-101291819D01*
X169727666Y-101291819D02*
X169870523Y-101339438D01*
X169870523Y-101339438D02*
X169918142Y-101387057D01*
X170870523Y-102291819D02*
X170299095Y-102291819D01*
X170584809Y-102291819D02*
X170584809Y-101291819D01*
X170584809Y-101291819D02*
X170489571Y-101434676D01*
X170489571Y-101434676D02*
X170394333Y-101529914D01*
X170394333Y-101529914D02*
X170299095Y-101577533D01*
X171775285Y-101291819D02*
X171299095Y-101291819D01*
X171299095Y-101291819D02*
X171251476Y-101768009D01*
X171251476Y-101768009D02*
X171299095Y-101720390D01*
X171299095Y-101720390D02*
X171394333Y-101672771D01*
X171394333Y-101672771D02*
X171632428Y-101672771D01*
X171632428Y-101672771D02*
X171727666Y-101720390D01*
X171727666Y-101720390D02*
X171775285Y-101768009D01*
X171775285Y-101768009D02*
X171822904Y-101863247D01*
X171822904Y-101863247D02*
X171822904Y-102101342D01*
X171822904Y-102101342D02*
X171775285Y-102196580D01*
X171775285Y-102196580D02*
X171727666Y-102244200D01*
X171727666Y-102244200D02*
X171632428Y-102291819D01*
X171632428Y-102291819D02*
X171394333Y-102291819D01*
X171394333Y-102291819D02*
X171299095Y-102244200D01*
X171299095Y-102244200D02*
X171251476Y-102196580D01*
X192352819Y-115958857D02*
X191876628Y-116292190D01*
X192352819Y-116530285D02*
X191352819Y-116530285D01*
X191352819Y-116530285D02*
X191352819Y-116149333D01*
X191352819Y-116149333D02*
X191400438Y-116054095D01*
X191400438Y-116054095D02*
X191448057Y-116006476D01*
X191448057Y-116006476D02*
X191543295Y-115958857D01*
X191543295Y-115958857D02*
X191686152Y-115958857D01*
X191686152Y-115958857D02*
X191781390Y-116006476D01*
X191781390Y-116006476D02*
X191829009Y-116054095D01*
X191829009Y-116054095D02*
X191876628Y-116149333D01*
X191876628Y-116149333D02*
X191876628Y-116530285D01*
X192352819Y-115006476D02*
X192352819Y-115577904D01*
X192352819Y-115292190D02*
X191352819Y-115292190D01*
X191352819Y-115292190D02*
X191495676Y-115387428D01*
X191495676Y-115387428D02*
X191590914Y-115482666D01*
X191590914Y-115482666D02*
X191638533Y-115577904D01*
X191352819Y-114673142D02*
X191352819Y-114006476D01*
X191352819Y-114006476D02*
X192352819Y-114435047D01*
X159076819Y-67238666D02*
X158600628Y-67571999D01*
X159076819Y-67810094D02*
X158076819Y-67810094D01*
X158076819Y-67810094D02*
X158076819Y-67429142D01*
X158076819Y-67429142D02*
X158124438Y-67333904D01*
X158124438Y-67333904D02*
X158172057Y-67286285D01*
X158172057Y-67286285D02*
X158267295Y-67238666D01*
X158267295Y-67238666D02*
X158410152Y-67238666D01*
X158410152Y-67238666D02*
X158505390Y-67286285D01*
X158505390Y-67286285D02*
X158553009Y-67333904D01*
X158553009Y-67333904D02*
X158600628Y-67429142D01*
X158600628Y-67429142D02*
X158600628Y-67810094D01*
X158076819Y-66905332D02*
X158076819Y-66286285D01*
X158076819Y-66286285D02*
X158457771Y-66619618D01*
X158457771Y-66619618D02*
X158457771Y-66476761D01*
X158457771Y-66476761D02*
X158505390Y-66381523D01*
X158505390Y-66381523D02*
X158553009Y-66333904D01*
X158553009Y-66333904D02*
X158648247Y-66286285D01*
X158648247Y-66286285D02*
X158886342Y-66286285D01*
X158886342Y-66286285D02*
X158981580Y-66333904D01*
X158981580Y-66333904D02*
X159029200Y-66381523D01*
X159029200Y-66381523D02*
X159076819Y-66476761D01*
X159076819Y-66476761D02*
X159076819Y-66762475D01*
X159076819Y-66762475D02*
X159029200Y-66857713D01*
X159029200Y-66857713D02*
X158981580Y-66905332D01*
X191781819Y-103115904D02*
X191781819Y-102544476D01*
X192781819Y-102830190D02*
X191781819Y-102830190D01*
X192781819Y-102211142D02*
X191781819Y-102211142D01*
X191781819Y-102211142D02*
X191781819Y-101830190D01*
X191781819Y-101830190D02*
X191829438Y-101734952D01*
X191829438Y-101734952D02*
X191877057Y-101687333D01*
X191877057Y-101687333D02*
X191972295Y-101639714D01*
X191972295Y-101639714D02*
X192115152Y-101639714D01*
X192115152Y-101639714D02*
X192210390Y-101687333D01*
X192210390Y-101687333D02*
X192258009Y-101734952D01*
X192258009Y-101734952D02*
X192305628Y-101830190D01*
X192305628Y-101830190D02*
X192305628Y-102211142D01*
X192115152Y-100782571D02*
X192781819Y-100782571D01*
X191734200Y-101020666D02*
X192448485Y-101258761D01*
X192448485Y-101258761D02*
X192448485Y-100639714D01*
X173685580Y-122800857D02*
X173733200Y-122848476D01*
X173733200Y-122848476D02*
X173780819Y-122991333D01*
X173780819Y-122991333D02*
X173780819Y-123086571D01*
X173780819Y-123086571D02*
X173733200Y-123229428D01*
X173733200Y-123229428D02*
X173637961Y-123324666D01*
X173637961Y-123324666D02*
X173542723Y-123372285D01*
X173542723Y-123372285D02*
X173352247Y-123419904D01*
X173352247Y-123419904D02*
X173209390Y-123419904D01*
X173209390Y-123419904D02*
X173018914Y-123372285D01*
X173018914Y-123372285D02*
X172923676Y-123324666D01*
X172923676Y-123324666D02*
X172828438Y-123229428D01*
X172828438Y-123229428D02*
X172780819Y-123086571D01*
X172780819Y-123086571D02*
X172780819Y-122991333D01*
X172780819Y-122991333D02*
X172828438Y-122848476D01*
X172828438Y-122848476D02*
X172876057Y-122800857D01*
X173780819Y-121848476D02*
X173780819Y-122419904D01*
X173780819Y-122134190D02*
X172780819Y-122134190D01*
X172780819Y-122134190D02*
X172923676Y-122229428D01*
X172923676Y-122229428D02*
X173018914Y-122324666D01*
X173018914Y-122324666D02*
X173066533Y-122419904D01*
X172780819Y-121515142D02*
X172780819Y-120848476D01*
X172780819Y-120848476D02*
X173780819Y-121277047D01*
X175686819Y-129404904D02*
X175686819Y-128833476D01*
X176686819Y-129119190D02*
X175686819Y-129119190D01*
X176686819Y-128500142D02*
X175686819Y-128500142D01*
X175686819Y-128500142D02*
X175686819Y-128119190D01*
X175686819Y-128119190D02*
X175734438Y-128023952D01*
X175734438Y-128023952D02*
X175782057Y-127976333D01*
X175782057Y-127976333D02*
X175877295Y-127928714D01*
X175877295Y-127928714D02*
X176020152Y-127928714D01*
X176020152Y-127928714D02*
X176115390Y-127976333D01*
X176115390Y-127976333D02*
X176163009Y-128023952D01*
X176163009Y-128023952D02*
X176210628Y-128119190D01*
X176210628Y-128119190D02*
X176210628Y-128500142D01*
X175686819Y-127595380D02*
X175686819Y-126928714D01*
X175686819Y-126928714D02*
X176686819Y-127357285D01*
X171204095Y-108928819D02*
X171775523Y-108928819D01*
X171489809Y-109928819D02*
X171489809Y-108928819D01*
X172108857Y-109928819D02*
X172108857Y-108928819D01*
X172108857Y-108928819D02*
X172489809Y-108928819D01*
X172489809Y-108928819D02*
X172585047Y-108976438D01*
X172585047Y-108976438D02*
X172632666Y-109024057D01*
X172632666Y-109024057D02*
X172680285Y-109119295D01*
X172680285Y-109119295D02*
X172680285Y-109262152D01*
X172680285Y-109262152D02*
X172632666Y-109357390D01*
X172632666Y-109357390D02*
X172585047Y-109405009D01*
X172585047Y-109405009D02*
X172489809Y-109452628D01*
X172489809Y-109452628D02*
X172108857Y-109452628D01*
X173013619Y-108928819D02*
X173632666Y-108928819D01*
X173632666Y-108928819D02*
X173299333Y-109309771D01*
X173299333Y-109309771D02*
X173442190Y-109309771D01*
X173442190Y-109309771D02*
X173537428Y-109357390D01*
X173537428Y-109357390D02*
X173585047Y-109405009D01*
X173585047Y-109405009D02*
X173632666Y-109500247D01*
X173632666Y-109500247D02*
X173632666Y-109738342D01*
X173632666Y-109738342D02*
X173585047Y-109833580D01*
X173585047Y-109833580D02*
X173537428Y-109881200D01*
X173537428Y-109881200D02*
X173442190Y-109928819D01*
X173442190Y-109928819D02*
X173156476Y-109928819D01*
X173156476Y-109928819D02*
X173061238Y-109881200D01*
X173061238Y-109881200D02*
X173013619Y-109833580D01*
X172313319Y-97259857D02*
X171837128Y-97593190D01*
X172313319Y-97831285D02*
X171313319Y-97831285D01*
X171313319Y-97831285D02*
X171313319Y-97450333D01*
X171313319Y-97450333D02*
X171360938Y-97355095D01*
X171360938Y-97355095D02*
X171408557Y-97307476D01*
X171408557Y-97307476D02*
X171503795Y-97259857D01*
X171503795Y-97259857D02*
X171646652Y-97259857D01*
X171646652Y-97259857D02*
X171741890Y-97307476D01*
X171741890Y-97307476D02*
X171789509Y-97355095D01*
X171789509Y-97355095D02*
X171837128Y-97450333D01*
X171837128Y-97450333D02*
X171837128Y-97831285D01*
X172313319Y-96307476D02*
X172313319Y-96878904D01*
X172313319Y-96593190D02*
X171313319Y-96593190D01*
X171313319Y-96593190D02*
X171456176Y-96688428D01*
X171456176Y-96688428D02*
X171551414Y-96783666D01*
X171551414Y-96783666D02*
X171599033Y-96878904D01*
X171408557Y-95926523D02*
X171360938Y-95878904D01*
X171360938Y-95878904D02*
X171313319Y-95783666D01*
X171313319Y-95783666D02*
X171313319Y-95545571D01*
X171313319Y-95545571D02*
X171360938Y-95450333D01*
X171360938Y-95450333D02*
X171408557Y-95402714D01*
X171408557Y-95402714D02*
X171503795Y-95355095D01*
X171503795Y-95355095D02*
X171599033Y-95355095D01*
X171599033Y-95355095D02*
X171741890Y-95402714D01*
X171741890Y-95402714D02*
X172313319Y-95974142D01*
X172313319Y-95974142D02*
X172313319Y-95355095D01*
X138961905Y-65224819D02*
X138961905Y-64224819D01*
X138961905Y-64224819D02*
X139200000Y-64224819D01*
X139200000Y-64224819D02*
X139342857Y-64272438D01*
X139342857Y-64272438D02*
X139438095Y-64367676D01*
X139438095Y-64367676D02*
X139485714Y-64462914D01*
X139485714Y-64462914D02*
X139533333Y-64653390D01*
X139533333Y-64653390D02*
X139533333Y-64796247D01*
X139533333Y-64796247D02*
X139485714Y-64986723D01*
X139485714Y-64986723D02*
X139438095Y-65081961D01*
X139438095Y-65081961D02*
X139342857Y-65177200D01*
X139342857Y-65177200D02*
X139200000Y-65224819D01*
X139200000Y-65224819D02*
X138961905Y-65224819D01*
X140390476Y-64558152D02*
X140390476Y-65224819D01*
X140152381Y-64177200D02*
X139914286Y-64891485D01*
X139914286Y-64891485D02*
X140533333Y-64891485D01*
X143248095Y-67024819D02*
X143248095Y-66024819D01*
X143819523Y-67024819D02*
X143390952Y-66453390D01*
X143819523Y-66024819D02*
X143248095Y-66596247D01*
X151798495Y-107250619D02*
X152369923Y-107250619D01*
X152084209Y-108250619D02*
X152084209Y-107250619D01*
X152703257Y-108250619D02*
X152703257Y-107250619D01*
X152703257Y-107250619D02*
X153084209Y-107250619D01*
X153084209Y-107250619D02*
X153179447Y-107298238D01*
X153179447Y-107298238D02*
X153227066Y-107345857D01*
X153227066Y-107345857D02*
X153274685Y-107441095D01*
X153274685Y-107441095D02*
X153274685Y-107583952D01*
X153274685Y-107583952D02*
X153227066Y-107679190D01*
X153227066Y-107679190D02*
X153179447Y-107726809D01*
X153179447Y-107726809D02*
X153084209Y-107774428D01*
X153084209Y-107774428D02*
X152703257Y-107774428D01*
X154227066Y-108250619D02*
X153655638Y-108250619D01*
X153941352Y-108250619D02*
X153941352Y-107250619D01*
X153941352Y-107250619D02*
X153846114Y-107393476D01*
X153846114Y-107393476D02*
X153750876Y-107488714D01*
X153750876Y-107488714D02*
X153655638Y-107536333D01*
X159076819Y-75858666D02*
X158600628Y-76191999D01*
X159076819Y-76430094D02*
X158076819Y-76430094D01*
X158076819Y-76430094D02*
X158076819Y-76049142D01*
X158076819Y-76049142D02*
X158124438Y-75953904D01*
X158124438Y-75953904D02*
X158172057Y-75906285D01*
X158172057Y-75906285D02*
X158267295Y-75858666D01*
X158267295Y-75858666D02*
X158410152Y-75858666D01*
X158410152Y-75858666D02*
X158505390Y-75906285D01*
X158505390Y-75906285D02*
X158553009Y-75953904D01*
X158553009Y-75953904D02*
X158600628Y-76049142D01*
X158600628Y-76049142D02*
X158600628Y-76430094D01*
X158410152Y-75001523D02*
X159076819Y-75001523D01*
X158029200Y-75239618D02*
X158743485Y-75477713D01*
X158743485Y-75477713D02*
X158743485Y-74858666D01*
X176333333Y-68878819D02*
X176000000Y-68402628D01*
X175761905Y-68878819D02*
X175761905Y-67878819D01*
X175761905Y-67878819D02*
X176142857Y-67878819D01*
X176142857Y-67878819D02*
X176238095Y-67926438D01*
X176238095Y-67926438D02*
X176285714Y-67974057D01*
X176285714Y-67974057D02*
X176333333Y-68069295D01*
X176333333Y-68069295D02*
X176333333Y-68212152D01*
X176333333Y-68212152D02*
X176285714Y-68307390D01*
X176285714Y-68307390D02*
X176238095Y-68355009D01*
X176238095Y-68355009D02*
X176142857Y-68402628D01*
X176142857Y-68402628D02*
X175761905Y-68402628D01*
X177190476Y-67878819D02*
X177000000Y-67878819D01*
X177000000Y-67878819D02*
X176904762Y-67926438D01*
X176904762Y-67926438D02*
X176857143Y-67974057D01*
X176857143Y-67974057D02*
X176761905Y-68116914D01*
X176761905Y-68116914D02*
X176714286Y-68307390D01*
X176714286Y-68307390D02*
X176714286Y-68688342D01*
X176714286Y-68688342D02*
X176761905Y-68783580D01*
X176761905Y-68783580D02*
X176809524Y-68831200D01*
X176809524Y-68831200D02*
X176904762Y-68878819D01*
X176904762Y-68878819D02*
X177095238Y-68878819D01*
X177095238Y-68878819D02*
X177190476Y-68831200D01*
X177190476Y-68831200D02*
X177238095Y-68783580D01*
X177238095Y-68783580D02*
X177285714Y-68688342D01*
X177285714Y-68688342D02*
X177285714Y-68450247D01*
X177285714Y-68450247D02*
X177238095Y-68355009D01*
X177238095Y-68355009D02*
X177190476Y-68307390D01*
X177190476Y-68307390D02*
X177095238Y-68259771D01*
X177095238Y-68259771D02*
X176904762Y-68259771D01*
X176904762Y-68259771D02*
X176809524Y-68307390D01*
X176809524Y-68307390D02*
X176761905Y-68355009D01*
X176761905Y-68355009D02*
X176714286Y-68450247D01*
X162357142Y-100439580D02*
X162309523Y-100487200D01*
X162309523Y-100487200D02*
X162166666Y-100534819D01*
X162166666Y-100534819D02*
X162071428Y-100534819D01*
X162071428Y-100534819D02*
X161928571Y-100487200D01*
X161928571Y-100487200D02*
X161833333Y-100391961D01*
X161833333Y-100391961D02*
X161785714Y-100296723D01*
X161785714Y-100296723D02*
X161738095Y-100106247D01*
X161738095Y-100106247D02*
X161738095Y-99963390D01*
X161738095Y-99963390D02*
X161785714Y-99772914D01*
X161785714Y-99772914D02*
X161833333Y-99677676D01*
X161833333Y-99677676D02*
X161928571Y-99582438D01*
X161928571Y-99582438D02*
X162071428Y-99534819D01*
X162071428Y-99534819D02*
X162166666Y-99534819D01*
X162166666Y-99534819D02*
X162309523Y-99582438D01*
X162309523Y-99582438D02*
X162357142Y-99630057D01*
X162738095Y-99630057D02*
X162785714Y-99582438D01*
X162785714Y-99582438D02*
X162880952Y-99534819D01*
X162880952Y-99534819D02*
X163119047Y-99534819D01*
X163119047Y-99534819D02*
X163214285Y-99582438D01*
X163214285Y-99582438D02*
X163261904Y-99630057D01*
X163261904Y-99630057D02*
X163309523Y-99725295D01*
X163309523Y-99725295D02*
X163309523Y-99820533D01*
X163309523Y-99820533D02*
X163261904Y-99963390D01*
X163261904Y-99963390D02*
X162690476Y-100534819D01*
X162690476Y-100534819D02*
X163309523Y-100534819D01*
X164261904Y-100534819D02*
X163690476Y-100534819D01*
X163976190Y-100534819D02*
X163976190Y-99534819D01*
X163976190Y-99534819D02*
X163880952Y-99677676D01*
X163880952Y-99677676D02*
X163785714Y-99772914D01*
X163785714Y-99772914D02*
X163690476Y-99820533D01*
X168237142Y-82273580D02*
X168189523Y-82321200D01*
X168189523Y-82321200D02*
X168046666Y-82368819D01*
X168046666Y-82368819D02*
X167951428Y-82368819D01*
X167951428Y-82368819D02*
X167808571Y-82321200D01*
X167808571Y-82321200D02*
X167713333Y-82225961D01*
X167713333Y-82225961D02*
X167665714Y-82130723D01*
X167665714Y-82130723D02*
X167618095Y-81940247D01*
X167618095Y-81940247D02*
X167618095Y-81797390D01*
X167618095Y-81797390D02*
X167665714Y-81606914D01*
X167665714Y-81606914D02*
X167713333Y-81511676D01*
X167713333Y-81511676D02*
X167808571Y-81416438D01*
X167808571Y-81416438D02*
X167951428Y-81368819D01*
X167951428Y-81368819D02*
X168046666Y-81368819D01*
X168046666Y-81368819D02*
X168189523Y-81416438D01*
X168189523Y-81416438D02*
X168237142Y-81464057D01*
X169189523Y-82368819D02*
X168618095Y-82368819D01*
X168903809Y-82368819D02*
X168903809Y-81368819D01*
X168903809Y-81368819D02*
X168808571Y-81511676D01*
X168808571Y-81511676D02*
X168713333Y-81606914D01*
X168713333Y-81606914D02*
X168618095Y-81654533D01*
X169522857Y-81368819D02*
X170141904Y-81368819D01*
X170141904Y-81368819D02*
X169808571Y-81749771D01*
X169808571Y-81749771D02*
X169951428Y-81749771D01*
X169951428Y-81749771D02*
X170046666Y-81797390D01*
X170046666Y-81797390D02*
X170094285Y-81845009D01*
X170094285Y-81845009D02*
X170141904Y-81940247D01*
X170141904Y-81940247D02*
X170141904Y-82178342D01*
X170141904Y-82178342D02*
X170094285Y-82273580D01*
X170094285Y-82273580D02*
X170046666Y-82321200D01*
X170046666Y-82321200D02*
X169951428Y-82368819D01*
X169951428Y-82368819D02*
X169665714Y-82368819D01*
X169665714Y-82368819D02*
X169570476Y-82321200D01*
X169570476Y-82321200D02*
X169522857Y-82273580D01*
X138961905Y-72844819D02*
X138961905Y-71844819D01*
X138961905Y-71844819D02*
X139200000Y-71844819D01*
X139200000Y-71844819D02*
X139342857Y-71892438D01*
X139342857Y-71892438D02*
X139438095Y-71987676D01*
X139438095Y-71987676D02*
X139485714Y-72082914D01*
X139485714Y-72082914D02*
X139533333Y-72273390D01*
X139533333Y-72273390D02*
X139533333Y-72416247D01*
X139533333Y-72416247D02*
X139485714Y-72606723D01*
X139485714Y-72606723D02*
X139438095Y-72701961D01*
X139438095Y-72701961D02*
X139342857Y-72797200D01*
X139342857Y-72797200D02*
X139200000Y-72844819D01*
X139200000Y-72844819D02*
X138961905Y-72844819D01*
X139866667Y-71844819D02*
X140485714Y-71844819D01*
X140485714Y-71844819D02*
X140152381Y-72225771D01*
X140152381Y-72225771D02*
X140295238Y-72225771D01*
X140295238Y-72225771D02*
X140390476Y-72273390D01*
X140390476Y-72273390D02*
X140438095Y-72321009D01*
X140438095Y-72321009D02*
X140485714Y-72416247D01*
X140485714Y-72416247D02*
X140485714Y-72654342D01*
X140485714Y-72654342D02*
X140438095Y-72749580D01*
X140438095Y-72749580D02*
X140390476Y-72797200D01*
X140390476Y-72797200D02*
X140295238Y-72844819D01*
X140295238Y-72844819D02*
X140009524Y-72844819D01*
X140009524Y-72844819D02*
X139914286Y-72797200D01*
X139914286Y-72797200D02*
X139866667Y-72749580D01*
X135628095Y-71044819D02*
X135628095Y-70044819D01*
X136199523Y-71044819D02*
X135770952Y-70473390D01*
X136199523Y-70044819D02*
X135628095Y-70616247D01*
X160563333Y-81983580D02*
X160515714Y-82031200D01*
X160515714Y-82031200D02*
X160372857Y-82078819D01*
X160372857Y-82078819D02*
X160277619Y-82078819D01*
X160277619Y-82078819D02*
X160134762Y-82031200D01*
X160134762Y-82031200D02*
X160039524Y-81935961D01*
X160039524Y-81935961D02*
X159991905Y-81840723D01*
X159991905Y-81840723D02*
X159944286Y-81650247D01*
X159944286Y-81650247D02*
X159944286Y-81507390D01*
X159944286Y-81507390D02*
X159991905Y-81316914D01*
X159991905Y-81316914D02*
X160039524Y-81221676D01*
X160039524Y-81221676D02*
X160134762Y-81126438D01*
X160134762Y-81126438D02*
X160277619Y-81078819D01*
X160277619Y-81078819D02*
X160372857Y-81078819D01*
X160372857Y-81078819D02*
X160515714Y-81126438D01*
X160515714Y-81126438D02*
X160563333Y-81174057D01*
X161468095Y-81078819D02*
X160991905Y-81078819D01*
X160991905Y-81078819D02*
X160944286Y-81555009D01*
X160944286Y-81555009D02*
X160991905Y-81507390D01*
X160991905Y-81507390D02*
X161087143Y-81459771D01*
X161087143Y-81459771D02*
X161325238Y-81459771D01*
X161325238Y-81459771D02*
X161420476Y-81507390D01*
X161420476Y-81507390D02*
X161468095Y-81555009D01*
X161468095Y-81555009D02*
X161515714Y-81650247D01*
X161515714Y-81650247D02*
X161515714Y-81888342D01*
X161515714Y-81888342D02*
X161468095Y-81983580D01*
X161468095Y-81983580D02*
X161420476Y-82031200D01*
X161420476Y-82031200D02*
X161325238Y-82078819D01*
X161325238Y-82078819D02*
X161087143Y-82078819D01*
X161087143Y-82078819D02*
X160991905Y-82031200D01*
X160991905Y-82031200D02*
X160944286Y-81983580D01*
X152067419Y-71286666D02*
X151591228Y-71619999D01*
X152067419Y-71858094D02*
X151067419Y-71858094D01*
X151067419Y-71858094D02*
X151067419Y-71477142D01*
X151067419Y-71477142D02*
X151115038Y-71381904D01*
X151115038Y-71381904D02*
X151162657Y-71334285D01*
X151162657Y-71334285D02*
X151257895Y-71286666D01*
X151257895Y-71286666D02*
X151400752Y-71286666D01*
X151400752Y-71286666D02*
X151495990Y-71334285D01*
X151495990Y-71334285D02*
X151543609Y-71381904D01*
X151543609Y-71381904D02*
X151591228Y-71477142D01*
X151591228Y-71477142D02*
X151591228Y-71858094D01*
X151162657Y-70905713D02*
X151115038Y-70858094D01*
X151115038Y-70858094D02*
X151067419Y-70762856D01*
X151067419Y-70762856D02*
X151067419Y-70524761D01*
X151067419Y-70524761D02*
X151115038Y-70429523D01*
X151115038Y-70429523D02*
X151162657Y-70381904D01*
X151162657Y-70381904D02*
X151257895Y-70334285D01*
X151257895Y-70334285D02*
X151353133Y-70334285D01*
X151353133Y-70334285D02*
X151495990Y-70381904D01*
X151495990Y-70381904D02*
X152067419Y-70953332D01*
X152067419Y-70953332D02*
X152067419Y-70334285D01*
X193460761Y-73078819D02*
X193127428Y-72602628D01*
X192889333Y-73078819D02*
X192889333Y-72078819D01*
X192889333Y-72078819D02*
X193270285Y-72078819D01*
X193270285Y-72078819D02*
X193365523Y-72126438D01*
X193365523Y-72126438D02*
X193413142Y-72174057D01*
X193413142Y-72174057D02*
X193460761Y-72269295D01*
X193460761Y-72269295D02*
X193460761Y-72412152D01*
X193460761Y-72412152D02*
X193413142Y-72507390D01*
X193413142Y-72507390D02*
X193365523Y-72555009D01*
X193365523Y-72555009D02*
X193270285Y-72602628D01*
X193270285Y-72602628D02*
X192889333Y-72602628D01*
X193746476Y-72078819D02*
X194079809Y-73078819D01*
X194079809Y-73078819D02*
X194413142Y-72078819D01*
X195270285Y-73078819D02*
X194698857Y-73078819D01*
X194984571Y-73078819D02*
X194984571Y-72078819D01*
X194984571Y-72078819D02*
X194889333Y-72221676D01*
X194889333Y-72221676D02*
X194794095Y-72316914D01*
X194794095Y-72316914D02*
X194698857Y-72364533D01*
X164993319Y-92909857D02*
X164517128Y-93243190D01*
X164993319Y-93481285D02*
X163993319Y-93481285D01*
X163993319Y-93481285D02*
X163993319Y-93100333D01*
X163993319Y-93100333D02*
X164040938Y-93005095D01*
X164040938Y-93005095D02*
X164088557Y-92957476D01*
X164088557Y-92957476D02*
X164183795Y-92909857D01*
X164183795Y-92909857D02*
X164326652Y-92909857D01*
X164326652Y-92909857D02*
X164421890Y-92957476D01*
X164421890Y-92957476D02*
X164469509Y-93005095D01*
X164469509Y-93005095D02*
X164517128Y-93100333D01*
X164517128Y-93100333D02*
X164517128Y-93481285D01*
X164993319Y-91957476D02*
X164993319Y-92528904D01*
X164993319Y-92243190D02*
X163993319Y-92243190D01*
X163993319Y-92243190D02*
X164136176Y-92338428D01*
X164136176Y-92338428D02*
X164231414Y-92433666D01*
X164231414Y-92433666D02*
X164279033Y-92528904D01*
X163993319Y-91624142D02*
X163993319Y-91005095D01*
X163993319Y-91005095D02*
X164374271Y-91338428D01*
X164374271Y-91338428D02*
X164374271Y-91195571D01*
X164374271Y-91195571D02*
X164421890Y-91100333D01*
X164421890Y-91100333D02*
X164469509Y-91052714D01*
X164469509Y-91052714D02*
X164564747Y-91005095D01*
X164564747Y-91005095D02*
X164802842Y-91005095D01*
X164802842Y-91005095D02*
X164898080Y-91052714D01*
X164898080Y-91052714D02*
X164945700Y-91100333D01*
X164945700Y-91100333D02*
X164993319Y-91195571D01*
X164993319Y-91195571D02*
X164993319Y-91481285D01*
X164993319Y-91481285D02*
X164945700Y-91576523D01*
X164945700Y-91576523D02*
X164898080Y-91624142D01*
X181534333Y-65830819D02*
X181201000Y-65354628D01*
X180962905Y-65830819D02*
X180962905Y-64830819D01*
X180962905Y-64830819D02*
X181343857Y-64830819D01*
X181343857Y-64830819D02*
X181439095Y-64878438D01*
X181439095Y-64878438D02*
X181486714Y-64926057D01*
X181486714Y-64926057D02*
X181534333Y-65021295D01*
X181534333Y-65021295D02*
X181534333Y-65164152D01*
X181534333Y-65164152D02*
X181486714Y-65259390D01*
X181486714Y-65259390D02*
X181439095Y-65307009D01*
X181439095Y-65307009D02*
X181343857Y-65354628D01*
X181343857Y-65354628D02*
X180962905Y-65354628D01*
X182105762Y-65259390D02*
X182010524Y-65211771D01*
X182010524Y-65211771D02*
X181962905Y-65164152D01*
X181962905Y-65164152D02*
X181915286Y-65068914D01*
X181915286Y-65068914D02*
X181915286Y-65021295D01*
X181915286Y-65021295D02*
X181962905Y-64926057D01*
X181962905Y-64926057D02*
X182010524Y-64878438D01*
X182010524Y-64878438D02*
X182105762Y-64830819D01*
X182105762Y-64830819D02*
X182296238Y-64830819D01*
X182296238Y-64830819D02*
X182391476Y-64878438D01*
X182391476Y-64878438D02*
X182439095Y-64926057D01*
X182439095Y-64926057D02*
X182486714Y-65021295D01*
X182486714Y-65021295D02*
X182486714Y-65068914D01*
X182486714Y-65068914D02*
X182439095Y-65164152D01*
X182439095Y-65164152D02*
X182391476Y-65211771D01*
X182391476Y-65211771D02*
X182296238Y-65259390D01*
X182296238Y-65259390D02*
X182105762Y-65259390D01*
X182105762Y-65259390D02*
X182010524Y-65307009D01*
X182010524Y-65307009D02*
X181962905Y-65354628D01*
X181962905Y-65354628D02*
X181915286Y-65449866D01*
X181915286Y-65449866D02*
X181915286Y-65640342D01*
X181915286Y-65640342D02*
X181962905Y-65735580D01*
X181962905Y-65735580D02*
X182010524Y-65783200D01*
X182010524Y-65783200D02*
X182105762Y-65830819D01*
X182105762Y-65830819D02*
X182296238Y-65830819D01*
X182296238Y-65830819D02*
X182391476Y-65783200D01*
X182391476Y-65783200D02*
X182439095Y-65735580D01*
X182439095Y-65735580D02*
X182486714Y-65640342D01*
X182486714Y-65640342D02*
X182486714Y-65449866D01*
X182486714Y-65449866D02*
X182439095Y-65354628D01*
X182439095Y-65354628D02*
X182391476Y-65307009D01*
X182391476Y-65307009D02*
X182296238Y-65259390D01*
X186385580Y-120260857D02*
X186433200Y-120308476D01*
X186433200Y-120308476D02*
X186480819Y-120451333D01*
X186480819Y-120451333D02*
X186480819Y-120546571D01*
X186480819Y-120546571D02*
X186433200Y-120689428D01*
X186433200Y-120689428D02*
X186337961Y-120784666D01*
X186337961Y-120784666D02*
X186242723Y-120832285D01*
X186242723Y-120832285D02*
X186052247Y-120879904D01*
X186052247Y-120879904D02*
X185909390Y-120879904D01*
X185909390Y-120879904D02*
X185718914Y-120832285D01*
X185718914Y-120832285D02*
X185623676Y-120784666D01*
X185623676Y-120784666D02*
X185528438Y-120689428D01*
X185528438Y-120689428D02*
X185480819Y-120546571D01*
X185480819Y-120546571D02*
X185480819Y-120451333D01*
X185480819Y-120451333D02*
X185528438Y-120308476D01*
X185528438Y-120308476D02*
X185576057Y-120260857D01*
X186480819Y-119308476D02*
X186480819Y-119879904D01*
X186480819Y-119594190D02*
X185480819Y-119594190D01*
X185480819Y-119594190D02*
X185623676Y-119689428D01*
X185623676Y-119689428D02*
X185718914Y-119784666D01*
X185718914Y-119784666D02*
X185766533Y-119879904D01*
X185480819Y-118451333D02*
X185480819Y-118641809D01*
X185480819Y-118641809D02*
X185528438Y-118737047D01*
X185528438Y-118737047D02*
X185576057Y-118784666D01*
X185576057Y-118784666D02*
X185718914Y-118879904D01*
X185718914Y-118879904D02*
X185909390Y-118927523D01*
X185909390Y-118927523D02*
X186290342Y-118927523D01*
X186290342Y-118927523D02*
X186385580Y-118879904D01*
X186385580Y-118879904D02*
X186433200Y-118832285D01*
X186433200Y-118832285D02*
X186480819Y-118737047D01*
X186480819Y-118737047D02*
X186480819Y-118546571D01*
X186480819Y-118546571D02*
X186433200Y-118451333D01*
X186433200Y-118451333D02*
X186385580Y-118403714D01*
X186385580Y-118403714D02*
X186290342Y-118356095D01*
X186290342Y-118356095D02*
X186052247Y-118356095D01*
X186052247Y-118356095D02*
X185957009Y-118403714D01*
X185957009Y-118403714D02*
X185909390Y-118451333D01*
X185909390Y-118451333D02*
X185861771Y-118546571D01*
X185861771Y-118546571D02*
X185861771Y-118737047D01*
X185861771Y-118737047D02*
X185909390Y-118832285D01*
X185909390Y-118832285D02*
X185957009Y-118879904D01*
X185957009Y-118879904D02*
X186052247Y-118927523D01*
X154833819Y-124648904D02*
X155643342Y-124648904D01*
X155643342Y-124648904D02*
X155738580Y-124601285D01*
X155738580Y-124601285D02*
X155786200Y-124553666D01*
X155786200Y-124553666D02*
X155833819Y-124458428D01*
X155833819Y-124458428D02*
X155833819Y-124267952D01*
X155833819Y-124267952D02*
X155786200Y-124172714D01*
X155786200Y-124172714D02*
X155738580Y-124125095D01*
X155738580Y-124125095D02*
X155643342Y-124077476D01*
X155643342Y-124077476D02*
X154833819Y-124077476D01*
X154929057Y-123648904D02*
X154881438Y-123601285D01*
X154881438Y-123601285D02*
X154833819Y-123506047D01*
X154833819Y-123506047D02*
X154833819Y-123267952D01*
X154833819Y-123267952D02*
X154881438Y-123172714D01*
X154881438Y-123172714D02*
X154929057Y-123125095D01*
X154929057Y-123125095D02*
X155024295Y-123077476D01*
X155024295Y-123077476D02*
X155119533Y-123077476D01*
X155119533Y-123077476D02*
X155262390Y-123125095D01*
X155262390Y-123125095D02*
X155833819Y-123696523D01*
X155833819Y-123696523D02*
X155833819Y-123077476D01*
X180594095Y-116912819D02*
X180594095Y-117722342D01*
X180594095Y-117722342D02*
X180641714Y-117817580D01*
X180641714Y-117817580D02*
X180689333Y-117865200D01*
X180689333Y-117865200D02*
X180784571Y-117912819D01*
X180784571Y-117912819D02*
X180975047Y-117912819D01*
X180975047Y-117912819D02*
X181070285Y-117865200D01*
X181070285Y-117865200D02*
X181117904Y-117817580D01*
X181117904Y-117817580D02*
X181165523Y-117722342D01*
X181165523Y-117722342D02*
X181165523Y-116912819D01*
X182117904Y-116912819D02*
X181641714Y-116912819D01*
X181641714Y-116912819D02*
X181594095Y-117389009D01*
X181594095Y-117389009D02*
X181641714Y-117341390D01*
X181641714Y-117341390D02*
X181736952Y-117293771D01*
X181736952Y-117293771D02*
X181975047Y-117293771D01*
X181975047Y-117293771D02*
X182070285Y-117341390D01*
X182070285Y-117341390D02*
X182117904Y-117389009D01*
X182117904Y-117389009D02*
X182165523Y-117484247D01*
X182165523Y-117484247D02*
X182165523Y-117722342D01*
X182165523Y-117722342D02*
X182117904Y-117817580D01*
X182117904Y-117817580D02*
X182070285Y-117865200D01*
X182070285Y-117865200D02*
X181975047Y-117912819D01*
X181975047Y-117912819D02*
X181736952Y-117912819D01*
X181736952Y-117912819D02*
X181641714Y-117865200D01*
X181641714Y-117865200D02*
X181594095Y-117817580D01*
X135112095Y-126993009D02*
X134778762Y-126993009D01*
X134778762Y-127516819D02*
X134778762Y-126516819D01*
X134778762Y-126516819D02*
X135254952Y-126516819D01*
X135635905Y-127516819D02*
X135635905Y-126850152D01*
X135635905Y-127040628D02*
X135683524Y-126945390D01*
X135683524Y-126945390D02*
X135731143Y-126897771D01*
X135731143Y-126897771D02*
X135826381Y-126850152D01*
X135826381Y-126850152D02*
X135921619Y-126850152D01*
X136635905Y-127469200D02*
X136540667Y-127516819D01*
X136540667Y-127516819D02*
X136350191Y-127516819D01*
X136350191Y-127516819D02*
X136254953Y-127469200D01*
X136254953Y-127469200D02*
X136207334Y-127373961D01*
X136207334Y-127373961D02*
X136207334Y-126993009D01*
X136207334Y-126993009D02*
X136254953Y-126897771D01*
X136254953Y-126897771D02*
X136350191Y-126850152D01*
X136350191Y-126850152D02*
X136540667Y-126850152D01*
X136540667Y-126850152D02*
X136635905Y-126897771D01*
X136635905Y-126897771D02*
X136683524Y-126993009D01*
X136683524Y-126993009D02*
X136683524Y-127088247D01*
X136683524Y-127088247D02*
X136207334Y-127183485D01*
X137540667Y-126850152D02*
X137540667Y-127850152D01*
X137540667Y-127469200D02*
X137445429Y-127516819D01*
X137445429Y-127516819D02*
X137254953Y-127516819D01*
X137254953Y-127516819D02*
X137159715Y-127469200D01*
X137159715Y-127469200D02*
X137112096Y-127421580D01*
X137112096Y-127421580D02*
X137064477Y-127326342D01*
X137064477Y-127326342D02*
X137064477Y-127040628D01*
X137064477Y-127040628D02*
X137112096Y-126945390D01*
X137112096Y-126945390D02*
X137159715Y-126897771D01*
X137159715Y-126897771D02*
X137254953Y-126850152D01*
X137254953Y-126850152D02*
X137445429Y-126850152D01*
X137445429Y-126850152D02*
X137540667Y-126897771D01*
X138016858Y-127421580D02*
X138064477Y-127469200D01*
X138064477Y-127469200D02*
X138016858Y-127516819D01*
X138016858Y-127516819D02*
X137969239Y-127469200D01*
X137969239Y-127469200D02*
X138016858Y-127421580D01*
X138016858Y-127421580D02*
X138016858Y-127516819D01*
X139016857Y-127516819D02*
X138445429Y-127516819D01*
X138731143Y-127516819D02*
X138731143Y-126516819D01*
X138731143Y-126516819D02*
X138635905Y-126659676D01*
X138635905Y-126659676D02*
X138540667Y-126754914D01*
X138540667Y-126754914D02*
X138445429Y-126802533D01*
X188364905Y-125041819D02*
X188364905Y-124041819D01*
X188364905Y-124041819D02*
X188603000Y-124041819D01*
X188603000Y-124041819D02*
X188745857Y-124089438D01*
X188745857Y-124089438D02*
X188841095Y-124184676D01*
X188841095Y-124184676D02*
X188888714Y-124279914D01*
X188888714Y-124279914D02*
X188936333Y-124470390D01*
X188936333Y-124470390D02*
X188936333Y-124613247D01*
X188936333Y-124613247D02*
X188888714Y-124803723D01*
X188888714Y-124803723D02*
X188841095Y-124898961D01*
X188841095Y-124898961D02*
X188745857Y-124994200D01*
X188745857Y-124994200D02*
X188603000Y-125041819D01*
X188603000Y-125041819D02*
X188364905Y-125041819D01*
X189888714Y-125041819D02*
X189317286Y-125041819D01*
X189603000Y-125041819D02*
X189603000Y-124041819D01*
X189603000Y-124041819D02*
X189507762Y-124184676D01*
X189507762Y-124184676D02*
X189412524Y-124279914D01*
X189412524Y-124279914D02*
X189317286Y-124327533D01*
X192626595Y-128857819D02*
X192626595Y-127857819D01*
X193198023Y-128857819D02*
X192769452Y-128286390D01*
X193198023Y-127857819D02*
X192626595Y-128429247D01*
X197786666Y-111662819D02*
X197786666Y-112377104D01*
X197786666Y-112377104D02*
X197739047Y-112519961D01*
X197739047Y-112519961D02*
X197643809Y-112615200D01*
X197643809Y-112615200D02*
X197500952Y-112662819D01*
X197500952Y-112662819D02*
X197405714Y-112662819D01*
X198215238Y-111758057D02*
X198262857Y-111710438D01*
X198262857Y-111710438D02*
X198358095Y-111662819D01*
X198358095Y-111662819D02*
X198596190Y-111662819D01*
X198596190Y-111662819D02*
X198691428Y-111710438D01*
X198691428Y-111710438D02*
X198739047Y-111758057D01*
X198739047Y-111758057D02*
X198786666Y-111853295D01*
X198786666Y-111853295D02*
X198786666Y-111948533D01*
X198786666Y-111948533D02*
X198739047Y-112091390D01*
X198739047Y-112091390D02*
X198167619Y-112662819D01*
X198167619Y-112662819D02*
X198786666Y-112662819D01*
X152220819Y-67222666D02*
X151744628Y-67555999D01*
X152220819Y-67794094D02*
X151220819Y-67794094D01*
X151220819Y-67794094D02*
X151220819Y-67413142D01*
X151220819Y-67413142D02*
X151268438Y-67317904D01*
X151268438Y-67317904D02*
X151316057Y-67270285D01*
X151316057Y-67270285D02*
X151411295Y-67222666D01*
X151411295Y-67222666D02*
X151554152Y-67222666D01*
X151554152Y-67222666D02*
X151649390Y-67270285D01*
X151649390Y-67270285D02*
X151697009Y-67317904D01*
X151697009Y-67317904D02*
X151744628Y-67413142D01*
X151744628Y-67413142D02*
X151744628Y-67794094D01*
X152220819Y-66270285D02*
X152220819Y-66841713D01*
X152220819Y-66555999D02*
X151220819Y-66555999D01*
X151220819Y-66555999D02*
X151363676Y-66651237D01*
X151363676Y-66651237D02*
X151458914Y-66746475D01*
X151458914Y-66746475D02*
X151506533Y-66841713D01*
X159011580Y-71286666D02*
X159059200Y-71334285D01*
X159059200Y-71334285D02*
X159106819Y-71477142D01*
X159106819Y-71477142D02*
X159106819Y-71572380D01*
X159106819Y-71572380D02*
X159059200Y-71715237D01*
X159059200Y-71715237D02*
X158963961Y-71810475D01*
X158963961Y-71810475D02*
X158868723Y-71858094D01*
X158868723Y-71858094D02*
X158678247Y-71905713D01*
X158678247Y-71905713D02*
X158535390Y-71905713D01*
X158535390Y-71905713D02*
X158344914Y-71858094D01*
X158344914Y-71858094D02*
X158249676Y-71810475D01*
X158249676Y-71810475D02*
X158154438Y-71715237D01*
X158154438Y-71715237D02*
X158106819Y-71572380D01*
X158106819Y-71572380D02*
X158106819Y-71477142D01*
X158106819Y-71477142D02*
X158154438Y-71334285D01*
X158154438Y-71334285D02*
X158202057Y-71286666D01*
X158106819Y-70953332D02*
X158106819Y-70334285D01*
X158106819Y-70334285D02*
X158487771Y-70667618D01*
X158487771Y-70667618D02*
X158487771Y-70524761D01*
X158487771Y-70524761D02*
X158535390Y-70429523D01*
X158535390Y-70429523D02*
X158583009Y-70381904D01*
X158583009Y-70381904D02*
X158678247Y-70334285D01*
X158678247Y-70334285D02*
X158916342Y-70334285D01*
X158916342Y-70334285D02*
X159011580Y-70381904D01*
X159011580Y-70381904D02*
X159059200Y-70429523D01*
X159059200Y-70429523D02*
X159106819Y-70524761D01*
X159106819Y-70524761D02*
X159106819Y-70810475D01*
X159106819Y-70810475D02*
X159059200Y-70905713D01*
X159059200Y-70905713D02*
X159011580Y-70953332D01*
X161116595Y-92201819D02*
X161688023Y-92201819D01*
X161402309Y-93201819D02*
X161402309Y-92201819D01*
X162021357Y-93201819D02*
X162021357Y-92201819D01*
X162021357Y-92201819D02*
X162402309Y-92201819D01*
X162402309Y-92201819D02*
X162497547Y-92249438D01*
X162497547Y-92249438D02*
X162545166Y-92297057D01*
X162545166Y-92297057D02*
X162592785Y-92392295D01*
X162592785Y-92392295D02*
X162592785Y-92535152D01*
X162592785Y-92535152D02*
X162545166Y-92630390D01*
X162545166Y-92630390D02*
X162497547Y-92678009D01*
X162497547Y-92678009D02*
X162402309Y-92725628D01*
X162402309Y-92725628D02*
X162021357Y-92725628D01*
X163497547Y-92201819D02*
X163021357Y-92201819D01*
X163021357Y-92201819D02*
X162973738Y-92678009D01*
X162973738Y-92678009D02*
X163021357Y-92630390D01*
X163021357Y-92630390D02*
X163116595Y-92582771D01*
X163116595Y-92582771D02*
X163354690Y-92582771D01*
X163354690Y-92582771D02*
X163449928Y-92630390D01*
X163449928Y-92630390D02*
X163497547Y-92678009D01*
X163497547Y-92678009D02*
X163545166Y-92773247D01*
X163545166Y-92773247D02*
X163545166Y-93011342D01*
X163545166Y-93011342D02*
X163497547Y-93106580D01*
X163497547Y-93106580D02*
X163449928Y-93154200D01*
X163449928Y-93154200D02*
X163354690Y-93201819D01*
X163354690Y-93201819D02*
X163116595Y-93201819D01*
X163116595Y-93201819D02*
X163021357Y-93154200D01*
X163021357Y-93154200D02*
X162973738Y-93106580D01*
X181939580Y-70716857D02*
X181987200Y-70764476D01*
X181987200Y-70764476D02*
X182034819Y-70907333D01*
X182034819Y-70907333D02*
X182034819Y-71002571D01*
X182034819Y-71002571D02*
X181987200Y-71145428D01*
X181987200Y-71145428D02*
X181891961Y-71240666D01*
X181891961Y-71240666D02*
X181796723Y-71288285D01*
X181796723Y-71288285D02*
X181606247Y-71335904D01*
X181606247Y-71335904D02*
X181463390Y-71335904D01*
X181463390Y-71335904D02*
X181272914Y-71288285D01*
X181272914Y-71288285D02*
X181177676Y-71240666D01*
X181177676Y-71240666D02*
X181082438Y-71145428D01*
X181082438Y-71145428D02*
X181034819Y-71002571D01*
X181034819Y-71002571D02*
X181034819Y-70907333D01*
X181034819Y-70907333D02*
X181082438Y-70764476D01*
X181082438Y-70764476D02*
X181130057Y-70716857D01*
X182034819Y-69764476D02*
X182034819Y-70335904D01*
X182034819Y-70050190D02*
X181034819Y-70050190D01*
X181034819Y-70050190D02*
X181177676Y-70145428D01*
X181177676Y-70145428D02*
X181272914Y-70240666D01*
X181272914Y-70240666D02*
X181320533Y-70335904D01*
X181130057Y-69383523D02*
X181082438Y-69335904D01*
X181082438Y-69335904D02*
X181034819Y-69240666D01*
X181034819Y-69240666D02*
X181034819Y-69002571D01*
X181034819Y-69002571D02*
X181082438Y-68907333D01*
X181082438Y-68907333D02*
X181130057Y-68859714D01*
X181130057Y-68859714D02*
X181225295Y-68812095D01*
X181225295Y-68812095D02*
X181320533Y-68812095D01*
X181320533Y-68812095D02*
X181463390Y-68859714D01*
X181463390Y-68859714D02*
X182034819Y-69431142D01*
X182034819Y-69431142D02*
X182034819Y-68812095D01*
X169819819Y-85210666D02*
X169343628Y-85543999D01*
X169819819Y-85782094D02*
X168819819Y-85782094D01*
X168819819Y-85782094D02*
X168819819Y-85401142D01*
X168819819Y-85401142D02*
X168867438Y-85305904D01*
X168867438Y-85305904D02*
X168915057Y-85258285D01*
X168915057Y-85258285D02*
X169010295Y-85210666D01*
X169010295Y-85210666D02*
X169153152Y-85210666D01*
X169153152Y-85210666D02*
X169248390Y-85258285D01*
X169248390Y-85258285D02*
X169296009Y-85305904D01*
X169296009Y-85305904D02*
X169343628Y-85401142D01*
X169343628Y-85401142D02*
X169343628Y-85782094D01*
X168819819Y-84305904D02*
X168819819Y-84782094D01*
X168819819Y-84782094D02*
X169296009Y-84829713D01*
X169296009Y-84829713D02*
X169248390Y-84782094D01*
X169248390Y-84782094D02*
X169200771Y-84686856D01*
X169200771Y-84686856D02*
X169200771Y-84448761D01*
X169200771Y-84448761D02*
X169248390Y-84353523D01*
X169248390Y-84353523D02*
X169296009Y-84305904D01*
X169296009Y-84305904D02*
X169391247Y-84258285D01*
X169391247Y-84258285D02*
X169629342Y-84258285D01*
X169629342Y-84258285D02*
X169724580Y-84305904D01*
X169724580Y-84305904D02*
X169772200Y-84353523D01*
X169772200Y-84353523D02*
X169819819Y-84448761D01*
X169819819Y-84448761D02*
X169819819Y-84686856D01*
X169819819Y-84686856D02*
X169772200Y-84782094D01*
X169772200Y-84782094D02*
X169724580Y-84829713D01*
X184354819Y-87642857D02*
X183878628Y-87976190D01*
X184354819Y-88214285D02*
X183354819Y-88214285D01*
X183354819Y-88214285D02*
X183354819Y-87833333D01*
X183354819Y-87833333D02*
X183402438Y-87738095D01*
X183402438Y-87738095D02*
X183450057Y-87690476D01*
X183450057Y-87690476D02*
X183545295Y-87642857D01*
X183545295Y-87642857D02*
X183688152Y-87642857D01*
X183688152Y-87642857D02*
X183783390Y-87690476D01*
X183783390Y-87690476D02*
X183831009Y-87738095D01*
X183831009Y-87738095D02*
X183878628Y-87833333D01*
X183878628Y-87833333D02*
X183878628Y-88214285D01*
X184354819Y-86690476D02*
X184354819Y-87261904D01*
X184354819Y-86976190D02*
X183354819Y-86976190D01*
X183354819Y-86976190D02*
X183497676Y-87071428D01*
X183497676Y-87071428D02*
X183592914Y-87166666D01*
X183592914Y-87166666D02*
X183640533Y-87261904D01*
X183783390Y-86119047D02*
X183735771Y-86214285D01*
X183735771Y-86214285D02*
X183688152Y-86261904D01*
X183688152Y-86261904D02*
X183592914Y-86309523D01*
X183592914Y-86309523D02*
X183545295Y-86309523D01*
X183545295Y-86309523D02*
X183450057Y-86261904D01*
X183450057Y-86261904D02*
X183402438Y-86214285D01*
X183402438Y-86214285D02*
X183354819Y-86119047D01*
X183354819Y-86119047D02*
X183354819Y-85928571D01*
X183354819Y-85928571D02*
X183402438Y-85833333D01*
X183402438Y-85833333D02*
X183450057Y-85785714D01*
X183450057Y-85785714D02*
X183545295Y-85738095D01*
X183545295Y-85738095D02*
X183592914Y-85738095D01*
X183592914Y-85738095D02*
X183688152Y-85785714D01*
X183688152Y-85785714D02*
X183735771Y-85833333D01*
X183735771Y-85833333D02*
X183783390Y-85928571D01*
X183783390Y-85928571D02*
X183783390Y-86119047D01*
X183783390Y-86119047D02*
X183831009Y-86214285D01*
X183831009Y-86214285D02*
X183878628Y-86261904D01*
X183878628Y-86261904D02*
X183973866Y-86309523D01*
X183973866Y-86309523D02*
X184164342Y-86309523D01*
X184164342Y-86309523D02*
X184259580Y-86261904D01*
X184259580Y-86261904D02*
X184307200Y-86214285D01*
X184307200Y-86214285D02*
X184354819Y-86119047D01*
X184354819Y-86119047D02*
X184354819Y-85928571D01*
X184354819Y-85928571D02*
X184307200Y-85833333D01*
X184307200Y-85833333D02*
X184259580Y-85785714D01*
X184259580Y-85785714D02*
X184164342Y-85738095D01*
X184164342Y-85738095D02*
X183973866Y-85738095D01*
X183973866Y-85738095D02*
X183878628Y-85785714D01*
X183878628Y-85785714D02*
X183831009Y-85833333D01*
X183831009Y-85833333D02*
X183783390Y-85928571D01*
X174573095Y-71178819D02*
X174573095Y-71988342D01*
X174573095Y-71988342D02*
X174620714Y-72083580D01*
X174620714Y-72083580D02*
X174668333Y-72131200D01*
X174668333Y-72131200D02*
X174763571Y-72178819D01*
X174763571Y-72178819D02*
X174954047Y-72178819D01*
X174954047Y-72178819D02*
X175049285Y-72131200D01*
X175049285Y-72131200D02*
X175096904Y-72083580D01*
X175096904Y-72083580D02*
X175144523Y-71988342D01*
X175144523Y-71988342D02*
X175144523Y-71178819D01*
X176049285Y-71512152D02*
X176049285Y-72178819D01*
X175811190Y-71131200D02*
X175573095Y-71845485D01*
X175573095Y-71845485D02*
X176192142Y-71845485D01*
X180125167Y-110500200D02*
X180268024Y-110547819D01*
X180268024Y-110547819D02*
X180506119Y-110547819D01*
X180506119Y-110547819D02*
X180601357Y-110500200D01*
X180601357Y-110500200D02*
X180648976Y-110452580D01*
X180648976Y-110452580D02*
X180696595Y-110357342D01*
X180696595Y-110357342D02*
X180696595Y-110262104D01*
X180696595Y-110262104D02*
X180648976Y-110166866D01*
X180648976Y-110166866D02*
X180601357Y-110119247D01*
X180601357Y-110119247D02*
X180506119Y-110071628D01*
X180506119Y-110071628D02*
X180315643Y-110024009D01*
X180315643Y-110024009D02*
X180220405Y-109976390D01*
X180220405Y-109976390D02*
X180172786Y-109928771D01*
X180172786Y-109928771D02*
X180125167Y-109833533D01*
X180125167Y-109833533D02*
X180125167Y-109738295D01*
X180125167Y-109738295D02*
X180172786Y-109643057D01*
X180172786Y-109643057D02*
X180220405Y-109595438D01*
X180220405Y-109595438D02*
X180315643Y-109547819D01*
X180315643Y-109547819D02*
X180553738Y-109547819D01*
X180553738Y-109547819D02*
X180696595Y-109595438D01*
X181029929Y-109547819D02*
X181268024Y-110547819D01*
X181268024Y-110547819D02*
X181458500Y-109833533D01*
X181458500Y-109833533D02*
X181648976Y-110547819D01*
X181648976Y-110547819D02*
X181887072Y-109547819D01*
X182791833Y-110547819D02*
X182220405Y-110547819D01*
X182506119Y-110547819D02*
X182506119Y-109547819D01*
X182506119Y-109547819D02*
X182410881Y-109690676D01*
X182410881Y-109690676D02*
X182315643Y-109785914D01*
X182315643Y-109785914D02*
X182220405Y-109833533D01*
D12*
%TO.C,U3*%
X178993500Y-95027000D02*
X177113500Y-95027000D01*
X178993500Y-95027000D02*
X180873500Y-95027000D01*
X178993500Y-100207000D02*
X177113500Y-100207000D01*
X178993500Y-100207000D02*
X180873500Y-100207000D01*
X176291000Y-95127000D02*
X176051000Y-94797000D01*
X176531000Y-94797000D01*
X176291000Y-95127000D01*
G36*
X176291000Y-95127000D02*
G01*
X176051000Y-94797000D01*
X176531000Y-94797000D01*
X176291000Y-95127000D01*
G37*
%TO.C,D2*%
X186308500Y-129778000D02*
X186958500Y-129778000D01*
X186958500Y-128658000D02*
X186958500Y-130898000D01*
X186958500Y-130898000D02*
X191198500Y-130898000D01*
X190358500Y-130898000D02*
X190358500Y-128658000D01*
X190478500Y-130898000D02*
X190478500Y-128658000D01*
X190598500Y-130898000D02*
X190598500Y-128658000D01*
X191198500Y-128658000D02*
X186958500Y-128658000D01*
X191198500Y-130898000D02*
X191198500Y-128658000D01*
X191848500Y-129778000D02*
X191198500Y-129778000D01*
%TO.C,U1*%
X142399000Y-113727000D02*
X142399000Y-111777000D01*
X142399000Y-113727000D02*
X142399000Y-117177000D01*
X151269000Y-113727000D02*
X151269000Y-111777000D01*
X151269000Y-113727000D02*
X151269000Y-115677000D01*
%TO.C,J3*%
X130750000Y-63450000D02*
X132080000Y-63450000D01*
X130750000Y-64780000D02*
X130750000Y-63450000D01*
X130750000Y-66050000D02*
X130750000Y-73730000D01*
X130750000Y-66050000D02*
X133410000Y-66050000D01*
X130750000Y-73730000D02*
X133410000Y-73730000D01*
X133410000Y-66050000D02*
X133410000Y-73730000D01*
%TO.C,TP6*%
X170887000Y-90872000D02*
X170887000Y-93532000D01*
X173487000Y-90872000D02*
X170887000Y-90872000D01*
X173487000Y-90872000D02*
X173487000Y-93532000D01*
X173487000Y-93532000D02*
X170887000Y-93532000D01*
X174757000Y-90872000D02*
X176087000Y-90872000D01*
X176087000Y-90872000D02*
X176087000Y-92202000D01*
%TO.C,C10*%
X140745252Y-107912000D02*
X140222748Y-107912000D01*
X140745252Y-109382000D02*
X140222748Y-109382000D01*
%TO.C,C2*%
X138479000Y-116528252D02*
X138479000Y-116005748D01*
X139949000Y-116528252D02*
X139949000Y-116005748D01*
%TO.C,C11*%
X149845752Y-128805000D02*
X149323248Y-128805000D01*
X149845752Y-130275000D02*
X149323248Y-130275000D01*
%TO.C,C19*%
X134088000Y-92002349D02*
X131323000Y-92002349D01*
X134088000Y-92042349D02*
X131338000Y-92042349D01*
X134088000Y-92082349D02*
X131354000Y-92082349D01*
X134088000Y-92122349D02*
X131371000Y-92122349D01*
X134088000Y-92162349D02*
X131388000Y-92162349D01*
X134088000Y-92202349D02*
X131406000Y-92202349D01*
X134088000Y-92242349D02*
X131424000Y-92242349D01*
X134088000Y-92282349D02*
X131442000Y-92282349D01*
X134088000Y-92322349D02*
X131462000Y-92322349D01*
X134088000Y-92362349D02*
X131481000Y-92362349D01*
X134088000Y-92402349D02*
X131501000Y-92402349D01*
X134088000Y-92442349D02*
X131522000Y-92442349D01*
X134088000Y-92482349D02*
X131544000Y-92482349D01*
X134088000Y-92522349D02*
X131566000Y-92522349D01*
X134088000Y-92562349D02*
X131588000Y-92562349D01*
X134088000Y-92602349D02*
X131611000Y-92602349D01*
X134088000Y-92642349D02*
X131635000Y-92642349D01*
X134088000Y-92682349D02*
X131659000Y-92682349D01*
X134088000Y-92722349D02*
X131684000Y-92722349D01*
X134088000Y-92762349D02*
X131710000Y-92762349D01*
X134088000Y-92802349D02*
X131736000Y-92802349D01*
X134088000Y-92842349D02*
X131763000Y-92842349D01*
X134088000Y-92882349D02*
X131790000Y-92882349D01*
X134088000Y-92922349D02*
X131819000Y-92922349D01*
X134088000Y-92962349D02*
X131848000Y-92962349D01*
X134088000Y-93002349D02*
X131878000Y-93002349D01*
X134088000Y-93042349D02*
X131908000Y-93042349D01*
X134088000Y-93082349D02*
X131939000Y-93082349D01*
X134088000Y-93122349D02*
X131972000Y-93122349D01*
X134088000Y-93162349D02*
X132004000Y-93162349D01*
X134088000Y-93202349D02*
X132038000Y-93202349D01*
X134088000Y-93242349D02*
X132073000Y-93242349D01*
X134088000Y-93282349D02*
X132109000Y-93282349D01*
X134088000Y-93322349D02*
X132145000Y-93322349D01*
X134088000Y-93362349D02*
X132183000Y-93362349D01*
X134088000Y-93402349D02*
X132221000Y-93402349D01*
X134088000Y-93442349D02*
X132261000Y-93442349D01*
X134088000Y-93482349D02*
X132302000Y-93482349D01*
X134088000Y-93522349D02*
X132344000Y-93522349D01*
X134088000Y-93562349D02*
X132387000Y-93562349D01*
X134088000Y-93602349D02*
X132431000Y-93602349D01*
X134088000Y-93642349D02*
X132477000Y-93642349D01*
X134088000Y-93682349D02*
X132524000Y-93682349D01*
X134088000Y-93722349D02*
X132572000Y-93722349D01*
X134088000Y-93762349D02*
X132623000Y-93762349D01*
X134088000Y-93802349D02*
X132674000Y-93802349D01*
X134088000Y-93842349D02*
X132728000Y-93842349D01*
X134088000Y-93882349D02*
X132783000Y-93882349D01*
X134088000Y-93922349D02*
X132841000Y-93922349D01*
X134088000Y-93962349D02*
X132900000Y-93962349D01*
X134088000Y-94002349D02*
X132962000Y-94002349D01*
X134088000Y-94042349D02*
X133026000Y-94042349D01*
X135661000Y-94602349D02*
X134595000Y-94602349D01*
X135896000Y-94562349D02*
X134360000Y-94562349D01*
X136076000Y-94522349D02*
X134180000Y-94522349D01*
X136226000Y-94482349D02*
X134030000Y-94482349D01*
X136357000Y-94442349D02*
X133899000Y-94442349D01*
X136474000Y-94402349D02*
X133782000Y-94402349D01*
X136581000Y-94362349D02*
X133675000Y-94362349D01*
X136680000Y-94322349D02*
X133576000Y-94322349D01*
X136773000Y-94282349D02*
X133483000Y-94282349D01*
X136859000Y-94242349D02*
X133397000Y-94242349D01*
X136941000Y-94202349D02*
X133315000Y-94202349D01*
X137018000Y-94162349D02*
X133238000Y-94162349D01*
X137092000Y-94122349D02*
X133164000Y-94122349D01*
X137162000Y-94082349D02*
X133094000Y-94082349D01*
X137230000Y-94042349D02*
X136168000Y-94042349D01*
X137294000Y-94002349D02*
X136168000Y-94002349D01*
X137356000Y-93962349D02*
X136168000Y-93962349D01*
X137415000Y-93922349D02*
X136168000Y-93922349D01*
X137443000Y-86111651D02*
X137443000Y-86911651D01*
X137473000Y-93882349D02*
X136168000Y-93882349D01*
X137528000Y-93842349D02*
X136168000Y-93842349D01*
X137582000Y-93802349D02*
X136168000Y-93802349D01*
X137633000Y-93762349D02*
X136168000Y-93762349D01*
X137684000Y-93722349D02*
X136168000Y-93722349D01*
X137732000Y-93682349D02*
X136168000Y-93682349D01*
X137779000Y-93642349D02*
X136168000Y-93642349D01*
X137825000Y-93602349D02*
X136168000Y-93602349D01*
X137843000Y-86511651D02*
X137043000Y-86511651D01*
X137869000Y-93562349D02*
X136168000Y-93562349D01*
X137912000Y-93522349D02*
X136168000Y-93522349D01*
X137954000Y-93482349D02*
X136168000Y-93482349D01*
X137995000Y-93442349D02*
X136168000Y-93442349D01*
X138035000Y-93402349D02*
X136168000Y-93402349D01*
X138073000Y-93362349D02*
X136168000Y-93362349D01*
X138111000Y-93322349D02*
X136168000Y-93322349D01*
X138147000Y-93282349D02*
X136168000Y-93282349D01*
X138183000Y-93242349D02*
X136168000Y-93242349D01*
X138218000Y-93202349D02*
X136168000Y-93202349D01*
X138252000Y-93162349D02*
X136168000Y-93162349D01*
X138284000Y-93122349D02*
X136168000Y-93122349D01*
X138317000Y-93082349D02*
X136168000Y-93082349D01*
X138348000Y-93042349D02*
X136168000Y-93042349D01*
X138378000Y-93002349D02*
X136168000Y-93002349D01*
X138408000Y-92962349D02*
X136168000Y-92962349D01*
X138437000Y-92922349D02*
X136168000Y-92922349D01*
X138466000Y-92882349D02*
X136168000Y-92882349D01*
X138493000Y-92842349D02*
X136168000Y-92842349D01*
X138520000Y-92802349D02*
X136168000Y-92802349D01*
X138546000Y-92762349D02*
X136168000Y-92762349D01*
X138572000Y-92722349D02*
X136168000Y-92722349D01*
X138597000Y-92682349D02*
X136168000Y-92682349D01*
X138621000Y-92642349D02*
X136168000Y-92642349D01*
X138645000Y-92602349D02*
X136168000Y-92602349D01*
X138668000Y-92562349D02*
X136168000Y-92562349D01*
X138690000Y-92522349D02*
X136168000Y-92522349D01*
X138712000Y-92482349D02*
X136168000Y-92482349D01*
X138734000Y-92442349D02*
X136168000Y-92442349D01*
X138755000Y-92402349D02*
X136168000Y-92402349D01*
X138775000Y-92362349D02*
X136168000Y-92362349D01*
X138794000Y-92322349D02*
X136168000Y-92322349D01*
X138814000Y-92282349D02*
X136168000Y-92282349D01*
X138832000Y-92242349D02*
X136168000Y-92242349D01*
X138850000Y-92202349D02*
X136168000Y-92202349D01*
X138868000Y-92162349D02*
X136168000Y-92162349D01*
X138885000Y-92122349D02*
X136168000Y-92122349D01*
X138902000Y-92082349D02*
X136168000Y-92082349D01*
X138918000Y-92042349D02*
X136168000Y-92042349D01*
X138933000Y-92002349D02*
X136168000Y-92002349D01*
X138949000Y-91962349D02*
X131307000Y-91962349D01*
X138963000Y-91922349D02*
X131293000Y-91922349D01*
X138978000Y-91882349D02*
X131278000Y-91882349D01*
X138991000Y-91842349D02*
X131265000Y-91842349D01*
X139005000Y-91802349D02*
X131251000Y-91802349D01*
X139017000Y-91762349D02*
X131239000Y-91762349D01*
X139030000Y-91722349D02*
X131226000Y-91722349D01*
X139042000Y-91682349D02*
X131214000Y-91682349D01*
X139053000Y-91642349D02*
X131203000Y-91642349D01*
X139064000Y-91602349D02*
X131192000Y-91602349D01*
X139075000Y-91562349D02*
X131181000Y-91562349D01*
X139085000Y-91522349D02*
X131171000Y-91522349D01*
X139095000Y-91482349D02*
X131161000Y-91482349D01*
X139104000Y-91442349D02*
X131152000Y-91442349D01*
X139113000Y-91402349D02*
X131143000Y-91402349D01*
X139122000Y-91362349D02*
X131134000Y-91362349D01*
X139130000Y-91322349D02*
X131126000Y-91322349D01*
X139138000Y-91282349D02*
X131118000Y-91282349D01*
X139145000Y-91242349D02*
X131111000Y-91242349D01*
X139152000Y-91201349D02*
X131104000Y-91201349D01*
X139158000Y-91161349D02*
X131098000Y-91161349D01*
X139165000Y-91121349D02*
X131091000Y-91121349D01*
X139170000Y-91081349D02*
X131086000Y-91081349D01*
X139176000Y-91041349D02*
X131080000Y-91041349D01*
X139180000Y-91001349D02*
X131076000Y-91001349D01*
X139185000Y-90961349D02*
X131071000Y-90961349D01*
X139189000Y-90921349D02*
X131067000Y-90921349D01*
X139193000Y-90881349D02*
X131063000Y-90881349D01*
X139196000Y-90841349D02*
X131060000Y-90841349D01*
X139199000Y-90801349D02*
X131057000Y-90801349D01*
X139202000Y-90761349D02*
X131054000Y-90761349D01*
X139204000Y-90721349D02*
X131052000Y-90721349D01*
X139205000Y-90681349D02*
X131051000Y-90681349D01*
X139207000Y-90641349D02*
X131049000Y-90641349D01*
X139208000Y-90521349D02*
X131048000Y-90521349D01*
X139208000Y-90561349D02*
X131048000Y-90561349D01*
X139208000Y-90601349D02*
X131048000Y-90601349D01*
X139248000Y-90521349D02*
G75*
G02*
X131008000Y-90521349I-4120000J0D01*
G01*
X131008000Y-90521349D02*
G75*
G02*
X139248000Y-90521349I4120000J0D01*
G01*
%TO.C,R7*%
X183998000Y-71370936D02*
X183998000Y-71825064D01*
X185468000Y-71370936D02*
X185468000Y-71825064D01*
%TO.C,R15*%
X183161000Y-113495064D02*
X183161000Y-113040936D01*
X184631000Y-113495064D02*
X184631000Y-113040936D01*
%TO.C,R14*%
X178081000Y-113495064D02*
X178081000Y-113040936D01*
X179551000Y-113495064D02*
X179551000Y-113040936D01*
%TO.C,C9*%
X180845000Y-79225252D02*
X180845000Y-78702748D01*
X182315000Y-79225252D02*
X182315000Y-78702748D01*
%TO.C,R10*%
X185773500Y-98114064D02*
X185773500Y-97659936D01*
X187243500Y-98114064D02*
X187243500Y-97659936D01*
%TO.C,R16*%
X192813000Y-121131064D02*
X192813000Y-120676936D01*
X194283000Y-121131064D02*
X194283000Y-120676936D01*
%TO.C,R11*%
X165453500Y-96574064D02*
X165453500Y-96119936D01*
X166923500Y-96574064D02*
X166923500Y-96119936D01*
%TO.C,C4*%
X153697000Y-75953252D02*
X153697000Y-75430748D01*
X155167000Y-75953252D02*
X155167000Y-75430748D01*
%TO.C,R9*%
X189003000Y-97546936D02*
X189003000Y-98001064D01*
X190473000Y-97546936D02*
X190473000Y-98001064D01*
%TO.C,C6*%
X172520000Y-84044000D02*
X173210000Y-84044000D01*
X173210000Y-82624000D02*
X173210000Y-85464000D01*
X173210000Y-85464000D02*
X177250000Y-85464000D01*
X177250000Y-82624000D02*
X173210000Y-82624000D01*
X177250000Y-85464000D02*
X177250000Y-82624000D01*
X177940000Y-84044000D02*
X177250000Y-84044000D01*
%TO.C,C14*%
X184439752Y-91802000D02*
X183917248Y-91802000D01*
X184439752Y-93272000D02*
X183917248Y-93272000D01*
%TO.C,C7*%
X172565000Y-87219000D02*
X173255000Y-87219000D01*
X173255000Y-85799000D02*
X173255000Y-88639000D01*
X173255000Y-88639000D02*
X177295000Y-88639000D01*
X177295000Y-85799000D02*
X173255000Y-85799000D01*
X177295000Y-88639000D02*
X177295000Y-85799000D01*
X177985000Y-87219000D02*
X177295000Y-87219000D01*
%TO.C,J1*%
X162754000Y-65338000D02*
X162754000Y-64008000D01*
X164084000Y-65338000D02*
X162754000Y-65338000D01*
X165354000Y-62678000D02*
X173034000Y-62678000D01*
X165354000Y-65338000D02*
X165354000Y-62678000D01*
X165354000Y-65338000D02*
X173034000Y-65338000D01*
X173034000Y-65338000D02*
X173034000Y-62678000D01*
%TO.C,C18*%
X174268500Y-115434252D02*
X174268500Y-114911748D01*
X175738500Y-115434252D02*
X175738500Y-114911748D01*
%TO.C,C20*%
X145264000Y-92002349D02*
X142499000Y-92002349D01*
X145264000Y-92042349D02*
X142514000Y-92042349D01*
X145264000Y-92082349D02*
X142530000Y-92082349D01*
X145264000Y-92122349D02*
X142547000Y-92122349D01*
X145264000Y-92162349D02*
X142564000Y-92162349D01*
X145264000Y-92202349D02*
X142582000Y-92202349D01*
X145264000Y-92242349D02*
X142600000Y-92242349D01*
X145264000Y-92282349D02*
X142618000Y-92282349D01*
X145264000Y-92322349D02*
X142638000Y-92322349D01*
X145264000Y-92362349D02*
X142657000Y-92362349D01*
X145264000Y-92402349D02*
X142677000Y-92402349D01*
X145264000Y-92442349D02*
X142698000Y-92442349D01*
X145264000Y-92482349D02*
X142720000Y-92482349D01*
X145264000Y-92522349D02*
X142742000Y-92522349D01*
X145264000Y-92562349D02*
X142764000Y-92562349D01*
X145264000Y-92602349D02*
X142787000Y-92602349D01*
X145264000Y-92642349D02*
X142811000Y-92642349D01*
X145264000Y-92682349D02*
X142835000Y-92682349D01*
X145264000Y-92722349D02*
X142860000Y-92722349D01*
X145264000Y-92762349D02*
X142886000Y-92762349D01*
X145264000Y-92802349D02*
X142912000Y-92802349D01*
X145264000Y-92842349D02*
X142939000Y-92842349D01*
X145264000Y-92882349D02*
X142966000Y-92882349D01*
X145264000Y-92922349D02*
X142995000Y-92922349D01*
X145264000Y-92962349D02*
X143024000Y-92962349D01*
X145264000Y-93002349D02*
X143054000Y-93002349D01*
X145264000Y-93042349D02*
X143084000Y-93042349D01*
X145264000Y-93082349D02*
X143115000Y-93082349D01*
X145264000Y-93122349D02*
X143148000Y-93122349D01*
X145264000Y-93162349D02*
X143180000Y-93162349D01*
X145264000Y-93202349D02*
X143214000Y-93202349D01*
X145264000Y-93242349D02*
X143249000Y-93242349D01*
X145264000Y-93282349D02*
X143285000Y-93282349D01*
X145264000Y-93322349D02*
X143321000Y-93322349D01*
X145264000Y-93362349D02*
X143359000Y-93362349D01*
X145264000Y-93402349D02*
X143397000Y-93402349D01*
X145264000Y-93442349D02*
X143437000Y-93442349D01*
X145264000Y-93482349D02*
X143478000Y-93482349D01*
X145264000Y-93522349D02*
X143520000Y-93522349D01*
X145264000Y-93562349D02*
X143563000Y-93562349D01*
X145264000Y-93602349D02*
X143607000Y-93602349D01*
X145264000Y-93642349D02*
X143653000Y-93642349D01*
X145264000Y-93682349D02*
X143700000Y-93682349D01*
X145264000Y-93722349D02*
X143748000Y-93722349D01*
X145264000Y-93762349D02*
X143799000Y-93762349D01*
X145264000Y-93802349D02*
X143850000Y-93802349D01*
X145264000Y-93842349D02*
X143904000Y-93842349D01*
X145264000Y-93882349D02*
X143959000Y-93882349D01*
X145264000Y-93922349D02*
X144017000Y-93922349D01*
X145264000Y-93962349D02*
X144076000Y-93962349D01*
X145264000Y-94002349D02*
X144138000Y-94002349D01*
X145264000Y-94042349D02*
X144202000Y-94042349D01*
X146837000Y-94602349D02*
X145771000Y-94602349D01*
X147072000Y-94562349D02*
X145536000Y-94562349D01*
X147252000Y-94522349D02*
X145356000Y-94522349D01*
X147402000Y-94482349D02*
X145206000Y-94482349D01*
X147533000Y-94442349D02*
X145075000Y-94442349D01*
X147650000Y-94402349D02*
X144958000Y-94402349D01*
X147757000Y-94362349D02*
X144851000Y-94362349D01*
X147856000Y-94322349D02*
X144752000Y-94322349D01*
X147949000Y-94282349D02*
X144659000Y-94282349D01*
X148035000Y-94242349D02*
X144573000Y-94242349D01*
X148117000Y-94202349D02*
X144491000Y-94202349D01*
X148194000Y-94162349D02*
X144414000Y-94162349D01*
X148268000Y-94122349D02*
X144340000Y-94122349D01*
X148338000Y-94082349D02*
X144270000Y-94082349D01*
X148406000Y-94042349D02*
X147344000Y-94042349D01*
X148470000Y-94002349D02*
X147344000Y-94002349D01*
X148532000Y-93962349D02*
X147344000Y-93962349D01*
X148591000Y-93922349D02*
X147344000Y-93922349D01*
X148619000Y-86111651D02*
X148619000Y-86911651D01*
X148649000Y-93882349D02*
X147344000Y-93882349D01*
X148704000Y-93842349D02*
X147344000Y-93842349D01*
X148758000Y-93802349D02*
X147344000Y-93802349D01*
X148809000Y-93762349D02*
X147344000Y-93762349D01*
X148860000Y-93722349D02*
X147344000Y-93722349D01*
X148908000Y-93682349D02*
X147344000Y-93682349D01*
X148955000Y-93642349D02*
X147344000Y-93642349D01*
X149001000Y-93602349D02*
X147344000Y-93602349D01*
X149019000Y-86511651D02*
X148219000Y-86511651D01*
X149045000Y-93562349D02*
X147344000Y-93562349D01*
X149088000Y-93522349D02*
X147344000Y-93522349D01*
X149130000Y-93482349D02*
X147344000Y-93482349D01*
X149171000Y-93442349D02*
X147344000Y-93442349D01*
X149211000Y-93402349D02*
X147344000Y-93402349D01*
X149249000Y-93362349D02*
X147344000Y-93362349D01*
X149287000Y-93322349D02*
X147344000Y-93322349D01*
X149323000Y-93282349D02*
X147344000Y-93282349D01*
X149359000Y-93242349D02*
X147344000Y-93242349D01*
X149394000Y-93202349D02*
X147344000Y-93202349D01*
X149428000Y-93162349D02*
X147344000Y-93162349D01*
X149460000Y-93122349D02*
X147344000Y-93122349D01*
X149493000Y-93082349D02*
X147344000Y-93082349D01*
X149524000Y-93042349D02*
X147344000Y-93042349D01*
X149554000Y-93002349D02*
X147344000Y-93002349D01*
X149584000Y-92962349D02*
X147344000Y-92962349D01*
X149613000Y-92922349D02*
X147344000Y-92922349D01*
X149642000Y-92882349D02*
X147344000Y-92882349D01*
X149669000Y-92842349D02*
X147344000Y-92842349D01*
X149696000Y-92802349D02*
X147344000Y-92802349D01*
X149722000Y-92762349D02*
X147344000Y-92762349D01*
X149748000Y-92722349D02*
X147344000Y-92722349D01*
X149773000Y-92682349D02*
X147344000Y-92682349D01*
X149797000Y-92642349D02*
X147344000Y-92642349D01*
X149821000Y-92602349D02*
X147344000Y-92602349D01*
X149844000Y-92562349D02*
X147344000Y-92562349D01*
X149866000Y-92522349D02*
X147344000Y-92522349D01*
X149888000Y-92482349D02*
X147344000Y-92482349D01*
X149910000Y-92442349D02*
X147344000Y-92442349D01*
X149931000Y-92402349D02*
X147344000Y-92402349D01*
X149951000Y-92362349D02*
X147344000Y-92362349D01*
X149970000Y-92322349D02*
X147344000Y-92322349D01*
X149990000Y-92282349D02*
X147344000Y-92282349D01*
X150008000Y-92242349D02*
X147344000Y-92242349D01*
X150026000Y-92202349D02*
X147344000Y-92202349D01*
X150044000Y-92162349D02*
X147344000Y-92162349D01*
X150061000Y-92122349D02*
X147344000Y-92122349D01*
X150078000Y-92082349D02*
X147344000Y-92082349D01*
X150094000Y-92042349D02*
X147344000Y-92042349D01*
X150109000Y-92002349D02*
X147344000Y-92002349D01*
X150125000Y-91962349D02*
X142483000Y-91962349D01*
X150139000Y-91922349D02*
X142469000Y-91922349D01*
X150154000Y-91882349D02*
X142454000Y-91882349D01*
X150167000Y-91842349D02*
X142441000Y-91842349D01*
X150181000Y-91802349D02*
X142427000Y-91802349D01*
X150193000Y-91762349D02*
X142415000Y-91762349D01*
X150206000Y-91722349D02*
X142402000Y-91722349D01*
X150218000Y-91682349D02*
X142390000Y-91682349D01*
X150229000Y-91642349D02*
X142379000Y-91642349D01*
X150240000Y-91602349D02*
X142368000Y-91602349D01*
X150251000Y-91562349D02*
X142357000Y-91562349D01*
X150261000Y-91522349D02*
X142347000Y-91522349D01*
X150271000Y-91482349D02*
X142337000Y-91482349D01*
X150280000Y-91442349D02*
X142328000Y-91442349D01*
X150289000Y-91402349D02*
X142319000Y-91402349D01*
X150298000Y-91362349D02*
X142310000Y-91362349D01*
X150306000Y-91322349D02*
X142302000Y-91322349D01*
X150314000Y-91282349D02*
X142294000Y-91282349D01*
X150321000Y-91242349D02*
X142287000Y-91242349D01*
X150328000Y-91201349D02*
X142280000Y-91201349D01*
X150334000Y-91161349D02*
X142274000Y-91161349D01*
X150341000Y-91121349D02*
X142267000Y-91121349D01*
X150346000Y-91081349D02*
X142262000Y-91081349D01*
X150352000Y-91041349D02*
X142256000Y-91041349D01*
X150356000Y-91001349D02*
X142252000Y-91001349D01*
X150361000Y-90961349D02*
X142247000Y-90961349D01*
X150365000Y-90921349D02*
X142243000Y-90921349D01*
X150369000Y-90881349D02*
X142239000Y-90881349D01*
X150372000Y-90841349D02*
X142236000Y-90841349D01*
X150375000Y-90801349D02*
X142233000Y-90801349D01*
X150378000Y-90761349D02*
X142230000Y-90761349D01*
X150380000Y-90721349D02*
X142228000Y-90721349D01*
X150381000Y-90681349D02*
X142227000Y-90681349D01*
X150383000Y-90641349D02*
X142225000Y-90641349D01*
X150384000Y-90521349D02*
X142224000Y-90521349D01*
X150384000Y-90561349D02*
X142224000Y-90561349D01*
X150384000Y-90601349D02*
X142224000Y-90601349D01*
X150424000Y-90521349D02*
G75*
G02*
X142184000Y-90521349I-4120000J0D01*
G01*
X142184000Y-90521349D02*
G75*
G02*
X150424000Y-90521349I4120000J0D01*
G01*
%TO.C,C1*%
X133984000Y-111707000D02*
X133984000Y-115747000D01*
X133984000Y-115747000D02*
X136824000Y-115747000D01*
X135404000Y-111017000D02*
X135404000Y-111707000D01*
X135404000Y-116437000D02*
X135404000Y-115747000D01*
X136824000Y-111707000D02*
X133984000Y-111707000D01*
X136824000Y-115747000D02*
X136824000Y-111707000D01*
%TO.C,C8*%
X164930000Y-70104000D02*
X165620000Y-70104000D01*
X165620000Y-68684000D02*
X165620000Y-71524000D01*
X165620000Y-71524000D02*
X169660000Y-71524000D01*
X169660000Y-68684000D02*
X165620000Y-68684000D01*
X169660000Y-71524000D02*
X169660000Y-68684000D01*
X170350000Y-70104000D02*
X169660000Y-70104000D01*
%TO.C,C15*%
X171739752Y-99422000D02*
X171217248Y-99422000D01*
X171739752Y-100892000D02*
X171217248Y-100892000D01*
%TO.C,R17*%
X192813000Y-115543064D02*
X192813000Y-115088936D01*
X194283000Y-115543064D02*
X194283000Y-115088936D01*
%TO.C,R3*%
X156237000Y-66844936D02*
X156237000Y-67299064D01*
X157707000Y-66844936D02*
X157707000Y-67299064D01*
%TO.C,TP4*%
X186127000Y-100524000D02*
X186127000Y-103184000D01*
X188727000Y-100524000D02*
X186127000Y-100524000D01*
X188727000Y-100524000D02*
X188727000Y-103184000D01*
X188727000Y-103184000D02*
X186127000Y-103184000D01*
X189997000Y-100524000D02*
X191327000Y-100524000D01*
X191327000Y-100524000D02*
X191327000Y-101854000D01*
%TO.C,C17*%
X174271000Y-122419252D02*
X174271000Y-121896748D01*
X175741000Y-122419252D02*
X175741000Y-121896748D01*
%TO.C,TP7*%
X177232000Y-129473000D02*
X177232000Y-128143000D01*
X178562000Y-129473000D02*
X177232000Y-129473000D01*
X179832000Y-126813000D02*
X182432000Y-126813000D01*
X179832000Y-129473000D02*
X179832000Y-126813000D01*
X179832000Y-129473000D02*
X182432000Y-129473000D01*
X182432000Y-129473000D02*
X182432000Y-126813000D01*
%TO.C,TP3*%
X171238500Y-103043000D02*
X172568500Y-103043000D01*
X171238500Y-104373000D02*
X171238500Y-103043000D01*
X171238500Y-105643000D02*
X171238500Y-108243000D01*
X171238500Y-105643000D02*
X173898500Y-105643000D01*
X171238500Y-108243000D02*
X173898500Y-108243000D01*
X173898500Y-105643000D02*
X173898500Y-108243000D01*
%TO.C,R12*%
X169473500Y-96389936D02*
X169473500Y-96844064D01*
X170943500Y-96389936D02*
X170943500Y-96844064D01*
%TO.C,D4*%
X136930000Y-64770000D02*
X137580000Y-64770000D01*
X137580000Y-63650000D02*
X137580000Y-65890000D01*
X137580000Y-65890000D02*
X141820000Y-65890000D01*
X140980000Y-65890000D02*
X140980000Y-63650000D01*
X141100000Y-65890000D02*
X141100000Y-63650000D01*
X141220000Y-65890000D02*
X141220000Y-63650000D01*
X141820000Y-63650000D02*
X137580000Y-63650000D01*
X141820000Y-65890000D02*
X141820000Y-63650000D01*
X142470000Y-64770000D02*
X141820000Y-64770000D01*
%TO.C,TP1*%
X151730400Y-104195800D02*
X151730400Y-101595800D01*
X154390400Y-101595800D02*
X151730400Y-101595800D01*
X154390400Y-104195800D02*
X151730400Y-104195800D01*
X154390400Y-104195800D02*
X154390400Y-101595800D01*
X154390400Y-105465800D02*
X154390400Y-106795800D01*
X154390400Y-106795800D02*
X153060400Y-106795800D01*
%TO.C,R4*%
X156237000Y-75464936D02*
X156237000Y-75919064D01*
X157707000Y-75464936D02*
X157707000Y-75919064D01*
%TO.C,R6*%
X176272936Y-69339000D02*
X176727064Y-69339000D01*
X176272936Y-70809000D02*
X176727064Y-70809000D01*
%TO.C,C21*%
X160290000Y-102500000D02*
X160980000Y-102500000D01*
X160980000Y-101080000D02*
X160980000Y-103920000D01*
X160980000Y-103920000D02*
X165020000Y-103920000D01*
X165020000Y-101080000D02*
X160980000Y-101080000D01*
X165020000Y-103920000D02*
X165020000Y-101080000D01*
X165710000Y-102500000D02*
X165020000Y-102500000D01*
%TO.C,C13*%
X170411252Y-79499000D02*
X169888748Y-79499000D01*
X170411252Y-80969000D02*
X169888748Y-80969000D01*
%TO.C,D3*%
X136930000Y-72390000D02*
X137580000Y-72390000D01*
X137580000Y-71270000D02*
X137580000Y-73510000D01*
X137580000Y-73510000D02*
X141820000Y-73510000D01*
X138180000Y-71270000D02*
X138180000Y-73510000D01*
X138300000Y-71270000D02*
X138300000Y-73510000D01*
X138420000Y-71270000D02*
X138420000Y-73510000D01*
X141820000Y-71270000D02*
X137580000Y-71270000D01*
X141820000Y-73510000D02*
X141820000Y-71270000D01*
X142470000Y-72390000D02*
X141820000Y-72390000D01*
%TO.C,C5*%
X158020000Y-84044000D02*
X158710000Y-84044000D01*
X158710000Y-82624000D02*
X158710000Y-85464000D01*
X158710000Y-85464000D02*
X162750000Y-85464000D01*
X162750000Y-82624000D02*
X158710000Y-82624000D01*
X162750000Y-85464000D02*
X162750000Y-82624000D01*
X163440000Y-84044000D02*
X162750000Y-84044000D01*
%TO.C,R2*%
X152681000Y-70892936D02*
X152681000Y-71347064D01*
X154151000Y-70892936D02*
X154151000Y-71347064D01*
%TO.C,RV1*%
X188886000Y-75253000D02*
X188886000Y-76574000D01*
X188886000Y-75253000D02*
X192823000Y-75253000D01*
X188886000Y-79024000D02*
X188886000Y-79404000D01*
X188886000Y-81145000D02*
X188886000Y-81904000D01*
X188886000Y-83644000D02*
X188886000Y-85294000D01*
X188886000Y-85294000D02*
X192823000Y-85294000D01*
X197190000Y-75253000D02*
X201126000Y-75253000D01*
X197190000Y-85294000D02*
X201126000Y-85294000D01*
X201126000Y-75253000D02*
X201126000Y-85294000D01*
%TO.C,R13*%
X165453500Y-92494064D02*
X165453500Y-92039936D01*
X166923500Y-92494064D02*
X166923500Y-92039936D01*
%TO.C,R8*%
X181473936Y-66291000D02*
X181928064Y-66291000D01*
X181473936Y-67761000D02*
X181928064Y-67761000D01*
%TO.C,C16*%
X186971000Y-119879252D02*
X186971000Y-119356748D01*
X188441000Y-119879252D02*
X188441000Y-119356748D01*
%TO.C,U2*%
X144419000Y-123887000D02*
X144419000Y-121937000D01*
X144419000Y-123887000D02*
X144419000Y-125837000D01*
X154539000Y-123887000D02*
X154539000Y-121937000D01*
X154539000Y-123887000D02*
X154539000Y-125837000D01*
X154814000Y-121427000D02*
X154484000Y-121187000D01*
X154814000Y-120947000D01*
X154814000Y-121427000D01*
G36*
X154814000Y-121427000D02*
G01*
X154484000Y-121187000D01*
X154814000Y-120947000D01*
X154814000Y-121427000D01*
G37*
%TO.C,U5*%
X181356000Y-118298000D02*
X177831000Y-118298000D01*
X181356000Y-118298000D02*
X183236000Y-118298000D01*
X181356000Y-123478000D02*
X179476000Y-123478000D01*
X181356000Y-123478000D02*
X183236000Y-123478000D01*
%TO.C,Freq.1*%
X131894000Y-120722000D02*
X131894000Y-125792000D01*
X131894000Y-120722000D02*
X141664000Y-120722000D01*
X131894000Y-125792000D02*
X141664000Y-125792000D01*
X141664000Y-120722000D02*
X141664000Y-125792000D01*
%TO.C,D1*%
X186308500Y-126603000D02*
X186958500Y-126603000D01*
X186958500Y-125483000D02*
X186958500Y-127723000D01*
X186958500Y-127723000D02*
X191198500Y-127723000D01*
X190358500Y-127723000D02*
X190358500Y-125483000D01*
X190478500Y-127723000D02*
X190478500Y-125483000D01*
X190598500Y-127723000D02*
X190598500Y-125483000D01*
X191198500Y-125483000D02*
X186958500Y-125483000D01*
X191198500Y-127723000D02*
X191198500Y-125483000D01*
X191848500Y-126603000D02*
X191198500Y-126603000D01*
%TO.C,J2*%
X196790000Y-113208000D02*
X198120000Y-113208000D01*
X196790000Y-114538000D02*
X196790000Y-113208000D01*
X196790000Y-115808000D02*
X196790000Y-123488000D01*
X196790000Y-115808000D02*
X199450000Y-115808000D01*
X196790000Y-123488000D02*
X199450000Y-123488000D01*
X199450000Y-115808000D02*
X199450000Y-123488000D01*
%TO.C,R1*%
X152681000Y-67283064D02*
X152681000Y-66828936D01*
X154151000Y-67283064D02*
X154151000Y-66828936D01*
%TO.C,C3*%
X156237000Y-70858748D02*
X156237000Y-71381252D01*
X157707000Y-70858748D02*
X157707000Y-71381252D01*
%TO.C,TP5*%
X161048500Y-93747000D02*
X162378500Y-93747000D01*
X161048500Y-95077000D02*
X161048500Y-93747000D01*
X161048500Y-96347000D02*
X161048500Y-98947000D01*
X161048500Y-96347000D02*
X163708500Y-96347000D01*
X161048500Y-98947000D02*
X163708500Y-98947000D01*
X163708500Y-96347000D02*
X163708500Y-98947000D01*
%TO.C,C12*%
X180845000Y-74145252D02*
X180845000Y-73622748D01*
X182315000Y-74145252D02*
X182315000Y-73622748D01*
%TO.C,R5*%
X166980000Y-84816936D02*
X166980000Y-85271064D01*
X168450000Y-84816936D02*
X168450000Y-85271064D01*
%TO.C,R18*%
X182985000Y-86772936D02*
X182985000Y-87227064D01*
X181515000Y-86772936D02*
X181515000Y-87227064D01*
%TO.C,U4*%
X175335000Y-72564000D02*
X173455000Y-72564000D01*
X175335000Y-72564000D02*
X177215000Y-72564000D01*
X175335000Y-77744000D02*
X173455000Y-77744000D01*
X175335000Y-77744000D02*
X177215000Y-77744000D01*
X172632500Y-72664000D02*
X172392500Y-72334000D01*
X172872500Y-72334000D01*
X172632500Y-72664000D01*
G36*
X172632500Y-72664000D02*
G01*
X172392500Y-72334000D01*
X172872500Y-72334000D01*
X172632500Y-72664000D01*
G37*
%TO.C,SW1*%
X186568500Y-108913000D02*
X176348500Y-108913000D01*
X176348500Y-106193000D01*
X186568500Y-106193000D01*
X186568500Y-108913000D01*
%TD*%
M02*
