%TF.GenerationSoftware,KiCad,Pcbnew,9.0.4*%
%TF.CreationDate,2025-09-08T12:23:34+02:00*%
%TF.ProjectId,RelaisAddierer,52656c61-6973-4416-9464-69657265722e,0.1*%
%TF.SameCoordinates,Original*%
%TF.FileFunction,Soldermask,Top*%
%TF.FilePolarity,Negative*%
%FSLAX46Y46*%
G04 Gerber Fmt 4.6, Leading zero omitted, Abs format (unit mm)*
G04 Created by KiCad (PCBNEW 9.0.4) date 2025-09-08 12:23:34*
%MOMM*%
%LPD*%
G01*
G04 APERTURE LIST*
G04 Aperture macros list*
%AMRoundRect*
0 Rectangle with rounded corners*
0 $1 Rounding radius*
0 $2 $3 $4 $5 $6 $7 $8 $9 X,Y pos of 4 corners*
0 Add a 4 corners polygon primitive as box body*
4,1,4,$2,$3,$4,$5,$6,$7,$8,$9,$2,$3,0*
0 Add four circle primitives for the rounded corners*
1,1,$1+$1,$2,$3*
1,1,$1+$1,$4,$5*
1,1,$1+$1,$6,$7*
1,1,$1+$1,$8,$9*
0 Add four rect primitives between the rounded corners*
20,1,$1+$1,$2,$3,$4,$5,0*
20,1,$1+$1,$4,$5,$6,$7,0*
20,1,$1+$1,$6,$7,$8,$9,0*
20,1,$1+$1,$8,$9,$2,$3,0*%
%AMFreePoly0*
4,1,37,0.800000,0.796148,0.878414,0.796148,1.032228,0.765552,1.177117,0.705537,1.307515,0.618408,1.418408,0.507515,1.505537,0.377117,1.565552,0.232228,1.596148,0.078414,1.596148,-0.078414,1.565552,-0.232228,1.505537,-0.377117,1.418408,-0.507515,1.307515,-0.618408,1.177117,-0.705537,1.032228,-0.765552,0.878414,-0.796148,0.800000,-0.796148,0.800000,-0.800000,-1.400000,-0.800000,
-1.403843,-0.796157,-1.439018,-0.796157,-1.511114,-0.766294,-1.566294,-0.711114,-1.596157,-0.639018,-1.596157,-0.603843,-1.600000,-0.600000,-1.600000,0.600000,-1.596157,0.603843,-1.596157,0.639018,-1.566294,0.711114,-1.511114,0.766294,-1.439018,0.796157,-1.403843,0.796157,-1.400000,0.800000,0.800000,0.800000,0.800000,0.796148,0.800000,0.796148,$1*%
%AMFreePoly1*
4,1,37,1.403843,0.796157,1.439018,0.796157,1.511114,0.766294,1.566294,0.711114,1.596157,0.639018,1.596157,0.603843,1.600000,0.600000,1.600000,-0.600000,1.596157,-0.603843,1.596157,-0.639018,1.566294,-0.711114,1.511114,-0.766294,1.439018,-0.796157,1.403843,-0.796157,1.400000,-0.800000,-0.800000,-0.800000,-0.800000,-0.796148,-0.878414,-0.796148,-1.032228,-0.765552,-1.177117,-0.705537,
-1.307515,-0.618408,-1.418408,-0.507515,-1.505537,-0.377117,-1.565552,-0.232228,-1.596148,-0.078414,-1.596148,0.078414,-1.565552,0.232228,-1.505537,0.377117,-1.418408,0.507515,-1.307515,0.618408,-1.177117,0.705537,-1.032228,0.765552,-0.878414,0.796148,-0.800000,0.796148,-0.800000,0.800000,1.400000,0.800000,1.403843,0.796157,1.403843,0.796157,$1*%
%AMFreePoly2*
4,1,37,0.603843,0.796157,0.639018,0.796157,0.711114,0.766294,0.766294,0.711114,0.796157,0.639018,0.796157,0.603843,0.800000,0.600000,0.800000,-0.600000,0.796157,-0.603843,0.796157,-0.639018,0.766294,-0.711114,0.711114,-0.766294,0.639018,-0.796157,0.603843,-0.796157,0.600000,-0.800000,0.000000,-0.800000,0.000000,-0.796148,-0.078414,-0.796148,-0.232228,-0.765552,-0.377117,-0.705537,
-0.507515,-0.618408,-0.618408,-0.507515,-0.705537,-0.377117,-0.765552,-0.232228,-0.796148,-0.078414,-0.796148,0.078414,-0.765552,0.232228,-0.705537,0.377117,-0.618408,0.507515,-0.507515,0.618408,-0.377117,0.705537,-0.232228,0.765552,-0.078414,0.796148,0.000000,0.796148,0.000000,0.800000,0.600000,0.800000,0.603843,0.796157,0.603843,0.796157,$1*%
%AMFreePoly3*
4,1,37,0.000000,0.796148,0.078414,0.796148,0.232228,0.765552,0.377117,0.705537,0.507515,0.618408,0.618408,0.507515,0.705537,0.377117,0.765552,0.232228,0.796148,0.078414,0.796148,-0.078414,0.765552,-0.232228,0.705537,-0.377117,0.618408,-0.507515,0.507515,-0.618408,0.377117,-0.705537,0.232228,-0.765552,0.078414,-0.796148,0.000000,-0.796148,0.000000,-0.800000,-0.600000,-0.800000,
-0.603843,-0.796157,-0.639018,-0.796157,-0.711114,-0.766294,-0.766294,-0.711114,-0.796157,-0.639018,-0.796157,-0.603843,-0.800000,-0.600000,-0.800000,0.600000,-0.796157,0.603843,-0.796157,0.639018,-0.766294,0.711114,-0.711114,0.766294,-0.639018,0.796157,-0.603843,0.796157,-0.600000,0.800000,0.000000,0.800000,0.000000,0.796148,0.000000,0.796148,$1*%
G04 Aperture macros list end*
%ADD10C,1.600000*%
%ADD11R,1.800000X1.600000*%
%ADD12RoundRect,0.250000X0.450000X-0.350000X0.450000X0.350000X-0.450000X0.350000X-0.450000X-0.350000X0*%
%ADD13RoundRect,0.150000X0.587500X0.150000X-0.587500X0.150000X-0.587500X-0.150000X0.587500X-0.150000X0*%
%ADD14RoundRect,0.250000X-0.450000X0.325000X-0.450000X-0.325000X0.450000X-0.325000X0.450000X0.325000X0*%
%ADD15RoundRect,0.250000X0.337500X0.475000X-0.337500X0.475000X-0.337500X-0.475000X0.337500X-0.475000X0*%
%ADD16RoundRect,0.250000X-0.475000X0.337500X-0.475000X-0.337500X0.475000X-0.337500X0.475000X0.337500X0*%
%ADD17RoundRect,0.250000X0.300000X-2.050000X0.300000X2.050000X-0.300000X2.050000X-0.300000X-2.050000X0*%
%ADD18RoundRect,0.250002X5.149998X-4.449998X5.149998X4.449998X-5.149998X4.449998X-5.149998X-4.449998X0*%
%ADD19RoundRect,0.249999X-0.850001X0.850001X-0.850001X-0.850001X0.850001X-0.850001X0.850001X0.850001X0*%
%ADD20C,2.200000*%
%ADD21RoundRect,0.150000X-0.200000X0.150000X-0.200000X-0.150000X0.200000X-0.150000X0.200000X0.150000X0*%
%ADD22RoundRect,0.150000X-0.587500X-0.150000X0.587500X-0.150000X0.587500X0.150000X-0.587500X0.150000X0*%
%ADD23RoundRect,0.250000X-0.350000X-0.450000X0.350000X-0.450000X0.350000X0.450000X-0.350000X0.450000X0*%
%ADD24RoundRect,0.250000X1.950000X1.000000X-1.950000X1.000000X-1.950000X-1.000000X1.950000X-1.000000X0*%
%ADD25RoundRect,0.250000X0.350000X0.450000X-0.350000X0.450000X-0.350000X-0.450000X0.350000X-0.450000X0*%
%ADD26RoundRect,0.250000X-0.450000X0.350000X-0.450000X-0.350000X0.450000X-0.350000X0.450000X0.350000X0*%
%ADD27R,2.000000X2.000000*%
%ADD28C,2.000000*%
%ADD29R,3.000000X2.500000*%
%ADD30RoundRect,0.100000X0.100000X-0.637500X0.100000X0.637500X-0.100000X0.637500X-0.100000X-0.637500X0*%
%ADD31RoundRect,0.250000X0.400000X0.450000X-0.400000X0.450000X-0.400000X-0.450000X0.400000X-0.450000X0*%
%ADD32C,2.700000*%
%ADD33R,1.700000X1.700000*%
%ADD34C,1.700000*%
%ADD35R,2.000000X4.600000*%
%ADD36O,2.000000X4.200000*%
%ADD37O,4.200000X2.000000*%
%ADD38C,4.300000*%
%ADD39RoundRect,0.250000X1.000000X-1.950000X1.000000X1.950000X-1.000000X1.950000X-1.000000X-1.950000X0*%
%ADD40RoundRect,0.100000X-0.637500X-0.100000X0.637500X-0.100000X0.637500X0.100000X-0.637500X0.100000X0*%
%ADD41C,1.850000*%
%ADD42FreePoly0,0.000000*%
%ADD43RoundRect,0.200000X-0.600000X-0.600000X0.600000X-0.600000X0.600000X0.600000X-0.600000X0.600000X0*%
%ADD44RoundRect,0.800000X-0.800000X-0.000010X0.800000X-0.000010X0.800000X0.000010X-0.800000X0.000010X0*%
%ADD45FreePoly1,0.000000*%
%ADD46FreePoly2,0.000000*%
%ADD47FreePoly3,0.000000*%
%ADD48RoundRect,0.150000X0.200000X-0.150000X0.200000X0.150000X-0.200000X0.150000X-0.200000X-0.150000X0*%
%ADD49RoundRect,0.250000X-1.950000X-1.000000X1.950000X-1.000000X1.950000X1.000000X-1.950000X1.000000X0*%
G04 APERTURE END LIST*
D10*
%TO.C,K228*%
X201930000Y-209550000D03*
X207010000Y-209550000D03*
X212090000Y-209550000D03*
X201930000Y-201930000D03*
X207010000Y-201930000D03*
X212090000Y-201930000D03*
D11*
X194310000Y-209550000D03*
D10*
X194310000Y-201930000D03*
%TD*%
D12*
%TO.C,R92*%
X251450000Y-109220000D03*
X251450000Y-107220000D03*
%TD*%
D13*
%TO.C,Q24*%
X351838500Y-197562000D03*
X351838500Y-195662000D03*
X349963500Y-196612000D03*
%TD*%
D12*
%TO.C,R11*%
X86764360Y-157834803D03*
X86764360Y-155834803D03*
%TD*%
%TO.C,R72*%
X231130000Y-78740000D03*
X231130000Y-76740000D03*
%TD*%
D14*
%TO.C,D47*%
X231130000Y-81770000D03*
X231130000Y-83820000D03*
%TD*%
D15*
%TO.C,C2*%
X83101000Y-145034000D03*
X81026000Y-145034000D03*
%TD*%
D10*
%TO.C,K202*%
X153162000Y-150876000D03*
X148082000Y-150876000D03*
X143002000Y-150876000D03*
X153162000Y-158496000D03*
X148082000Y-158496000D03*
X143002000Y-158496000D03*
D11*
X160782000Y-150876000D03*
D10*
X160782000Y-158496000D03*
%TD*%
D16*
%TO.C,C1*%
X96266000Y-74633000D03*
X96266000Y-76708000D03*
%TD*%
D12*
%TO.C,R41*%
X220970000Y-93980000D03*
X220970000Y-91980000D03*
%TD*%
D17*
%TO.C,U4*%
X103632000Y-74936000D03*
D18*
X106172000Y-65786000D03*
D17*
X108712000Y-74936000D03*
%TD*%
D12*
%TO.C,R75*%
X215890000Y-78740000D03*
X215890000Y-76740000D03*
%TD*%
D19*
%TO.C,D9*%
X92700000Y-107950000D03*
D20*
X92700000Y-118110000D03*
%TD*%
D14*
%TO.C,D41*%
X215890000Y-97010000D03*
X215890000Y-99060000D03*
%TD*%
D21*
%TO.C,D223*%
X291846000Y-192978000D03*
X291846000Y-191578000D03*
%TD*%
D22*
%TO.C,Q3*%
X90271860Y-168584803D03*
X90271860Y-170484803D03*
X92146860Y-169534803D03*
%TD*%
D23*
%TO.C,R17*%
X94654360Y-161914803D03*
X96654360Y-161914803D03*
%TD*%
D24*
%TO.C,C8*%
X91820000Y-99000000D03*
X83420000Y-99000000D03*
%TD*%
D13*
%TO.C,Q12*%
X102306860Y-176834803D03*
X102306860Y-174934803D03*
X100431860Y-175884803D03*
%TD*%
D23*
%TO.C,R20*%
X94654360Y-158104803D03*
X96654360Y-158104803D03*
%TD*%
D21*
%TO.C,D205*%
X215718500Y-155759500D03*
X215718500Y-154359500D03*
%TD*%
%TO.C,D215*%
X293116000Y-168148000D03*
X293116000Y-166748000D03*
%TD*%
D23*
%TO.C,R27*%
X94654360Y-187314803D03*
X96654360Y-187314803D03*
%TD*%
D12*
%TO.C,R18*%
X86764360Y-189584803D03*
X86764360Y-187584803D03*
%TD*%
%TO.C,R91*%
X246370000Y-109220000D03*
X246370000Y-107220000D03*
%TD*%
D25*
%TO.C,R65*%
X347456000Y-188484000D03*
X345456000Y-188484000D03*
%TD*%
%TO.C,R55*%
X347456000Y-178070000D03*
X345456000Y-178070000D03*
%TD*%
D23*
%TO.C,R29*%
X94654360Y-193664803D03*
X96654360Y-193664803D03*
%TD*%
D21*
%TO.C,D213*%
X165426500Y-167951500D03*
X165426500Y-166551500D03*
%TD*%
D23*
%TO.C,R78*%
X173900000Y-133350000D03*
X175900000Y-133350000D03*
%TD*%
D14*
%TO.C,D36*%
X241290000Y-97010000D03*
X241290000Y-99060000D03*
%TD*%
D13*
%TO.C,Q11*%
X102306860Y-170484803D03*
X102306860Y-168584803D03*
X100431860Y-169534803D03*
%TD*%
D14*
%TO.C,D66*%
X246370000Y-112250000D03*
X246370000Y-114300000D03*
%TD*%
D26*
%TO.C,R4*%
X310388000Y-81296000D03*
X310388000Y-83296000D03*
%TD*%
D13*
%TO.C,Q14*%
X102306860Y-189534803D03*
X102306860Y-187634803D03*
X100431860Y-188584803D03*
%TD*%
D14*
%TO.C,D46*%
X236210000Y-81770000D03*
X236210000Y-83820000D03*
%TD*%
D27*
%TO.C,SW1*%
X289050000Y-78100000D03*
D28*
X289050000Y-83100000D03*
X289050000Y-80600000D03*
D29*
X296550000Y-75000000D03*
X296550000Y-86200000D03*
D28*
X303550000Y-78100000D03*
X303550000Y-83100000D03*
%TD*%
D30*
%TO.C,U3*%
X151130000Y-116840000D03*
X151780000Y-116840000D03*
X152430000Y-116840000D03*
X153080000Y-116840000D03*
X153730000Y-116840000D03*
X154380000Y-116840000D03*
X155030000Y-116840000D03*
X155680000Y-116840000D03*
X155680000Y-111115000D03*
X155030000Y-111115000D03*
X154380000Y-111115000D03*
X153730000Y-111115000D03*
X153080000Y-111115000D03*
X152430000Y-111115000D03*
X151780000Y-111115000D03*
X151130000Y-111115000D03*
%TD*%
D23*
%TO.C,R25*%
X94654360Y-180964803D03*
X96654360Y-180964803D03*
%TD*%
D12*
%TO.C,R40*%
X226050000Y-93980000D03*
X226050000Y-91980000D03*
%TD*%
D14*
%TO.C,D40*%
X220970000Y-97010000D03*
X220970000Y-99060000D03*
%TD*%
D25*
%TO.C,R50*%
X347456000Y-164862000D03*
X345456000Y-164862000D03*
%TD*%
%TO.C,R62*%
X347456000Y-197882000D03*
X345456000Y-197882000D03*
%TD*%
D21*
%TO.C,D219*%
X317500000Y-192978000D03*
X317500000Y-191578000D03*
%TD*%
D10*
%TO.C,K219*%
X179070000Y-188468000D03*
X173990000Y-188468000D03*
X168910000Y-188468000D03*
X179070000Y-196088000D03*
X173990000Y-196088000D03*
X168910000Y-196088000D03*
D11*
X186690000Y-188468000D03*
D10*
X186690000Y-196088000D03*
%TD*%
D21*
%TO.C,D229*%
X191262000Y-206440000D03*
X191262000Y-205040000D03*
%TD*%
D26*
%TO.C,R57*%
X355346000Y-202216000D03*
X355346000Y-204216000D03*
%TD*%
D13*
%TO.C,Q17*%
X351838500Y-158446000D03*
X351838500Y-156546000D03*
X349963500Y-157496000D03*
%TD*%
D12*
%TO.C,R12*%
X86764360Y-164184803D03*
X86764360Y-162184803D03*
%TD*%
D13*
%TO.C,Q26*%
X351838500Y-204166000D03*
X351838500Y-202266000D03*
X349963500Y-203216000D03*
%TD*%
D14*
%TO.C,D67*%
X251450000Y-112250000D03*
X251450000Y-114300000D03*
%TD*%
D21*
%TO.C,D208*%
X190246000Y-155578000D03*
X190246000Y-154178000D03*
%TD*%
D12*
%TO.C,R69*%
X246370000Y-78740000D03*
X246370000Y-76740000D03*
%TD*%
%TO.C,R3*%
X291846000Y-69834000D03*
X291846000Y-67834000D03*
%TD*%
D14*
%TO.C,D43*%
X251450000Y-81770000D03*
X251450000Y-83820000D03*
%TD*%
D31*
%TO.C,D57*%
X170000000Y-125730000D03*
X167100000Y-125730000D03*
%TD*%
D13*
%TO.C,Q16*%
X102306860Y-202234803D03*
X102306860Y-200334803D03*
X100431860Y-201284803D03*
%TD*%
D10*
%TO.C,K222*%
X255270000Y-188468000D03*
X250190000Y-188468000D03*
X245110000Y-188468000D03*
X255270000Y-196088000D03*
X250190000Y-196088000D03*
X245110000Y-196088000D03*
D11*
X262890000Y-188468000D03*
D10*
X262890000Y-196088000D03*
%TD*%
D23*
%TO.C,R28*%
X94654360Y-177154803D03*
X96654360Y-177154803D03*
%TD*%
D14*
%TO.C,D48*%
X226050000Y-81770000D03*
X226050000Y-83820000D03*
%TD*%
D23*
%TO.C,R81*%
X173900000Y-118110000D03*
X175900000Y-118110000D03*
%TD*%
D10*
%TO.C,K211*%
X176530000Y-171704000D03*
X181610000Y-171704000D03*
X186690000Y-171704000D03*
X176530000Y-164084000D03*
X181610000Y-164084000D03*
X186690000Y-164084000D03*
D11*
X168910000Y-171704000D03*
D10*
X168910000Y-164084000D03*
%TD*%
D13*
%TO.C,Q9*%
X102306860Y-164134803D03*
X102306860Y-162234803D03*
X100431860Y-163184803D03*
%TD*%
D23*
%TO.C,R31*%
X94654360Y-200014803D03*
X96654360Y-200014803D03*
%TD*%
D12*
%TO.C,R21*%
X86764360Y-195934803D03*
X86764360Y-193934803D03*
%TD*%
D22*
%TO.C,Q29*%
X339803500Y-182184000D03*
X339803500Y-184084000D03*
X341678500Y-183134000D03*
%TD*%
D12*
%TO.C,R204*%
X164592000Y-84566000D03*
X164592000Y-82566000D03*
%TD*%
%TO.C,R2*%
X284988000Y-69850000D03*
X284988000Y-67850000D03*
%TD*%
D14*
%TO.C,D37*%
X236210000Y-97010000D03*
X236210000Y-99060000D03*
%TD*%
D21*
%TO.C,D207*%
X291918500Y-155251500D03*
X291918500Y-153851500D03*
%TD*%
D10*
%TO.C,K230*%
X252730000Y-209804000D03*
X257810000Y-209804000D03*
X262890000Y-209804000D03*
X252730000Y-202184000D03*
X257810000Y-202184000D03*
X262890000Y-202184000D03*
D11*
X245110000Y-209804000D03*
D10*
X245110000Y-202184000D03*
%TD*%
D21*
%TO.C,D216*%
X191516000Y-168024000D03*
X191516000Y-166624000D03*
%TD*%
D12*
%TO.C,R88*%
X231130000Y-109220000D03*
X231130000Y-107220000D03*
%TD*%
D10*
%TO.C,K221*%
X229870000Y-188468000D03*
X224790000Y-188468000D03*
X219710000Y-188468000D03*
X229870000Y-196088000D03*
X224790000Y-196088000D03*
X219710000Y-196088000D03*
D11*
X237490000Y-188468000D03*
D10*
X237490000Y-196088000D03*
%TD*%
D22*
%TO.C,Q202*%
X160352500Y-82362000D03*
X160352500Y-84262000D03*
X162227500Y-83312000D03*
%TD*%
D21*
%TO.C,D214*%
X242570000Y-167894000D03*
X242570000Y-166494000D03*
%TD*%
D23*
%TO.C,R76*%
X173826000Y-136906000D03*
X175826000Y-136906000D03*
%TD*%
D25*
%TO.C,R63*%
X347456000Y-181864000D03*
X345456000Y-181864000D03*
%TD*%
D10*
%TO.C,K201*%
X127689500Y-150948500D03*
X122609500Y-150948500D03*
X117529500Y-150948500D03*
X127689500Y-158568500D03*
X122609500Y-158568500D03*
X117529500Y-158568500D03*
D11*
X135309500Y-150948500D03*
D10*
X135309500Y-158568500D03*
%TD*%
D12*
%TO.C,R203*%
X157734000Y-84312000D03*
X157734000Y-82312000D03*
%TD*%
D22*
%TO.C,Q31*%
X339803500Y-195662000D03*
X339803500Y-197562000D03*
X341678500Y-196612000D03*
%TD*%
D32*
%TO.C,J1*%
X169164000Y-72390000D03*
X169164000Y-101854000D03*
X198120000Y-72390000D03*
X198120000Y-101854000D03*
D33*
X174752000Y-72390000D03*
D34*
X177292000Y-72390000D03*
X179832000Y-72390000D03*
X182372000Y-72390000D03*
X184912000Y-72390000D03*
X187452000Y-72390000D03*
X189992000Y-72390000D03*
X192532000Y-72390000D03*
%TD*%
D10*
%TO.C,K210*%
X150622000Y-171958000D03*
X155702000Y-171958000D03*
X160782000Y-171958000D03*
X150622000Y-164338000D03*
X155702000Y-164338000D03*
X160782000Y-164338000D03*
D11*
X143002000Y-171958000D03*
D10*
X143002000Y-164338000D03*
%TD*%
%TO.C,K209*%
X125222000Y-171958000D03*
X130302000Y-171958000D03*
X135382000Y-171958000D03*
X125222000Y-164338000D03*
X130302000Y-164338000D03*
X135382000Y-164338000D03*
D11*
X117602000Y-171958000D03*
D10*
X117602000Y-164338000D03*
%TD*%
D14*
%TO.C,D59*%
X210810000Y-112250000D03*
X210810000Y-114300000D03*
%TD*%
D10*
%TO.C,K213*%
X227402500Y-171693500D03*
X232482500Y-171693500D03*
X237562500Y-171693500D03*
X227402500Y-164073500D03*
X232482500Y-164073500D03*
X237562500Y-164073500D03*
D11*
X219782500Y-171693500D03*
D10*
X219782500Y-164073500D03*
%TD*%
D22*
%TO.C,Q28*%
X339803500Y-175850000D03*
X339803500Y-177750000D03*
X341678500Y-176800000D03*
%TD*%
D13*
%TO.C,Q15*%
X102306860Y-195884803D03*
X102306860Y-193984803D03*
X100431860Y-194934803D03*
%TD*%
D14*
%TO.C,D62*%
X226050000Y-112250000D03*
X226050000Y-114300000D03*
%TD*%
D12*
%TO.C,R70*%
X241290000Y-78740000D03*
X241290000Y-76740000D03*
%TD*%
%TO.C,R38*%
X236210000Y-93980000D03*
X236210000Y-91980000D03*
%TD*%
%TO.C,R42*%
X215890000Y-93980000D03*
X215890000Y-91980000D03*
%TD*%
D15*
%TO.C,C5*%
X181864000Y-64008000D03*
X179789000Y-64008000D03*
%TD*%
D14*
%TO.C,D38*%
X231130000Y-97010000D03*
X231130000Y-99060000D03*
%TD*%
D21*
%TO.C,D220*%
X215718500Y-192978000D03*
X215718500Y-191578000D03*
%TD*%
D10*
%TO.C,K225*%
X125222000Y-209358000D03*
X130302000Y-209358000D03*
X135382000Y-209358000D03*
X125222000Y-201738000D03*
X130302000Y-201738000D03*
X135382000Y-201738000D03*
D11*
X117602000Y-209358000D03*
D10*
X117602000Y-201738000D03*
%TD*%
D22*
%TO.C,Q25*%
X339803500Y-162642000D03*
X339803500Y-164542000D03*
X341678500Y-163592000D03*
%TD*%
D23*
%TO.C,R77*%
X173900000Y-110998000D03*
X175900000Y-110998000D03*
%TD*%
D21*
%TO.C,D222*%
X241046000Y-192724000D03*
X241046000Y-191324000D03*
%TD*%
D27*
%TO.C,SW2*%
X313050000Y-92100000D03*
D28*
X313050000Y-97100000D03*
X313050000Y-94600000D03*
D29*
X320550000Y-89000000D03*
X320550000Y-100200000D03*
D28*
X327550000Y-92100000D03*
X327550000Y-97100000D03*
%TD*%
D21*
%TO.C,D226*%
X114046000Y-205486000D03*
X114046000Y-204086000D03*
%TD*%
D22*
%TO.C,Q4*%
X90271860Y-175144803D03*
X90271860Y-177044803D03*
X92146860Y-176094803D03*
%TD*%
D10*
%TO.C,K229*%
X227330000Y-209804000D03*
X232410000Y-209804000D03*
X237490000Y-209804000D03*
X227330000Y-202184000D03*
X232410000Y-202184000D03*
X237490000Y-202184000D03*
D11*
X219710000Y-209804000D03*
D10*
X219710000Y-202184000D03*
%TD*%
D21*
%TO.C,D204*%
X138938000Y-155386000D03*
X138938000Y-153986000D03*
%TD*%
D23*
%TO.C,R30*%
X94654360Y-183504803D03*
X96654360Y-183504803D03*
%TD*%
D12*
%TO.C,R71*%
X236210000Y-78740000D03*
X236210000Y-76740000D03*
%TD*%
D26*
%TO.C,R51*%
X355346000Y-188754000D03*
X355346000Y-190754000D03*
%TD*%
D21*
%TO.C,D202*%
X266518500Y-155567500D03*
X266518500Y-154167500D03*
%TD*%
D23*
%TO.C,R22*%
X94654360Y-174614803D03*
X96654360Y-174614803D03*
%TD*%
D10*
%TO.C,K212*%
X201930000Y-171704000D03*
X207010000Y-171704000D03*
X212090000Y-171704000D03*
X201930000Y-164084000D03*
X207010000Y-164084000D03*
X212090000Y-164084000D03*
D11*
X194310000Y-171704000D03*
D10*
X194310000Y-164084000D03*
%TD*%
%TO.C,K206*%
X255342500Y-150803500D03*
X250262500Y-150803500D03*
X245182500Y-150803500D03*
X255342500Y-158423500D03*
X250262500Y-158423500D03*
X245182500Y-158423500D03*
D11*
X262962500Y-150803500D03*
D10*
X262962500Y-158423500D03*
%TD*%
D12*
%TO.C,R87*%
X226050000Y-109220000D03*
X226050000Y-107220000D03*
%TD*%
D14*
%TO.C,D39*%
X226050000Y-97010000D03*
X226050000Y-99060000D03*
%TD*%
D35*
%TO.C,J2*%
X89408000Y-124318000D03*
D36*
X83108000Y-124318000D03*
D37*
X86508000Y-129118000D03*
%TD*%
D25*
%TO.C,R56*%
X347456000Y-162322000D03*
X345456000Y-162322000D03*
%TD*%
D21*
%TO.C,D224*%
X190246000Y-192978000D03*
X190246000Y-191578000D03*
%TD*%
D26*
%TO.C,R54*%
X355346000Y-195612000D03*
X355346000Y-197612000D03*
%TD*%
D38*
%TO.C,H2*%
X215900000Y-215900000D03*
%TD*%
D26*
%TO.C,R45*%
X355346000Y-162592000D03*
X355346000Y-164592000D03*
%TD*%
D23*
%TO.C,R15*%
X94654360Y-155564803D03*
X96654360Y-155564803D03*
%TD*%
D21*
%TO.C,D211*%
X216408000Y-167894000D03*
X216408000Y-166494000D03*
%TD*%
D26*
%TO.C,R1*%
X288544000Y-67834000D03*
X288544000Y-69834000D03*
%TD*%
D14*
%TO.C,D60*%
X215890000Y-112250000D03*
X215890000Y-114300000D03*
%TD*%
D12*
%TO.C,R74*%
X220970000Y-78740000D03*
X220970000Y-76740000D03*
%TD*%
D24*
%TO.C,C11*%
X91820000Y-82490000D03*
X83420000Y-82490000D03*
%TD*%
D14*
%TO.C,D50*%
X215890000Y-81770000D03*
X215890000Y-83820000D03*
%TD*%
D39*
%TO.C,C9*%
X342392000Y-145932000D03*
X342392000Y-137532000D03*
%TD*%
D10*
%TO.C,K203*%
X179070000Y-150814000D03*
X173990000Y-150814000D03*
X168910000Y-150814000D03*
X179070000Y-158434000D03*
X173990000Y-158434000D03*
X168910000Y-158434000D03*
D11*
X186690000Y-150814000D03*
D10*
X186690000Y-158434000D03*
%TD*%
D13*
%TO.C,Q6*%
X102306860Y-157784803D03*
X102306860Y-155884803D03*
X100431860Y-156834803D03*
%TD*%
D26*
%TO.C,R47*%
X355346000Y-175800000D03*
X355346000Y-177800000D03*
%TD*%
D38*
%TO.C,H3*%
X215900000Y-133350000D03*
%TD*%
D14*
%TO.C,D64*%
X236210000Y-112250000D03*
X236210000Y-114300000D03*
%TD*%
D40*
%TO.C,U2*%
X81015000Y-147066000D03*
X81015000Y-147716000D03*
X81015000Y-148366000D03*
X81015000Y-149016000D03*
X81015000Y-149666000D03*
X81015000Y-150316000D03*
X81015000Y-150966000D03*
X81015000Y-151616000D03*
X86740000Y-151616000D03*
X86740000Y-150966000D03*
X86740000Y-150316000D03*
X86740000Y-149666000D03*
X86740000Y-149016000D03*
X86740000Y-148366000D03*
X86740000Y-147716000D03*
X86740000Y-147066000D03*
%TD*%
D31*
%TO.C,D58*%
X170000000Y-121920000D03*
X167100000Y-121920000D03*
%TD*%
%TO.C,D54*%
X170000000Y-114808000D03*
X167100000Y-114808000D03*
%TD*%
D38*
%TO.C,H4*%
X82550000Y-69850000D03*
%TD*%
D31*
%TO.C,D51*%
X169926000Y-136906000D03*
X167026000Y-136906000D03*
%TD*%
D12*
%TO.C,R202*%
X164846000Y-90154000D03*
X164846000Y-88154000D03*
%TD*%
D25*
%TO.C,R48*%
X347456000Y-158639000D03*
X345456000Y-158639000D03*
%TD*%
D12*
%TO.C,R89*%
X236210000Y-109220000D03*
X236210000Y-107220000D03*
%TD*%
%TO.C,R39*%
X231130000Y-93980000D03*
X231130000Y-91980000D03*
%TD*%
D25*
%TO.C,R59*%
X347456000Y-168926000D03*
X345456000Y-168926000D03*
%TD*%
D12*
%TO.C,R201*%
X157734000Y-90138000D03*
X157734000Y-88138000D03*
%TD*%
D10*
%TO.C,K218*%
X153162000Y-188468000D03*
X148082000Y-188468000D03*
X143002000Y-188468000D03*
X153162000Y-196088000D03*
X148082000Y-196088000D03*
X143002000Y-196088000D03*
D11*
X160782000Y-188468000D03*
D10*
X160782000Y-196088000D03*
%TD*%
D23*
%TO.C,R33*%
X94654360Y-196204803D03*
X96654360Y-196204803D03*
%TD*%
D10*
%TO.C,K226*%
X150622000Y-209358000D03*
X155702000Y-209358000D03*
X160782000Y-209358000D03*
X150622000Y-201738000D03*
X155702000Y-201738000D03*
X160782000Y-201738000D03*
D11*
X143002000Y-209358000D03*
D10*
X143002000Y-201738000D03*
%TD*%
D14*
%TO.C,D34*%
X251450000Y-97010000D03*
X251450000Y-99060000D03*
%TD*%
D12*
%TO.C,R43*%
X126492000Y-102346000D03*
X126492000Y-100346000D03*
%TD*%
D22*
%TO.C,Q8*%
X90271860Y-193984803D03*
X90271860Y-195884803D03*
X92146860Y-194934803D03*
%TD*%
D21*
%TO.C,D227*%
X216154000Y-206694000D03*
X216154000Y-205294000D03*
%TD*%
D10*
%TO.C,K205*%
X229942500Y-150803500D03*
X224862500Y-150803500D03*
X219782500Y-150803500D03*
X229942500Y-158423500D03*
X224862500Y-158423500D03*
X219782500Y-158423500D03*
D11*
X237562500Y-150803500D03*
D10*
X237562500Y-158423500D03*
%TD*%
%TO.C,K223*%
X280670000Y-188468000D03*
X275590000Y-188468000D03*
X270510000Y-188468000D03*
X280670000Y-196088000D03*
X275590000Y-196088000D03*
X270510000Y-196088000D03*
D11*
X288290000Y-188468000D03*
D10*
X288290000Y-196088000D03*
%TD*%
D38*
%TO.C,H5*%
X355600000Y-69850000D03*
%TD*%
D21*
%TO.C,D201*%
X164338000Y-155386000D03*
X164338000Y-153986000D03*
%TD*%
D31*
%TO.C,D53*%
X170000000Y-133350000D03*
X167100000Y-133350000D03*
%TD*%
%TO.C,D56*%
X170000000Y-118110000D03*
X167100000Y-118110000D03*
%TD*%
D10*
%TO.C,K231*%
X278130000Y-209804000D03*
X283210000Y-209804000D03*
X288290000Y-209804000D03*
X278130000Y-202184000D03*
X283210000Y-202184000D03*
X288290000Y-202184000D03*
D11*
X270510000Y-209804000D03*
D10*
X270510000Y-202184000D03*
%TD*%
D40*
%TO.C,U1*%
X353137500Y-141275000D03*
X353137500Y-141925000D03*
X353137500Y-142575000D03*
X353137500Y-143225000D03*
X353137500Y-143875000D03*
X353137500Y-144525000D03*
X353137500Y-145175000D03*
X353137500Y-145825000D03*
X358862500Y-145825000D03*
X358862500Y-145175000D03*
X358862500Y-144525000D03*
X358862500Y-143875000D03*
X358862500Y-143225000D03*
X358862500Y-142575000D03*
X358862500Y-141925000D03*
X358862500Y-141275000D03*
%TD*%
D21*
%TO.C,D206*%
X241118500Y-155059500D03*
X241118500Y-153659500D03*
%TD*%
%TO.C,D212*%
X266954000Y-167894000D03*
X266954000Y-166494000D03*
%TD*%
D25*
%TO.C,R66*%
X347456000Y-195342000D03*
X345456000Y-195342000D03*
%TD*%
D12*
%TO.C,R24*%
X86764360Y-202284803D03*
X86764360Y-200284803D03*
%TD*%
%TO.C,R73*%
X226050000Y-78740000D03*
X226050000Y-76740000D03*
%TD*%
%TO.C,R86*%
X220970000Y-109220000D03*
X220970000Y-107220000D03*
%TD*%
D10*
%TO.C,K207*%
X280742500Y-150803500D03*
X275662500Y-150803500D03*
X270582500Y-150803500D03*
X280742500Y-158423500D03*
X275662500Y-158423500D03*
X270582500Y-158423500D03*
D11*
X288362500Y-150803500D03*
D10*
X288362500Y-158423500D03*
%TD*%
%TO.C,K224*%
X306070000Y-188468000D03*
X300990000Y-188468000D03*
X295910000Y-188468000D03*
X306070000Y-196088000D03*
X300990000Y-196088000D03*
X295910000Y-196088000D03*
D11*
X313690000Y-188468000D03*
D10*
X313690000Y-196088000D03*
%TD*%
D12*
%TO.C,R37*%
X241290000Y-93980000D03*
X241290000Y-91980000D03*
%TD*%
D21*
%TO.C,D218*%
X266446000Y-192978000D03*
X266446000Y-191578000D03*
%TD*%
D12*
%TO.C,R13*%
X86764360Y-170534803D03*
X86764360Y-168534803D03*
%TD*%
D31*
%TO.C,D55*%
X170000000Y-129540000D03*
X167100000Y-129540000D03*
%TD*%
D13*
%TO.C,Q18*%
X351838500Y-164542000D03*
X351838500Y-162642000D03*
X349963500Y-163592000D03*
%TD*%
D21*
%TO.C,D209*%
X114300000Y-168148000D03*
X114300000Y-166748000D03*
%TD*%
D23*
%TO.C,R80*%
X173900000Y-129540000D03*
X175900000Y-129540000D03*
%TD*%
D12*
%TO.C,R84*%
X210810000Y-109220000D03*
X210810000Y-107220000D03*
%TD*%
D23*
%TO.C,R82*%
X173900000Y-125730000D03*
X175900000Y-125730000D03*
%TD*%
D10*
%TO.C,K204*%
X204470000Y-150814000D03*
X199390000Y-150814000D03*
X194310000Y-150814000D03*
X204470000Y-158434000D03*
X199390000Y-158434000D03*
X194310000Y-158434000D03*
D11*
X212090000Y-150814000D03*
D10*
X212090000Y-158434000D03*
%TD*%
D26*
%TO.C,R44*%
X355346000Y-156496000D03*
X355346000Y-158496000D03*
%TD*%
D39*
%TO.C,C10*%
X99822000Y-146186000D03*
X99822000Y-137786000D03*
%TD*%
D22*
%TO.C,Q10*%
X90271860Y-200334803D03*
X90271860Y-202234803D03*
X92146860Y-201284803D03*
%TD*%
D21*
%TO.C,D221*%
X138938000Y-193294000D03*
X138938000Y-191894000D03*
%TD*%
D14*
%TO.C,D44*%
X246370000Y-81770000D03*
X246370000Y-83820000D03*
%TD*%
D23*
%TO.C,R83*%
X173900000Y-121920000D03*
X175900000Y-121920000D03*
%TD*%
D21*
%TO.C,D203*%
X317500000Y-155640000D03*
X317500000Y-154240000D03*
%TD*%
D22*
%TO.C,Q1*%
X90271860Y-155884803D03*
X90271860Y-157784803D03*
X92146860Y-156834803D03*
%TD*%
D31*
%TO.C,D52*%
X170000000Y-110998000D03*
X167100000Y-110998000D03*
%TD*%
D10*
%TO.C,K227*%
X176530000Y-209550000D03*
X181610000Y-209550000D03*
X186690000Y-209550000D03*
X176530000Y-201930000D03*
X181610000Y-201930000D03*
X186690000Y-201930000D03*
D11*
X168910000Y-209550000D03*
D10*
X168910000Y-201930000D03*
%TD*%
D25*
%TO.C,R67*%
X347456000Y-201946000D03*
X345456000Y-201946000D03*
%TD*%
D14*
%TO.C,D65*%
X241290000Y-112250000D03*
X241290000Y-114300000D03*
%TD*%
D12*
%TO.C,R90*%
X241290000Y-109220000D03*
X241290000Y-107220000D03*
%TD*%
%TO.C,R35*%
X251450000Y-93980000D03*
X251450000Y-91980000D03*
%TD*%
D21*
%TO.C,D210*%
X140008000Y-168298000D03*
X140008000Y-166898000D03*
%TD*%
D10*
%TO.C,K220*%
X204470000Y-188468000D03*
X199390000Y-188468000D03*
X194310000Y-188468000D03*
X204470000Y-196088000D03*
X199390000Y-196088000D03*
X194310000Y-196088000D03*
D11*
X212090000Y-188468000D03*
D10*
X212090000Y-196088000D03*
%TD*%
D21*
%TO.C,D225*%
X140208000Y-206186000D03*
X140208000Y-204786000D03*
%TD*%
D22*
%TO.C,Q201*%
X160352500Y-88204000D03*
X160352500Y-90104000D03*
X162227500Y-89154000D03*
%TD*%
D16*
%TO.C,C3*%
X148844000Y-112754500D03*
X148844000Y-114829500D03*
%TD*%
D10*
%TO.C,K208*%
X306142500Y-150803500D03*
X301062500Y-150803500D03*
X295982500Y-150803500D03*
X306142500Y-158423500D03*
X301062500Y-158423500D03*
X295982500Y-158423500D03*
D11*
X313762500Y-150803500D03*
D10*
X313762500Y-158423500D03*
%TD*%
%TO.C,K232*%
X303530000Y-209804000D03*
X308610000Y-209804000D03*
X313690000Y-209804000D03*
X303530000Y-202184000D03*
X308610000Y-202184000D03*
X313690000Y-202184000D03*
D11*
X295910000Y-209804000D03*
D10*
X295910000Y-202184000D03*
%TD*%
D21*
%TO.C,D217*%
X164327500Y-192713500D03*
X164327500Y-191313500D03*
%TD*%
D22*
%TO.C,Q2*%
X90271860Y-162234803D03*
X90271860Y-164134803D03*
X92146860Y-163184803D03*
%TD*%
D23*
%TO.C,R32*%
X94654360Y-189854803D03*
X96654360Y-189854803D03*
%TD*%
D22*
%TO.C,Q32*%
X339803500Y-202266000D03*
X339803500Y-204166000D03*
X341678500Y-203216000D03*
%TD*%
D14*
%TO.C,D61*%
X220970000Y-112250000D03*
X220970000Y-114300000D03*
%TD*%
D22*
%TO.C,Q22*%
X339803500Y-155784000D03*
X339803500Y-157684000D03*
X341678500Y-156734000D03*
%TD*%
%TO.C,Q30*%
X339803500Y-188804000D03*
X339803500Y-190704000D03*
X341678500Y-189754000D03*
%TD*%
D23*
%TO.C,R19*%
X94654360Y-168264803D03*
X96654360Y-168264803D03*
%TD*%
D25*
%TO.C,R60*%
X347456000Y-191024000D03*
X345456000Y-191024000D03*
%TD*%
D13*
%TO.C,Q23*%
X351838500Y-190704000D03*
X351838500Y-188804000D03*
X349963500Y-189754000D03*
%TD*%
D21*
%TO.C,D231*%
X293116000Y-206694000D03*
X293116000Y-205294000D03*
%TD*%
D12*
%TO.C,R85*%
X215890000Y-109220000D03*
X215890000Y-107220000D03*
%TD*%
D13*
%TO.C,Q19*%
X351838500Y-171146000D03*
X351838500Y-169246000D03*
X349963500Y-170196000D03*
%TD*%
D25*
%TO.C,R61*%
X347456000Y-175530000D03*
X345456000Y-175530000D03*
%TD*%
D23*
%TO.C,R34*%
X94654360Y-202554803D03*
X96654360Y-202554803D03*
%TD*%
D25*
%TO.C,R58*%
X347456000Y-184404000D03*
X345456000Y-184404000D03*
%TD*%
D16*
%TO.C,C6*%
X158100000Y-56650000D03*
X158100000Y-58725000D03*
%TD*%
D23*
%TO.C,R79*%
X173900000Y-114808000D03*
X175900000Y-114808000D03*
%TD*%
D12*
%TO.C,R68*%
X251450000Y-78740000D03*
X251450000Y-76740000D03*
%TD*%
D38*
%TO.C,H6*%
X356616000Y-215900000D03*
%TD*%
D25*
%TO.C,R52*%
X347456000Y-171466000D03*
X345456000Y-171466000D03*
%TD*%
D14*
%TO.C,D49*%
X220970000Y-81770000D03*
X220970000Y-83820000D03*
%TD*%
D12*
%TO.C,R16*%
X86764360Y-183234803D03*
X86764360Y-181234803D03*
%TD*%
D16*
%TO.C,C201*%
X302260000Y-65002500D03*
X302260000Y-67077500D03*
%TD*%
D25*
%TO.C,R53*%
X347456000Y-156099000D03*
X345456000Y-156099000D03*
%TD*%
D26*
%TO.C,R46*%
X355346000Y-169196000D03*
X355346000Y-171196000D03*
%TD*%
D20*
%TO.C,A1*%
X140135000Y-54680000D03*
D41*
X140435000Y-57710000D03*
X145285000Y-57710000D03*
D20*
X145585000Y-54680000D03*
D42*
X133170000Y-54550000D03*
D43*
X133970000Y-54550000D03*
D44*
X133170000Y-57090000D03*
D10*
X133970000Y-57090000D03*
D45*
X133170000Y-59630000D03*
D46*
X133970000Y-59630000D03*
D44*
X133170000Y-62170000D03*
D10*
X133970000Y-62170000D03*
D44*
X133170000Y-64710000D03*
D10*
X133970000Y-64710000D03*
D44*
X133170000Y-67250000D03*
D10*
X133970000Y-67250000D03*
D44*
X133170000Y-69790000D03*
D10*
X133970000Y-69790000D03*
D45*
X133170000Y-72330000D03*
D46*
X133970000Y-72330000D03*
D44*
X133170000Y-74870000D03*
D10*
X133970000Y-74870000D03*
D44*
X133170000Y-77410000D03*
D10*
X133970000Y-77410000D03*
D44*
X133170000Y-79950000D03*
D10*
X133970000Y-79950000D03*
D44*
X133170000Y-82490000D03*
D10*
X133970000Y-82490000D03*
D45*
X133170000Y-85030000D03*
D46*
X133970000Y-85030000D03*
D44*
X133170000Y-87570000D03*
D10*
X133970000Y-87570000D03*
D44*
X133170000Y-90110000D03*
D10*
X133970000Y-90110000D03*
D44*
X133170000Y-92650000D03*
D10*
X133970000Y-92650000D03*
D44*
X133170000Y-95190000D03*
D10*
X133970000Y-95190000D03*
D45*
X133170000Y-97730000D03*
D46*
X133970000Y-97730000D03*
D44*
X133170000Y-100270000D03*
D10*
X133970000Y-100270000D03*
D44*
X133170000Y-102810000D03*
D10*
X133970000Y-102810000D03*
X151750000Y-102810000D03*
D44*
X152550000Y-102810000D03*
D10*
X151750000Y-100270000D03*
D44*
X152550000Y-100270000D03*
D47*
X151750000Y-97730000D03*
D42*
X152550000Y-97730000D03*
D10*
X151750000Y-95190000D03*
D44*
X152550000Y-95190000D03*
D10*
X151750000Y-92650000D03*
D44*
X152550000Y-92650000D03*
D10*
X151750000Y-90110000D03*
D44*
X152550000Y-90110000D03*
D10*
X151750000Y-87570000D03*
D44*
X152550000Y-87570000D03*
D47*
X151750000Y-85030000D03*
D42*
X152550000Y-85030000D03*
D10*
X151750000Y-82490000D03*
D44*
X152550000Y-82490000D03*
D10*
X151750000Y-79950000D03*
D44*
X152550000Y-79950000D03*
D10*
X151750000Y-77410000D03*
D44*
X152550000Y-77410000D03*
D10*
X151750000Y-74870000D03*
D44*
X152550000Y-74870000D03*
D47*
X151750000Y-72330000D03*
D42*
X152550000Y-72330000D03*
D10*
X151750000Y-69790000D03*
D44*
X152550000Y-69790000D03*
D10*
X151750000Y-67250000D03*
D44*
X152550000Y-67250000D03*
D10*
X151750000Y-64710000D03*
D44*
X152550000Y-64710000D03*
D10*
X151750000Y-62170000D03*
D44*
X152550000Y-62170000D03*
D47*
X151750000Y-59630000D03*
D42*
X152550000Y-59630000D03*
D10*
X151750000Y-57090000D03*
D44*
X152550000Y-57090000D03*
D10*
X151750000Y-54550000D03*
D44*
X152550000Y-54550000D03*
%TD*%
D14*
%TO.C,D45*%
X241290000Y-81770000D03*
X241290000Y-83820000D03*
%TD*%
D15*
%TO.C,C7*%
X358945000Y-139192000D03*
X356870000Y-139192000D03*
%TD*%
D14*
%TO.C,D63*%
X231130000Y-112250000D03*
X231130000Y-114300000D03*
%TD*%
D13*
%TO.C,Q13*%
X102306860Y-183184803D03*
X102306860Y-181284803D03*
X100431860Y-182234803D03*
%TD*%
%TO.C,Q20*%
X351838500Y-177750000D03*
X351838500Y-175850000D03*
X349963500Y-176800000D03*
%TD*%
D38*
%TO.C,H7*%
X82550000Y-215900000D03*
%TD*%
D22*
%TO.C,Q5*%
X90271860Y-181284803D03*
X90271860Y-183184803D03*
X92146860Y-182234803D03*
%TD*%
D12*
%TO.C,R14*%
X86764360Y-176884803D03*
X86764360Y-174884803D03*
%TD*%
D10*
%TO.C,K215*%
X278202500Y-171693500D03*
X283282500Y-171693500D03*
X288362500Y-171693500D03*
X278202500Y-164073500D03*
X283282500Y-164073500D03*
X288362500Y-164073500D03*
D11*
X270582500Y-171693500D03*
D10*
X270582500Y-164073500D03*
%TD*%
D12*
%TO.C,R5*%
X313690000Y-83296000D03*
X313690000Y-81296000D03*
%TD*%
%TO.C,R6*%
X316992000Y-83312000D03*
X316992000Y-81312000D03*
%TD*%
D23*
%TO.C,R23*%
X94654360Y-164454803D03*
X96654360Y-164454803D03*
%TD*%
D10*
%TO.C,K216*%
X303602500Y-171693500D03*
X308682500Y-171693500D03*
X313762500Y-171693500D03*
X303602500Y-164073500D03*
X308682500Y-164073500D03*
X313762500Y-164073500D03*
D11*
X295982500Y-171693500D03*
D10*
X295982500Y-164073500D03*
%TD*%
D48*
%TO.C,D2*%
X123190000Y-96582000D03*
X123190000Y-97982000D03*
%TD*%
D25*
%TO.C,R64*%
X347456000Y-204470000D03*
X345456000Y-204470000D03*
%TD*%
D16*
%TO.C,C202*%
X159766000Y-66526500D03*
X159766000Y-68601500D03*
%TD*%
D21*
%TO.C,D230*%
X242062000Y-206694000D03*
X242062000Y-205294000D03*
%TD*%
%TO.C,D228*%
X267208000Y-206694000D03*
X267208000Y-205294000D03*
%TD*%
D12*
%TO.C,R205*%
X123190000Y-102346000D03*
X123190000Y-100346000D03*
%TD*%
D22*
%TO.C,Q7*%
X90271860Y-187634803D03*
X90271860Y-189534803D03*
X92146860Y-188584803D03*
%TD*%
D13*
%TO.C,Q21*%
X351838500Y-184084000D03*
X351838500Y-182184000D03*
X349963500Y-183134000D03*
%TD*%
D22*
%TO.C,Q27*%
X339803500Y-169246000D03*
X339803500Y-171146000D03*
X341678500Y-170196000D03*
%TD*%
D26*
%TO.C,R49*%
X355346000Y-182134000D03*
X355346000Y-184134000D03*
%TD*%
D12*
%TO.C,R36*%
X246370000Y-93980000D03*
X246370000Y-91980000D03*
%TD*%
D14*
%TO.C,D35*%
X246370000Y-97010000D03*
X246370000Y-99060000D03*
%TD*%
D23*
%TO.C,R26*%
X94654360Y-170804803D03*
X96654360Y-170804803D03*
%TD*%
D10*
%TO.C,K214*%
X252802500Y-171693500D03*
X257882500Y-171693500D03*
X262962500Y-171693500D03*
X252802500Y-164073500D03*
X257882500Y-164073500D03*
X262962500Y-164073500D03*
D11*
X245182500Y-171693500D03*
D10*
X245182500Y-164073500D03*
%TD*%
%TO.C,K217*%
X127762000Y-188530000D03*
X122682000Y-188530000D03*
X117602000Y-188530000D03*
X127762000Y-196150000D03*
X122682000Y-196150000D03*
X117602000Y-196150000D03*
D11*
X135382000Y-188530000D03*
D10*
X135382000Y-196150000D03*
%TD*%
D49*
%TO.C,C12*%
X117466000Y-70612000D03*
X125866000Y-70612000D03*
%TD*%
D21*
%TO.C,D232*%
X165426500Y-206440000D03*
X165426500Y-205040000D03*
%TD*%
M02*
