M48
; DRILL file {KiCad 9.0.4} date 2025-09-08T12:23:28+0200
; FORMAT={-:-/ absolute / inch / decimal}
; #@! TF.CreationDate,2025-09-08T12:23:28+02:00
; #@! TF.GenerationSoftware,Kicad,Pcbnew,9.0.4
; #@! TF.FileFunction,Plated,1,2,PTH
FMAT,2
INCH
; #@! TA.AperFunction,Plated,PTH,ViaDrill
T1C0.0157
; #@! TA.AperFunction,Plated,PTH,ViaDrill
T2C0.0197
; #@! TA.AperFunction,Plated,PTH,ComponentDrill
T3C0.0315
; #@! TA.AperFunction,Plated,PTH,ComponentDrill
T4C0.0394
; #@! TA.AperFunction,Plated,PTH,ComponentDrill
T5C0.0433
; #@! TA.AperFunction,Plated,PTH,ComponentDrill
T6C0.0787
%
G90
G05
T1
X3.1396Y-5.9691
X3.16Y-3.21
X3.16Y-3.25
X3.16Y-3.29
X3.16Y-3.86
X3.16Y-3.9
X3.16Y-3.94
X3.19Y-5.64
X3.2Y-6.06
X3.2431Y-5.8156
X3.39Y-6.04
X3.4Y-5.71
X3.47Y-5.43
X3.52Y-5.89
X3.53Y-5.44
X3.53Y-5.68
X3.54Y-6.26
X3.54Y-6.51
X3.54Y-7.02
X3.54Y-7.26
X3.54Y-7.51
X3.54Y-7.76
X3.54Y-8.01
X3.57Y-5.44
X3.57Y-5.68
X3.57Y-5.84
X3.66Y-5.89
X3.66Y-5.98
X3.67Y-8.41
X3.71Y-5.85
X3.75Y-3.0792
X3.79Y-3.0792
X3.83Y-3.0792
X3.88Y-5.29
X3.93Y-2.35
X3.93Y-2.5
X3.93Y-2.6
X3.93Y-2.7
X3.93Y-2.8
X3.93Y-5.29
X3.98Y-5.29
X4.03Y-2.35
X4.08Y-7.05
X4.1Y-5.98
X4.1Y-6.29
X4.1Y-6.54
X4.1Y-6.8
X4.1Y-7.31
X4.13Y-2.35
X4.1824Y-2.5996
X4.23Y-2.35
X4.3Y-6.72
X4.3Y-8.41
X4.34Y-2.35
X4.34Y-6.72
X4.34Y-7.12
X4.38Y-6.72
X4.38Y-7.16
X4.42Y-6.72
X4.42Y-7.2
X4.43Y-2.35
X4.43Y-2.5
X4.43Y-2.6
X4.43Y-2.71
X4.43Y-2.8
X4.46Y-6.72
X4.46Y-7.24
X4.84Y-6.72
X4.84Y-8.1924
X4.85Y-4.09
X4.85Y-4.23
X4.96Y-6.94
X4.98Y-4.09
X4.99Y-6.6
X4.99Y-8.0724
X5.0854Y-2.73
X5.0854Y-2.78
X5.0854Y-2.83
X5.42Y-7.5424
X5.89Y-4.59
X5.98Y-4.28
X5.99Y-4.15
X6.02Y-4.28
X6.03Y-4.19
X6.09Y-6.63
X6.115Y-4.525
X6.12Y-8.15
X6.21Y-2.99
X6.21Y-3.18
X6.21Y-3.39
X6.22Y-2.38
X6.29Y-2.76
X6.43Y-8.71
X6.44Y-2.09
X6.5Y-4.65
X6.5Y-5.39
X6.5021Y-4.37
X6.5021Y-4.52
X6.5021Y-4.8
X6.5021Y-4.95
X6.5021Y-5.1
X6.5021Y-5.25
X6.65Y-6.98
X6.65Y-8.42
X6.8Y-6.75
X6.8Y-8.23
X6.81Y-3.44
X6.82Y-3.09
X6.85Y-3.59
X6.86Y-6.71
X6.86Y-8.19
X6.89Y-2.29
X6.92Y-5.48
X6.92Y-5.72
X7.01Y-2.18
X7.01Y-6.59
X7.01Y-8.07
X7.16Y-5.25
X7.25Y-2.66
X7.25Y-5.18
X7.37Y-5.07
X7.425Y-5.515
X7.44Y-6.06
X7.44Y-7.54
X7.46Y-2.62
X7.47Y-4.97
X7.47Y-5.72
X7.475Y-5.405
X7.48Y-5.52
X7.555Y-5.255
X7.56Y-4.87
X7.62Y-5.12
X7.66Y-2.99
X7.66Y-4.77
X7.68Y-4.99
X7.74Y-4.69
X7.75Y-4.86
X7.8Y-4.75
X7.81Y-2.68
X7.95Y-5.64
X7.95Y-5.89
X7.96Y-7.2
X7.96Y-7.37
X8.04Y-2.68
X8.11Y-2.62
X8.11Y-6.63
X8.3596Y-4.2173
X8.4996Y-2.95
X8.5596Y-3.6193
X8.5596Y-4.2173
X8.65Y-7.04
X8.6996Y-2.95
X8.7596Y-4.2173
X8.76Y-3.618
X8.8Y-8.24
X8.8071Y-6.7429
X8.86Y-8.2
X8.8671Y-6.7029
X8.8996Y-2.95
X8.9596Y-4.2173
X8.96Y-3.62
X9.0Y-8.73
X9.01Y-2.09
X9.01Y-8.08
X9.0171Y-6.5829
X9.0996Y-2.95
X9.1596Y-3.6173
X9.1596Y-4.2173
X9.2996Y-2.95
X9.3596Y-3.6173
X9.3596Y-4.2173
X9.44Y-7.55
X9.4471Y-6.0529
X9.47Y-8.21
X9.49Y-6.63
X9.4996Y-2.95
X9.5596Y-3.6173
X9.5596Y-4.2173
X9.65Y-8.46
X9.6996Y-2.95
X9.7596Y-3.6173
X9.7596Y-4.2173
X9.8996Y-2.95
X9.9596Y-3.6173
X9.9596Y-4.2173
X9.96Y-5.68
X9.96Y-5.88
X9.96Y-7.16
X9.96Y-7.36
X10.65Y-7.08
X10.75Y-2.6
X10.8Y-6.75
X10.8Y-8.25
X10.86Y-6.71
X10.86Y-8.21
X10.95Y-6.94
X10.95Y-8.54
X11.01Y-6.59
X11.01Y-8.09
X11.13Y-2.44
X11.14Y-2.7
X11.22Y-2.6
X11.36Y-2.6
X11.44Y-2.32
X11.44Y-2.55
X11.44Y-6.06
X11.44Y-7.56
X11.49Y-2.6
X11.64Y-8.5
X11.86Y-2.6992
X11.9Y-2.18
X11.9Y-2.48
X11.9Y-2.6992
X11.94Y-2.6992
X11.95Y-7.12
X11.96Y-5.72
X11.96Y-5.88
X11.96Y-7.37
X12.22Y-3.13
X12.32Y-4.59
X12.35Y-3.13
X12.4Y-3.53
X12.48Y-3.13
X12.55Y-5.4
X12.55Y-5.94
X12.59Y-2.09
X12.59Y-5.44
X12.59Y-5.94
X12.6Y-8.75
X12.63Y-5.48
X12.63Y-5.94
X12.67Y-5.52
X12.67Y-5.94
X12.71Y-5.56
X12.71Y-5.94
X12.71Y-7.18
X12.71Y-7.42
X12.75Y-5.6
X12.75Y-5.94
X12.75Y-7.18
X12.75Y-7.42
X12.79Y-5.64
X12.79Y-5.94
X12.79Y-7.18
X12.79Y-7.42
X12.83Y-5.68
X12.83Y-5.94
X12.83Y-7.18
X12.83Y-7.42
X12.87Y-5.64
X12.87Y-5.94
X12.87Y-7.18
X12.87Y-7.37
X12.91Y-5.6
X12.91Y-5.94
X12.91Y-7.18
X12.91Y-7.32
X12.95Y-5.56
X12.95Y-5.94
X12.95Y-7.18
X12.95Y-7.28
X12.99Y-5.52
X12.99Y-5.94
X13.03Y-5.48
X13.03Y-5.88
X13.07Y-5.44
X13.07Y-5.84
X13.11Y-5.4
X13.11Y-5.8
X13.15Y-5.36
X13.15Y-5.76
X13.41Y-3.2
X13.42Y-2.6
X13.43Y-5.29
X13.48Y-5.29
X13.53Y-5.29
X13.82Y-5.59
X13.864Y-6.112
X13.864Y-6.352
X13.864Y-6.612
X13.864Y-6.872
X13.864Y-7.122
X13.864Y-7.382
X13.864Y-7.652
X13.867Y-7.913
X13.98Y-5.75
X13.9878Y-5.4789
X14.05Y-2.09
X14.25Y-3.86
X14.25Y-5.33
X14.25Y-8.65
T2
X3.89Y-6.1246
X3.89Y-6.33
X3.89Y-6.58
X3.89Y-6.83
X3.89Y-7.08
X3.89Y-7.33
X3.89Y-7.58
X3.89Y-7.83
X4.12Y-4.44
X4.24Y-5.79
X4.6Y-5.79
X4.65Y-4.44
X5.86Y-5.79
X6.22Y-5.84
X6.61Y-3.2506
X6.61Y-3.38
X7.33Y-2.23
X7.33Y-2.44
X8.11Y-5.84
X8.28Y-5.84
X9.05Y-5.84
X10.09Y-5.84
X13.52Y-5.96
X13.52Y-6.2546
X13.52Y-6.5246
X13.52Y-6.7846
X13.52Y-7.0446
X13.52Y-7.2946
X13.52Y-7.5546
X13.52Y-7.8246
X13.52Y-8.09
T3
X4.6271Y-5.9429
X4.6271Y-6.2429
X4.63Y-6.47
X4.63Y-6.77
X4.63Y-7.4224
X4.63Y-7.7224
X4.63Y-7.9424
X4.63Y-8.2424
X4.8271Y-5.9429
X4.8271Y-6.2429
X4.83Y-7.4224
X4.83Y-7.7224
X4.93Y-6.47
X4.93Y-6.77
X4.93Y-7.9424
X4.93Y-8.2424
X5.0271Y-5.9429
X5.0271Y-6.2429
X5.03Y-7.4224
X5.03Y-7.7224
X5.13Y-6.47
X5.13Y-6.77
X5.13Y-7.9424
X5.13Y-8.2424
X5.3271Y-5.9429
X5.3271Y-6.2429
X5.33Y-6.47
X5.33Y-6.77
X5.33Y-7.4224
X5.33Y-7.7224
X5.33Y-7.9424
X5.33Y-8.2424
X5.63Y-5.94
X5.63Y-6.24
X5.63Y-6.47
X5.63Y-6.77
X5.63Y-7.42
X5.63Y-7.72
X5.63Y-7.9424
X5.63Y-8.2424
X5.83Y-5.94
X5.83Y-6.24
X5.83Y-7.42
X5.83Y-7.72
X5.93Y-6.47
X5.93Y-6.77
X5.93Y-7.9424
X5.93Y-8.2424
X6.03Y-5.94
X6.03Y-6.24
X6.03Y-7.42
X6.03Y-7.72
X6.13Y-6.47
X6.13Y-6.77
X6.13Y-7.9424
X6.13Y-8.2424
X6.33Y-5.94
X6.33Y-6.24
X6.33Y-6.47
X6.33Y-6.77
X6.33Y-7.42
X6.33Y-7.72
X6.33Y-7.9424
X6.33Y-8.2424
X6.65Y-5.9376
X6.65Y-6.2376
X6.65Y-6.46
X6.65Y-6.76
X6.65Y-7.42
X6.65Y-7.72
X6.65Y-7.95
X6.65Y-8.25
X6.85Y-5.9376
X6.85Y-6.2376
X6.85Y-7.42
X6.85Y-7.72
X6.95Y-6.46
X6.95Y-6.76
X6.95Y-7.95
X6.95Y-8.25
X7.05Y-5.9376
X7.05Y-6.2376
X7.05Y-7.42
X7.05Y-7.72
X7.15Y-6.46
X7.15Y-6.76
X7.15Y-7.95
X7.15Y-8.25
X7.35Y-5.9376
X7.35Y-6.2376
X7.35Y-6.46
X7.35Y-6.76
X7.35Y-7.42
X7.35Y-7.72
X7.35Y-7.95
X7.35Y-8.25
X7.65Y-5.9376
X7.65Y-6.2376
X7.65Y-6.46
X7.65Y-6.76
X7.65Y-7.42
X7.65Y-7.72
X7.65Y-7.95
X7.65Y-8.25
X7.85Y-5.9376
X7.85Y-6.2376
X7.85Y-7.42
X7.85Y-7.72
X7.95Y-6.46
X7.95Y-6.76
X7.95Y-7.95
X7.95Y-8.25
X8.05Y-5.9376
X8.05Y-6.2376
X8.05Y-7.42
X8.05Y-7.72
X8.15Y-6.46
X8.15Y-6.76
X8.15Y-7.95
X8.15Y-8.25
X8.35Y-5.9376
X8.35Y-6.2376
X8.35Y-6.46
X8.35Y-6.76
X8.35Y-7.42
X8.35Y-7.72
X8.35Y-7.95
X8.35Y-8.25
X8.65Y-7.42
X8.65Y-7.72
X8.65Y-7.96
X8.65Y-8.26
X8.6529Y-5.9371
X8.6529Y-6.2371
X8.6529Y-6.4596
X8.6529Y-6.7596
X8.85Y-7.42
X8.85Y-7.72
X8.8529Y-5.9371
X8.8529Y-6.2371
X8.95Y-7.96
X8.95Y-8.26
X8.9529Y-6.4596
X8.9529Y-6.7596
X9.05Y-7.42
X9.05Y-7.72
X9.0529Y-5.9371
X9.0529Y-6.2371
X9.15Y-7.96
X9.15Y-8.26
X9.1529Y-6.4596
X9.1529Y-6.7596
X9.35Y-7.42
X9.35Y-7.72
X9.35Y-7.96
X9.35Y-8.26
X9.3529Y-5.9371
X9.3529Y-6.2371
X9.3529Y-6.4596
X9.3529Y-6.7596
X9.65Y-7.42
X9.65Y-7.72
X9.65Y-7.96
X9.65Y-8.26
X9.6529Y-5.9371
X9.6529Y-6.2371
X9.6529Y-6.4596
X9.6529Y-6.7596
X9.85Y-7.42
X9.85Y-7.72
X9.8529Y-5.9371
X9.8529Y-6.2371
X9.95Y-7.96
X9.95Y-8.26
X9.9529Y-6.4596
X9.9529Y-6.7596
X10.05Y-7.42
X10.05Y-7.72
X10.0529Y-5.9371
X10.0529Y-6.2371
X10.15Y-7.96
X10.15Y-8.26
X10.1529Y-6.4596
X10.1529Y-6.7596
X10.35Y-7.42
X10.35Y-7.72
X10.35Y-7.96
X10.35Y-8.26
X10.3529Y-5.9371
X10.3529Y-6.2371
X10.3529Y-6.4596
X10.3529Y-6.7596
X10.65Y-7.42
X10.65Y-7.72
X10.65Y-7.96
X10.65Y-8.26
X10.6529Y-5.9371
X10.6529Y-6.2371
X10.6529Y-6.4596
X10.6529Y-6.7596
X10.85Y-7.42
X10.85Y-7.72
X10.8529Y-5.9371
X10.8529Y-6.2371
X10.95Y-7.96
X10.95Y-8.26
X10.9529Y-6.4596
X10.9529Y-6.7596
X11.05Y-7.42
X11.05Y-7.72
X11.0529Y-5.9371
X11.0529Y-6.2371
X11.15Y-7.96
X11.15Y-8.26
X11.1529Y-6.4596
X11.1529Y-6.7596
X11.35Y-7.42
X11.35Y-7.72
X11.35Y-7.96
X11.35Y-8.26
X11.3529Y-5.9371
X11.3529Y-6.2371
X11.3529Y-6.4596
X11.3529Y-6.7596
X11.65Y-7.42
X11.65Y-7.72
X11.65Y-7.96
X11.65Y-8.26
X11.6529Y-5.9371
X11.6529Y-6.2371
X11.6529Y-6.4596
X11.6529Y-6.7596
X11.85Y-7.42
X11.85Y-7.72
X11.8529Y-5.9371
X11.8529Y-6.2371
X11.95Y-7.96
X11.95Y-8.26
X11.9529Y-6.4596
X11.9529Y-6.7596
X12.05Y-7.42
X12.05Y-7.72
X12.0529Y-5.9371
X12.0529Y-6.2371
X12.15Y-7.96
X12.15Y-8.26
X12.1529Y-6.4596
X12.1529Y-6.7596
X12.35Y-7.42
X12.35Y-7.72
X12.35Y-7.96
X12.35Y-8.26
X12.3529Y-5.9371
X12.3529Y-6.2371
X12.3529Y-6.4596
X12.3529Y-6.7596
T4
X5.2744Y-2.1476
X5.2744Y-2.2476
X5.2744Y-2.3476
X5.2744Y-2.4476
X5.2744Y-2.5476
X5.2744Y-2.6476
X5.2744Y-2.7476
X5.2744Y-2.8476
X5.2744Y-2.9476
X5.2744Y-3.0476
X5.2744Y-3.1476
X5.2744Y-3.2476
X5.2744Y-3.3476
X5.2744Y-3.4476
X5.2744Y-3.5476
X5.2744Y-3.6476
X5.2744Y-3.7476
X5.2744Y-3.8476
X5.2744Y-3.9476
X5.2744Y-4.0476
X5.9744Y-2.1476
X5.9744Y-2.2476
X5.9744Y-2.3476
X5.9744Y-2.4476
X5.9744Y-2.5476
X5.9744Y-2.6476
X5.9744Y-2.7476
X5.9744Y-2.8476
X5.9744Y-2.9476
X5.9744Y-3.0476
X5.9744Y-3.1476
X5.9744Y-3.2476
X5.9744Y-3.3476
X5.9744Y-3.4476
X5.9744Y-3.5476
X5.9744Y-3.6476
X5.9744Y-3.7476
X5.9744Y-3.8476
X5.9744Y-3.9476
X5.9744Y-4.0476
X6.88Y-2.85
X6.98Y-2.85
X7.08Y-2.85
X7.18Y-2.85
X7.28Y-2.85
X7.38Y-2.85
X7.48Y-2.85
X7.58Y-2.85
X11.3799Y-3.0748
X11.3799Y-3.1732
X11.3799Y-3.2717
X11.9508Y-3.0748
X11.9508Y-3.2717
X12.3248Y-3.626
X12.3248Y-3.7244
X12.3248Y-3.8228
X12.8957Y-3.626
X12.8957Y-3.8228
T5
X3.6496Y-4.25
X3.6496Y-4.65
T4
G00X3.272Y-4.8511
M15
G01X3.272Y-4.9377
M16
G05
G00X3.4491Y-5.0834
M15
G01X3.3625Y-5.0834
M16
G05
G00X3.52Y-4.8432
M15
G01X3.52Y-4.9456
M16
G05
T6
G00X11.6654Y-2.9528
M15
G01X11.685Y-2.9528
M16
G05
G00X11.6654Y-3.3937
M15
G01X11.685Y-3.3937
M16
G05
G00X12.6102Y-3.5039
M15
G01X12.6299Y-3.5039
M16
G05
G00X12.6102Y-3.9449
M15
G01X12.6299Y-3.9449
M16
G05
M30
