%TF.GenerationSoftware,KiCad,Pcbnew,9.0.4*%
%TF.CreationDate,2025-09-08T12:23:33+02:00*%
%TF.ProjectId,RelaisAddierer,52656c61-6973-4416-9464-69657265722e,0.1*%
%TF.SameCoordinates,Original*%
%TF.FileFunction,Paste,Top*%
%TF.FilePolarity,Positive*%
%FSLAX46Y46*%
G04 Gerber Fmt 4.6, Leading zero omitted, Abs format (unit mm)*
G04 Created by KiCad (PCBNEW 9.0.4) date 2025-09-08 12:23:33*
%MOMM*%
%LPD*%
G01*
G04 APERTURE LIST*
G04 Aperture macros list*
%AMRoundRect*
0 Rectangle with rounded corners*
0 $1 Rounding radius*
0 $2 $3 $4 $5 $6 $7 $8 $9 X,Y pos of 4 corners*
0 Add a 4 corners polygon primitive as box body*
4,1,4,$2,$3,$4,$5,$6,$7,$8,$9,$2,$3,0*
0 Add four circle primitives for the rounded corners*
1,1,$1+$1,$2,$3*
1,1,$1+$1,$4,$5*
1,1,$1+$1,$6,$7*
1,1,$1+$1,$8,$9*
0 Add four rect primitives between the rounded corners*
20,1,$1+$1,$2,$3,$4,$5,0*
20,1,$1+$1,$4,$5,$6,$7,0*
20,1,$1+$1,$6,$7,$8,$9,0*
20,1,$1+$1,$8,$9,$2,$3,0*%
G04 Aperture macros list end*
%ADD10RoundRect,0.250000X0.450000X-0.350000X0.450000X0.350000X-0.450000X0.350000X-0.450000X-0.350000X0*%
%ADD11RoundRect,0.150000X0.587500X0.150000X-0.587500X0.150000X-0.587500X-0.150000X0.587500X-0.150000X0*%
%ADD12RoundRect,0.250000X-0.450000X0.325000X-0.450000X-0.325000X0.450000X-0.325000X0.450000X0.325000X0*%
%ADD13RoundRect,0.250000X0.337500X0.475000X-0.337500X0.475000X-0.337500X-0.475000X0.337500X-0.475000X0*%
%ADD14RoundRect,0.250000X-0.475000X0.337500X-0.475000X-0.337500X0.475000X-0.337500X0.475000X0.337500X0*%
%ADD15RoundRect,0.250000X2.375000X-2.025000X2.375000X2.025000X-2.375000X2.025000X-2.375000X-2.025000X0*%
%ADD16RoundRect,0.250000X0.300000X-2.050000X0.300000X2.050000X-0.300000X2.050000X-0.300000X-2.050000X0*%
%ADD17RoundRect,0.150000X-0.200000X0.150000X-0.200000X-0.150000X0.200000X-0.150000X0.200000X0.150000X0*%
%ADD18RoundRect,0.150000X-0.587500X-0.150000X0.587500X-0.150000X0.587500X0.150000X-0.587500X0.150000X0*%
%ADD19RoundRect,0.250000X-0.350000X-0.450000X0.350000X-0.450000X0.350000X0.450000X-0.350000X0.450000X0*%
%ADD20RoundRect,0.250000X1.950000X1.000000X-1.950000X1.000000X-1.950000X-1.000000X1.950000X-1.000000X0*%
%ADD21RoundRect,0.250000X0.350000X0.450000X-0.350000X0.450000X-0.350000X-0.450000X0.350000X-0.450000X0*%
%ADD22RoundRect,0.250000X-0.450000X0.350000X-0.450000X-0.350000X0.450000X-0.350000X0.450000X0.350000X0*%
%ADD23RoundRect,0.100000X0.100000X-0.637500X0.100000X0.637500X-0.100000X0.637500X-0.100000X-0.637500X0*%
%ADD24RoundRect,0.250000X0.400000X0.450000X-0.400000X0.450000X-0.400000X-0.450000X0.400000X-0.450000X0*%
%ADD25RoundRect,0.250000X1.000000X-1.950000X1.000000X1.950000X-1.000000X1.950000X-1.000000X-1.950000X0*%
%ADD26RoundRect,0.100000X-0.637500X-0.100000X0.637500X-0.100000X0.637500X0.100000X-0.637500X0.100000X0*%
%ADD27RoundRect,0.150000X0.200000X-0.150000X0.200000X0.150000X-0.200000X0.150000X-0.200000X-0.150000X0*%
%ADD28RoundRect,0.250000X-1.950000X-1.000000X1.950000X-1.000000X1.950000X1.000000X-1.950000X1.000000X0*%
G04 APERTURE END LIST*
D10*
%TO.C,R92*%
X251450000Y-109220000D03*
X251450000Y-107220000D03*
%TD*%
D11*
%TO.C,Q24*%
X351838500Y-197562000D03*
X351838500Y-195662000D03*
X349963500Y-196612000D03*
%TD*%
D10*
%TO.C,R11*%
X86764360Y-157834803D03*
X86764360Y-155834803D03*
%TD*%
%TO.C,R72*%
X231130000Y-78740000D03*
X231130000Y-76740000D03*
%TD*%
D12*
%TO.C,D47*%
X231130000Y-81770000D03*
X231130000Y-83820000D03*
%TD*%
D13*
%TO.C,C2*%
X83101000Y-145034000D03*
X81026000Y-145034000D03*
%TD*%
D14*
%TO.C,C1*%
X96266000Y-74633000D03*
X96266000Y-76708000D03*
%TD*%
D10*
%TO.C,R41*%
X220970000Y-93980000D03*
X220970000Y-91980000D03*
%TD*%
D15*
%TO.C,U4*%
X103397000Y-68211000D03*
X108947000Y-68211000D03*
X103397000Y-63361000D03*
X108947000Y-63361000D03*
D16*
X103632000Y-74936000D03*
X108712000Y-74936000D03*
%TD*%
D10*
%TO.C,R75*%
X215890000Y-78740000D03*
X215890000Y-76740000D03*
%TD*%
D12*
%TO.C,D41*%
X215890000Y-97010000D03*
X215890000Y-99060000D03*
%TD*%
D17*
%TO.C,D223*%
X291846000Y-192978000D03*
X291846000Y-191578000D03*
%TD*%
D18*
%TO.C,Q3*%
X90271860Y-168584803D03*
X90271860Y-170484803D03*
X92146860Y-169534803D03*
%TD*%
D19*
%TO.C,R17*%
X94654360Y-161914803D03*
X96654360Y-161914803D03*
%TD*%
D20*
%TO.C,C8*%
X91820000Y-99000000D03*
X83420000Y-99000000D03*
%TD*%
D11*
%TO.C,Q12*%
X102306860Y-176834803D03*
X102306860Y-174934803D03*
X100431860Y-175884803D03*
%TD*%
D19*
%TO.C,R20*%
X94654360Y-158104803D03*
X96654360Y-158104803D03*
%TD*%
D17*
%TO.C,D205*%
X215718500Y-155759500D03*
X215718500Y-154359500D03*
%TD*%
%TO.C,D215*%
X293116000Y-168148000D03*
X293116000Y-166748000D03*
%TD*%
D19*
%TO.C,R27*%
X94654360Y-187314803D03*
X96654360Y-187314803D03*
%TD*%
D10*
%TO.C,R18*%
X86764360Y-189584803D03*
X86764360Y-187584803D03*
%TD*%
%TO.C,R91*%
X246370000Y-109220000D03*
X246370000Y-107220000D03*
%TD*%
D21*
%TO.C,R65*%
X347456000Y-188484000D03*
X345456000Y-188484000D03*
%TD*%
%TO.C,R55*%
X347456000Y-178070000D03*
X345456000Y-178070000D03*
%TD*%
D19*
%TO.C,R29*%
X94654360Y-193664803D03*
X96654360Y-193664803D03*
%TD*%
D17*
%TO.C,D213*%
X165426500Y-167951500D03*
X165426500Y-166551500D03*
%TD*%
D19*
%TO.C,R78*%
X173900000Y-133350000D03*
X175900000Y-133350000D03*
%TD*%
D12*
%TO.C,D36*%
X241290000Y-97010000D03*
X241290000Y-99060000D03*
%TD*%
D11*
%TO.C,Q11*%
X102306860Y-170484803D03*
X102306860Y-168584803D03*
X100431860Y-169534803D03*
%TD*%
D12*
%TO.C,D66*%
X246370000Y-112250000D03*
X246370000Y-114300000D03*
%TD*%
D22*
%TO.C,R4*%
X310388000Y-81296000D03*
X310388000Y-83296000D03*
%TD*%
D11*
%TO.C,Q14*%
X102306860Y-189534803D03*
X102306860Y-187634803D03*
X100431860Y-188584803D03*
%TD*%
D12*
%TO.C,D46*%
X236210000Y-81770000D03*
X236210000Y-83820000D03*
%TD*%
D23*
%TO.C,U3*%
X151130000Y-116840000D03*
X151780000Y-116840000D03*
X152430000Y-116840000D03*
X153080000Y-116840000D03*
X153730000Y-116840000D03*
X154380000Y-116840000D03*
X155030000Y-116840000D03*
X155680000Y-116840000D03*
X155680000Y-111115000D03*
X155030000Y-111115000D03*
X154380000Y-111115000D03*
X153730000Y-111115000D03*
X153080000Y-111115000D03*
X152430000Y-111115000D03*
X151780000Y-111115000D03*
X151130000Y-111115000D03*
%TD*%
D19*
%TO.C,R25*%
X94654360Y-180964803D03*
X96654360Y-180964803D03*
%TD*%
D10*
%TO.C,R40*%
X226050000Y-93980000D03*
X226050000Y-91980000D03*
%TD*%
D12*
%TO.C,D40*%
X220970000Y-97010000D03*
X220970000Y-99060000D03*
%TD*%
D21*
%TO.C,R50*%
X347456000Y-164862000D03*
X345456000Y-164862000D03*
%TD*%
%TO.C,R62*%
X347456000Y-197882000D03*
X345456000Y-197882000D03*
%TD*%
D17*
%TO.C,D219*%
X317500000Y-192978000D03*
X317500000Y-191578000D03*
%TD*%
%TO.C,D229*%
X191262000Y-206440000D03*
X191262000Y-205040000D03*
%TD*%
D22*
%TO.C,R57*%
X355346000Y-202216000D03*
X355346000Y-204216000D03*
%TD*%
D11*
%TO.C,Q17*%
X351838500Y-158446000D03*
X351838500Y-156546000D03*
X349963500Y-157496000D03*
%TD*%
D10*
%TO.C,R12*%
X86764360Y-164184803D03*
X86764360Y-162184803D03*
%TD*%
D11*
%TO.C,Q26*%
X351838500Y-204166000D03*
X351838500Y-202266000D03*
X349963500Y-203216000D03*
%TD*%
D12*
%TO.C,D67*%
X251450000Y-112250000D03*
X251450000Y-114300000D03*
%TD*%
D17*
%TO.C,D208*%
X190246000Y-155578000D03*
X190246000Y-154178000D03*
%TD*%
D10*
%TO.C,R69*%
X246370000Y-78740000D03*
X246370000Y-76740000D03*
%TD*%
%TO.C,R3*%
X291846000Y-69834000D03*
X291846000Y-67834000D03*
%TD*%
D12*
%TO.C,D43*%
X251450000Y-81770000D03*
X251450000Y-83820000D03*
%TD*%
D24*
%TO.C,D57*%
X170000000Y-125730000D03*
X167100000Y-125730000D03*
%TD*%
D11*
%TO.C,Q16*%
X102306860Y-202234803D03*
X102306860Y-200334803D03*
X100431860Y-201284803D03*
%TD*%
D19*
%TO.C,R28*%
X94654360Y-177154803D03*
X96654360Y-177154803D03*
%TD*%
D12*
%TO.C,D48*%
X226050000Y-81770000D03*
X226050000Y-83820000D03*
%TD*%
D19*
%TO.C,R81*%
X173900000Y-118110000D03*
X175900000Y-118110000D03*
%TD*%
D11*
%TO.C,Q9*%
X102306860Y-164134803D03*
X102306860Y-162234803D03*
X100431860Y-163184803D03*
%TD*%
D19*
%TO.C,R31*%
X94654360Y-200014803D03*
X96654360Y-200014803D03*
%TD*%
D10*
%TO.C,R21*%
X86764360Y-195934803D03*
X86764360Y-193934803D03*
%TD*%
D18*
%TO.C,Q29*%
X339803500Y-182184000D03*
X339803500Y-184084000D03*
X341678500Y-183134000D03*
%TD*%
D10*
%TO.C,R204*%
X164592000Y-84566000D03*
X164592000Y-82566000D03*
%TD*%
%TO.C,R2*%
X284988000Y-69850000D03*
X284988000Y-67850000D03*
%TD*%
D12*
%TO.C,D37*%
X236210000Y-97010000D03*
X236210000Y-99060000D03*
%TD*%
D17*
%TO.C,D207*%
X291918500Y-155251500D03*
X291918500Y-153851500D03*
%TD*%
%TO.C,D216*%
X191516000Y-168024000D03*
X191516000Y-166624000D03*
%TD*%
D10*
%TO.C,R88*%
X231130000Y-109220000D03*
X231130000Y-107220000D03*
%TD*%
D18*
%TO.C,Q202*%
X160352500Y-82362000D03*
X160352500Y-84262000D03*
X162227500Y-83312000D03*
%TD*%
D17*
%TO.C,D214*%
X242570000Y-167894000D03*
X242570000Y-166494000D03*
%TD*%
D19*
%TO.C,R76*%
X173826000Y-136906000D03*
X175826000Y-136906000D03*
%TD*%
D21*
%TO.C,R63*%
X347456000Y-181864000D03*
X345456000Y-181864000D03*
%TD*%
D10*
%TO.C,R203*%
X157734000Y-84312000D03*
X157734000Y-82312000D03*
%TD*%
D18*
%TO.C,Q31*%
X339803500Y-195662000D03*
X339803500Y-197562000D03*
X341678500Y-196612000D03*
%TD*%
D12*
%TO.C,D59*%
X210810000Y-112250000D03*
X210810000Y-114300000D03*
%TD*%
D18*
%TO.C,Q28*%
X339803500Y-175850000D03*
X339803500Y-177750000D03*
X341678500Y-176800000D03*
%TD*%
D11*
%TO.C,Q15*%
X102306860Y-195884803D03*
X102306860Y-193984803D03*
X100431860Y-194934803D03*
%TD*%
D12*
%TO.C,D62*%
X226050000Y-112250000D03*
X226050000Y-114300000D03*
%TD*%
D10*
%TO.C,R70*%
X241290000Y-78740000D03*
X241290000Y-76740000D03*
%TD*%
%TO.C,R38*%
X236210000Y-93980000D03*
X236210000Y-91980000D03*
%TD*%
%TO.C,R42*%
X215890000Y-93980000D03*
X215890000Y-91980000D03*
%TD*%
D13*
%TO.C,C5*%
X181864000Y-64008000D03*
X179789000Y-64008000D03*
%TD*%
D12*
%TO.C,D38*%
X231130000Y-97010000D03*
X231130000Y-99060000D03*
%TD*%
D17*
%TO.C,D220*%
X215718500Y-192978000D03*
X215718500Y-191578000D03*
%TD*%
D18*
%TO.C,Q25*%
X339803500Y-162642000D03*
X339803500Y-164542000D03*
X341678500Y-163592000D03*
%TD*%
D19*
%TO.C,R77*%
X173900000Y-110998000D03*
X175900000Y-110998000D03*
%TD*%
D17*
%TO.C,D222*%
X241046000Y-192724000D03*
X241046000Y-191324000D03*
%TD*%
%TO.C,D226*%
X114046000Y-205486000D03*
X114046000Y-204086000D03*
%TD*%
D18*
%TO.C,Q4*%
X90271860Y-175144803D03*
X90271860Y-177044803D03*
X92146860Y-176094803D03*
%TD*%
D17*
%TO.C,D204*%
X138938000Y-155386000D03*
X138938000Y-153986000D03*
%TD*%
D19*
%TO.C,R30*%
X94654360Y-183504803D03*
X96654360Y-183504803D03*
%TD*%
D10*
%TO.C,R71*%
X236210000Y-78740000D03*
X236210000Y-76740000D03*
%TD*%
D22*
%TO.C,R51*%
X355346000Y-188754000D03*
X355346000Y-190754000D03*
%TD*%
D17*
%TO.C,D202*%
X266518500Y-155567500D03*
X266518500Y-154167500D03*
%TD*%
D19*
%TO.C,R22*%
X94654360Y-174614803D03*
X96654360Y-174614803D03*
%TD*%
D10*
%TO.C,R87*%
X226050000Y-109220000D03*
X226050000Y-107220000D03*
%TD*%
D12*
%TO.C,D39*%
X226050000Y-97010000D03*
X226050000Y-99060000D03*
%TD*%
D21*
%TO.C,R56*%
X347456000Y-162322000D03*
X345456000Y-162322000D03*
%TD*%
D17*
%TO.C,D224*%
X190246000Y-192978000D03*
X190246000Y-191578000D03*
%TD*%
D22*
%TO.C,R54*%
X355346000Y-195612000D03*
X355346000Y-197612000D03*
%TD*%
%TO.C,R45*%
X355346000Y-162592000D03*
X355346000Y-164592000D03*
%TD*%
D19*
%TO.C,R15*%
X94654360Y-155564803D03*
X96654360Y-155564803D03*
%TD*%
D17*
%TO.C,D211*%
X216408000Y-167894000D03*
X216408000Y-166494000D03*
%TD*%
D22*
%TO.C,R1*%
X288544000Y-67834000D03*
X288544000Y-69834000D03*
%TD*%
D12*
%TO.C,D60*%
X215890000Y-112250000D03*
X215890000Y-114300000D03*
%TD*%
D10*
%TO.C,R74*%
X220970000Y-78740000D03*
X220970000Y-76740000D03*
%TD*%
D20*
%TO.C,C11*%
X91820000Y-82490000D03*
X83420000Y-82490000D03*
%TD*%
D12*
%TO.C,D50*%
X215890000Y-81770000D03*
X215890000Y-83820000D03*
%TD*%
D25*
%TO.C,C9*%
X342392000Y-145932000D03*
X342392000Y-137532000D03*
%TD*%
D11*
%TO.C,Q6*%
X102306860Y-157784803D03*
X102306860Y-155884803D03*
X100431860Y-156834803D03*
%TD*%
D22*
%TO.C,R47*%
X355346000Y-175800000D03*
X355346000Y-177800000D03*
%TD*%
D12*
%TO.C,D64*%
X236210000Y-112250000D03*
X236210000Y-114300000D03*
%TD*%
D26*
%TO.C,U2*%
X81015000Y-147066000D03*
X81015000Y-147716000D03*
X81015000Y-148366000D03*
X81015000Y-149016000D03*
X81015000Y-149666000D03*
X81015000Y-150316000D03*
X81015000Y-150966000D03*
X81015000Y-151616000D03*
X86740000Y-151616000D03*
X86740000Y-150966000D03*
X86740000Y-150316000D03*
X86740000Y-149666000D03*
X86740000Y-149016000D03*
X86740000Y-148366000D03*
X86740000Y-147716000D03*
X86740000Y-147066000D03*
%TD*%
D24*
%TO.C,D58*%
X170000000Y-121920000D03*
X167100000Y-121920000D03*
%TD*%
%TO.C,D54*%
X170000000Y-114808000D03*
X167100000Y-114808000D03*
%TD*%
%TO.C,D51*%
X169926000Y-136906000D03*
X167026000Y-136906000D03*
%TD*%
D10*
%TO.C,R202*%
X164846000Y-90154000D03*
X164846000Y-88154000D03*
%TD*%
D21*
%TO.C,R48*%
X347456000Y-158639000D03*
X345456000Y-158639000D03*
%TD*%
D10*
%TO.C,R89*%
X236210000Y-109220000D03*
X236210000Y-107220000D03*
%TD*%
%TO.C,R39*%
X231130000Y-93980000D03*
X231130000Y-91980000D03*
%TD*%
D21*
%TO.C,R59*%
X347456000Y-168926000D03*
X345456000Y-168926000D03*
%TD*%
D10*
%TO.C,R201*%
X157734000Y-90138000D03*
X157734000Y-88138000D03*
%TD*%
D19*
%TO.C,R33*%
X94654360Y-196204803D03*
X96654360Y-196204803D03*
%TD*%
D12*
%TO.C,D34*%
X251450000Y-97010000D03*
X251450000Y-99060000D03*
%TD*%
D10*
%TO.C,R43*%
X126492000Y-102346000D03*
X126492000Y-100346000D03*
%TD*%
D18*
%TO.C,Q8*%
X90271860Y-193984803D03*
X90271860Y-195884803D03*
X92146860Y-194934803D03*
%TD*%
D17*
%TO.C,D227*%
X216154000Y-206694000D03*
X216154000Y-205294000D03*
%TD*%
%TO.C,D201*%
X164338000Y-155386000D03*
X164338000Y-153986000D03*
%TD*%
D24*
%TO.C,D53*%
X170000000Y-133350000D03*
X167100000Y-133350000D03*
%TD*%
%TO.C,D56*%
X170000000Y-118110000D03*
X167100000Y-118110000D03*
%TD*%
D26*
%TO.C,U1*%
X353137500Y-141275000D03*
X353137500Y-141925000D03*
X353137500Y-142575000D03*
X353137500Y-143225000D03*
X353137500Y-143875000D03*
X353137500Y-144525000D03*
X353137500Y-145175000D03*
X353137500Y-145825000D03*
X358862500Y-145825000D03*
X358862500Y-145175000D03*
X358862500Y-144525000D03*
X358862500Y-143875000D03*
X358862500Y-143225000D03*
X358862500Y-142575000D03*
X358862500Y-141925000D03*
X358862500Y-141275000D03*
%TD*%
D17*
%TO.C,D206*%
X241118500Y-155059500D03*
X241118500Y-153659500D03*
%TD*%
%TO.C,D212*%
X266954000Y-167894000D03*
X266954000Y-166494000D03*
%TD*%
D21*
%TO.C,R66*%
X347456000Y-195342000D03*
X345456000Y-195342000D03*
%TD*%
D10*
%TO.C,R24*%
X86764360Y-202284803D03*
X86764360Y-200284803D03*
%TD*%
%TO.C,R73*%
X226050000Y-78740000D03*
X226050000Y-76740000D03*
%TD*%
%TO.C,R86*%
X220970000Y-109220000D03*
X220970000Y-107220000D03*
%TD*%
%TO.C,R37*%
X241290000Y-93980000D03*
X241290000Y-91980000D03*
%TD*%
D17*
%TO.C,D218*%
X266446000Y-192978000D03*
X266446000Y-191578000D03*
%TD*%
D10*
%TO.C,R13*%
X86764360Y-170534803D03*
X86764360Y-168534803D03*
%TD*%
D24*
%TO.C,D55*%
X170000000Y-129540000D03*
X167100000Y-129540000D03*
%TD*%
D11*
%TO.C,Q18*%
X351838500Y-164542000D03*
X351838500Y-162642000D03*
X349963500Y-163592000D03*
%TD*%
D17*
%TO.C,D209*%
X114300000Y-168148000D03*
X114300000Y-166748000D03*
%TD*%
D19*
%TO.C,R80*%
X173900000Y-129540000D03*
X175900000Y-129540000D03*
%TD*%
D10*
%TO.C,R84*%
X210810000Y-109220000D03*
X210810000Y-107220000D03*
%TD*%
D19*
%TO.C,R82*%
X173900000Y-125730000D03*
X175900000Y-125730000D03*
%TD*%
D22*
%TO.C,R44*%
X355346000Y-156496000D03*
X355346000Y-158496000D03*
%TD*%
D25*
%TO.C,C10*%
X99822000Y-146186000D03*
X99822000Y-137786000D03*
%TD*%
D18*
%TO.C,Q10*%
X90271860Y-200334803D03*
X90271860Y-202234803D03*
X92146860Y-201284803D03*
%TD*%
D17*
%TO.C,D221*%
X138938000Y-193294000D03*
X138938000Y-191894000D03*
%TD*%
D12*
%TO.C,D44*%
X246370000Y-81770000D03*
X246370000Y-83820000D03*
%TD*%
D19*
%TO.C,R83*%
X173900000Y-121920000D03*
X175900000Y-121920000D03*
%TD*%
D17*
%TO.C,D203*%
X317500000Y-155640000D03*
X317500000Y-154240000D03*
%TD*%
D18*
%TO.C,Q1*%
X90271860Y-155884803D03*
X90271860Y-157784803D03*
X92146860Y-156834803D03*
%TD*%
D24*
%TO.C,D52*%
X170000000Y-110998000D03*
X167100000Y-110998000D03*
%TD*%
D21*
%TO.C,R67*%
X347456000Y-201946000D03*
X345456000Y-201946000D03*
%TD*%
D12*
%TO.C,D65*%
X241290000Y-112250000D03*
X241290000Y-114300000D03*
%TD*%
D10*
%TO.C,R90*%
X241290000Y-109220000D03*
X241290000Y-107220000D03*
%TD*%
%TO.C,R35*%
X251450000Y-93980000D03*
X251450000Y-91980000D03*
%TD*%
D17*
%TO.C,D210*%
X140008000Y-168298000D03*
X140008000Y-166898000D03*
%TD*%
%TO.C,D225*%
X140208000Y-206186000D03*
X140208000Y-204786000D03*
%TD*%
D18*
%TO.C,Q201*%
X160352500Y-88204000D03*
X160352500Y-90104000D03*
X162227500Y-89154000D03*
%TD*%
D14*
%TO.C,C3*%
X148844000Y-112754500D03*
X148844000Y-114829500D03*
%TD*%
D17*
%TO.C,D217*%
X164327500Y-192713500D03*
X164327500Y-191313500D03*
%TD*%
D18*
%TO.C,Q2*%
X90271860Y-162234803D03*
X90271860Y-164134803D03*
X92146860Y-163184803D03*
%TD*%
D19*
%TO.C,R32*%
X94654360Y-189854803D03*
X96654360Y-189854803D03*
%TD*%
D18*
%TO.C,Q32*%
X339803500Y-202266000D03*
X339803500Y-204166000D03*
X341678500Y-203216000D03*
%TD*%
D12*
%TO.C,D61*%
X220970000Y-112250000D03*
X220970000Y-114300000D03*
%TD*%
D18*
%TO.C,Q22*%
X339803500Y-155784000D03*
X339803500Y-157684000D03*
X341678500Y-156734000D03*
%TD*%
%TO.C,Q30*%
X339803500Y-188804000D03*
X339803500Y-190704000D03*
X341678500Y-189754000D03*
%TD*%
D19*
%TO.C,R19*%
X94654360Y-168264803D03*
X96654360Y-168264803D03*
%TD*%
D21*
%TO.C,R60*%
X347456000Y-191024000D03*
X345456000Y-191024000D03*
%TD*%
D11*
%TO.C,Q23*%
X351838500Y-190704000D03*
X351838500Y-188804000D03*
X349963500Y-189754000D03*
%TD*%
D17*
%TO.C,D231*%
X293116000Y-206694000D03*
X293116000Y-205294000D03*
%TD*%
D10*
%TO.C,R85*%
X215890000Y-109220000D03*
X215890000Y-107220000D03*
%TD*%
D11*
%TO.C,Q19*%
X351838500Y-171146000D03*
X351838500Y-169246000D03*
X349963500Y-170196000D03*
%TD*%
D21*
%TO.C,R61*%
X347456000Y-175530000D03*
X345456000Y-175530000D03*
%TD*%
D19*
%TO.C,R34*%
X94654360Y-202554803D03*
X96654360Y-202554803D03*
%TD*%
D21*
%TO.C,R58*%
X347456000Y-184404000D03*
X345456000Y-184404000D03*
%TD*%
D14*
%TO.C,C6*%
X158100000Y-56650000D03*
X158100000Y-58725000D03*
%TD*%
D19*
%TO.C,R79*%
X173900000Y-114808000D03*
X175900000Y-114808000D03*
%TD*%
D10*
%TO.C,R68*%
X251450000Y-78740000D03*
X251450000Y-76740000D03*
%TD*%
D21*
%TO.C,R52*%
X347456000Y-171466000D03*
X345456000Y-171466000D03*
%TD*%
D12*
%TO.C,D49*%
X220970000Y-81770000D03*
X220970000Y-83820000D03*
%TD*%
D10*
%TO.C,R16*%
X86764360Y-183234803D03*
X86764360Y-181234803D03*
%TD*%
D14*
%TO.C,C201*%
X302260000Y-65002500D03*
X302260000Y-67077500D03*
%TD*%
D21*
%TO.C,R53*%
X347456000Y-156099000D03*
X345456000Y-156099000D03*
%TD*%
D22*
%TO.C,R46*%
X355346000Y-169196000D03*
X355346000Y-171196000D03*
%TD*%
D12*
%TO.C,D45*%
X241290000Y-81770000D03*
X241290000Y-83820000D03*
%TD*%
D13*
%TO.C,C7*%
X358945000Y-139192000D03*
X356870000Y-139192000D03*
%TD*%
D12*
%TO.C,D63*%
X231130000Y-112250000D03*
X231130000Y-114300000D03*
%TD*%
D11*
%TO.C,Q13*%
X102306860Y-183184803D03*
X102306860Y-181284803D03*
X100431860Y-182234803D03*
%TD*%
%TO.C,Q20*%
X351838500Y-177750000D03*
X351838500Y-175850000D03*
X349963500Y-176800000D03*
%TD*%
D18*
%TO.C,Q5*%
X90271860Y-181284803D03*
X90271860Y-183184803D03*
X92146860Y-182234803D03*
%TD*%
D10*
%TO.C,R14*%
X86764360Y-176884803D03*
X86764360Y-174884803D03*
%TD*%
%TO.C,R5*%
X313690000Y-83296000D03*
X313690000Y-81296000D03*
%TD*%
%TO.C,R6*%
X316992000Y-83312000D03*
X316992000Y-81312000D03*
%TD*%
D19*
%TO.C,R23*%
X94654360Y-164454803D03*
X96654360Y-164454803D03*
%TD*%
D27*
%TO.C,D2*%
X123190000Y-96582000D03*
X123190000Y-97982000D03*
%TD*%
D21*
%TO.C,R64*%
X347456000Y-204470000D03*
X345456000Y-204470000D03*
%TD*%
D14*
%TO.C,C202*%
X159766000Y-66526500D03*
X159766000Y-68601500D03*
%TD*%
D17*
%TO.C,D230*%
X242062000Y-206694000D03*
X242062000Y-205294000D03*
%TD*%
%TO.C,D228*%
X267208000Y-206694000D03*
X267208000Y-205294000D03*
%TD*%
D10*
%TO.C,R205*%
X123190000Y-102346000D03*
X123190000Y-100346000D03*
%TD*%
D18*
%TO.C,Q7*%
X90271860Y-187634803D03*
X90271860Y-189534803D03*
X92146860Y-188584803D03*
%TD*%
D11*
%TO.C,Q21*%
X351838500Y-184084000D03*
X351838500Y-182184000D03*
X349963500Y-183134000D03*
%TD*%
D18*
%TO.C,Q27*%
X339803500Y-169246000D03*
X339803500Y-171146000D03*
X341678500Y-170196000D03*
%TD*%
D22*
%TO.C,R49*%
X355346000Y-182134000D03*
X355346000Y-184134000D03*
%TD*%
D10*
%TO.C,R36*%
X246370000Y-93980000D03*
X246370000Y-91980000D03*
%TD*%
D12*
%TO.C,D35*%
X246370000Y-97010000D03*
X246370000Y-99060000D03*
%TD*%
D19*
%TO.C,R26*%
X94654360Y-170804803D03*
X96654360Y-170804803D03*
%TD*%
D28*
%TO.C,C12*%
X117466000Y-70612000D03*
X125866000Y-70612000D03*
%TD*%
D17*
%TO.C,D232*%
X165426500Y-206440000D03*
X165426500Y-205040000D03*
%TD*%
M02*
