%TF.GenerationSoftware,KiCad,Pcbnew,9.0.4*%
%TF.CreationDate,2025-09-08T12:23:34+02:00*%
%TF.ProjectId,RelaisAddierer,52656c61-6973-4416-9464-69657265722e,0.1*%
%TF.SameCoordinates,Original*%
%TF.FileFunction,Soldermask,Bot*%
%TF.FilePolarity,Negative*%
%FSLAX46Y46*%
G04 Gerber Fmt 4.6, Leading zero omitted, Abs format (unit mm)*
G04 Created by KiCad (PCBNEW 9.0.4) date 2025-09-08 12:23:34*
%MOMM*%
%LPD*%
G01*
G04 APERTURE LIST*
G04 Aperture macros list*
%AMRoundRect*
0 Rectangle with rounded corners*
0 $1 Rounding radius*
0 $2 $3 $4 $5 $6 $7 $8 $9 X,Y pos of 4 corners*
0 Add a 4 corners polygon primitive as box body*
4,1,4,$2,$3,$4,$5,$6,$7,$8,$9,$2,$3,0*
0 Add four circle primitives for the rounded corners*
1,1,$1+$1,$2,$3*
1,1,$1+$1,$4,$5*
1,1,$1+$1,$6,$7*
1,1,$1+$1,$8,$9*
0 Add four rect primitives between the rounded corners*
20,1,$1+$1,$2,$3,$4,$5,0*
20,1,$1+$1,$4,$5,$6,$7,0*
20,1,$1+$1,$6,$7,$8,$9,0*
20,1,$1+$1,$8,$9,$2,$3,0*%
%AMFreePoly0*
4,1,37,0.603843,0.796157,0.639018,0.796157,0.711114,0.766294,0.766294,0.711114,0.796157,0.639018,0.796157,0.603843,0.800000,0.600000,0.800000,-0.600000,0.796157,-0.603843,0.796157,-0.639018,0.766294,-0.711114,0.711114,-0.766294,0.639018,-0.796157,0.603843,-0.796157,0.600000,-0.800000,0.000000,-0.800000,0.000000,-0.796148,-0.078414,-0.796148,-0.232228,-0.765552,-0.377117,-0.705537,
-0.507515,-0.618408,-0.618408,-0.507515,-0.705537,-0.377117,-0.765552,-0.232228,-0.796148,-0.078414,-0.796148,0.078414,-0.765552,0.232228,-0.705537,0.377117,-0.618408,0.507515,-0.507515,0.618408,-0.377117,0.705537,-0.232228,0.765552,-0.078414,0.796148,0.000000,0.796148,0.000000,0.800000,0.600000,0.800000,0.603843,0.796157,0.603843,0.796157,$1*%
%AMFreePoly1*
4,1,37,0.000000,0.796148,0.078414,0.796148,0.232228,0.765552,0.377117,0.705537,0.507515,0.618408,0.618408,0.507515,0.705537,0.377117,0.765552,0.232228,0.796148,0.078414,0.796148,-0.078414,0.765552,-0.232228,0.705537,-0.377117,0.618408,-0.507515,0.507515,-0.618408,0.377117,-0.705537,0.232228,-0.765552,0.078414,-0.796148,0.000000,-0.796148,0.000000,-0.800000,-0.600000,-0.800000,
-0.603843,-0.796157,-0.639018,-0.796157,-0.711114,-0.766294,-0.766294,-0.711114,-0.796157,-0.639018,-0.796157,-0.603843,-0.800000,-0.600000,-0.800000,0.600000,-0.796157,0.603843,-0.796157,0.639018,-0.766294,0.711114,-0.711114,0.766294,-0.639018,0.796157,-0.603843,0.796157,-0.600000,0.800000,0.000000,0.800000,0.000000,0.796148,0.000000,0.796148,$1*%
G04 Aperture macros list end*
%ADD10C,1.600000*%
%ADD11R,1.800000X1.600000*%
%ADD12RoundRect,0.249999X-0.850001X0.850001X-0.850001X-0.850001X0.850001X-0.850001X0.850001X0.850001X0*%
%ADD13C,2.200000*%
%ADD14R,2.000000X2.000000*%
%ADD15C,2.000000*%
%ADD16R,3.000000X2.500000*%
%ADD17C,2.700000*%
%ADD18R,1.700000X1.700000*%
%ADD19C,1.700000*%
%ADD20R,2.000000X4.600000*%
%ADD21O,2.000000X4.200000*%
%ADD22O,4.200000X2.000000*%
%ADD23C,4.300000*%
%ADD24C,1.850000*%
%ADD25RoundRect,0.200000X-0.600000X-0.600000X0.600000X-0.600000X0.600000X0.600000X-0.600000X0.600000X0*%
%ADD26FreePoly0,0.000000*%
%ADD27FreePoly1,0.000000*%
G04 APERTURE END LIST*
D10*
%TO.C,K228*%
X201930000Y-209550000D03*
X207010000Y-209550000D03*
X212090000Y-209550000D03*
X201930000Y-201930000D03*
X207010000Y-201930000D03*
X212090000Y-201930000D03*
D11*
X194310000Y-209550000D03*
D10*
X194310000Y-201930000D03*
%TD*%
%TO.C,K202*%
X153162000Y-150876000D03*
X148082000Y-150876000D03*
X143002000Y-150876000D03*
X153162000Y-158496000D03*
X148082000Y-158496000D03*
X143002000Y-158496000D03*
D11*
X160782000Y-150876000D03*
D10*
X160782000Y-158496000D03*
%TD*%
D12*
%TO.C,D9*%
X92700000Y-107950000D03*
D13*
X92700000Y-118110000D03*
%TD*%
D14*
%TO.C,SW1*%
X289050000Y-78100000D03*
D15*
X289050000Y-83100000D03*
X289050000Y-80600000D03*
D16*
X296550000Y-75000000D03*
X296550000Y-86200000D03*
D15*
X303550000Y-78100000D03*
X303550000Y-83100000D03*
%TD*%
D10*
%TO.C,K219*%
X179070000Y-188468000D03*
X173990000Y-188468000D03*
X168910000Y-188468000D03*
X179070000Y-196088000D03*
X173990000Y-196088000D03*
X168910000Y-196088000D03*
D11*
X186690000Y-188468000D03*
D10*
X186690000Y-196088000D03*
%TD*%
%TO.C,K222*%
X255270000Y-188468000D03*
X250190000Y-188468000D03*
X245110000Y-188468000D03*
X255270000Y-196088000D03*
X250190000Y-196088000D03*
X245110000Y-196088000D03*
D11*
X262890000Y-188468000D03*
D10*
X262890000Y-196088000D03*
%TD*%
%TO.C,K211*%
X176530000Y-171704000D03*
X181610000Y-171704000D03*
X186690000Y-171704000D03*
X176530000Y-164084000D03*
X181610000Y-164084000D03*
X186690000Y-164084000D03*
D11*
X168910000Y-171704000D03*
D10*
X168910000Y-164084000D03*
%TD*%
%TO.C,K230*%
X252730000Y-209804000D03*
X257810000Y-209804000D03*
X262890000Y-209804000D03*
X252730000Y-202184000D03*
X257810000Y-202184000D03*
X262890000Y-202184000D03*
D11*
X245110000Y-209804000D03*
D10*
X245110000Y-202184000D03*
%TD*%
%TO.C,K221*%
X229870000Y-188468000D03*
X224790000Y-188468000D03*
X219710000Y-188468000D03*
X229870000Y-196088000D03*
X224790000Y-196088000D03*
X219710000Y-196088000D03*
D11*
X237490000Y-188468000D03*
D10*
X237490000Y-196088000D03*
%TD*%
%TO.C,K201*%
X127689500Y-150948500D03*
X122609500Y-150948500D03*
X117529500Y-150948500D03*
X127689500Y-158568500D03*
X122609500Y-158568500D03*
X117529500Y-158568500D03*
D11*
X135309500Y-150948500D03*
D10*
X135309500Y-158568500D03*
%TD*%
D17*
%TO.C,J1*%
X169164000Y-72390000D03*
X169164000Y-101854000D03*
X198120000Y-72390000D03*
X198120000Y-101854000D03*
D18*
X174752000Y-72390000D03*
D19*
X177292000Y-72390000D03*
X179832000Y-72390000D03*
X182372000Y-72390000D03*
X184912000Y-72390000D03*
X187452000Y-72390000D03*
X189992000Y-72390000D03*
X192532000Y-72390000D03*
%TD*%
D10*
%TO.C,K210*%
X150622000Y-171958000D03*
X155702000Y-171958000D03*
X160782000Y-171958000D03*
X150622000Y-164338000D03*
X155702000Y-164338000D03*
X160782000Y-164338000D03*
D11*
X143002000Y-171958000D03*
D10*
X143002000Y-164338000D03*
%TD*%
%TO.C,K209*%
X125222000Y-171958000D03*
X130302000Y-171958000D03*
X135382000Y-171958000D03*
X125222000Y-164338000D03*
X130302000Y-164338000D03*
X135382000Y-164338000D03*
D11*
X117602000Y-171958000D03*
D10*
X117602000Y-164338000D03*
%TD*%
%TO.C,K213*%
X227402500Y-171693500D03*
X232482500Y-171693500D03*
X237562500Y-171693500D03*
X227402500Y-164073500D03*
X232482500Y-164073500D03*
X237562500Y-164073500D03*
D11*
X219782500Y-171693500D03*
D10*
X219782500Y-164073500D03*
%TD*%
%TO.C,K225*%
X125222000Y-209358000D03*
X130302000Y-209358000D03*
X135382000Y-209358000D03*
X125222000Y-201738000D03*
X130302000Y-201738000D03*
X135382000Y-201738000D03*
D11*
X117602000Y-209358000D03*
D10*
X117602000Y-201738000D03*
%TD*%
D14*
%TO.C,SW2*%
X313050000Y-92100000D03*
D15*
X313050000Y-97100000D03*
X313050000Y-94600000D03*
D16*
X320550000Y-89000000D03*
X320550000Y-100200000D03*
D15*
X327550000Y-92100000D03*
X327550000Y-97100000D03*
%TD*%
D10*
%TO.C,K229*%
X227330000Y-209804000D03*
X232410000Y-209804000D03*
X237490000Y-209804000D03*
X227330000Y-202184000D03*
X232410000Y-202184000D03*
X237490000Y-202184000D03*
D11*
X219710000Y-209804000D03*
D10*
X219710000Y-202184000D03*
%TD*%
%TO.C,K212*%
X201930000Y-171704000D03*
X207010000Y-171704000D03*
X212090000Y-171704000D03*
X201930000Y-164084000D03*
X207010000Y-164084000D03*
X212090000Y-164084000D03*
D11*
X194310000Y-171704000D03*
D10*
X194310000Y-164084000D03*
%TD*%
%TO.C,K206*%
X255342500Y-150803500D03*
X250262500Y-150803500D03*
X245182500Y-150803500D03*
X255342500Y-158423500D03*
X250262500Y-158423500D03*
X245182500Y-158423500D03*
D11*
X262962500Y-150803500D03*
D10*
X262962500Y-158423500D03*
%TD*%
D20*
%TO.C,J2*%
X89408000Y-124318000D03*
D21*
X83108000Y-124318000D03*
D22*
X86508000Y-129118000D03*
%TD*%
D23*
%TO.C,H2*%
X215900000Y-215900000D03*
%TD*%
D10*
%TO.C,K203*%
X179070000Y-150814000D03*
X173990000Y-150814000D03*
X168910000Y-150814000D03*
X179070000Y-158434000D03*
X173990000Y-158434000D03*
X168910000Y-158434000D03*
D11*
X186690000Y-150814000D03*
D10*
X186690000Y-158434000D03*
%TD*%
D23*
%TO.C,H3*%
X215900000Y-133350000D03*
%TD*%
%TO.C,H4*%
X82550000Y-69850000D03*
%TD*%
D10*
%TO.C,K218*%
X153162000Y-188468000D03*
X148082000Y-188468000D03*
X143002000Y-188468000D03*
X153162000Y-196088000D03*
X148082000Y-196088000D03*
X143002000Y-196088000D03*
D11*
X160782000Y-188468000D03*
D10*
X160782000Y-196088000D03*
%TD*%
%TO.C,K226*%
X150622000Y-209358000D03*
X155702000Y-209358000D03*
X160782000Y-209358000D03*
X150622000Y-201738000D03*
X155702000Y-201738000D03*
X160782000Y-201738000D03*
D11*
X143002000Y-209358000D03*
D10*
X143002000Y-201738000D03*
%TD*%
%TO.C,K205*%
X229942500Y-150803500D03*
X224862500Y-150803500D03*
X219782500Y-150803500D03*
X229942500Y-158423500D03*
X224862500Y-158423500D03*
X219782500Y-158423500D03*
D11*
X237562500Y-150803500D03*
D10*
X237562500Y-158423500D03*
%TD*%
%TO.C,K223*%
X280670000Y-188468000D03*
X275590000Y-188468000D03*
X270510000Y-188468000D03*
X280670000Y-196088000D03*
X275590000Y-196088000D03*
X270510000Y-196088000D03*
D11*
X288290000Y-188468000D03*
D10*
X288290000Y-196088000D03*
%TD*%
D23*
%TO.C,H5*%
X355600000Y-69850000D03*
%TD*%
D10*
%TO.C,K231*%
X278130000Y-209804000D03*
X283210000Y-209804000D03*
X288290000Y-209804000D03*
X278130000Y-202184000D03*
X283210000Y-202184000D03*
X288290000Y-202184000D03*
D11*
X270510000Y-209804000D03*
D10*
X270510000Y-202184000D03*
%TD*%
%TO.C,K207*%
X280742500Y-150803500D03*
X275662500Y-150803500D03*
X270582500Y-150803500D03*
X280742500Y-158423500D03*
X275662500Y-158423500D03*
X270582500Y-158423500D03*
D11*
X288362500Y-150803500D03*
D10*
X288362500Y-158423500D03*
%TD*%
%TO.C,K224*%
X306070000Y-188468000D03*
X300990000Y-188468000D03*
X295910000Y-188468000D03*
X306070000Y-196088000D03*
X300990000Y-196088000D03*
X295910000Y-196088000D03*
D11*
X313690000Y-188468000D03*
D10*
X313690000Y-196088000D03*
%TD*%
%TO.C,K204*%
X204470000Y-150814000D03*
X199390000Y-150814000D03*
X194310000Y-150814000D03*
X204470000Y-158434000D03*
X199390000Y-158434000D03*
X194310000Y-158434000D03*
D11*
X212090000Y-150814000D03*
D10*
X212090000Y-158434000D03*
%TD*%
%TO.C,K227*%
X176530000Y-209550000D03*
X181610000Y-209550000D03*
X186690000Y-209550000D03*
X176530000Y-201930000D03*
X181610000Y-201930000D03*
X186690000Y-201930000D03*
D11*
X168910000Y-209550000D03*
D10*
X168910000Y-201930000D03*
%TD*%
%TO.C,K220*%
X204470000Y-188468000D03*
X199390000Y-188468000D03*
X194310000Y-188468000D03*
X204470000Y-196088000D03*
X199390000Y-196088000D03*
X194310000Y-196088000D03*
D11*
X212090000Y-188468000D03*
D10*
X212090000Y-196088000D03*
%TD*%
%TO.C,K208*%
X306142500Y-150803500D03*
X301062500Y-150803500D03*
X295982500Y-150803500D03*
X306142500Y-158423500D03*
X301062500Y-158423500D03*
X295982500Y-158423500D03*
D11*
X313762500Y-150803500D03*
D10*
X313762500Y-158423500D03*
%TD*%
%TO.C,K232*%
X303530000Y-209804000D03*
X308610000Y-209804000D03*
X313690000Y-209804000D03*
X303530000Y-202184000D03*
X308610000Y-202184000D03*
X313690000Y-202184000D03*
D11*
X295910000Y-209804000D03*
D10*
X295910000Y-202184000D03*
%TD*%
D23*
%TO.C,H6*%
X356616000Y-215900000D03*
%TD*%
D13*
%TO.C,A1*%
X140135000Y-54680000D03*
D24*
X140435000Y-57710000D03*
X145285000Y-57710000D03*
D13*
X145585000Y-54680000D03*
D25*
X133970000Y-54550000D03*
D10*
X133970000Y-57090000D03*
D26*
X133970000Y-59630000D03*
D10*
X133970000Y-62170000D03*
X133970000Y-64710000D03*
X133970000Y-67250000D03*
X133970000Y-69790000D03*
D26*
X133970000Y-72330000D03*
D10*
X133970000Y-74870000D03*
X133970000Y-77410000D03*
X133970000Y-79950000D03*
X133970000Y-82490000D03*
D26*
X133970000Y-85030000D03*
D10*
X133970000Y-87570000D03*
X133970000Y-90110000D03*
X133970000Y-92650000D03*
X133970000Y-95190000D03*
D26*
X133970000Y-97730000D03*
D10*
X133970000Y-100270000D03*
X133970000Y-102810000D03*
X151750000Y-102810000D03*
X151750000Y-100270000D03*
D27*
X151750000Y-97730000D03*
D10*
X151750000Y-95190000D03*
X151750000Y-92650000D03*
X151750000Y-90110000D03*
X151750000Y-87570000D03*
D27*
X151750000Y-85030000D03*
D10*
X151750000Y-82490000D03*
X151750000Y-79950000D03*
X151750000Y-77410000D03*
X151750000Y-74870000D03*
D27*
X151750000Y-72330000D03*
D10*
X151750000Y-69790000D03*
X151750000Y-67250000D03*
X151750000Y-64710000D03*
X151750000Y-62170000D03*
D27*
X151750000Y-59630000D03*
D10*
X151750000Y-57090000D03*
X151750000Y-54550000D03*
%TD*%
D23*
%TO.C,H7*%
X82550000Y-215900000D03*
%TD*%
D10*
%TO.C,K215*%
X278202500Y-171693500D03*
X283282500Y-171693500D03*
X288362500Y-171693500D03*
X278202500Y-164073500D03*
X283282500Y-164073500D03*
X288362500Y-164073500D03*
D11*
X270582500Y-171693500D03*
D10*
X270582500Y-164073500D03*
%TD*%
%TO.C,K216*%
X303602500Y-171693500D03*
X308682500Y-171693500D03*
X313762500Y-171693500D03*
X303602500Y-164073500D03*
X308682500Y-164073500D03*
X313762500Y-164073500D03*
D11*
X295982500Y-171693500D03*
D10*
X295982500Y-164073500D03*
%TD*%
%TO.C,K214*%
X252802500Y-171693500D03*
X257882500Y-171693500D03*
X262962500Y-171693500D03*
X252802500Y-164073500D03*
X257882500Y-164073500D03*
X262962500Y-164073500D03*
D11*
X245182500Y-171693500D03*
D10*
X245182500Y-164073500D03*
%TD*%
%TO.C,K217*%
X127762000Y-188530000D03*
X122682000Y-188530000D03*
X117602000Y-188530000D03*
X127762000Y-196150000D03*
X122682000Y-196150000D03*
X117602000Y-196150000D03*
D11*
X135382000Y-188530000D03*
D10*
X135382000Y-196150000D03*
%TD*%
M02*
